<svg width="1440" height="748" viewBox="0 0 1440 748" fill="none" xmlns="http://www.w3.org/2000/svg">
<g clip-path="url(#clip0_817_3269)">
<path d="M1427.59 0.186321C1427.64 0.186321 1427.68 0.144611 1427.68 0.0931604C1427.68 0.0417093 1427.64 0 1427.59 0C1427.53 0 1427.49 0.0417093 1427.49 0.0931604C1427.49 0.144611 1427.53 0.186321 1427.59 0.186321Z" fill="#410071"/>
<path d="M1427.58 34.1117C1427.84 34.1117 1428.05 33.9035 1428.05 33.6467C1428.05 33.3898 1427.84 33.1816 1427.58 33.1816C1427.32 33.1816 1427.12 33.3898 1427.12 33.6467C1427.12 33.9035 1427.32 34.1117 1427.58 34.1117Z" fill="#410071"/>
<path d="M1427.58 66.2695C1427.07 66.2695 1426.66 66.6862 1426.66 67.2003C1426.66 67.7137 1427.07 68.1304 1427.58 68.1304C1428.1 68.1304 1428.51 67.7137 1428.51 67.2003C1428.51 66.6862 1428.1 66.2695 1427.58 66.2695Z" fill="#410071"/>
<path d="M1429.07 100.755C1429.07 99.9326 1428.41 99.2656 1427.59 99.2656C1426.77 99.2656 1426.1 99.9326 1426.1 100.755C1426.1 101.577 1426.77 102.243 1427.59 102.243C1428.41 102.243 1429.07 101.577 1429.07 100.755Z" fill="#410071"/>
<path d="M1394.1 0.184857C1394.15 0.184857 1394.19 0.143476 1394.19 0.0924287C1394.19 0.0413818 1394.15 0 1394.1 0C1394.05 0 1394 0.0413818 1394 0.0924287C1394 0.143476 1394.05 0.184857 1394.1 0.184857Z" fill="#410071"/>
<path d="M1394.1 34.1117C1394.35 34.1117 1394.56 33.9035 1394.56 33.6467C1394.56 33.3898 1394.35 33.1816 1394.1 33.1816C1393.84 33.1816 1393.63 33.3898 1393.63 33.6467C1393.63 33.9035 1393.84 34.1117 1394.1 34.1117Z" fill="#410071"/>
<path d="M1394.1 66.2695C1393.58 66.2695 1393.17 66.6862 1393.17 67.2003C1393.17 67.7137 1393.58 68.1304 1394.1 68.1304C1394.61 68.1304 1395.03 67.7137 1395.03 67.2003C1395.03 66.6862 1394.61 66.2695 1394.1 66.2695Z" fill="#410071"/>
<path d="M1395.58 100.755C1395.58 99.9326 1394.92 99.2656 1394.1 99.2656C1393.28 99.2656 1392.61 99.9326 1392.61 100.755C1392.61 101.577 1393.28 102.243 1394.1 102.243C1394.92 102.243 1395.58 101.577 1395.58 100.755Z" fill="#410071"/>
<path d="M1360.61 0.186321C1360.66 0.186321 1360.7 0.144611 1360.7 0.0931604C1360.7 0.0417093 1360.66 0 1360.61 0C1360.56 0 1360.52 0.0417093 1360.52 0.0931604C1360.52 0.144611 1360.56 0.186321 1360.61 0.186321Z" fill="#410071"/>
<path d="M1360.61 34.1117C1360.86 34.1117 1361.07 33.9035 1361.07 33.6467C1361.07 33.3898 1360.86 33.1816 1360.61 33.1816C1360.35 33.1816 1360.14 33.3898 1360.14 33.6467C1360.14 33.9035 1360.35 34.1117 1360.61 34.1117Z" fill="#410071"/>
<path d="M1360.61 66.2695C1360.1 66.2695 1359.68 66.6862 1359.68 67.2003C1359.68 67.7137 1360.1 68.1304 1360.61 68.1304C1361.12 68.1304 1361.54 67.7137 1361.54 67.2003C1361.54 66.6862 1361.12 66.2695 1360.61 66.2695Z" fill="#410071"/>
<path d="M1362.1 100.755C1362.1 99.9326 1361.43 99.2656 1360.61 99.2656C1359.79 99.2656 1359.12 99.9326 1359.12 100.755C1359.12 101.577 1359.79 102.243 1360.61 102.243C1361.43 102.243 1362.1 101.577 1362.1 100.755Z" fill="#410071"/>
<path d="M1327.12 0.184857C1327.17 0.184857 1327.22 0.143476 1327.22 0.0924287C1327.22 0.0413818 1327.17 0 1327.12 0C1327.07 0 1327.03 0.0413818 1327.03 0.0924287C1327.03 0.143476 1327.07 0.184857 1327.12 0.184857Z" fill="#410071"/>
<path d="M1327.12 34.1117C1327.38 34.1117 1327.59 33.9035 1327.59 33.6467C1327.59 33.3898 1327.38 33.1816 1327.12 33.1816C1326.87 33.1816 1326.66 33.3898 1326.66 33.6467C1326.66 33.9035 1326.87 34.1117 1327.12 34.1117Z" fill="#410071"/>
<path d="M1327.12 66.2695C1326.61 66.2695 1326.2 66.6862 1326.2 67.2003C1326.2 67.7137 1326.61 68.1304 1327.12 68.1304C1327.64 68.1304 1328.05 67.7137 1328.05 67.2003C1328.05 66.6862 1327.64 66.2695 1327.12 66.2695Z" fill="#410071"/>
<path d="M1328.61 100.755C1328.61 99.9326 1327.94 99.2656 1327.12 99.2656C1326.3 99.2656 1325.64 99.9326 1325.64 100.755C1325.64 101.577 1326.3 102.243 1327.12 102.243C1327.94 102.243 1328.61 101.577 1328.61 100.755Z" fill="#410071"/>
<path d="M1293.64 0.186321C1293.69 0.186321 1293.73 0.144611 1293.73 0.0931604C1293.73 0.0417093 1293.69 0 1293.64 0C1293.58 0 1293.54 0.0417093 1293.54 0.0931604C1293.54 0.144611 1293.58 0.186321 1293.64 0.186321Z" fill="#410071"/>
<path d="M1293.64 33.1816C1293.38 33.1816 1293.17 33.39 1293.17 33.6467C1293.17 33.9034 1293.38 34.1117 1293.64 34.1117C1293.89 34.1117 1294.1 33.9034 1294.1 33.6467C1294.1 33.39 1293.89 33.1816 1293.64 33.1816Z" fill="#410071"/>
<path d="M1293.64 66.2695C1293.13 66.2695 1292.71 66.6862 1292.71 67.2003C1292.71 67.7137 1293.13 68.1304 1293.64 68.1304C1294.15 68.1304 1294.57 67.7137 1294.57 67.2003C1294.57 66.6862 1294.15 66.2695 1293.64 66.2695Z" fill="#410071"/>
<path d="M1295.12 100.755C1295.12 99.9326 1294.46 99.2656 1293.64 99.2656C1292.82 99.2656 1292.15 99.9326 1292.15 100.755C1292.15 101.577 1292.82 102.243 1293.64 102.243C1294.46 102.243 1295.12 101.577 1295.12 100.755Z" fill="#410071"/>
<path d="M1260.15 0.184857C1260.2 0.184857 1260.24 0.143476 1260.24 0.0924287C1260.24 0.0413818 1260.2 0 1260.15 0C1260.1 0 1260.05 0.0413818 1260.05 0.0924287C1260.05 0.143476 1260.1 0.184857 1260.15 0.184857Z" fill="#410071"/>
<path d="M1260.15 34.1117C1260.41 34.1117 1260.62 33.9035 1260.62 33.6467C1260.62 33.3898 1260.41 33.1816 1260.15 33.1816C1259.9 33.1816 1259.69 33.3898 1259.69 33.6467C1259.69 33.9035 1259.9 34.1117 1260.15 34.1117Z" fill="#410071"/>
<path d="M1260.15 66.2695C1259.63 66.2695 1259.22 66.6862 1259.22 67.2003C1259.22 67.7137 1259.63 68.1304 1260.15 68.1304C1260.66 68.1304 1261.08 67.7137 1261.08 67.2003C1261.08 66.6862 1260.66 66.2695 1260.15 66.2695Z" fill="#410071"/>
<path d="M1261.64 100.755C1261.64 99.9326 1260.97 99.2656 1260.15 99.2656C1259.33 99.2656 1258.66 99.9326 1258.66 100.755C1258.66 101.577 1259.33 102.243 1260.15 102.243C1260.97 102.243 1261.64 101.577 1261.64 100.755Z" fill="#410071"/>
<path d="M1226.66 0C1226.61 0 1226.57 0.0418246 1226.57 0.0927946C1226.57 0.143765 1226.61 0.185589 1226.66 0.185589C1226.71 0.185589 1226.76 0.143765 1226.76 0.0927946C1226.76 0.0418246 1226.71 0 1226.66 0Z" fill="#410071"/>
<path d="M1226.66 33.1816C1226.41 33.1816 1226.2 33.39 1226.2 33.6467C1226.2 33.9034 1226.41 34.1117 1226.66 34.1117C1226.92 34.1117 1227.13 33.9034 1227.13 33.6467C1227.13 33.39 1226.92 33.1816 1226.66 33.1816Z" fill="#410071"/>
<path d="M1226.66 66.2695C1226.15 66.2695 1225.73 66.6862 1225.73 67.2003C1225.73 67.7137 1226.15 68.1304 1226.66 68.1304C1227.18 68.1304 1227.59 67.7137 1227.59 67.2003C1227.59 66.6862 1227.18 66.2695 1226.66 66.2695Z" fill="#410071"/>
<path d="M1228.15 100.755C1228.15 99.9326 1227.48 99.2656 1226.66 99.2656C1225.84 99.2656 1225.18 99.9326 1225.18 100.755C1225.18 101.577 1225.84 102.243 1226.66 102.243C1227.48 102.243 1228.15 101.577 1228.15 100.755Z" fill="#410071"/>
<path d="M1193.18 0C1193.13 0 1193.09 0.0418246 1193.09 0.0927946C1193.09 0.143765 1193.13 0.185589 1193.18 0.185589C1193.23 0.185589 1193.27 0.143765 1193.27 0.0927946C1193.27 0.0418246 1193.23 0 1193.18 0Z" fill="#410071"/>
<path d="M1193.18 33.1816C1192.92 33.1816 1192.71 33.39 1192.71 33.6467C1192.71 33.9034 1192.92 34.1117 1193.18 34.1117C1193.43 34.1117 1193.64 33.9034 1193.64 33.6467C1193.64 33.39 1193.43 33.1816 1193.18 33.1816Z" fill="#410071"/>
<path d="M1193.18 66.2695C1192.67 66.2695 1192.25 66.6862 1192.25 67.2003C1192.25 67.7137 1192.67 68.1304 1193.18 68.1304C1193.69 68.1304 1194.11 67.7137 1194.11 67.2003C1194.11 66.6862 1193.69 66.2695 1193.18 66.2695Z" fill="#410071"/>
<path d="M1194.66 100.755C1194.66 99.9326 1194 99.2656 1193.17 99.2656C1192.35 99.2656 1191.69 99.9326 1191.69 100.755C1191.69 101.577 1192.35 102.243 1193.17 102.243C1194 102.243 1194.66 101.577 1194.66 100.755Z" fill="#410071"/>
<path d="M1159.69 0C1159.64 0 1159.6 0.0418246 1159.6 0.0927946C1159.6 0.143765 1159.64 0.185589 1159.69 0.185589C1159.74 0.185589 1159.78 0.143765 1159.78 0.0927946C1159.78 0.0418246 1159.74 0 1159.69 0Z" fill="#410071"/>
<path d="M1159.69 33.1816C1159.44 33.1816 1159.23 33.39 1159.23 33.6467C1159.23 33.9034 1159.44 34.1117 1159.69 34.1117C1159.95 34.1117 1160.16 33.9034 1160.16 33.6467C1160.16 33.39 1159.95 33.1816 1159.69 33.1816Z" fill="#410071"/>
<path d="M1159.69 66.2695C1159.18 66.2695 1158.76 66.6862 1158.76 67.2003C1158.76 67.7137 1159.18 68.1304 1159.69 68.1304C1160.2 68.1304 1160.62 67.7137 1160.62 67.2003C1160.62 66.6862 1160.2 66.2695 1159.69 66.2695Z" fill="#410071"/>
<path d="M1161.17 100.755C1161.17 99.9326 1160.51 99.2656 1159.69 99.2656C1158.87 99.2656 1158.2 99.9326 1158.2 100.755C1158.2 101.577 1158.87 102.243 1159.69 102.243C1160.51 102.243 1161.17 101.577 1161.17 100.755Z" fill="#410071"/>
<path d="M1126.2 0C1126.15 0 1126.11 0.0418246 1126.11 0.0927946C1126.11 0.143765 1126.15 0.185589 1126.2 0.185589C1126.25 0.185589 1126.3 0.143765 1126.3 0.0927946C1126.3 0.0418246 1126.25 0 1126.2 0Z" fill="#410071"/>
<path d="M1126.2 33.1816C1125.95 33.1816 1125.74 33.39 1125.74 33.6467C1125.74 33.9034 1125.95 34.1117 1126.2 34.1117C1126.46 34.1117 1126.67 33.9034 1126.67 33.6467C1126.67 33.39 1126.46 33.1816 1126.2 33.1816Z" fill="#410071"/>
<path d="M1126.2 66.2695C1125.69 66.2695 1125.27 66.6862 1125.27 67.2003C1125.27 67.7137 1125.69 68.1304 1126.2 68.1304C1126.71 68.1304 1127.13 67.7137 1127.13 67.2003C1127.13 66.6862 1126.71 66.2695 1126.2 66.2695Z" fill="#410071"/>
<path d="M1127.69 100.755C1127.69 99.9326 1127.02 99.2656 1126.2 99.2656C1125.38 99.2656 1124.71 99.9326 1124.71 100.755C1124.71 101.577 1125.38 102.243 1126.2 102.243C1127.02 102.243 1127.69 101.577 1127.69 100.755Z" fill="#410071"/>
<path d="M1092.72 0C1092.67 0 1092.62 0.0418246 1092.62 0.0927946C1092.62 0.143765 1092.67 0.185589 1092.72 0.185589C1092.77 0.185589 1092.81 0.143765 1092.81 0.0927946C1092.81 0.0418246 1092.77 0 1092.72 0Z" fill="#410071"/>
<path d="M1092.72 33.1816C1092.46 33.1816 1092.25 33.39 1092.25 33.6467C1092.25 33.9034 1092.46 34.1117 1092.72 34.1117C1092.97 34.1117 1093.18 33.9034 1093.18 33.6467C1093.18 33.39 1092.97 33.1816 1092.72 33.1816Z" fill="#410071"/>
<path d="M1092.72 66.2695C1092.2 66.2695 1091.79 66.6862 1091.79 67.2003C1091.79 67.7137 1092.2 68.1304 1092.72 68.1304C1093.23 68.1304 1093.65 67.7137 1093.65 67.2003C1093.65 66.6862 1093.23 66.2695 1092.72 66.2695Z" fill="#410071"/>
<path d="M1094.2 100.755C1094.2 99.9326 1093.54 99.2656 1092.72 99.2656C1091.89 99.2656 1091.23 99.9326 1091.23 100.755C1091.23 101.577 1091.89 102.243 1092.72 102.243C1093.54 102.243 1094.2 101.577 1094.2 100.755Z" fill="#410071"/>
<path d="M1059.23 0C1059.18 0 1059.14 0.0418246 1059.14 0.0927946C1059.14 0.143765 1059.18 0.185589 1059.23 0.185589C1059.28 0.185589 1059.32 0.143765 1059.32 0.0927946C1059.32 0.0418246 1059.28 0 1059.23 0Z" fill="#410071"/>
<path d="M1059.23 33.1816C1058.97 33.1816 1058.77 33.39 1058.77 33.6467C1058.77 33.9034 1058.97 34.1117 1059.23 34.1117C1059.49 34.1117 1059.69 33.9034 1059.69 33.6467C1059.69 33.39 1059.49 33.1816 1059.23 33.1816Z" fill="#410071"/>
<path d="M1059.23 66.2695C1058.72 66.2695 1058.3 66.6862 1058.3 67.2003C1058.3 67.7137 1058.72 68.1304 1059.23 68.1304C1059.74 68.1304 1060.16 67.7137 1060.16 67.2003C1060.16 66.6862 1059.74 66.2695 1059.23 66.2695Z" fill="#410071"/>
<path d="M1060.62 100.755C1060.62 99.9844 1060 99.3594 1059.23 99.3594C1058.46 99.3594 1057.84 99.9844 1057.84 100.755C1057.84 101.526 1058.46 102.15 1059.23 102.15C1060 102.15 1060.62 101.526 1060.62 100.755Z" fill="#410071"/>
<path d="M1025.74 67.1074C1025.69 67.1074 1025.65 67.1492 1025.65 67.2002C1025.65 67.2512 1025.69 67.293 1025.74 67.293C1025.79 67.293 1025.83 67.2512 1025.83 67.2002C1025.83 67.1492 1025.79 67.1074 1025.74 67.1074Z" fill="#410071"/>
<path d="M1025.74 100.661C1025.69 100.661 1025.65 100.702 1025.65 100.754C1025.65 100.805 1025.69 100.847 1025.74 100.847C1025.79 100.847 1025.83 100.805 1025.83 100.754C1025.83 100.702 1025.79 100.661 1025.74 100.661Z" fill="#410071"/>
</g>
<g clip-path="url(#clip1_817_3269)">
<path d="M1427.59 625.186C1427.64 625.186 1427.68 625.145 1427.68 625.093C1427.68 625.042 1427.64 625 1427.59 625C1427.53 625 1427.49 625.042 1427.49 625.093C1427.49 625.145 1427.53 625.186 1427.59 625.186Z" fill="#410071"/>
<path d="M1427.58 659.112C1427.84 659.112 1428.05 658.903 1428.05 658.647C1428.05 658.39 1427.84 658.182 1427.58 658.182C1427.32 658.182 1427.12 658.39 1427.12 658.647C1427.12 658.903 1427.32 659.112 1427.58 659.112Z" fill="#410071"/>
<path d="M1427.58 691.27C1427.07 691.27 1426.66 691.686 1426.66 692.2C1426.66 692.714 1427.07 693.13 1427.58 693.13C1428.1 693.13 1428.51 692.714 1428.51 692.2C1428.51 691.686 1428.1 691.27 1427.58 691.27Z" fill="#410071"/>
<path d="M1429.07 725.755C1429.07 724.933 1428.41 724.266 1427.59 724.266C1426.77 724.266 1426.1 724.933 1426.1 725.755C1426.1 726.577 1426.77 727.243 1427.59 727.243C1428.41 727.243 1429.07 726.577 1429.07 725.755Z" fill="#410071"/>
<path d="M1394.1 625.185C1394.15 625.185 1394.19 625.143 1394.19 625.092C1394.19 625.041 1394.15 625 1394.1 625C1394.05 625 1394 625.041 1394 625.092C1394 625.143 1394.05 625.185 1394.1 625.185Z" fill="#410071"/>
<path d="M1394.1 659.112C1394.35 659.112 1394.56 658.903 1394.56 658.647C1394.56 658.39 1394.35 658.182 1394.1 658.182C1393.84 658.182 1393.63 658.39 1393.63 658.647C1393.63 658.903 1393.84 659.112 1394.1 659.112Z" fill="#410071"/>
<path d="M1394.1 691.27C1393.58 691.27 1393.17 691.686 1393.17 692.2C1393.17 692.714 1393.58 693.13 1394.1 693.13C1394.61 693.13 1395.03 692.714 1395.03 692.2C1395.03 691.686 1394.61 691.27 1394.1 691.27Z" fill="#410071"/>
<path d="M1395.58 725.755C1395.58 724.933 1394.92 724.266 1394.1 724.266C1393.28 724.266 1392.61 724.933 1392.61 725.755C1392.61 726.577 1393.28 727.243 1394.1 727.243C1394.92 727.243 1395.58 726.577 1395.58 725.755Z" fill="#410071"/>
<path d="M1360.61 625.186C1360.66 625.186 1360.7 625.145 1360.7 625.093C1360.7 625.042 1360.66 625 1360.61 625C1360.56 625 1360.52 625.042 1360.52 625.093C1360.52 625.145 1360.56 625.186 1360.61 625.186Z" fill="#410071"/>
<path d="M1360.61 659.112C1360.86 659.112 1361.07 658.903 1361.07 658.647C1361.07 658.39 1360.86 658.182 1360.61 658.182C1360.35 658.182 1360.14 658.39 1360.14 658.647C1360.14 658.903 1360.35 659.112 1360.61 659.112Z" fill="#410071"/>
<path d="M1360.61 691.27C1360.1 691.27 1359.68 691.686 1359.68 692.2C1359.68 692.714 1360.1 693.13 1360.61 693.13C1361.12 693.13 1361.54 692.714 1361.54 692.2C1361.54 691.686 1361.12 691.27 1360.61 691.27Z" fill="#410071"/>
<path d="M1362.1 725.755C1362.1 724.933 1361.43 724.266 1360.61 724.266C1359.79 724.266 1359.12 724.933 1359.12 725.755C1359.12 726.577 1359.79 727.243 1360.61 727.243C1361.43 727.243 1362.1 726.577 1362.1 725.755Z" fill="#410071"/>
<path d="M1327.12 625.185C1327.17 625.185 1327.22 625.143 1327.22 625.092C1327.22 625.041 1327.17 625 1327.12 625C1327.07 625 1327.03 625.041 1327.03 625.092C1327.03 625.143 1327.07 625.185 1327.12 625.185Z" fill="#410071"/>
<path d="M1327.12 659.112C1327.38 659.112 1327.59 658.903 1327.59 658.647C1327.59 658.39 1327.38 658.182 1327.12 658.182C1326.87 658.182 1326.66 658.39 1326.66 658.647C1326.66 658.903 1326.87 659.112 1327.12 659.112Z" fill="#410071"/>
<path d="M1327.12 691.27C1326.61 691.27 1326.2 691.686 1326.2 692.2C1326.2 692.714 1326.61 693.13 1327.12 693.13C1327.64 693.13 1328.05 692.714 1328.05 692.2C1328.05 691.686 1327.64 691.27 1327.12 691.27Z" fill="#410071"/>
<path d="M1328.61 725.755C1328.61 724.933 1327.94 724.266 1327.12 724.266C1326.3 724.266 1325.64 724.933 1325.64 725.755C1325.64 726.577 1326.3 727.243 1327.12 727.243C1327.94 727.243 1328.61 726.577 1328.61 725.755Z" fill="#410071"/>
<path d="M1293.64 625.186C1293.69 625.186 1293.73 625.145 1293.73 625.093C1293.73 625.042 1293.69 625 1293.64 625C1293.58 625 1293.54 625.042 1293.54 625.093C1293.54 625.145 1293.58 625.186 1293.64 625.186Z" fill="#410071"/>
<path d="M1293.64 658.182C1293.38 658.182 1293.17 658.39 1293.17 658.647C1293.17 658.903 1293.38 659.112 1293.64 659.112C1293.89 659.112 1294.1 658.903 1294.1 658.647C1294.1 658.39 1293.89 658.182 1293.64 658.182Z" fill="#410071"/>
<path d="M1293.64 691.27C1293.13 691.27 1292.71 691.686 1292.71 692.2C1292.71 692.714 1293.13 693.13 1293.64 693.13C1294.15 693.13 1294.57 692.714 1294.57 692.2C1294.57 691.686 1294.15 691.27 1293.64 691.27Z" fill="#410071"/>
<path d="M1295.12 725.755C1295.12 724.933 1294.46 724.266 1293.64 724.266C1292.82 724.266 1292.15 724.933 1292.15 725.755C1292.15 726.577 1292.82 727.243 1293.64 727.243C1294.46 727.243 1295.12 726.577 1295.12 725.755Z" fill="#410071"/>
<path d="M1260.15 625.185C1260.2 625.185 1260.24 625.143 1260.24 625.092C1260.24 625.041 1260.2 625 1260.15 625C1260.1 625 1260.05 625.041 1260.05 625.092C1260.05 625.143 1260.1 625.185 1260.15 625.185Z" fill="#410071"/>
<path d="M1260.15 659.112C1260.41 659.112 1260.62 658.903 1260.62 658.647C1260.62 658.39 1260.41 658.182 1260.15 658.182C1259.9 658.182 1259.69 658.39 1259.69 658.647C1259.69 658.903 1259.9 659.112 1260.15 659.112Z" fill="#410071"/>
<path d="M1260.15 691.27C1259.63 691.27 1259.22 691.686 1259.22 692.2C1259.22 692.714 1259.63 693.13 1260.15 693.13C1260.66 693.13 1261.08 692.714 1261.08 692.2C1261.08 691.686 1260.66 691.27 1260.15 691.27Z" fill="#410071"/>
<path d="M1261.64 725.755C1261.64 724.933 1260.97 724.266 1260.15 724.266C1259.33 724.266 1258.66 724.933 1258.66 725.755C1258.66 726.577 1259.33 727.243 1260.15 727.243C1260.97 727.243 1261.64 726.577 1261.64 725.755Z" fill="#410071"/>
<path d="M1226.66 625C1226.61 625 1226.57 625.042 1226.57 625.093C1226.57 625.144 1226.61 625.186 1226.66 625.186C1226.71 625.186 1226.76 625.144 1226.76 625.093C1226.76 625.042 1226.71 625 1226.66 625Z" fill="#410071"/>
<path d="M1226.66 658.182C1226.41 658.182 1226.2 658.39 1226.2 658.647C1226.2 658.903 1226.41 659.112 1226.66 659.112C1226.92 659.112 1227.13 658.903 1227.13 658.647C1227.13 658.39 1226.92 658.182 1226.66 658.182Z" fill="#410071"/>
<path d="M1226.66 691.27C1226.15 691.27 1225.73 691.686 1225.73 692.2C1225.73 692.714 1226.15 693.13 1226.66 693.13C1227.18 693.13 1227.59 692.714 1227.59 692.2C1227.59 691.686 1227.18 691.27 1226.66 691.27Z" fill="#410071"/>
<path d="M1228.15 725.755C1228.15 724.933 1227.48 724.266 1226.66 724.266C1225.84 724.266 1225.18 724.933 1225.18 725.755C1225.18 726.577 1225.84 727.243 1226.66 727.243C1227.48 727.243 1228.15 726.577 1228.15 725.755Z" fill="#410071"/>
<path d="M1193.18 625C1193.13 625 1193.09 625.042 1193.09 625.093C1193.09 625.144 1193.13 625.186 1193.18 625.186C1193.23 625.186 1193.27 625.144 1193.27 625.093C1193.27 625.042 1193.23 625 1193.18 625Z" fill="#410071"/>
<path d="M1193.18 658.182C1192.92 658.182 1192.71 658.39 1192.71 658.647C1192.71 658.903 1192.92 659.112 1193.18 659.112C1193.43 659.112 1193.64 658.903 1193.64 658.647C1193.64 658.39 1193.43 658.182 1193.18 658.182Z" fill="#410071"/>
<path d="M1193.18 691.27C1192.67 691.27 1192.25 691.686 1192.25 692.2C1192.25 692.714 1192.67 693.13 1193.18 693.13C1193.69 693.13 1194.11 692.714 1194.11 692.2C1194.11 691.686 1193.69 691.27 1193.18 691.27Z" fill="#410071"/>
<path d="M1194.66 725.755C1194.66 724.933 1194 724.266 1193.17 724.266C1192.35 724.266 1191.69 724.933 1191.69 725.755C1191.69 726.577 1192.35 727.243 1193.17 727.243C1194 727.243 1194.66 726.577 1194.66 725.755Z" fill="#410071"/>
<path d="M1159.69 625C1159.64 625 1159.6 625.042 1159.6 625.093C1159.6 625.144 1159.64 625.186 1159.69 625.186C1159.74 625.186 1159.78 625.144 1159.78 625.093C1159.78 625.042 1159.74 625 1159.69 625Z" fill="#410071"/>
<path d="M1159.69 658.182C1159.44 658.182 1159.23 658.39 1159.23 658.647C1159.23 658.903 1159.44 659.112 1159.69 659.112C1159.95 659.112 1160.16 658.903 1160.16 658.647C1160.16 658.39 1159.95 658.182 1159.69 658.182Z" fill="#410071"/>
<path d="M1159.69 691.27C1159.18 691.27 1158.76 691.686 1158.76 692.2C1158.76 692.714 1159.18 693.13 1159.69 693.13C1160.2 693.13 1160.62 692.714 1160.62 692.2C1160.62 691.686 1160.2 691.27 1159.69 691.27Z" fill="#410071"/>
<path d="M1161.17 725.755C1161.17 724.933 1160.51 724.266 1159.69 724.266C1158.87 724.266 1158.2 724.933 1158.2 725.755C1158.2 726.577 1158.87 727.243 1159.69 727.243C1160.51 727.243 1161.17 726.577 1161.17 725.755Z" fill="#410071"/>
<path d="M1126.2 625C1126.15 625 1126.11 625.042 1126.11 625.093C1126.11 625.144 1126.15 625.186 1126.2 625.186C1126.25 625.186 1126.3 625.144 1126.3 625.093C1126.3 625.042 1126.25 625 1126.2 625Z" fill="#410071"/>
<path d="M1126.2 658.182C1125.95 658.182 1125.74 658.39 1125.74 658.647C1125.74 658.903 1125.95 659.112 1126.2 659.112C1126.46 659.112 1126.67 658.903 1126.67 658.647C1126.67 658.39 1126.46 658.182 1126.2 658.182Z" fill="#410071"/>
<path d="M1126.2 691.27C1125.69 691.27 1125.27 691.686 1125.27 692.2C1125.27 692.714 1125.69 693.13 1126.2 693.13C1126.71 693.13 1127.13 692.714 1127.13 692.2C1127.13 691.686 1126.71 691.27 1126.2 691.27Z" fill="#410071"/>
<path d="M1127.69 725.755C1127.69 724.933 1127.02 724.266 1126.2 724.266C1125.38 724.266 1124.71 724.933 1124.71 725.755C1124.71 726.577 1125.38 727.243 1126.2 727.243C1127.02 727.243 1127.69 726.577 1127.69 725.755Z" fill="#410071"/>
<path d="M1092.72 625C1092.67 625 1092.62 625.042 1092.62 625.093C1092.62 625.144 1092.67 625.186 1092.72 625.186C1092.77 625.186 1092.81 625.144 1092.81 625.093C1092.81 625.042 1092.77 625 1092.72 625Z" fill="#410071"/>
<path d="M1092.72 658.182C1092.46 658.182 1092.25 658.39 1092.25 658.647C1092.25 658.903 1092.46 659.112 1092.72 659.112C1092.97 659.112 1093.18 658.903 1093.18 658.647C1093.18 658.39 1092.97 658.182 1092.72 658.182Z" fill="#410071"/>
<path d="M1092.72 691.27C1092.2 691.27 1091.79 691.686 1091.79 692.2C1091.79 692.714 1092.2 693.13 1092.72 693.13C1093.23 693.13 1093.65 692.714 1093.65 692.2C1093.65 691.686 1093.23 691.27 1092.72 691.27Z" fill="#410071"/>
<path d="M1094.2 725.755C1094.2 724.933 1093.54 724.266 1092.72 724.266C1091.89 724.266 1091.23 724.933 1091.23 725.755C1091.23 726.577 1091.89 727.243 1092.72 727.243C1093.54 727.243 1094.2 726.577 1094.2 725.755Z" fill="#410071"/>
<path d="M1059.23 625C1059.18 625 1059.14 625.042 1059.14 625.093C1059.14 625.144 1059.18 625.186 1059.23 625.186C1059.28 625.186 1059.32 625.144 1059.32 625.093C1059.32 625.042 1059.28 625 1059.23 625Z" fill="#410071"/>
<path d="M1059.23 658.182C1058.97 658.182 1058.77 658.39 1058.77 658.647C1058.77 658.903 1058.97 659.112 1059.23 659.112C1059.49 659.112 1059.69 658.903 1059.69 658.647C1059.69 658.39 1059.49 658.182 1059.23 658.182Z" fill="#410071"/>
<path d="M1059.23 691.27C1058.72 691.27 1058.3 691.686 1058.3 692.2C1058.3 692.714 1058.72 693.13 1059.23 693.13C1059.74 693.13 1060.16 692.714 1060.16 692.2C1060.16 691.686 1059.74 691.27 1059.23 691.27Z" fill="#410071"/>
<path d="M1060.62 725.755C1060.62 724.984 1060 724.359 1059.23 724.359C1058.46 724.359 1057.84 724.984 1057.84 725.755C1057.84 726.526 1058.46 727.15 1059.23 727.15C1060 727.15 1060.62 726.526 1060.62 725.755Z" fill="#410071"/>
<path d="M1025.74 692.107C1025.69 692.107 1025.65 692.149 1025.65 692.2C1025.65 692.251 1025.69 692.293 1025.74 692.293C1025.79 692.293 1025.83 692.251 1025.83 692.2C1025.83 692.149 1025.79 692.107 1025.74 692.107Z" fill="#410071"/>
<path d="M1025.74 725.661C1025.69 725.661 1025.65 725.702 1025.65 725.754C1025.65 725.805 1025.69 725.847 1025.74 725.847C1025.79 725.847 1025.83 725.805 1025.83 725.754C1025.83 725.702 1025.79 725.661 1025.74 725.661Z" fill="#410071"/>
</g>
<g clip-path="url(#clip2_817_3269)">
<path d="M394.963 0C394.912 0 394.871 0.0418246 394.871 0.0927946C394.871 0.143765 394.912 0.185589 394.963 0.185589C395.016 0.185589 395.057 0.143765 395.057 0.0927946C395.057 0.0418246 395.016 0 394.963 0Z" fill="#410071"/>
<path d="M394.963 33.1816C394.707 33.1816 394.5 33.39 394.5 33.6467C394.5 33.9034 394.707 34.1117 394.963 34.1117C395.221 34.1117 395.428 33.9034 395.428 33.6467C395.428 33.39 395.221 33.1816 394.963 33.1816Z" fill="#410071"/>
<path d="M394.963 66.2695C394.452 66.2695 394.035 66.6862 394.035 67.2003C394.035 67.7137 394.452 68.1304 394.963 68.1304C395.477 68.1304 395.893 67.7137 395.893 67.2003C395.893 66.6862 395.477 66.2695 394.963 66.2695Z" fill="#410071"/>
<path d="M394.964 102.057C395.682 102.057 396.264 101.473 396.264 100.754C396.264 100.034 395.682 99.4512 394.964 99.4512C394.246 99.4512 393.664 100.034 393.664 100.754C393.664 101.473 394.246 102.057 394.964 102.057Z" fill="#410071"/>
<path d="M361.477 0C361.425 0 361.383 0.0418246 361.383 0.0927946C361.383 0.143765 361.425 0.185589 361.477 0.185589C361.528 0.185589 361.569 0.143765 361.569 0.0927946C361.569 0.0418246 361.528 0 361.477 0Z" fill="#410071"/>
<path d="M361.481 33.1816C361.224 33.1816 361.016 33.39 361.016 33.6467C361.016 33.9034 361.224 34.1117 361.481 34.1117C361.737 34.1117 361.945 33.9034 361.945 33.6467C361.945 33.39 361.737 33.1816 361.481 33.1816Z" fill="#410071"/>
<path d="M361.479 66.2695C360.965 66.2695 360.551 66.6862 360.551 67.2003C360.551 67.7137 360.965 68.1304 361.479 68.1304C361.991 68.1304 362.407 67.7137 362.407 67.2003C362.407 66.6862 361.991 66.2695 361.479 66.2695Z" fill="#410071"/>
<path d="M362.963 100.755C362.963 99.9326 362.299 99.2656 361.478 99.2656C360.658 99.2656 359.992 99.9326 359.992 100.755C359.992 101.577 360.658 102.243 361.478 102.243C362.299 102.243 362.963 101.577 362.963 100.755Z" fill="#410071"/>
<path d="M327.989 0C327.938 0 327.898 0.0418246 327.898 0.0927946C327.898 0.143765 327.938 0.185589 327.989 0.185589C328.042 0.185589 328.083 0.143765 328.083 0.0927946C328.083 0.0418246 328.042 0 327.989 0Z" fill="#410071"/>
<path d="M327.99 33.1816C327.735 33.1816 327.527 33.39 327.527 33.6467C327.527 33.9034 327.735 34.1117 327.99 34.1117C328.248 34.1117 328.456 33.9034 328.456 33.6467C328.456 33.39 328.248 33.1816 327.99 33.1816Z" fill="#410071"/>
<path d="M327.991 66.2695C327.48 66.2695 327.062 66.6862 327.062 67.2003C327.062 67.7137 327.48 68.1304 327.991 68.1304C328.505 68.1304 328.92 67.7137 328.92 67.2003C328.92 66.6862 328.505 66.2695 327.991 66.2695Z" fill="#410071"/>
<path d="M329.48 100.755C329.48 99.9326 328.814 99.2656 327.992 99.2656C327.172 99.2656 326.508 99.9326 326.508 100.755C326.508 101.577 327.172 102.243 327.992 102.243C328.814 102.243 329.48 101.577 329.48 100.755Z" fill="#410071"/>
<path d="M294.504 0C294.453 0 294.41 0.0418246 294.41 0.0927946C294.41 0.143765 294.453 0.185589 294.504 0.185589C294.555 0.185589 294.596 0.143765 294.596 0.0927946C294.596 0.0418246 294.555 0 294.504 0Z" fill="#410071"/>
<path d="M294.505 33.1816C294.248 33.1816 294.039 33.39 294.039 33.6467C294.039 33.9034 294.248 34.1117 294.505 34.1117C294.76 34.1117 294.969 33.9034 294.969 33.6467C294.969 33.39 294.76 33.1816 294.505 33.1816Z" fill="#410071"/>
<path d="M294.506 66.2695C293.992 66.2695 293.578 66.6862 293.578 67.2003C293.578 67.7137 293.993 68.1304 294.506 68.1304C295.019 68.1304 295.435 67.7137 295.435 67.2003C295.435 66.6862 295.019 66.2695 294.506 66.2695Z" fill="#410071"/>
<path d="M295.99 100.755C295.99 99.9326 295.326 99.2656 294.506 99.2656C293.685 99.2656 293.02 99.9326 293.02 100.755C293.02 101.577 293.685 102.243 294.506 102.243C295.326 102.243 295.99 101.577 295.99 100.755Z" fill="#410071"/>
<path d="M261.018 0.184857C261.07 0.184857 261.111 0.143476 261.111 0.0924287C261.111 0.0413818 261.07 0 261.018 0C260.967 0 260.926 0.0413818 260.926 0.0924287C260.926 0.143476 260.967 0.184857 261.018 0.184857Z" fill="#410071"/>
<path d="M261.019 34.1117C261.275 34.1117 261.483 33.9035 261.483 33.6467C261.483 33.3898 261.275 33.1816 261.019 33.1816C260.762 33.1816 260.555 33.3898 260.555 33.6467C260.555 33.9035 260.762 34.1117 261.019 34.1117Z" fill="#410071"/>
<path d="M261.016 66.2695C260.503 66.2695 260.086 66.6862 260.086 67.2003C260.086 67.7137 260.503 68.1304 261.016 68.1304C261.528 68.1304 261.944 67.7137 261.944 67.2003C261.944 66.6862 261.528 66.2695 261.016 66.2695Z" fill="#410071"/>
<path d="M262.503 100.755C262.503 99.9326 261.838 99.2656 261.017 99.2656C260.195 99.2656 259.531 99.9326 259.531 100.755C259.531 101.577 260.195 102.243 261.017 102.243C261.838 102.243 262.503 101.577 262.503 100.755Z" fill="#410071"/>
<path d="M227.531 0.186321C227.582 0.186321 227.624 0.144611 227.624 0.0931604C227.624 0.0417093 227.582 0 227.531 0C227.479 0 227.438 0.0417093 227.438 0.0931604C227.438 0.144611 227.479 0.186321 227.531 0.186321Z" fill="#410071"/>
<path d="M227.532 33.1816C227.275 33.1816 227.066 33.39 227.066 33.6467C227.066 33.9034 227.275 34.1117 227.532 34.1117C227.787 34.1117 227.996 33.9034 227.996 33.6467C227.996 33.39 227.787 33.1816 227.532 33.1816Z" fill="#410071"/>
<path d="M227.53 66.2695C227.016 66.2695 226.602 66.6862 226.602 67.2003C226.602 67.7137 227.016 68.1304 227.53 68.1304C228.042 68.1304 228.458 67.7137 228.458 67.2003C228.458 66.6862 228.042 66.2695 227.53 66.2695Z" fill="#410071"/>
<path d="M229.018 100.755C229.018 99.9326 228.353 99.2656 227.533 99.2656C226.712 99.2656 226.047 99.9326 226.047 100.755C226.047 101.577 226.713 102.243 227.533 102.243C228.353 102.243 229.018 101.577 229.018 100.755Z" fill="#410071"/>
<path d="M194.046 0.184857C194.097 0.184857 194.138 0.143476 194.138 0.0924287C194.138 0.0413818 194.097 0 194.046 0C193.995 0 193.953 0.0413818 193.953 0.0924287C193.953 0.143476 193.995 0.184857 194.046 0.184857Z" fill="#410071"/>
<path d="M194.046 34.1117C194.302 34.1117 194.51 33.9035 194.51 33.6467C194.51 33.3898 194.302 33.1816 194.046 33.1816C193.79 33.1816 193.582 33.3898 193.582 33.6467C193.582 33.9035 193.79 34.1117 194.046 34.1117Z" fill="#410071"/>
<path d="M194.047 66.2695C193.534 66.2695 193.117 66.6862 193.117 67.2003C193.117 67.7137 193.534 68.1304 194.047 68.1304C194.559 68.1304 194.975 67.7137 194.975 67.2003C194.975 66.6862 194.559 66.2695 194.047 66.2695Z" fill="#410071"/>
<path d="M195.531 100.755C195.531 99.9326 194.865 99.2656 194.045 99.2656C193.224 99.2656 192.559 99.9326 192.559 100.755C192.559 101.577 193.224 102.243 194.045 102.243C194.865 102.243 195.531 101.577 195.531 100.755Z" fill="#410071"/>
<path d="M160.558 0.186321C160.61 0.186321 160.652 0.144611 160.652 0.0931604C160.652 0.0417093 160.61 0 160.558 0C160.507 0 160.465 0.0417093 160.465 0.0931604C160.465 0.144611 160.507 0.186321 160.558 0.186321Z" fill="#410071"/>
<path d="M160.558 34.1117C160.814 34.1117 161.022 33.9035 161.022 33.6467C161.022 33.3898 160.814 33.1816 160.558 33.1816C160.302 33.1816 160.094 33.3898 160.094 33.6467C160.094 33.9035 160.302 34.1117 160.558 34.1117Z" fill="#410071"/>
<path d="M160.557 66.2695C160.043 66.2695 159.629 66.6862 159.629 67.2003C159.629 67.7137 160.043 68.1304 160.557 68.1304C161.069 68.1304 161.485 67.7137 161.485 67.2003C161.485 66.6862 161.069 66.2695 160.557 66.2695Z" fill="#410071"/>
<path d="M162.041 100.755C162.041 99.9326 161.377 99.2656 160.556 99.2656C159.736 99.2656 159.07 99.9326 159.07 100.755C159.07 101.577 159.736 102.243 160.556 102.243C161.377 102.243 162.041 101.577 162.041 100.755Z" fill="#410071"/>
<path d="M127.069 0.184857C127.12 0.184857 127.162 0.143476 127.162 0.0924287C127.162 0.0413818 127.12 0 127.069 0C127.018 0 126.977 0.0413818 126.977 0.0924287C126.977 0.143476 127.018 0.184857 127.069 0.184857Z" fill="#410071"/>
<path d="M127.073 34.1117C127.33 34.1117 127.538 33.9035 127.538 33.6467C127.538 33.3898 127.33 33.1816 127.073 33.1816C126.817 33.1816 126.609 33.3898 126.609 33.6467C126.609 33.9035 126.817 34.1117 127.073 34.1117Z" fill="#410071"/>
<path d="M127.07 66.2695C126.558 66.2695 126.141 66.6862 126.141 67.2003C126.141 67.7137 126.558 68.1304 127.07 68.1304C127.583 68.1304 127.999 67.7137 127.999 67.2003C127.999 66.6862 127.583 66.2695 127.07 66.2695Z" fill="#410071"/>
<path d="M128.558 100.755C128.558 99.9326 127.892 99.2656 127.072 99.2656C126.252 99.2656 125.586 99.9326 125.586 100.755C125.586 101.577 126.252 102.243 127.072 102.243C127.892 102.243 128.558 101.577 128.558 100.755Z" fill="#410071"/>
<path d="M93.5855 0.186321C93.6371 0.186321 93.6789 0.144611 93.6789 0.0931604C93.6789 0.0417093 93.6371 0 93.5855 0C93.534 0 93.4922 0.0417093 93.4922 0.0931604C93.4922 0.144611 93.534 0.186321 93.5855 0.186321Z" fill="#410071"/>
<path d="M93.5813 34.1117C93.8376 34.1117 94.0454 33.9035 94.0454 33.6467C94.0454 33.3898 93.8376 33.1816 93.5813 33.1816C93.325 33.1816 93.1172 33.3898 93.1172 33.6467C93.1172 33.9035 93.325 34.1117 93.5813 34.1117Z" fill="#410071"/>
<path d="M93.5844 66.2695C93.0706 66.2695 92.6562 66.6862 92.6562 67.2003C92.6562 67.7137 93.0707 68.1304 93.5844 68.1304C94.0981 68.1304 94.5126 67.7137 94.5126 67.2003C94.5126 66.6862 94.0981 66.2695 93.5844 66.2695Z" fill="#410071"/>
<path d="M95.0722 100.755C95.0722 99.9326 94.4065 99.2656 93.5862 99.2656C92.7659 99.2656 92.1016 99.9326 92.1016 100.755C92.1016 101.577 92.7658 102.243 93.5862 102.243C94.4067 102.243 95.0722 101.577 95.0722 100.755Z" fill="#410071"/>
<path d="M60.0965 0.184857C60.1476 0.184857 60.1891 0.143476 60.1891 0.0924287C60.1891 0.0413818 60.1476 0 60.0965 0C60.0454 0 60.0039 0.0413818 60.0039 0.0924287C60.0039 0.143476 60.0454 0.184857 60.0965 0.184857Z" fill="#410071"/>
<path d="M60.0969 34.1117C60.3532 34.1117 60.561 33.9035 60.561 33.6467C60.561 33.3898 60.3532 33.1816 60.0969 33.1816C59.8406 33.1816 59.6328 33.3898 59.6328 33.6467C59.6328 33.9035 59.8406 34.1117 60.0969 34.1117Z" fill="#410071"/>
<path d="M60.0962 66.2695C59.5838 66.2695 59.168 66.6862 59.168 67.2003C59.168 67.7137 59.5838 68.1304 60.0962 68.1304C60.6085 68.1304 61.0258 67.7137 61.0258 67.2003C61.0258 66.6862 60.6085 66.2695 60.0962 66.2695Z" fill="#410071"/>
<path d="M61.5814 100.755C61.5814 99.9326 60.9157 99.2656 60.0954 99.2656C59.275 99.2656 58.6094 99.9326 58.6094 100.755C58.6094 101.577 59.275 102.243 60.0954 102.243C60.9157 102.243 61.5814 101.577 61.5814 100.755Z" fill="#410071"/>
<path d="M26.6089 0.186321C26.6605 0.186321 26.7023 0.144611 26.7023 0.0931604C26.7023 0.0417093 26.6605 0 26.6089 0C26.5574 0 26.5156 0.0417093 26.5156 0.0931604C26.5156 0.144611 26.5574 0.186321 26.6089 0.186321Z" fill="#410071"/>
<path d="M26.6086 34.1117C26.8649 34.1117 27.0727 33.9035 27.0727 33.6467C27.0727 33.3898 26.8649 33.1816 26.6086 33.1816C26.3523 33.1816 26.1445 33.3898 26.1445 33.6467C26.1445 33.9035 26.3523 34.1117 26.6086 34.1117Z" fill="#410071"/>
<path d="M26.6079 66.2695C26.0955 66.2695 25.6797 66.6862 25.6797 67.2003C25.6797 67.7137 26.0955 68.1304 26.6079 68.1304C27.1217 68.1304 27.5361 67.7137 27.5361 67.2003C27.5361 66.6862 27.1216 66.2695 26.6079 66.2695Z" fill="#410071"/>
<path d="M28.0957 100.755C28.0957 99.9326 27.43 99.2656 26.6096 99.2656C25.7893 99.2656 25.125 99.9326 25.125 100.755C25.125 101.577 25.7892 102.243 26.6096 102.243C27.4301 102.243 28.0957 101.577 28.0957 100.755Z" fill="#410071"/>
</g>
<g clip-path="url(#clip3_817_3269)">
<path d="M394.963 625C394.912 625 394.871 625.042 394.871 625.093C394.871 625.144 394.912 625.186 394.963 625.186C395.016 625.186 395.057 625.144 395.057 625.093C395.057 625.042 395.016 625 394.963 625Z" fill="#410071"/>
<path d="M394.963 658.182C394.707 658.182 394.5 658.39 394.5 658.647C394.5 658.903 394.707 659.112 394.963 659.112C395.221 659.112 395.428 658.903 395.428 658.647C395.428 658.39 395.221 658.182 394.963 658.182Z" fill="#410071"/>
<path d="M394.963 691.27C394.452 691.27 394.035 691.686 394.035 692.2C394.035 692.714 394.452 693.13 394.963 693.13C395.477 693.13 395.893 692.714 395.893 692.2C395.893 691.686 395.477 691.27 394.963 691.27Z" fill="#410071"/>
<path d="M394.964 727.057C395.682 727.057 396.264 726.473 396.264 725.754C396.264 725.034 395.682 724.451 394.964 724.451C394.246 724.451 393.664 725.034 393.664 725.754C393.664 726.473 394.246 727.057 394.964 727.057Z" fill="#410071"/>
<path d="M361.477 625C361.425 625 361.383 625.042 361.383 625.093C361.383 625.144 361.425 625.186 361.477 625.186C361.528 625.186 361.569 625.144 361.569 625.093C361.569 625.042 361.528 625 361.477 625Z" fill="#410071"/>
<path d="M361.481 658.182C361.224 658.182 361.016 658.39 361.016 658.647C361.016 658.903 361.224 659.112 361.481 659.112C361.737 659.112 361.945 658.903 361.945 658.647C361.945 658.39 361.737 658.182 361.481 658.182Z" fill="#410071"/>
<path d="M361.479 691.27C360.965 691.27 360.551 691.686 360.551 692.2C360.551 692.714 360.965 693.13 361.479 693.13C361.991 693.13 362.407 692.714 362.407 692.2C362.407 691.686 361.991 691.27 361.479 691.27Z" fill="#410071"/>
<path d="M362.963 725.755C362.963 724.933 362.299 724.266 361.478 724.266C360.658 724.266 359.992 724.933 359.992 725.755C359.992 726.577 360.658 727.243 361.478 727.243C362.299 727.243 362.963 726.577 362.963 725.755Z" fill="#410071"/>
<path d="M327.989 625C327.938 625 327.898 625.042 327.898 625.093C327.898 625.144 327.938 625.186 327.989 625.186C328.042 625.186 328.083 625.144 328.083 625.093C328.083 625.042 328.042 625 327.989 625Z" fill="#410071"/>
<path d="M327.99 658.182C327.735 658.182 327.527 658.39 327.527 658.647C327.527 658.903 327.735 659.112 327.99 659.112C328.248 659.112 328.456 658.903 328.456 658.647C328.456 658.39 328.248 658.182 327.99 658.182Z" fill="#410071"/>
<path d="M327.991 691.27C327.48 691.27 327.062 691.686 327.062 692.2C327.062 692.714 327.48 693.13 327.991 693.13C328.505 693.13 328.92 692.714 328.92 692.2C328.92 691.686 328.505 691.27 327.991 691.27Z" fill="#410071"/>
<path d="M329.48 725.755C329.48 724.933 328.814 724.266 327.992 724.266C327.172 724.266 326.508 724.933 326.508 725.755C326.508 726.577 327.172 727.243 327.992 727.243C328.814 727.243 329.48 726.577 329.48 725.755Z" fill="#410071"/>
<path d="M294.504 625C294.453 625 294.41 625.042 294.41 625.093C294.41 625.144 294.453 625.186 294.504 625.186C294.555 625.186 294.596 625.144 294.596 625.093C294.596 625.042 294.555 625 294.504 625Z" fill="#410071"/>
<path d="M294.505 658.182C294.248 658.182 294.039 658.39 294.039 658.647C294.039 658.903 294.248 659.112 294.505 659.112C294.76 659.112 294.969 658.903 294.969 658.647C294.969 658.39 294.76 658.182 294.505 658.182Z" fill="#410071"/>
<path d="M294.506 691.27C293.992 691.27 293.578 691.686 293.578 692.2C293.578 692.714 293.993 693.13 294.506 693.13C295.019 693.13 295.435 692.714 295.435 692.2C295.435 691.686 295.019 691.27 294.506 691.27Z" fill="#410071"/>
<path d="M295.99 725.755C295.99 724.933 295.326 724.266 294.506 724.266C293.685 724.266 293.02 724.933 293.02 725.755C293.02 726.577 293.685 727.243 294.506 727.243C295.326 727.243 295.99 726.577 295.99 725.755Z" fill="#410071"/>
<path d="M261.018 625.185C261.07 625.185 261.111 625.143 261.111 625.092C261.111 625.041 261.07 625 261.018 625C260.967 625 260.926 625.041 260.926 625.092C260.926 625.143 260.967 625.185 261.018 625.185Z" fill="#410071"/>
<path d="M261.019 659.112C261.275 659.112 261.483 658.903 261.483 658.647C261.483 658.39 261.275 658.182 261.019 658.182C260.762 658.182 260.555 658.39 260.555 658.647C260.555 658.903 260.762 659.112 261.019 659.112Z" fill="#410071"/>
<path d="M261.016 691.27C260.503 691.27 260.086 691.686 260.086 692.2C260.086 692.714 260.503 693.13 261.016 693.13C261.528 693.13 261.944 692.714 261.944 692.2C261.944 691.686 261.528 691.27 261.016 691.27Z" fill="#410071"/>
<path d="M262.503 725.755C262.503 724.933 261.838 724.266 261.017 724.266C260.195 724.266 259.531 724.933 259.531 725.755C259.531 726.577 260.195 727.243 261.017 727.243C261.838 727.243 262.503 726.577 262.503 725.755Z" fill="#410071"/>
<path d="M227.531 625.186C227.582 625.186 227.624 625.145 227.624 625.093C227.624 625.042 227.582 625 227.531 625C227.479 625 227.438 625.042 227.438 625.093C227.438 625.145 227.479 625.186 227.531 625.186Z" fill="#410071"/>
<path d="M227.532 658.182C227.275 658.182 227.066 658.39 227.066 658.647C227.066 658.903 227.275 659.112 227.532 659.112C227.787 659.112 227.996 658.903 227.996 658.647C227.996 658.39 227.787 658.182 227.532 658.182Z" fill="#410071"/>
<path d="M227.53 691.27C227.016 691.27 226.602 691.686 226.602 692.2C226.602 692.714 227.016 693.13 227.53 693.13C228.042 693.13 228.458 692.714 228.458 692.2C228.458 691.686 228.042 691.27 227.53 691.27Z" fill="#410071"/>
<path d="M229.018 725.755C229.018 724.933 228.353 724.266 227.533 724.266C226.712 724.266 226.047 724.933 226.047 725.755C226.047 726.577 226.713 727.243 227.533 727.243C228.353 727.243 229.018 726.577 229.018 725.755Z" fill="#410071"/>
<path d="M194.046 625.185C194.097 625.185 194.138 625.143 194.138 625.092C194.138 625.041 194.097 625 194.046 625C193.995 625 193.953 625.041 193.953 625.092C193.953 625.143 193.995 625.185 194.046 625.185Z" fill="#410071"/>
<path d="M194.046 659.112C194.302 659.112 194.51 658.903 194.51 658.647C194.51 658.39 194.302 658.182 194.046 658.182C193.79 658.182 193.582 658.39 193.582 658.647C193.582 658.903 193.79 659.112 194.046 659.112Z" fill="#410071"/>
<path d="M194.047 691.27C193.534 691.27 193.117 691.686 193.117 692.2C193.117 692.714 193.534 693.13 194.047 693.13C194.559 693.13 194.975 692.714 194.975 692.2C194.975 691.686 194.559 691.27 194.047 691.27Z" fill="#410071"/>
<path d="M195.531 725.755C195.531 724.933 194.865 724.266 194.045 724.266C193.224 724.266 192.559 724.933 192.559 725.755C192.559 726.577 193.224 727.243 194.045 727.243C194.865 727.243 195.531 726.577 195.531 725.755Z" fill="#410071"/>
<path d="M160.558 625.186C160.61 625.186 160.652 625.145 160.652 625.093C160.652 625.042 160.61 625 160.558 625C160.507 625 160.465 625.042 160.465 625.093C160.465 625.145 160.507 625.186 160.558 625.186Z" fill="#410071"/>
<path d="M160.558 659.112C160.814 659.112 161.022 658.903 161.022 658.647C161.022 658.39 160.814 658.182 160.558 658.182C160.302 658.182 160.094 658.39 160.094 658.647C160.094 658.903 160.302 659.112 160.558 659.112Z" fill="#410071"/>
<path d="M160.557 691.27C160.043 691.27 159.629 691.686 159.629 692.2C159.629 692.714 160.043 693.13 160.557 693.13C161.069 693.13 161.485 692.714 161.485 692.2C161.485 691.686 161.069 691.27 160.557 691.27Z" fill="#410071"/>
<path d="M162.041 725.755C162.041 724.933 161.377 724.266 160.556 724.266C159.736 724.266 159.07 724.933 159.07 725.755C159.07 726.577 159.736 727.243 160.556 727.243C161.377 727.243 162.041 726.577 162.041 725.755Z" fill="#410071"/>
<path d="M127.069 625.185C127.12 625.185 127.162 625.143 127.162 625.092C127.162 625.041 127.12 625 127.069 625C127.018 625 126.977 625.041 126.977 625.092C126.977 625.143 127.018 625.185 127.069 625.185Z" fill="#410071"/>
<path d="M127.073 659.112C127.33 659.112 127.538 658.903 127.538 658.647C127.538 658.39 127.33 658.182 127.073 658.182C126.817 658.182 126.609 658.39 126.609 658.647C126.609 658.903 126.817 659.112 127.073 659.112Z" fill="#410071"/>
<path d="M127.07 691.27C126.558 691.27 126.141 691.686 126.141 692.2C126.141 692.714 126.558 693.13 127.07 693.13C127.583 693.13 127.999 692.714 127.999 692.2C127.999 691.686 127.583 691.27 127.07 691.27Z" fill="#410071"/>
<path d="M128.558 725.755C128.558 724.933 127.892 724.266 127.072 724.266C126.252 724.266 125.586 724.933 125.586 725.755C125.586 726.577 126.252 727.243 127.072 727.243C127.892 727.243 128.558 726.577 128.558 725.755Z" fill="#410071"/>
<path d="M93.5855 625.186C93.6371 625.186 93.6789 625.145 93.6789 625.093C93.6789 625.042 93.6371 625 93.5855 625C93.534 625 93.4922 625.042 93.4922 625.093C93.4922 625.145 93.534 625.186 93.5855 625.186Z" fill="#410071"/>
<path d="M93.5813 659.112C93.8376 659.112 94.0454 658.903 94.0454 658.647C94.0454 658.39 93.8376 658.182 93.5813 658.182C93.325 658.182 93.1172 658.39 93.1172 658.647C93.1172 658.903 93.325 659.112 93.5813 659.112Z" fill="#410071"/>
<path d="M93.5844 691.27C93.0706 691.27 92.6562 691.686 92.6562 692.2C92.6562 692.714 93.0707 693.13 93.5844 693.13C94.0981 693.13 94.5126 692.714 94.5126 692.2C94.5126 691.686 94.0981 691.27 93.5844 691.27Z" fill="#410071"/>
<path d="M95.0722 725.755C95.0722 724.933 94.4065 724.266 93.5862 724.266C92.7659 724.266 92.1016 724.933 92.1016 725.755C92.1016 726.577 92.7658 727.243 93.5862 727.243C94.4067 727.243 95.0722 726.577 95.0722 725.755Z" fill="#410071"/>
<path d="M60.0965 625.185C60.1476 625.185 60.1891 625.143 60.1891 625.092C60.1891 625.041 60.1476 625 60.0965 625C60.0454 625 60.0039 625.041 60.0039 625.092C60.0039 625.143 60.0454 625.185 60.0965 625.185Z" fill="#410071"/>
<path d="M60.0969 659.112C60.3532 659.112 60.561 658.903 60.561 658.647C60.561 658.39 60.3532 658.182 60.0969 658.182C59.8406 658.182 59.6328 658.39 59.6328 658.647C59.6328 658.903 59.8406 659.112 60.0969 659.112Z" fill="#410071"/>
<path d="M60.0962 691.27C59.5838 691.27 59.168 691.686 59.168 692.2C59.168 692.714 59.5838 693.13 60.0962 693.13C60.6085 693.13 61.0258 692.714 61.0258 692.2C61.0258 691.686 60.6085 691.27 60.0962 691.27Z" fill="#410071"/>
<path d="M61.5814 725.755C61.5814 724.933 60.9157 724.266 60.0954 724.266C59.275 724.266 58.6094 724.933 58.6094 725.755C58.6094 726.577 59.275 727.243 60.0954 727.243C60.9157 727.243 61.5814 726.577 61.5814 725.755Z" fill="#410071"/>
<path d="M26.6089 625.186C26.6605 625.186 26.7023 625.145 26.7023 625.093C26.7023 625.042 26.6605 625 26.6089 625C26.5574 625 26.5156 625.042 26.5156 625.093C26.5156 625.145 26.5574 625.186 26.6089 625.186Z" fill="#410071"/>
<path d="M26.6086 659.112C26.8649 659.112 27.0727 658.903 27.0727 658.647C27.0727 658.39 26.8649 658.182 26.6086 658.182C26.3523 658.182 26.1445 658.39 26.1445 658.647C26.1445 658.903 26.3523 659.112 26.6086 659.112Z" fill="#410071"/>
<path d="M26.6079 691.27C26.0955 691.27 25.6797 691.686 25.6797 692.2C25.6797 692.714 26.0955 693.13 26.6079 693.13C27.1217 693.13 27.5361 692.714 27.5361 692.2C27.5361 691.686 27.1216 691.27 26.6079 691.27Z" fill="#410071"/>
<path d="M28.0957 725.755C28.0957 724.933 27.43 724.266 26.6096 724.266C25.7893 724.266 25.125 724.933 25.125 725.755C25.125 726.577 25.7892 727.243 26.6096 727.243C27.4301 727.243 28.0957 726.577 28.0957 725.755Z" fill="#410071"/>
</g>
<defs>
<clipPath id="clip0_817_3269">
<rect width="723" height="123" fill="white" transform="translate(1025)"/>
</clipPath>
<clipPath id="clip1_817_3269">
<rect width="723" height="123" fill="white" transform="translate(1025 625)"/>
</clipPath>
<clipPath id="clip2_817_3269">
<rect width="723" height="123" fill="white" transform="translate(-309)"/>
</clipPath>
<clipPath id="clip3_817_3269">
<rect width="723" height="123" fill="white" transform="translate(-309 625)"/>
</clipPath>
</defs>
</svg>
