<svg width="521" height="218" viewBox="0 0 521 218" fill="none" xmlns="http://www.w3.org/2000/svg">
<g opacity="0.77" clip-path="url(#clip0_451_6809)">
<path d="M4 88.9971H45.2718C45.2718 76.3509 38.4145 66.1018 29.9544 66.1018H19.3173C13.0887 66.1018 7.72843 71.6585 5.33304 79.6382H44.0891" stroke="url(#paint0_linear_451_6809)" stroke-width="2.1123" stroke-miterlimit="10"/>
<path d="M17.7534 141.652C17.7534 147.328 14.674 151.929 10.8777 151.929C7.0784 151.929 4 147.326 4 141.652V88.9968H17.7534V141.652Z" stroke="url(#paint1_linear_451_6809)" stroke-width="2.1123" stroke-miterlimit="10"/>
<path d="M31.5082 141.652C31.5082 147.328 28.4289 151.929 24.6296 151.929C20.8333 151.929 17.7539 147.326 17.7539 141.652V88.9968H31.5082V141.652Z" stroke="url(#paint2_linear_451_6809)" stroke-width="2.1123" stroke-miterlimit="10"/>
<path d="M45.2553 141.652C45.2553 147.328 42.1779 151.929 38.3787 151.929C34.5813 151.929 31.5039 147.326 31.5039 141.652V88.9968H45.2553V141.652Z" stroke="url(#paint3_linear_451_6809)" stroke-width="2.1123" stroke-miterlimit="10"/>
<path d="M44.498 146.355L24.7838 196.623L4.80859 146.465" stroke="url(#paint4_linear_451_6809)" stroke-width="2.1123" stroke-miterlimit="10"/>
<path d="M18.6797 181.315H30.7828" stroke="url(#paint5_linear_451_6809)" stroke-width="2.1123" stroke-miterlimit="10"/>
<path d="M409.188 154.671H359.645V103.164H409.188V154.671Z" stroke="url(#paint6_linear_451_6809)" stroke-width="2.1123" stroke-miterlimit="10"/>
<path d="M414.03 158.22C414.03 156.26 412.474 154.671 410.553 154.671H358.278C356.357 154.671 354.801 156.259 354.801 158.22C354.801 160.18 356.357 161.77 358.278 161.77H410.553C412.473 161.769 414.03 160.18 414.03 158.22Z" stroke="url(#paint7_linear_451_6809)" stroke-width="2.1123" stroke-miterlimit="10"/>
<path d="M359.645 161.768C359.645 175.793 364.056 196.67 384.526 196.67C405.761 196.67 409.408 175.793 409.408 161.768" stroke="url(#paint8_linear_451_6809)" stroke-width="2.1123" stroke-miterlimit="10"/>
<path d="M359.645 154.671V135.352C359.645 131.643 362.589 128.637 366.223 128.637C369.857 128.637 372.802 131.643 372.802 135.352V146.069C372.802 147.381 373.845 148.445 375.131 148.445H375.507C376.794 148.445 377.836 147.381 377.836 146.069V142.109C377.836 138.4 380.781 135.394 384.414 135.394C388.049 135.394 390.993 138.4 390.993 142.109V146.069C390.993 147.381 392.036 148.445 393.323 148.445H393.698C394.985 148.445 396.028 147.381 396.028 146.069V131.559C396.028 127.85 398.972 124.844 402.607 124.844C406.241 124.844 409.186 127.85 409.186 131.559V154.671" stroke="url(#paint9_linear_451_6809)" stroke-width="2.1123" stroke-miterlimit="10"/>
<path d="M409.185 113.494C409.185 117.203 406.24 120.209 402.606 120.209C398.973 120.209 396.027 117.203 396.027 113.494V113.495C396.027 109.786 398.973 106.78 402.606 106.78C406.24 106.78 409.185 109.786 409.185 113.495V113.494Z" stroke="url(#paint10_linear_451_6809)" stroke-width="2.1123" stroke-miterlimit="10"/>
<path d="M162.761 74.4722C162.761 78.1476 159.842 81.127 156.24 81.127H72.7433C69.141 81.127 66.2227 78.1476 66.2227 74.4722V70.4631H162.761V74.4722Z" stroke="url(#paint11_linear_451_6809)" stroke-width="2.1123" stroke-miterlimit="10"/>
<path d="M155.979 131.783H73.0078V81.1264H155.979V131.783Z" stroke="url(#paint12_linear_451_6809)" stroke-width="2.1123" stroke-miterlimit="10"/>
<path d="M139.569 81.127C139.569 78.6734 137.619 76.6842 135.216 76.6842H93.7644C91.3593 76.6842 89.4102 78.6734 89.4102 81.127H139.569Z" stroke="url(#paint13_linear_451_6809)" stroke-width="2.1123" stroke-miterlimit="10"/>
<path d="M81.81 113.545V86.3122H76.8242V113.889" stroke="url(#paint14_linear_451_6809)" stroke-width="2.1123" stroke-miterlimit="10"/>
<path d="M94.1953 126.2H155.976" stroke="url(#paint15_linear_451_6809)" stroke-width="2.1123" stroke-miterlimit="10"/>
<path d="M141.961 126.2V81.1269" stroke="url(#paint16_linear_451_6809)" stroke-width="2.1123" stroke-miterlimit="10"/>
<path d="M141.961 118.795H155.974" stroke="url(#paint17_linear_451_6809)" stroke-width="2.1123" stroke-miterlimit="10"/>
<path d="M141.961 113.456H155.974" stroke="url(#paint18_linear_451_6809)" stroke-width="2.1123" stroke-miterlimit="10"/>
<path d="M141.961 96.9834H155.974" stroke="url(#paint19_linear_451_6809)" stroke-width="2.1123" stroke-miterlimit="10"/>
<path d="M86.6562 115.037V86.3125H138.07V122.406H93.2564" stroke="url(#paint20_linear_451_6809)" stroke-width="2.1123" stroke-miterlimit="10"/>
<path d="M112.36 105.633C112.36 102.064 109.524 99.1701 106.028 99.1701C102.531 99.1701 99.6953 102.064 99.6953 105.633" stroke="url(#paint21_linear_451_6809)" stroke-width="2.1123" stroke-miterlimit="10"/>
<path d="M112.359 105.632C112.359 109.202 115.195 112.096 118.692 112.096C122.189 112.096 125.024 109.202 125.024 105.632" stroke="url(#paint22_linear_451_6809)" stroke-width="2.1123" stroke-miterlimit="10"/>
<path d="M111.517 102.4L113.947 95.51H109.086L111.517 102.4Z" stroke="url(#paint23_linear_451_6809)" stroke-width="2.1123" stroke-miterlimit="10"/>
<path d="M112.579 95.5107H110.582V91.772H112.579V95.5107Z" stroke="url(#paint24_linear_451_6809)" stroke-width="2.1123" stroke-miterlimit="10"/>
<path d="M452.433 68.8111C452.433 62.5098 447.429 57.4016 441.257 57.4016H422.374C416.201 57.4016 411.195 62.5088 411.195 68.8111V71.7488C411.195 78.0481 416.201 83.1553 422.374 83.1553H441.257C447.429 83.1553 452.433 78.0481 452.433 71.7488V68.8111Z" stroke="url(#paint25_linear_451_6809)" stroke-width="2.1123" stroke-miterlimit="10"/>
<path d="M433.431 62.1562H428.301" stroke="url(#paint26_linear_451_6809)" stroke-width="2.1123" stroke-miterlimit="10"/>
<path d="M422.373 62.1558C418.779 62.1558 415.852 65.142 415.852 68.8115" stroke="url(#paint27_linear_451_6809)" stroke-width="2.1123" stroke-miterlimit="10"/>
<path d="M442.157 55.7785C442.157 54.8824 441.446 54.1547 440.565 54.1547H423.062C422.182 54.1547 421.469 54.8814 421.469 55.7785C421.469 56.6766 422.181 57.4033 423.062 57.4033H440.565C441.445 57.4023 442.157 56.6766 442.157 55.7785Z" stroke="url(#paint28_linear_451_6809)" stroke-width="2.1123" stroke-miterlimit="10"/>
<path d="M442.154 83.116H420.321L418.457 88.8965H444.017L442.154 83.116Z" stroke="url(#paint29_linear_451_6809)" stroke-width="2.1123" stroke-miterlimit="10"/>
<path d="M441.048 115.684C441.048 115.684 443.116 155.458 478.316 153.717L433.469 107.949" stroke="url(#paint30_linear_451_6809)" stroke-width="2.1123" stroke-miterlimit="10"/>
<path d="M437.781 112.35C437.781 112.35 478.098 118.188 478.317 153.718" stroke="url(#paint31_linear_451_6809)" stroke-width="2.1123" stroke-miterlimit="10"/>
<path d="M447.453 137.163L448.909 123.707" stroke="url(#paint32_linear_451_6809)" stroke-width="2.1123" stroke-miterlimit="10"/>
<path d="M459.945 149.918L461.422 136.479" stroke="url(#paint33_linear_451_6809)" stroke-width="2.1123" stroke-miterlimit="10"/>
<path d="M468.816 144.021L476.978 143.35" stroke="url(#paint34_linear_451_6809)" stroke-width="2.1123" stroke-miterlimit="10"/>
<path d="M454.777 129.69L468.628 128.169" stroke="url(#paint35_linear_451_6809)" stroke-width="2.1123" stroke-miterlimit="10"/>
<path d="M435.764 98.9608C435.764 96.4062 433.734 94.3348 431.23 94.3348C428.728 94.3348 426.699 96.4062 426.699 98.9608C426.699 101.514 431.23 105.665 431.23 105.665C431.23 105.665 435.764 101.514 435.764 98.9608Z" stroke="url(#paint36_linear_451_6809)" stroke-width="2.1123" stroke-miterlimit="10"/>
<path d="M290.997 198.979V150.416C290.997 147.791 288.913 145.662 286.339 145.662H285.291C282.719 145.662 280.633 147.79 280.633 150.416V198.979" stroke="url(#paint37_linear_451_6809)" stroke-width="2.1123" stroke-miterlimit="10"/>
<path d="M280.641 208.604H244.516V150.493H280.641V198.978" stroke="url(#paint38_linear_451_6809)" stroke-width="2.1123" stroke-miterlimit="10"/>
<path d="M342.153 175.766C342.153 170.514 338.024 166.849 332.929 167.578L306.948 174.153C304.401 174.518 302.336 176.935 302.336 179.551C302.336 182.166 304.401 184.583 306.948 184.946L332.929 191.521C338.024 192.25 342.153 188.585 342.153 183.335V175.766Z" stroke="url(#paint39_linear_451_6809)" stroke-width="2.1123" stroke-miterlimit="10"/>
<path d="M302.805 177.388H291.008" stroke="url(#paint40_linear_451_6809)" stroke-width="2.1123" stroke-miterlimit="10"/>
<path d="M291.008 181.708H302.824" stroke="url(#paint41_linear_451_6809)" stroke-width="2.1123" stroke-miterlimit="10"/>
<path d="M332.551 183.889C334.899 183.889 336.803 181.946 336.803 179.549C336.803 177.152 334.899 175.208 332.551 175.208C330.201 175.208 328.297 177.152 328.297 179.549C328.297 181.946 330.201 183.889 332.551 183.889Z" stroke="url(#paint42_linear_451_6809)" stroke-width="2.1123" stroke-miterlimit="10"/>
<path d="M244.363 179.584V169.886V160.19V150.492H255.76V155.437C255.76 158.062 257.845 160.19 260.418 160.19H266.501C269.073 160.19 271.159 162.318 271.159 164.944V165.133C271.159 167.758 269.074 169.886 266.501 169.886H258.357C255.786 169.886 253.699 172.015 253.699 174.64V174.831C253.699 177.456 255.785 179.584 258.357 179.584C258.357 179.584 260.282 179.584 262.659 179.584C265.033 179.584 266.959 181.712 266.959 184.338V184.526C266.959 187.152 264.875 189.28 262.301 189.28H254.629C252.058 189.28 249.971 191.409 249.971 194.034V194.225C249.971 196.849 252.057 198.978 254.629 198.978H280.642H294.11C296.681 198.978 298.767 201.106 298.767 203.732V203.851C298.767 206.474 296.682 208.604 294.11 208.604H244.365V198.978V189.28V179.584H244.363Z" stroke="url(#paint43_linear_451_6809)" stroke-width="2.1123" stroke-miterlimit="10"/>
<path d="M309.463 208.604C306.891 208.604 304.805 206.475 304.805 203.851V203.732C304.805 201.107 306.89 198.978 309.463 198.978H315.268C317.84 198.978 319.926 201.106 319.926 203.732V203.851C319.926 206.474 317.84 208.604 315.268 208.604H309.463Z" stroke="url(#paint44_linear_451_6809)" stroke-width="2.1123" stroke-miterlimit="10"/>
<path d="M315.07 187.004C315.07 188.26 315.07 193.789 315.07 198.98" stroke="url(#paint45_linear_451_6809)" stroke-width="2.1123" stroke-miterlimit="10"/>
<path d="M204.911 140.023C204.911 140.023 203.785 132.239 204.921 130.022C208.368 123.293 215.499 112.381 215.499 105.588C215.499 97.3967 208.993 90.7578 200.968 90.7578C192.944 90.7578 186.438 97.3967 186.438 105.588C186.438 112.384 193.579 123.297 197.026 130.028C198.16 132.243 197.026 140.023 197.026 140.023" stroke="url(#paint46_linear_451_6809)" stroke-width="2.1123" stroke-miterlimit="10"/>
<path d="M207.072 102.689C207.072 99.4209 204.477 96.7732 201.274 96.7732C198.072 96.7732 195.477 99.4209 195.477 102.689C195.477 105.958 198.072 108.606 201.274 108.606C204.478 108.606 207.072 105.958 207.072 102.689Z" stroke="url(#paint47_linear_451_6809)" stroke-width="2.1123" stroke-miterlimit="10"/>
<path d="M217.962 156.512C217.962 146.933 210.354 139.169 200.967 139.169C191.581 139.169 183.973 146.933 183.973 156.512C183.973 164.785 188.735 167.7 191.121 173.616C193.163 178.679 191.218 184.153 191.218 184.153C191.218 184.153 199.081 181.413 204.355 178.68C215.499 172.906 217.962 166.092 217.962 156.512Z" stroke="url(#paint48_linear_451_6809)" stroke-width="2.1123" stroke-miterlimit="10"/>
<path d="M188.691 169.132V159.817C188.691 158.468 189.763 157.372 191.088 157.372C192.411 157.372 193.484 158.467 193.484 159.817V162.491C193.484 163.865 194.575 164.976 195.92 164.976C197.266 164.976 198.356 163.865 198.356 162.491V153.473C198.356 152.123 199.428 151.027 200.753 151.027C202.076 151.027 203.149 152.122 203.149 153.473V167.347C203.149 168.721 204.241 169.834 205.586 169.834C206.932 169.834 208.022 168.721 208.022 167.347V156.966C208.022 155.616 209.094 154.519 210.419 154.519C211.741 154.519 212.814 155.615 212.814 156.966V159.215C212.814 160.589 213.906 161.702 215.251 161.702C216.597 161.702 217.687 160.589 217.687 159.215V153.367" stroke="url(#paint49_linear_451_6809)" stroke-width="2.1123" stroke-miterlimit="10"/>
<path d="M142.377 184.339C150.401 184.339 156.907 177.7 156.907 169.507C156.907 161.318 150.401 154.678 142.377 154.678C134.352 154.678 117.055 161.317 117.055 169.507C117.055 177.7 134.351 184.339 142.377 184.339Z" stroke="url(#paint50_linear_451_6809)" stroke-width="2.1123" stroke-miterlimit="10"/>
<path d="M108.629 165.484H118.423" stroke="url(#paint51_linear_451_6809)" stroke-width="2.1123" stroke-miterlimit="10"/>
<path d="M108.629 173.532H118.436" stroke="url(#paint52_linear_451_6809)" stroke-width="2.1123" stroke-miterlimit="10"/>
<path d="M66.2773 173.527V165.482L94.049 155.389L108.641 165.482V173.527L94.049 183.629L66.2773 173.527Z" stroke="url(#paint53_linear_451_6809)" stroke-width="2.1123" stroke-miterlimit="10"/>
<path d="M76.418 161.794H86.0558C87.3782 161.794 88.4512 162.888 88.4512 164.24C88.4512 165.59 87.3791 166.685 86.0558 166.685H80.6412C79.2965 166.685 78.205 167.799 78.205 169.172C78.205 170.546 79.2965 171.658 80.6412 171.658H101.542C102.865 171.658 103.938 172.752 103.938 174.104C103.938 175.454 102.866 176.549 101.542 176.549H92.6143C91.2696 176.549 90.1781 177.661 90.1781 179.036C90.1781 180.41 91.2696 181.521 92.6143 181.521H97.0936" stroke="url(#paint54_linear_451_6809)" stroke-width="2.1123" stroke-miterlimit="10"/>
<path d="M145.213 175.423C148.414 175.423 151.01 172.775 151.01 169.507C151.01 166.238 148.414 163.591 145.213 163.591C142.011 163.591 139.414 166.238 139.414 169.507C139.415 172.775 142.012 175.423 145.213 175.423Z" stroke="url(#paint55_linear_451_6809)" stroke-width="2.1123" stroke-miterlimit="10"/>
<path d="M513.974 213.861H469.648V163.077H513.974V213.861Z" stroke="url(#paint56_linear_451_6809)" stroke-width="2.1123" stroke-miterlimit="10"/>
<path d="M466.143 217.836C468.084 217.836 469.657 216.231 469.657 214.249V162.69C469.657 160.708 468.084 159.103 466.143 159.103C464.202 159.103 462.629 160.708 462.629 162.69V214.249C462.628 216.231 464.202 217.836 466.143 217.836Z" stroke="url(#paint57_linear_451_6809)" stroke-width="2.1123" stroke-miterlimit="10"/>
<path d="M517.488 217.836C519.427 217.836 521.002 216.231 521.002 214.249V162.69C521.002 160.708 519.427 159.103 517.488 159.103C515.545 159.103 513.973 160.708 513.973 162.69V214.249C513.973 216.231 515.545 217.836 517.488 217.836Z" stroke="url(#paint58_linear_451_6809)" stroke-width="2.1123" stroke-miterlimit="10"/>
<path d="M501.852 163.076L513.97 180.397" stroke="url(#paint59_linear_451_6809)" stroke-width="2.1123" stroke-miterlimit="10"/>
<path d="M485.742 163.074L513.979 203.792" stroke="url(#paint60_linear_451_6809)" stroke-width="2.1123" stroke-miterlimit="10"/>
<path d="M469.648 163.077L504.975 213.86" stroke="url(#paint61_linear_451_6809)" stroke-width="2.1123" stroke-miterlimit="10"/>
<path d="M497.105 163.077L469.648 182.969" stroke="url(#paint62_linear_451_6809)" stroke-width="2.1123" stroke-miterlimit="10"/>
<path d="M513.971 167.001L469.648 199.113" stroke="url(#paint63_linear_451_6809)" stroke-width="2.1123" stroke-miterlimit="10"/>
<path d="M513.973 183.149L471.578 213.861" stroke="url(#paint64_linear_451_6809)" stroke-width="2.1123" stroke-miterlimit="10"/>
<path d="M513.973 199.292L493.863 213.861" stroke="url(#paint65_linear_451_6809)" stroke-width="2.1123" stroke-miterlimit="10"/>
<path d="M469.648 186.558L488.827 213.861" stroke="url(#paint66_linear_451_6809)" stroke-width="2.1123" stroke-miterlimit="10"/>
<path d="M462.623 185.499H430.957V168.767H462.623V185.499Z" stroke="url(#paint67_linear_451_6809)" stroke-width="2.1123" stroke-miterlimit="10"/>
<path d="M451.982 168.766H430.957V164.032H451.982V168.766Z" stroke="url(#paint68_linear_451_6809)" stroke-width="2.1123" stroke-miterlimit="10"/>
<path d="M455.652 168.766V185.499" stroke="url(#paint69_linear_451_6809)" stroke-width="2.1123" stroke-miterlimit="10"/>
<path d="M462.622 210.479V193.749H447.487L430.957 202.115L447.487 210.479H462.622Z" stroke="url(#paint70_linear_451_6809)" stroke-width="2.1123" stroke-miterlimit="10"/>
<path d="M462.627 193.747H447.492" stroke="url(#paint71_linear_451_6809)" stroke-width="2.1123" stroke-miterlimit="10"/>
<path d="M445.318 194.845C444.968 195.313 444.762 195.897 444.762 196.531C444.762 198.069 445.983 199.316 447.49 199.316H459.946" stroke="url(#paint72_linear_451_6809)" stroke-width="2.1123" stroke-miterlimit="10"/>
<path d="M449.934 204.897H462.615" stroke="url(#paint73_linear_451_6809)" stroke-width="2.1123" stroke-miterlimit="10"/>
<path d="M447.49 199.328C445.983 199.328 444.762 200.574 444.762 202.113C444.762 203.649 445.983 204.897 447.49 204.897" stroke="url(#paint74_linear_451_6809)" stroke-width="2.1123" stroke-miterlimit="10"/>
<path d="M447.49 204.905C445.983 204.905 444.762 206.154 444.762 207.693C444.762 208.327 444.968 208.911 445.318 209.379" stroke="url(#paint75_linear_451_6809)" stroke-width="2.1123" stroke-miterlimit="10"/>
<path d="M447.492 210.478H462.627" stroke="url(#paint76_linear_451_6809)" stroke-width="2.1123" stroke-miterlimit="10"/>
<path d="M437.496 198.802V205.422" stroke="url(#paint77_linear_451_6809)" stroke-width="2.1123" stroke-miterlimit="10"/>
<path d="M240.953 85.86C240.953 110.369 260.419 130.236 284.434 130.236C308.447 130.236 327.917 110.368 327.917 85.86" stroke="url(#paint78_linear_451_6809)" stroke-width="2.1123" stroke-miterlimit="10"/>
<path d="M327.918 130.236H240.953" stroke="url(#paint79_linear_451_6809)" stroke-width="2.1123" stroke-miterlimit="10"/>
<path d="M243.65 130.711C243.65 129.452 242.651 128.433 241.419 128.433C240.187 128.433 239.188 129.452 239.188 130.711C239.188 131.968 240.187 132.989 241.419 132.989C242.651 132.988 243.65 131.967 243.65 130.711Z" fill="#231F20" stroke="url(#paint80_linear_451_6809)" stroke-width="2.1123" stroke-miterlimit="10"/>
<path d="M330.147 130.711C330.147 129.452 329.148 128.433 327.917 128.433C326.683 128.433 325.684 129.452 325.684 130.711C325.684 131.968 326.683 132.989 327.917 132.989C329.147 132.988 330.147 131.967 330.147 130.711Z" fill="#231F20" stroke="url(#paint81_linear_451_6809)" stroke-width="2.1123" stroke-miterlimit="10"/>
<path d="M287.126 132.988H281.734V127.484H287.126V132.988Z" stroke="url(#paint82_linear_451_6809)" stroke-width="2.1123" stroke-miterlimit="10"/>
<path d="M243.649 88.6123H238.258V83.1091H243.649V88.6123Z" stroke="url(#paint83_linear_451_6809)" stroke-width="2.1123" stroke-miterlimit="10"/>
<path d="M330.619 88.6123H325.227V83.1091H330.619V88.6123Z" stroke="url(#paint84_linear_451_6809)" stroke-width="2.1123" stroke-miterlimit="10"/>
<path d="M277.333 51.3967C277.069 58.4099 275.598 70.2273 257.676 76.3533C275.598 83.1091 284.432 108.049 284.432 119.727" stroke="url(#paint85_linear_451_6809)" stroke-width="2.1123" stroke-miterlimit="10"/>
<path d="M291.535 51.3967C291.799 58.4099 293.268 70.2273 311.191 76.3533C293.268 83.1091 284.438 108.049 284.438 119.727" stroke="url(#paint86_linear_451_6809)" stroke-width="2.1123" stroke-miterlimit="10"/>
<path d="M284.879 56.042H283.982C280.382 56.042 277.191 53.0755 276.854 49.4159L275.598 35.7242H293.263L292.007 49.4159C291.673 53.0745 288.482 56.042 284.879 56.042Z" stroke="url(#paint87_linear_451_6809)" stroke-width="2.1123" stroke-miterlimit="10"/>
<path d="M284.438 119.727V73.8413" stroke="url(#paint88_linear_451_6809)" stroke-width="2.1123" stroke-miterlimit="10"/>
<path d="M286.666 73.8418C286.666 72.5843 285.667 71.5644 284.436 71.5644C283.202 71.5644 282.203 72.5843 282.203 73.8418C282.203 75.1003 283.201 76.1211 284.436 76.1211C285.667 76.1211 286.666 75.1003 286.666 73.8418Z" fill="#231F20" stroke="url(#paint89_linear_451_6809)" stroke-width="2.1123" stroke-miterlimit="10"/>
<path d="M391.801 74.1154C391.801 74.1154 385.442 73.8837 384.419 61.9534C383.394 73.8837 377.035 74.1154 377.035 74.1154C377.035 74.1154 383.395 74.351 384.419 86.2793C385.442 74.352 391.801 74.1154 391.801 74.1154Z" fill="black" stroke="url(#paint90_linear_451_6809)" stroke-width="4.1086" stroke-miterlimit="10" stroke-linecap="round" stroke-linejoin="round"/>
<path d="M287.198 -0.248865C287.198 -0.248865 283.668 -0.377576 283.099 -6.99966C282.531 -0.376586 279 -0.248865 279 -0.248865C279 -0.248865 282.531 -0.118165 283.099 6.50293C283.668 -0.118165 287.198 -0.248865 287.198 -0.248865Z" fill="black" stroke="url(#paint91_linear_451_6809)" stroke-width="2.2807" stroke-miterlimit="10" stroke-linecap="round" stroke-linejoin="round"/>
<path d="M144.761 13.547C144.761 13.547 141.23 13.4183 140.662 6.79624C140.093 13.4193 136.562 13.547 136.562 13.547C136.562 13.547 140.093 13.6777 140.662 20.2988C141.23 13.6777 144.761 13.547 144.761 13.547Z" fill="black" stroke="url(#paint92_linear_451_6809)" stroke-width="2.2807" stroke-miterlimit="10" stroke-linecap="round" stroke-linejoin="round"/>
<path d="M172.143 196.668C172.143 196.668 168.104 196.522 167.454 188.942C166.802 196.521 162.762 196.668 162.762 196.668C162.762 196.668 166.802 196.819 167.454 204.396C168.104 196.82 172.143 196.668 172.143 196.668Z" fill="black" stroke="url(#paint93_linear_451_6809)" stroke-width="2.6098" stroke-miterlimit="10" stroke-linecap="round" stroke-linejoin="round"/>
<path d="M351.541 83.1547C351.541 83.1547 347.501 83.0082 346.851 75.4286C346.2 83.0072 342.16 83.1547 342.16 83.1547C342.16 83.1547 346.2 83.3052 346.851 90.8828C347.501 83.3052 351.541 83.1547 351.541 83.1547Z" fill="black" stroke="url(#paint94_linear_451_6809)" stroke-width="2.6098" stroke-miterlimit="10" stroke-linecap="round" stroke-linejoin="round"/>
<path d="M170.45 140.023C170.45 140.023 167.866 139.928 167.45 135.081C167.034 139.929 164.449 140.023 164.449 140.023C164.449 140.023 167.034 140.119 167.45 144.965C167.866 140.119 170.45 140.023 170.45 140.023Z" fill="black" stroke="url(#paint95_linear_451_6809)" stroke-width="1.6693" stroke-miterlimit="10" stroke-linecap="round" stroke-linejoin="round"/>
<path d="M121.699 198.504C121.699 198.504 119.115 198.408 118.699 193.562C118.283 198.409 115.699 198.504 115.699 198.504C115.699 198.504 118.283 198.6 118.699 203.445C119.115 198.6 121.699 198.504 121.699 198.504Z" fill="black" stroke="url(#paint96_linear_451_6809)" stroke-width="1.6693" stroke-miterlimit="10" stroke-linecap="round" stroke-linejoin="round"/>
<path d="M356.227 206.575C356.227 206.575 352.188 206.428 351.538 198.849C350.888 206.427 346.848 206.575 346.848 206.575C346.848 206.575 350.888 206.723 351.538 214.301C352.188 206.724 356.227 206.575 356.227 206.575Z" fill="black" stroke="url(#paint97_linear_451_6809)" stroke-width="2.6098" stroke-miterlimit="10" stroke-linecap="round" stroke-linejoin="round"/>
<path d="M191.131 63.3881C191.131 63.3881 187.091 63.2416 186.441 55.662C185.79 63.2406 181.75 63.3881 181.75 63.3881C181.75 63.3881 185.79 63.5377 186.441 71.1152C187.09 63.5377 191.131 63.3881 191.131 63.3881Z" fill="black" stroke="url(#paint98_linear_451_6809)" stroke-width="2.6098" stroke-miterlimit="10" stroke-linecap="round" stroke-linejoin="round"/>
<path d="M222.205 73.8413C222.205 73.8413 218.165 73.6947 217.515 66.1152C216.864 73.6937 212.824 73.8413 212.824 73.8413C212.824 73.8413 216.864 73.9908 217.515 81.5684C218.165 73.9908 222.205 73.8413 222.205 73.8413Z" fill="black" stroke="url(#paint99_linear_451_6809)" stroke-width="2.6098" stroke-miterlimit="10" stroke-linecap="round" stroke-linejoin="round"/>
<path d="M84.9432 49.853C84.9432 49.853 80.9034 49.7064 80.2534 42.1269C79.6024 49.7054 75.5625 49.853 75.5625 49.853C75.5625 49.853 79.6024 50.0025 80.2534 57.5801C80.9034 50.0025 84.9432 49.853 84.9432 49.853Z" fill="black" stroke="url(#paint100_linear_451_6809)" stroke-width="2.6098" stroke-miterlimit="10" stroke-linecap="round" stroke-linejoin="round"/>
<path d="M473.51 91.771C473.51 91.771 469.47 91.6244 468.82 84.0449C468.169 91.6234 464.129 91.771 464.129 91.771C464.129 91.771 468.169 91.9205 468.82 99.498C469.47 91.9215 473.51 91.771 473.51 91.771Z" fill="black" stroke="url(#paint101_linear_451_6809)" stroke-width="2.6098" stroke-miterlimit="10" stroke-linecap="round" stroke-linejoin="round"/>
<path d="M70.9159 197.206C70.9159 197.206 66.876 197.059 66.226 189.479C65.575 197.058 61.5352 197.206 61.5352 197.206C61.5352 197.206 65.575 197.355 66.226 204.933C66.876 197.356 70.9159 197.206 70.9159 197.206Z" fill="black" stroke="url(#paint102_linear_451_6809)" stroke-width="2.6098" stroke-miterlimit="10" stroke-linecap="round" stroke-linejoin="round"/>
<path d="M418.717 208.606C418.717 208.606 414.677 208.459 414.027 200.88C413.376 208.458 409.336 208.606 409.336 208.606C409.336 208.606 413.376 208.755 414.027 216.333C414.676 208.755 418.717 208.606 418.717 208.606Z" fill="black" stroke="url(#paint103_linear_451_6809)" stroke-width="2.6098" stroke-miterlimit="10" stroke-linecap="round" stroke-linejoin="round"/>
</g>
<defs>
<linearGradient id="paint0_linear_451_6809" x1="24.6359" y1="66.1018" x2="24.6359" y2="88.9971" gradientUnits="userSpaceOnUse">
<stop stop-color="#410071"/>
<stop offset="1" stop-color="#410071"/>
</linearGradient>
<linearGradient id="paint1_linear_451_6809" x1="10.8767" y1="88.9967" x2="10.8767" y2="151.929" gradientUnits="userSpaceOnUse">
<stop stop-color="#410071"/>
<stop offset="1" stop-color="#410071"/>
</linearGradient>
<linearGradient id="paint2_linear_451_6809" x1="24.6311" y1="88.9967" x2="24.6311" y2="151.929" gradientUnits="userSpaceOnUse">
<stop stop-color="#410071"/>
<stop offset="1" stop-color="#410071"/>
</linearGradient>
<linearGradient id="paint3_linear_451_6809" x1="38.3796" y1="88.9967" x2="38.3796" y2="151.929" gradientUnits="userSpaceOnUse">
<stop stop-color="#410071"/>
<stop offset="1" stop-color="#410071"/>
</linearGradient>
<linearGradient id="paint4_linear_451_6809" x1="24.6533" y1="146.355" x2="24.6533" y2="196.623" gradientUnits="userSpaceOnUse">
<stop stop-color="#410071"/>
<stop offset="1" stop-color="#410071"/>
</linearGradient>
<linearGradient id="paint5_linear_451_6809" x1="24.7312" y1="180.315" x2="24.7312" y2="181.315" gradientUnits="userSpaceOnUse">
<stop stop-color="#410071"/>
<stop offset="1" stop-color="#410071"/>
</linearGradient>
<linearGradient id="paint6_linear_451_6809" x1="384.416" y1="103.164" x2="384.416" y2="154.671" gradientUnits="userSpaceOnUse">
<stop stop-color="#410071"/>
<stop offset="1" stop-color="#410071"/>
</linearGradient>
<linearGradient id="paint7_linear_451_6809" x1="384.415" y1="154.671" x2="384.415" y2="161.77" gradientUnits="userSpaceOnUse">
<stop stop-color="#410071"/>
<stop offset="1" stop-color="#410071"/>
</linearGradient>
<linearGradient id="paint8_linear_451_6809" x1="384.526" y1="161.768" x2="384.526" y2="196.67" gradientUnits="userSpaceOnUse">
<stop stop-color="#410071"/>
<stop offset="1" stop-color="#410071"/>
</linearGradient>
<linearGradient id="paint9_linear_451_6809" x1="384.415" y1="124.844" x2="384.415" y2="154.671" gradientUnits="userSpaceOnUse">
<stop stop-color="#410071"/>
<stop offset="1" stop-color="#410071"/>
</linearGradient>
<linearGradient id="paint10_linear_451_6809" x1="402.606" y1="106.78" x2="402.606" y2="120.209" gradientUnits="userSpaceOnUse">
<stop stop-color="#410071"/>
<stop offset="1" stop-color="#410071"/>
</linearGradient>
<linearGradient id="paint11_linear_451_6809" x1="114.492" y1="70.4631" x2="114.492" y2="81.127" gradientUnits="userSpaceOnUse">
<stop stop-color="#410071"/>
<stop offset="1" stop-color="#410071"/>
</linearGradient>
<linearGradient id="paint12_linear_451_6809" x1="114.494" y1="81.1264" x2="114.494" y2="131.783" gradientUnits="userSpaceOnUse">
<stop stop-color="#410071"/>
<stop offset="1" stop-color="#410071"/>
</linearGradient>
<linearGradient id="paint13_linear_451_6809" x1="114.489" y1="76.6842" x2="114.489" y2="81.127" gradientUnits="userSpaceOnUse">
<stop stop-color="#410071"/>
<stop offset="1" stop-color="#410071"/>
</linearGradient>
<linearGradient id="paint14_linear_451_6809" x1="79.3171" y1="86.3122" x2="79.3171" y2="113.889" gradientUnits="userSpaceOnUse">
<stop stop-color="#410071"/>
<stop offset="1" stop-color="#410071"/>
</linearGradient>
<linearGradient id="paint15_linear_451_6809" x1="125.086" y1="125.2" x2="125.086" y2="126.2" gradientUnits="userSpaceOnUse">
<stop stop-color="#410071"/>
<stop offset="1" stop-color="#410071"/>
</linearGradient>
<linearGradient id="paint16_linear_451_6809" x1="142.461" y1="81.1269" x2="142.461" y2="126.2" gradientUnits="userSpaceOnUse">
<stop stop-color="#410071"/>
<stop offset="1" stop-color="#410071"/>
</linearGradient>
<linearGradient id="paint17_linear_451_6809" x1="148.968" y1="117.795" x2="148.968" y2="118.795" gradientUnits="userSpaceOnUse">
<stop stop-color="#410071"/>
<stop offset="1" stop-color="#410071"/>
</linearGradient>
<linearGradient id="paint18_linear_451_6809" x1="148.968" y1="112.456" x2="148.968" y2="113.456" gradientUnits="userSpaceOnUse">
<stop stop-color="#410071"/>
<stop offset="1" stop-color="#410071"/>
</linearGradient>
<linearGradient id="paint19_linear_451_6809" x1="148.968" y1="95.9834" x2="148.968" y2="96.9834" gradientUnits="userSpaceOnUse">
<stop stop-color="#410071"/>
<stop offset="1" stop-color="#410071"/>
</linearGradient>
<linearGradient id="paint20_linear_451_6809" x1="112.363" y1="86.3125" x2="112.363" y2="122.406" gradientUnits="userSpaceOnUse">
<stop stop-color="#410071"/>
<stop offset="1" stop-color="#410071"/>
</linearGradient>
<linearGradient id="paint21_linear_451_6809" x1="106.028" y1="99.1701" x2="106.028" y2="105.633" gradientUnits="userSpaceOnUse">
<stop stop-color="#410071"/>
<stop offset="1" stop-color="#410071"/>
</linearGradient>
<linearGradient id="paint22_linear_451_6809" x1="118.692" y1="105.632" x2="118.692" y2="112.096" gradientUnits="userSpaceOnUse">
<stop stop-color="#410071"/>
<stop offset="1" stop-color="#410071"/>
</linearGradient>
<linearGradient id="paint23_linear_451_6809" x1="111.516" y1="95.51" x2="111.516" y2="102.4" gradientUnits="userSpaceOnUse">
<stop stop-color="#410071"/>
<stop offset="1" stop-color="#410071"/>
</linearGradient>
<linearGradient id="paint24_linear_451_6809" x1="111.58" y1="91.772" x2="111.58" y2="95.5107" gradientUnits="userSpaceOnUse">
<stop stop-color="#410071"/>
<stop offset="1" stop-color="#410071"/>
</linearGradient>
<linearGradient id="paint25_linear_451_6809" x1="431.814" y1="57.4016" x2="431.814" y2="83.1553" gradientUnits="userSpaceOnUse">
<stop stop-color="#410071"/>
<stop offset="1" stop-color="#410071"/>
</linearGradient>
<linearGradient id="paint26_linear_451_6809" x1="430.866" y1="61.1562" x2="430.866" y2="62.1562" gradientUnits="userSpaceOnUse">
<stop stop-color="#410071"/>
<stop offset="1" stop-color="#410071"/>
</linearGradient>
<linearGradient id="paint27_linear_451_6809" x1="419.112" y1="62.1558" x2="419.112" y2="68.8115" gradientUnits="userSpaceOnUse">
<stop stop-color="#410071"/>
<stop offset="1" stop-color="#410071"/>
</linearGradient>
<linearGradient id="paint28_linear_451_6809" x1="431.813" y1="54.1547" x2="431.813" y2="57.4033" gradientUnits="userSpaceOnUse">
<stop stop-color="#410071"/>
<stop offset="1" stop-color="#410071"/>
</linearGradient>
<linearGradient id="paint29_linear_451_6809" x1="431.237" y1="83.116" x2="431.237" y2="88.8965" gradientUnits="userSpaceOnUse">
<stop stop-color="#410071"/>
<stop offset="1" stop-color="#410071"/>
</linearGradient>
<linearGradient id="paint30_linear_451_6809" x1="455.892" y1="107.949" x2="455.892" y2="153.772" gradientUnits="userSpaceOnUse">
<stop stop-color="#410071"/>
<stop offset="1" stop-color="#410071"/>
</linearGradient>
<linearGradient id="paint31_linear_451_6809" x1="458.049" y1="112.35" x2="458.049" y2="153.718" gradientUnits="userSpaceOnUse">
<stop stop-color="#410071"/>
<stop offset="1" stop-color="#410071"/>
</linearGradient>
<linearGradient id="paint32_linear_451_6809" x1="448.181" y1="123.707" x2="448.181" y2="137.163" gradientUnits="userSpaceOnUse">
<stop stop-color="#410071"/>
<stop offset="1" stop-color="#410071"/>
</linearGradient>
<linearGradient id="paint33_linear_451_6809" x1="460.684" y1="136.479" x2="460.684" y2="149.918" gradientUnits="userSpaceOnUse">
<stop stop-color="#410071"/>
<stop offset="1" stop-color="#410071"/>
</linearGradient>
<linearGradient id="paint34_linear_451_6809" x1="472.897" y1="143.35" x2="472.897" y2="144.021" gradientUnits="userSpaceOnUse">
<stop stop-color="#410071"/>
<stop offset="1" stop-color="#410071"/>
</linearGradient>
<linearGradient id="paint35_linear_451_6809" x1="461.703" y1="128.169" x2="461.703" y2="129.69" gradientUnits="userSpaceOnUse">
<stop stop-color="#410071"/>
<stop offset="1" stop-color="#410071"/>
</linearGradient>
<linearGradient id="paint36_linear_451_6809" x1="431.231" y1="94.3348" x2="431.231" y2="105.665" gradientUnits="userSpaceOnUse">
<stop stop-color="#410071"/>
<stop offset="1" stop-color="#410071"/>
</linearGradient>
<linearGradient id="paint37_linear_451_6809" x1="285.815" y1="145.662" x2="285.815" y2="198.979" gradientUnits="userSpaceOnUse">
<stop stop-color="#410071"/>
<stop offset="1" stop-color="#410071"/>
</linearGradient>
<linearGradient id="paint38_linear_451_6809" x1="262.578" y1="150.493" x2="262.578" y2="208.604" gradientUnits="userSpaceOnUse">
<stop stop-color="#410071"/>
<stop offset="1" stop-color="#410071"/>
</linearGradient>
<linearGradient id="paint39_linear_451_6809" x1="322.245" y1="167.486" x2="322.245" y2="191.613" gradientUnits="userSpaceOnUse">
<stop stop-color="#410071"/>
<stop offset="1" stop-color="#410071"/>
</linearGradient>
<linearGradient id="paint40_linear_451_6809" x1="296.907" y1="176.388" x2="296.907" y2="177.388" gradientUnits="userSpaceOnUse">
<stop stop-color="#410071"/>
<stop offset="1" stop-color="#410071"/>
</linearGradient>
<linearGradient id="paint41_linear_451_6809" x1="296.916" y1="180.708" x2="296.916" y2="181.708" gradientUnits="userSpaceOnUse">
<stop stop-color="#410071"/>
<stop offset="1" stop-color="#410071"/>
</linearGradient>
<linearGradient id="paint42_linear_451_6809" x1="332.55" y1="175.208" x2="332.55" y2="183.889" gradientUnits="userSpaceOnUse">
<stop stop-color="#410071"/>
<stop offset="1" stop-color="#410071"/>
</linearGradient>
<linearGradient id="paint43_linear_451_6809" x1="271.565" y1="150.492" x2="271.565" y2="208.604" gradientUnits="userSpaceOnUse">
<stop stop-color="#410071"/>
<stop offset="1" stop-color="#410071"/>
</linearGradient>
<linearGradient id="paint44_linear_451_6809" x1="312.365" y1="198.978" x2="312.365" y2="208.604" gradientUnits="userSpaceOnUse">
<stop stop-color="#410071"/>
<stop offset="1" stop-color="#410071"/>
</linearGradient>
<linearGradient id="paint45_linear_451_6809" x1="315.57" y1="187.004" x2="315.57" y2="198.98" gradientUnits="userSpaceOnUse">
<stop stop-color="#410071"/>
<stop offset="1" stop-color="#410071"/>
</linearGradient>
<linearGradient id="paint46_linear_451_6809" x1="200.968" y1="90.7578" x2="200.968" y2="140.023" gradientUnits="userSpaceOnUse">
<stop stop-color="#410071"/>
<stop offset="1" stop-color="#410071"/>
</linearGradient>
<linearGradient id="paint47_linear_451_6809" x1="201.274" y1="96.7732" x2="201.274" y2="108.606" gradientUnits="userSpaceOnUse">
<stop stop-color="#410071"/>
<stop offset="1" stop-color="#410071"/>
</linearGradient>
<linearGradient id="paint48_linear_451_6809" x1="200.967" y1="139.169" x2="200.967" y2="184.153" gradientUnits="userSpaceOnUse">
<stop stop-color="#410071"/>
<stop offset="1" stop-color="#410071"/>
</linearGradient>
<linearGradient id="paint49_linear_451_6809" x1="203.189" y1="151.027" x2="203.189" y2="169.834" gradientUnits="userSpaceOnUse">
<stop stop-color="#410071"/>
<stop offset="1" stop-color="#410071"/>
</linearGradient>
<linearGradient id="paint50_linear_451_6809" x1="136.981" y1="154.678" x2="136.981" y2="184.339" gradientUnits="userSpaceOnUse">
<stop stop-color="#410071"/>
<stop offset="1" stop-color="#410071"/>
</linearGradient>
<linearGradient id="paint51_linear_451_6809" x1="113.526" y1="164.484" x2="113.526" y2="165.484" gradientUnits="userSpaceOnUse">
<stop stop-color="#410071"/>
<stop offset="1" stop-color="#410071"/>
</linearGradient>
<linearGradient id="paint52_linear_451_6809" x1="113.532" y1="172.532" x2="113.532" y2="173.532" gradientUnits="userSpaceOnUse">
<stop stop-color="#410071"/>
<stop offset="1" stop-color="#410071"/>
</linearGradient>
<linearGradient id="paint53_linear_451_6809" x1="87.459" y1="155.389" x2="87.459" y2="183.629" gradientUnits="userSpaceOnUse">
<stop stop-color="#410071"/>
<stop offset="1" stop-color="#410071"/>
</linearGradient>
<linearGradient id="paint54_linear_451_6809" x1="90.1781" y1="161.794" x2="90.1781" y2="181.521" gradientUnits="userSpaceOnUse">
<stop stop-color="#410071"/>
<stop offset="1" stop-color="#410071"/>
</linearGradient>
<linearGradient id="paint55_linear_451_6809" x1="145.212" y1="163.591" x2="145.212" y2="175.423" gradientUnits="userSpaceOnUse">
<stop stop-color="#410071"/>
<stop offset="1" stop-color="#410071"/>
</linearGradient>
<linearGradient id="paint56_linear_451_6809" x1="491.811" y1="163.077" x2="491.811" y2="213.861" gradientUnits="userSpaceOnUse">
<stop stop-color="#410071"/>
<stop offset="1" stop-color="#410071"/>
</linearGradient>
<linearGradient id="paint57_linear_451_6809" x1="466.143" y1="159.103" x2="466.143" y2="217.836" gradientUnits="userSpaceOnUse">
<stop stop-color="#410071"/>
<stop offset="1" stop-color="#410071"/>
</linearGradient>
<linearGradient id="paint58_linear_451_6809" x1="517.487" y1="159.103" x2="517.487" y2="217.836" gradientUnits="userSpaceOnUse">
<stop stop-color="#410071"/>
<stop offset="1" stop-color="#410071"/>
</linearGradient>
<linearGradient id="paint59_linear_451_6809" x1="507.911" y1="163.076" x2="507.911" y2="180.397" gradientUnits="userSpaceOnUse">
<stop stop-color="#410071"/>
<stop offset="1" stop-color="#410071"/>
</linearGradient>
<linearGradient id="paint60_linear_451_6809" x1="499.86" y1="163.074" x2="499.86" y2="203.792" gradientUnits="userSpaceOnUse">
<stop stop-color="#410071"/>
<stop offset="1" stop-color="#410071"/>
</linearGradient>
<linearGradient id="paint61_linear_451_6809" x1="487.312" y1="163.077" x2="487.312" y2="213.86" gradientUnits="userSpaceOnUse">
<stop stop-color="#410071"/>
<stop offset="1" stop-color="#410071"/>
</linearGradient>
<linearGradient id="paint62_linear_451_6809" x1="483.377" y1="163.077" x2="483.377" y2="182.969" gradientUnits="userSpaceOnUse">
<stop stop-color="#410071"/>
<stop offset="1" stop-color="#410071"/>
</linearGradient>
<linearGradient id="paint63_linear_451_6809" x1="491.81" y1="167.001" x2="491.81" y2="199.113" gradientUnits="userSpaceOnUse">
<stop stop-color="#410071"/>
<stop offset="1" stop-color="#410071"/>
</linearGradient>
<linearGradient id="paint64_linear_451_6809" x1="492.776" y1="183.149" x2="492.776" y2="213.861" gradientUnits="userSpaceOnUse">
<stop stop-color="#410071"/>
<stop offset="1" stop-color="#410071"/>
</linearGradient>
<linearGradient id="paint65_linear_451_6809" x1="503.918" y1="199.292" x2="503.918" y2="213.861" gradientUnits="userSpaceOnUse">
<stop stop-color="#410071"/>
<stop offset="1" stop-color="#410071"/>
</linearGradient>
<linearGradient id="paint66_linear_451_6809" x1="479.238" y1="186.558" x2="479.238" y2="213.861" gradientUnits="userSpaceOnUse">
<stop stop-color="#410071"/>
<stop offset="1" stop-color="#410071"/>
</linearGradient>
<linearGradient id="paint67_linear_451_6809" x1="446.79" y1="168.767" x2="446.79" y2="185.499" gradientUnits="userSpaceOnUse">
<stop stop-color="#410071"/>
<stop offset="1" stop-color="#410071"/>
</linearGradient>
<linearGradient id="paint68_linear_451_6809" x1="441.469" y1="164.032" x2="441.469" y2="168.766" gradientUnits="userSpaceOnUse">
<stop stop-color="#410071"/>
<stop offset="1" stop-color="#410071"/>
</linearGradient>
<linearGradient id="paint69_linear_451_6809" x1="456.152" y1="168.766" x2="456.152" y2="185.499" gradientUnits="userSpaceOnUse">
<stop stop-color="#410071"/>
<stop offset="1" stop-color="#410071"/>
</linearGradient>
<linearGradient id="paint70_linear_451_6809" x1="446.79" y1="193.749" x2="446.79" y2="210.479" gradientUnits="userSpaceOnUse">
<stop stop-color="#410071"/>
<stop offset="1" stop-color="#410071"/>
</linearGradient>
<linearGradient id="paint71_linear_451_6809" x1="455.06" y1="192.747" x2="455.06" y2="193.747" gradientUnits="userSpaceOnUse">
<stop stop-color="#410071"/>
<stop offset="1" stop-color="#410071"/>
</linearGradient>
<linearGradient id="paint72_linear_451_6809" x1="452.354" y1="194.845" x2="452.354" y2="199.316" gradientUnits="userSpaceOnUse">
<stop stop-color="#410071"/>
<stop offset="1" stop-color="#410071"/>
</linearGradient>
<linearGradient id="paint73_linear_451_6809" x1="456.274" y1="203.897" x2="456.274" y2="204.897" gradientUnits="userSpaceOnUse">
<stop stop-color="#410071"/>
<stop offset="1" stop-color="#410071"/>
</linearGradient>
<linearGradient id="paint74_linear_451_6809" x1="446.126" y1="199.328" x2="446.126" y2="204.897" gradientUnits="userSpaceOnUse">
<stop stop-color="#410071"/>
<stop offset="1" stop-color="#410071"/>
</linearGradient>
<linearGradient id="paint75_linear_451_6809" x1="446.126" y1="204.905" x2="446.126" y2="209.379" gradientUnits="userSpaceOnUse">
<stop stop-color="#410071"/>
<stop offset="1" stop-color="#410071"/>
</linearGradient>
<linearGradient id="paint76_linear_451_6809" x1="455.06" y1="209.478" x2="455.06" y2="210.478" gradientUnits="userSpaceOnUse">
<stop stop-color="#410071"/>
<stop offset="1" stop-color="#410071"/>
</linearGradient>
<linearGradient id="paint77_linear_451_6809" x1="437.996" y1="198.802" x2="437.996" y2="205.422" gradientUnits="userSpaceOnUse">
<stop stop-color="#410071"/>
<stop offset="1" stop-color="#410071"/>
</linearGradient>
<linearGradient id="paint78_linear_451_6809" x1="284.435" y1="85.86" x2="284.435" y2="130.236" gradientUnits="userSpaceOnUse">
<stop stop-color="#410071"/>
<stop offset="1" stop-color="#410071"/>
</linearGradient>
<linearGradient id="paint79_linear_451_6809" x1="284.435" y1="129.236" x2="284.435" y2="130.236" gradientUnits="userSpaceOnUse">
<stop stop-color="#410071"/>
<stop offset="1" stop-color="#410071"/>
</linearGradient>
<linearGradient id="paint80_linear_451_6809" x1="241.419" y1="128.433" x2="241.419" y2="132.989" gradientUnits="userSpaceOnUse">
<stop stop-color="#410071"/>
<stop offset="1" stop-color="#410071"/>
</linearGradient>
<linearGradient id="paint81_linear_451_6809" x1="327.916" y1="128.433" x2="327.916" y2="132.989" gradientUnits="userSpaceOnUse">
<stop stop-color="#410071"/>
<stop offset="1" stop-color="#410071"/>
</linearGradient>
<linearGradient id="paint82_linear_451_6809" x1="284.43" y1="127.484" x2="284.43" y2="132.988" gradientUnits="userSpaceOnUse">
<stop stop-color="#410071"/>
<stop offset="1" stop-color="#410071"/>
</linearGradient>
<linearGradient id="paint83_linear_451_6809" x1="240.953" y1="83.1091" x2="240.953" y2="88.6123" gradientUnits="userSpaceOnUse">
<stop stop-color="#410071"/>
<stop offset="1" stop-color="#410071"/>
</linearGradient>
<linearGradient id="paint84_linear_451_6809" x1="327.923" y1="83.1091" x2="327.923" y2="88.6123" gradientUnits="userSpaceOnUse">
<stop stop-color="#410071"/>
<stop offset="1" stop-color="#410071"/>
</linearGradient>
<linearGradient id="paint85_linear_451_6809" x1="271.054" y1="51.3967" x2="271.054" y2="119.727" gradientUnits="userSpaceOnUse">
<stop stop-color="#410071"/>
<stop offset="1" stop-color="#410071"/>
</linearGradient>
<linearGradient id="paint86_linear_451_6809" x1="297.814" y1="51.3967" x2="297.814" y2="119.727" gradientUnits="userSpaceOnUse">
<stop stop-color="#410071"/>
<stop offset="1" stop-color="#410071"/>
</linearGradient>
<linearGradient id="paint87_linear_451_6809" x1="284.43" y1="35.7242" x2="284.43" y2="56.042" gradientUnits="userSpaceOnUse">
<stop stop-color="#410071"/>
<stop offset="1" stop-color="#410071"/>
</linearGradient>
<linearGradient id="paint88_linear_451_6809" x1="284.938" y1="73.8413" x2="284.938" y2="119.727" gradientUnits="userSpaceOnUse">
<stop stop-color="#410071"/>
<stop offset="1" stop-color="#410071"/>
</linearGradient>
<linearGradient id="paint89_linear_451_6809" x1="284.435" y1="71.5644" x2="284.435" y2="76.1211" gradientUnits="userSpaceOnUse">
<stop stop-color="#410071"/>
<stop offset="1" stop-color="#410071"/>
</linearGradient>
<linearGradient id="paint90_linear_451_6809" x1="384.418" y1="61.9534" x2="384.418" y2="86.2793" gradientUnits="userSpaceOnUse">
<stop stop-color="#410071"/>
<stop offset="1" stop-color="#410071"/>
</linearGradient>
<linearGradient id="paint91_linear_451_6809" x1="283.099" y1="-6.99966" x2="283.099" y2="6.50293" gradientUnits="userSpaceOnUse">
<stop stop-color="#410071"/>
<stop offset="1" stop-color="#410071"/>
</linearGradient>
<linearGradient id="paint92_linear_451_6809" x1="140.662" y1="6.79624" x2="140.662" y2="20.2988" gradientUnits="userSpaceOnUse">
<stop stop-color="#410071"/>
<stop offset="1" stop-color="#410071"/>
</linearGradient>
<linearGradient id="paint93_linear_451_6809" x1="167.453" y1="188.942" x2="167.453" y2="204.396" gradientUnits="userSpaceOnUse">
<stop stop-color="#410071"/>
<stop offset="1" stop-color="#410071"/>
</linearGradient>
<linearGradient id="paint94_linear_451_6809" x1="346.851" y1="75.4286" x2="346.851" y2="90.8828" gradientUnits="userSpaceOnUse">
<stop stop-color="#410071"/>
<stop offset="1" stop-color="#410071"/>
</linearGradient>
<linearGradient id="paint95_linear_451_6809" x1="167.45" y1="135.081" x2="167.45" y2="144.965" gradientUnits="userSpaceOnUse">
<stop stop-color="#410071"/>
<stop offset="1" stop-color="#410071"/>
</linearGradient>
<linearGradient id="paint96_linear_451_6809" x1="118.699" y1="193.562" x2="118.699" y2="203.445" gradientUnits="userSpaceOnUse">
<stop stop-color="#410071"/>
<stop offset="1" stop-color="#410071"/>
</linearGradient>
<linearGradient id="paint97_linear_451_6809" x1="351.538" y1="198.849" x2="351.538" y2="214.301" gradientUnits="userSpaceOnUse">
<stop stop-color="#410071"/>
<stop offset="1" stop-color="#410071"/>
</linearGradient>
<linearGradient id="paint98_linear_451_6809" x1="186.44" y1="55.662" x2="186.44" y2="71.1152" gradientUnits="userSpaceOnUse">
<stop stop-color="#410071"/>
<stop offset="1" stop-color="#410071"/>
</linearGradient>
<linearGradient id="paint99_linear_451_6809" x1="217.515" y1="66.1152" x2="217.515" y2="81.5684" gradientUnits="userSpaceOnUse">
<stop stop-color="#410071"/>
<stop offset="1" stop-color="#410071"/>
</linearGradient>
<linearGradient id="paint100_linear_451_6809" x1="80.2529" y1="42.1269" x2="80.2529" y2="57.5801" gradientUnits="userSpaceOnUse">
<stop stop-color="#410071"/>
<stop offset="1" stop-color="#410071"/>
</linearGradient>
<linearGradient id="paint101_linear_451_6809" x1="468.819" y1="84.0449" x2="468.819" y2="99.498" gradientUnits="userSpaceOnUse">
<stop stop-color="#410071"/>
<stop offset="1" stop-color="#410071"/>
</linearGradient>
<linearGradient id="paint102_linear_451_6809" x1="66.2255" y1="189.479" x2="66.2255" y2="204.933" gradientUnits="userSpaceOnUse">
<stop stop-color="#410071"/>
<stop offset="1" stop-color="#410071"/>
</linearGradient>
<linearGradient id="paint103_linear_451_6809" x1="414.026" y1="200.88" x2="414.026" y2="216.333" gradientUnits="userSpaceOnUse">
<stop stop-color="#410071"/>
<stop offset="1" stop-color="#410071"/>
</linearGradient>
<clipPath id="clip0_451_6809">
<rect width="521" height="218" fill="white" transform="matrix(1 0 0 -1 0 218)"/>
</clipPath>
</defs>
</svg>
