<svg width="87" height="104" viewBox="0 0 87 104" fill="none" xmlns="http://www.w3.org/2000/svg">
<path d="M26.5298 76.9753C30.3635 77.3668 66.8036 77.229 68.4309 76.8359C68.8399 71.7833 68.6594 54.7951 68.1936 53.2707H26.5298V76.9753ZM52.2534 27.47C48.402 27.0661 11.9583 27.2106 10.3503 27.6153C9.94097 32.6644 10.1214 49.6607 10.5865 51.1802H52.2534V27.47ZM24.9404 53.2784C24.4624 53.2212 24.1689 53.1552 23.8754 53.1556C10.2159 53.1709 -3.44406 53.1922 -17.104 53.2176C-17.1666 53.2176 -17.232 53.2861 -17.2905 53.3304C-17.3519 53.3763 -17.4068 53.4318 -17.4359 53.4572V77.0333C-17.0273 77.08 -16.733 77.1432 -16.4387 77.1432C-2.77875 77.1295 10.8812 77.111 24.5415 77.0877C24.6045 77.0877 24.6711 77.0228 24.7301 76.9793C24.7923 76.9342 24.8468 76.8787 24.9404 76.7957V53.2784ZM43.6621 102.843C47.6588 103.223 83.9189 103.085 85.581 102.699V78.7022H43.6621V102.843ZM41.6048 78.7396C37.0323 78.3353 1.32417 78.4972 -0.314909 78.9096V102.887H41.6048V78.7396ZM-17.5073 25.8555C-16.8396 25.8555 -16.3878 25.8558 -15.9365 25.855C-2.4364 25.8361 11.0637 25.8168 24.5638 25.7926C24.6255 25.7926 24.6901 25.7198 24.7466 25.6734C24.806 25.6247 24.8577 25.5663 24.9114 25.5111C25.2129 19.7525 25.0829 3.45451 24.7014 1.49443C24.2747 1.47514 23.8242 1.43604 23.3732 1.43686C9.87314 1.45418 -3.62654 1.47552 -17.1266 1.50171C-17.1876 1.50171 -17.2526 1.57664 -17.3083 1.62574C-17.3656 1.6765 -17.4137 1.73772 -17.5073 1.83959V25.8555ZM-18.8812 27.292V0.103026C-18.255 0.065576 -17.7362 0.00760392 -17.2175 0.00760392C-3.48162 0.00279938 10.2542 0.00355925 23.9905 0.003966C24.3764 0.003966 24.7632 -0.00967928 25.1475 0.0136507C25.9784 0.0644105 26.3994 0.526327 26.4176 1.34911C26.4297 1.88756 26.4245 2.42678 26.4245 2.96563V25.7274C27.219 25.7749 27.8871 25.849 28.5556 25.8498C36.1184 25.8583 43.6807 25.8551 51.2434 25.8555C51.7835 25.8555 52.3237 25.8563 52.8639 25.8615C53.7048 25.87 54.1424 26.3218 54.1953 27.1342C54.23 27.6706 54.2074 28.2114 54.2074 28.7503C54.2078 35.4472 54.2074 42.1446 54.2074 48.842V51.303H56.4589C59.8545 51.303 63.2501 51.3252 66.6453 51.297C70.1318 51.2676 69.9949 51.2374 69.9856 54.5188C69.9662 61.2162 69.98 67.9135 69.9796 74.6109V77.1424C75.7179 77.1602 81.3036 77.1404 87 77.1545V103.653C86.9564 103.697 86.9051 103.755 86.8462 103.805C86.7897 103.852 86.7263 103.924 86.6637 103.926C85.8938 103.957 85.124 103.997 84.3541 103.997C55.733 104 27.1124 104 -1.61525 104C-2.10778 101.849 -1.78804 99.783 -1.84334 97.7408C-1.90189 95.5874 -1.85666 93.4303 -1.85666 91.2749V78.6668H-18.4338C-18.6583 78.4328 -18.714 78.3788 -18.7649 78.3208C-18.8141 78.2649 -18.9001 78.2044 -18.9005 78.146C-18.9377 70.0661 -18.9683 61.9862 -18.9986 53.9059C-19.0015 53.1467 -18.999 52.3872 -18.999 51.3928C-16.5727 51.2205 -14.2821 51.3264 -11.9987 51.3071C-9.68381 51.2877 -7.36853 51.303 -5.05365 51.303H8.6717V27.5038C6.91839 27.0693 5.08029 27.35 3.26682 27.3025C1.41581 27.2542 -0.43722 27.292 -2.28904 27.292H-18.8812Z" fill="url(#paint0_linear_703_532)"/>
<defs>
<linearGradient id="paint0_linear_703_532" x1="34" y1="0" x2="34" y2="104" gradientUnits="userSpaceOnUse">
<stop stop-color="#FCC51F"/>
<stop offset="1" stop-color="#4B0680"/>
</linearGradient>
</defs>
</svg>
