<svg width="790" height="573" viewBox="0 0 790 573" fill="none" xmlns="http://www.w3.org/2000/svg">
<path d="M193.637 286.573C193.637 288.772 192.786 290.762 191.296 292.228C189.807 293.799 187.68 294.636 185.446 294.636H9.18097C4.71318 294.636 0.990005 290.971 0.990005 286.573C0.990005 284.269 1.841 282.279 3.43665 280.813C4.81953 279.347 6.94708 278.404 9.18097 278.404H17.4783C20.7759 270.864 28.435 265.628 37.2642 265.628C43.2213 265.628 48.6464 268.037 52.476 271.911C57.6884 263.219 67.2622 257.355 78.2189 257.355C81.1974 257.355 84.1759 257.878 86.8353 258.612C92.5796 248.034 103.962 240.809 117.046 240.809C132.683 240.809 145.874 251.281 149.916 265.419C152.788 263.952 156.086 263.219 159.49 263.219C169.277 263.219 177.574 269.607 180.127 278.404H185.446C190.02 278.404 193.637 282.07 193.637 286.573Z" fill="url(#paint0_linear_1050_32519)"/>
<path d="M39.707 61.8187C39.707 64.0179 40.5581 66.0077 42.0473 67.4738C43.5366 69.0447 45.6641 69.8824 47.898 69.8824H224.163C228.631 69.8824 232.354 66.2171 232.354 61.8187C232.354 59.5148 231.503 57.5251 229.907 56.059C228.524 54.5928 226.397 53.6503 224.163 53.6503H215.865C212.568 46.1103 204.909 40.8741 196.08 40.8741C190.122 40.8741 184.697 43.2827 180.868 47.1575C175.655 38.4654 166.082 32.601 155.125 32.601C152.146 32.601 149.168 33.1246 146.508 33.8576C140.764 23.2806 129.382 16.0547 116.298 16.0547C100.66 16.0547 87.4698 26.527 83.4275 40.6647C80.5554 39.1985 77.2577 38.4655 73.8537 38.4655C64.0671 38.4655 55.7698 44.8536 53.2168 53.6503H47.898C43.3238 53.6503 39.707 57.3156 39.707 61.8187Z" fill="url(#paint1_linear_1050_32519)"/>
<path d="M397.616 75.8052C397.616 78.9558 398.918 81.6768 400.944 83.6817C402.97 85.6867 405.719 86.9755 408.758 86.9755H648.545C654.767 86.9755 659.832 81.9632 659.832 75.8052C659.832 72.7978 658.53 70.0768 656.504 68.0719C654.478 65.9237 651.728 64.7781 648.545 64.7781H637.257C632.771 54.467 622.497 47.3065 610.486 47.3065C602.382 47.3065 595.001 50.4571 589.647 55.7559C582.701 43.8695 569.532 35.993 554.627 35.993C550.575 35.993 546.668 36.5658 542.906 37.7115C535.091 23.1041 519.752 13.2227 501.952 13.2227C480.535 13.2227 462.591 27.5436 457.237 47.0201C453.329 45.0152 448.843 43.8695 444.068 43.8695C430.754 43.8695 419.612 52.7485 415.994 64.7781H408.758C402.68 64.7781 397.616 69.7904 397.616 75.8052Z" fill="url(#paint2_linear_1050_32519)"/>
<path d="M799.471 56.2726C799.207 60.1174 799.873 64.0377 801.618 67.6068C803.853 72.1753 806.739 76.2482 810.132 79.8962C813.455 83.4013 817.216 86.3387 821.414 88.7083C820.822 90.1775 820.252 91.6943 819.707 93.2587C817.697 99.0184 816.329 104.995 815.534 111.045C815.376 112.184 815.218 113.323 815.06 114.461C815.1 115.031 815.069 115.577 814.967 116.099C814.905 117.191 814.867 118.33 814.851 119.517C814.845 119.992 814.839 120.467 814.833 120.942C814.629 125.641 814.854 130.367 815.509 135.118C816.818 144.739 819.635 154.153 824.034 163.147C827.875 170.999 832.585 178.072 838.24 184.152C838.852 184.915 839.511 185.653 840.219 186.369C841.255 187.513 842.316 188.587 843.402 189.589C844.206 190.257 844.962 190.949 845.669 191.664C846.851 192.62 848.033 193.575 849.216 194.53C851.58 196.44 854.065 198.232 856.672 199.906C845.373 208.97 837.263 220.898 833.006 234.126C827.319 234.195 821.601 234.809 815.852 235.97C807.159 237.568 798.378 240.448 790.01 244.54C785.633 246.799 781.516 249.225 777.66 251.819C777.564 251.866 777.516 251.89 777.516 251.89C767.827 258.398 759.553 266.336 752.843 275.279C748.614 280.887 744.952 286.924 742.077 293.107C720.383 313.448 677.483 316.384 649.904 315.189C642.817 281.326 659.378 231.119 688.523 211.026C702.409 201.404 733.626 187.374 755.448 190.324C755.759 177.434 759.145 164.986 765.31 153.832C764.283 151.976 763.304 150.096 762.373 148.192C751.131 125.207 749.648 106.825 765.623 85.3892C765.623 85.3892 758.821 29.4487 808.719 17.428L815.98 32.2755C805.188 35.4309 800.503 43.0301 799.471 56.2726Z" fill="url(#paint3_linear_1050_32519)"/>
<path d="M830.776 62.5454L1017.14 443.585C1020.7 450.866 1017.58 459.47 1010.37 462.998L270.016 825.104L257.754 831.102L245.045 805.118C233.243 770.023 250.607 735.346 285.086 718.483C292.01 715.096 299.135 712.85 306.246 711.672C305.103 683.747 316.352 656.308 337.316 637.032C337.8 636.559 338.236 636.11 338.623 635.684C338.912 635.543 339.177 635.355 339.419 635.118C345.655 629.592 352.667 624.923 360.602 621.042C364.93 618.926 369.324 617.189 373.786 615.833C373.997 593.968 386.239 572.943 407.301 562.642C410.283 561.183 413.284 560.01 416.306 559.122C430.914 554.631 446.305 556.126 459.411 562.454C465.642 557.283 472.51 552.685 480.156 548.946C481.118 548.475 482.103 548.053 483.111 547.677C488.813 516.936 508.668 489.179 539.107 474.291C559.015 464.554 580.339 461.732 600.44 464.816C588.245 415.759 539.054 384.267 453.727 331.526L478.559 284.705C478.559 284.705 682.878 347.537 742.069 293.11C744.944 286.927 748.606 280.89 752.836 275.283C759.546 266.34 767.819 258.401 777.508 251.893C777.508 251.893 777.556 251.87 777.652 251.823C781.508 249.229 785.625 246.803 790.003 244.544C798.37 240.451 807.151 237.572 815.845 235.973C821.594 234.813 827.312 234.198 832.999 234.129C837.255 220.902 845.366 208.974 856.664 199.909C854.058 198.235 851.572 196.443 849.208 194.533C848.026 193.578 846.844 192.623 845.661 191.668C844.954 190.953 844.198 190.261 843.395 189.592C842.309 188.59 841.247 187.517 840.211 186.373C839.504 185.657 838.844 184.918 838.233 184.156C832.578 178.076 827.867 171.003 824.026 163.151C819.627 154.157 816.811 144.743 815.502 135.122C814.846 130.37 814.621 125.645 814.825 120.945C814.831 120.47 814.837 119.996 814.844 119.521C814.859 118.334 814.898 117.195 814.959 116.103C815.062 115.581 815.093 115.035 815.052 114.465C815.21 113.326 815.369 112.187 815.527 111.049C816.322 104.998 817.689 99.022 819.699 93.2623C820.245 91.6979 820.814 90.1811 821.406 88.7119C817.208 86.3423 813.448 83.4049 810.124 79.8998C806.731 76.2518 803.845 72.1789 801.611 67.6104C799.516 63.3275 798.715 58.7656 799.133 54.1381C799.877 46.5207 803.17 35.7101 815.973 32.2791L830.776 62.5454Z" fill="url(#paint4_linear_1050_32519)"/>
<path d="M155.867 624.586L246.432 809.752C234.699 774.8 250.62 735.345 285.099 718.481C292.023 715.094 299.148 712.848 306.259 711.67C305.115 683.746 316.365 656.306 337.329 637.03C337.813 636.557 338.248 636.108 338.636 635.683C338.925 635.541 339.19 635.353 339.432 635.117C345.667 629.59 352.68 624.921 360.615 621.041C364.943 618.924 369.337 617.187 373.799 615.831C374.01 593.967 386.252 572.941 407.314 562.64C410.295 561.182 413.297 560.008 416.319 559.12C430.927 554.629 446.317 556.124 459.424 562.452C465.655 557.282 472.523 552.684 480.169 548.944C481.131 548.474 482.116 548.051 483.124 547.676C488.826 516.934 508.681 489.178 539.12 474.29C559.028 464.553 580.352 461.731 600.452 464.814C595.545 445.277 586.616 426.291 554.282 399.292C543.451 388.843 525.253 377.222 525.109 377.292C496.834 391.122 472.424 427.475 472.116 456.817C456.954 465.294 447.094 479.493 443.522 495.217C426.744 484.67 404.977 482.932 385.934 492.245C368.19 500.924 356.655 517.181 353.484 535.185C338.67 533.408 323.084 535.9 308.658 542.956C286.73 553.681 271.859 572.985 266.058 594.752C240.777 587.656 212.728 589.521 187.194 602.01C175.22 607.867 164.657 615.51 155.867 624.586Z" fill="url(#paint5_linear_1050_32519)"/>
<path d="M1010.37 462.996L584.08 671.496C582.674 669.353 581.389 667.092 580.226 664.712C565.562 634.732 578.216 598.467 608.511 583.649C614.426 580.756 620.685 578.933 626.861 578.036C631.036 543.441 652.16 511.702 685.918 495.191C703.951 486.372 723.059 483.041 741.531 484.621C749.393 464.146 764.53 446.481 785.881 436.038C802.183 428.065 819.848 425.44 836.519 427.725C842.153 413.292 850.64 399.942 861.752 388.669C844.96 345.929 856.044 298.048 887.347 266.285C878.316 244.164 883.581 219.474 899.281 202.596L1023.5 456.575L1010.37 462.996Z" fill="url(#paint6_linear_1050_32519)"/>
<path d="M315.316 123.119L322.218 114.129C325.719 109.391 324.86 102.711 320.068 99.1579L300.624 84.7898C295.94 81.2078 289.224 82.2012 285.585 86.8616L278.713 95.9585C275.182 100.59 276.15 107.24 280.834 110.822L300.306 125.298C305.07 128.743 311.815 127.857 315.316 123.119Z" fill="url(#paint7_linear_1050_32519)"/>
<path d="M243.246 218.094L250.038 209.134C253.648 204.366 252.681 197.716 248.026 194.241L228.553 179.765C223.761 176.213 217.045 177.206 213.514 181.837L206.642 190.934C203.003 195.595 203.97 202.245 208.763 205.798L228.235 220.274C232.89 223.748 239.635 222.862 243.246 218.094Z" fill="url(#paint8_linear_1050_32519)"/>
<path d="M415.572 366.089L513.879 236.56C525.913 220.667 521.365 198.046 504.136 188.037L403.128 129.419L391.011 122.416L348.694 97.8225C325.147 84.2084 294.769 90.275 278.27 112.086L229.062 176.865C212.563 198.676 215.016 229.114 234.903 247.74L270.506 281.157L280.753 290.734L365.741 370.344C380.215 383.971 403.538 381.982 415.572 366.089Z" fill="url(#paint9_linear_1050_32519)"/>
<path d="M280.762 290.732L403.137 129.417L391.019 122.414L270.515 281.155L280.762 290.732Z" fill="url(#paint10_linear_1050_32519)"/>
<path d="M412.408 346.437L493.948 239.021C504.619 224.99 500.327 205.065 484.919 196.64L468.471 187.804L453.2 179.457C450.344 177.919 446.841 178.743 444.862 181.346L342.756 315.809C340.777 318.413 340.939 322.055 343.287 324.305L355.643 336.541L368.801 349.6C381.186 361.944 401.846 360.438 412.408 346.437Z" fill="url(#paint11_linear_1050_32519)"/>
<path d="M412.407 346.437L493.946 239.02C504.617 224.99 500.325 205.064 484.918 196.64L468.469 187.803L355.641 336.541L368.799 349.599C381.184 361.943 401.844 360.438 412.407 346.437Z" fill="url(#paint12_linear_1050_32519)"/>
<path d="M273.594 282.745L393.374 124.774C395.73 121.84 394.795 117.483 391.607 115.574L376.605 106.925L353.057 93.3113C327.97 78.7278 295.609 85.2106 277.958 108.367L225.516 177.583C207.893 200.847 210.539 233.305 231.697 253.203L251.447 271.75L264.15 283.548C266.831 286.17 271.267 285.787 273.594 282.745Z" fill="url(#paint13_linear_1050_32519)"/>
<path d="M273.591 282.746L393.371 124.775C395.727 121.84 394.792 117.484 391.604 115.574L376.602 106.926L251.444 271.751L264.148 283.549C266.828 286.17 271.264 285.788 273.591 282.746Z" fill="url(#paint14_linear_1050_32519)"/>
<path d="M292.303 197.922L316.291 166.273C318.219 163.914 317.652 160.495 315.31 158.704L310.655 155.23C308.205 153.468 304.724 153.94 302.933 156.378L278.945 188.026C277.126 190.357 277.584 193.804 280.034 195.566L284.689 199.04C287.14 200.802 290.512 200.359 292.303 197.922Z" fill="url(#paint15_linear_1050_32519)"/>
<path d="M441.868 151.863L464.345 164.958L476.463 171.961L505.838 189.081L516.349 175.323C519.503 171.023 518.107 164.948 513.386 162.528L491.839 151.602L479.322 145.282L476.221 143.695L463.292 137.139C458.983 134.954 453.742 136.243 450.908 139.997L441.868 151.863Z" fill="url(#paint16_linear_1050_32519)"/>
<path d="M464.339 164.957L476.457 171.96L491.833 151.602L479.316 145.282L464.339 164.957Z" fill="url(#paint17_linear_1050_32519)"/>
<path d="M441.851 151.866L464.329 164.96L479.385 145.148C480.4 143.724 479.991 141.761 478.4 141.036L466.513 134.893C461.545 132.423 455.516 133.808 452.283 138.245L441.851 151.866Z" fill="url(#paint18_linear_1050_32519)"/>
<path d="M313.335 321.162L332.282 338.888L342.421 348.494L367.25 371.669L356.739 385.426C353.556 389.619 347.268 390.037 343.561 386.193L327.016 368.745L317.306 358.563L314.9 356.099L304.994 345.624C301.757 342.23 301.381 336.918 304.296 333.028L313.335 321.162Z" fill="url(#paint19_linear_1050_32519)"/>
<path d="M332.282 338.887L342.421 348.493L327.016 368.744L317.305 358.563L332.282 338.887Z" fill="url(#paint20_linear_1050_32519)"/>
<path d="M313.336 321.163L332.283 338.889L317.226 358.701C316.211 360.124 314.141 360.218 312.87 358.947L303.766 349.294C299.922 345.371 299.671 339.22 302.933 334.891L313.336 321.163Z" fill="url(#paint21_linear_1050_32519)"/>
<path d="M390.266 335.094L476.808 221.154C478.171 219.292 477.726 216.762 475.962 215.392L472.493 212.867C470.729 211.497 468.145 211.844 466.754 213.599L380.241 327.645C378.849 329.4 379.186 331.959 380.949 333.329L384.448 335.962C386.32 337.303 388.903 336.956 390.266 335.094Z" fill="url(#paint22_linear_1050_32519)"/>
<g style="mix-blend-mode:multiply" opacity="0.5">
<path d="M387.424 331.016L391.034 326.248C391.542 325.536 391.42 324.647 390.704 324.148C390.097 323.62 389.091 323.774 388.664 324.349L385.054 329.117C384.546 329.829 384.668 330.718 385.275 331.246C385.99 331.745 386.888 331.62 387.424 331.016ZM393.601 322.796L397.211 318.028C397.639 317.453 397.517 316.564 396.91 316.036C396.194 315.537 395.297 315.662 394.76 316.267L391.15 321.034C390.643 321.746 390.764 322.635 391.48 323.134C392.087 323.662 393.093 323.508 393.601 322.796ZM399.697 314.713L403.307 309.946C403.844 309.341 403.693 308.345 403.006 307.953C402.399 307.425 401.393 307.579 400.966 308.155L397.355 312.922C396.848 313.634 396.97 314.523 397.577 315.051C398.292 315.55 399.19 315.425 399.697 314.713ZM405.903 306.601L409.513 301.834C409.941 301.258 409.899 300.233 409.212 299.841C408.496 299.342 407.599 299.467 407.062 300.072L403.452 304.839C402.945 305.551 403.066 306.44 403.782 306.939C404.389 307.468 405.395 307.313 405.903 306.601ZM411.999 298.518L415.609 293.751C416.146 293.146 415.995 292.15 415.308 291.758C414.701 291.23 413.804 291.355 413.268 291.96L409.657 296.727C409.15 297.439 409.272 298.328 409.879 298.856C410.594 299.356 411.492 299.23 411.999 298.518ZM418.205 290.406L421.815 285.639C422.351 285.034 422.201 284.038 421.485 283.539C420.798 283.147 419.901 283.272 419.364 283.877L415.754 288.645C415.247 289.356 415.368 290.245 416.084 290.744C416.691 291.273 417.697 291.118 418.205 290.406ZM424.301 282.324L427.911 277.556C428.448 276.951 428.297 275.955 427.69 275.427C427.003 275.035 426.106 275.16 425.57 275.765L421.959 280.533C421.452 281.244 421.574 282.133 422.181 282.661C422.896 283.161 423.794 283.035 424.301 282.324ZM430.507 274.212L434.117 269.444C434.653 268.839 434.502 267.843 433.787 267.344C433.209 266.923 432.203 267.078 431.666 267.682L428.056 272.45C427.549 273.162 427.67 274.05 428.386 274.55C428.993 275.078 429.999 274.923 430.507 274.212ZM436.603 266.129L440.213 261.361C440.721 260.649 440.599 259.76 439.992 259.232C439.276 258.733 438.379 258.858 437.872 259.57L434.261 264.338C433.754 265.05 433.876 265.938 434.483 266.467C435.198 266.966 436.096 266.841 436.603 266.129ZM442.809 258.017L446.419 253.249C446.926 252.537 446.804 251.648 446.089 251.149C445.482 250.621 444.476 250.775 443.968 251.487L440.358 256.255C439.822 256.859 439.972 257.855 440.688 258.355C441.375 258.746 442.301 258.729 442.809 258.017ZM448.905 249.934L452.515 245.166C453.023 244.454 452.901 243.566 452.294 243.037C451.578 242.538 450.681 242.663 450.174 243.375L446.563 248.143C446.027 248.747 446.178 249.743 446.893 250.243C447.472 250.664 448.369 250.538 448.905 249.934ZM455.111 241.822L458.721 237.054C459.228 236.342 459.106 235.454 458.391 234.954C457.784 234.426 456.778 234.58 456.27 235.292L452.66 240.06C452.232 240.635 452.274 241.661 452.99 242.16C453.677 242.552 454.574 242.426 455.111 241.822ZM461.207 233.739L464.817 228.971C465.325 228.259 465.203 227.371 464.596 226.842C463.88 226.343 462.983 226.468 462.476 227.18L458.865 231.948C458.329 232.552 458.48 233.549 459.166 233.94C459.774 234.469 460.779 234.314 461.207 233.739ZM467.412 225.627L471.023 220.859C471.53 220.147 471.408 219.259 470.693 218.759C470.086 218.231 469.08 218.386 468.572 219.097L464.962 223.865C464.534 224.44 464.685 225.437 465.263 225.857C465.979 226.357 466.876 226.231 467.412 225.627Z" fill="#FFAA00"/>
</g>
<path d="M308.485 176.666L370.098 222.461C370.51 222.696 370.574 223.37 370.306 223.672L363.086 233.208C362.847 233.617 362.166 233.684 361.863 233.42L300.25 187.625L308.485 176.666Z" fill="url(#paint23_linear_1050_32519)"/>
<path fill-rule="evenodd" clip-rule="evenodd" d="M340.299 229.867L355.833 241.367C358.616 243.5 362.531 242.912 364.59 240.172L377.508 223.236C379.567 220.497 378.993 216.619 376.211 214.486L360.677 202.986C357.923 200.96 353.979 201.441 351.949 204.288L339.002 221.116C336.972 223.963 337.545 227.841 340.299 229.867ZM343.562 225.537C343.258 225.273 343.114 224.736 343.382 224.434L356.3 207.498C356.54 207.088 357.111 207.05 357.415 207.315L362.952 211.474L356.079 220.571C355.115 221.751 355.467 223.499 356.624 224.341C357.809 225.29 359.495 225.069 360.431 223.781L367.303 214.685L372.948 218.815C373.252 219.079 373.396 219.616 373.156 220.026L360.238 236.962C359.97 237.264 359.427 237.409 359.095 237.038L343.562 225.537Z" fill="url(#paint24_linear_1050_32519)"/>
<path d="M273.094 124.985C262.113 123.09 250.429 127.257 243.18 136.686C236.068 146.192 235.291 158.493 240.146 168.363C239.337 172.726 236.713 175.962 232.578 178.337C222.917 163.996 222.908 144.421 234.007 129.815C245.106 115.209 264.02 109.796 280.663 115.01C279.853 119.373 277.258 122.717 273.094 124.985Z" fill="url(#paint25_linear_1050_32519)"/>
<path d="M447.111 351.414C470.267 329.546 489.245 304.537 504.046 276.387L490.801 274.293L485.831 273.551L439.298 334.85L441.433 339.345L447.111 351.414Z" fill="url(#paint26_linear_1050_32519)"/>
<path d="M447.247 352.411C470.578 330.036 489.842 304.644 505.039 276.234C505.517 275.414 505.012 274.398 504.057 274.308L498.704 273.439C498.103 273.37 497.481 273.652 497.27 274.169C482.79 300.621 464.694 324.434 442.981 345.608C442.604 345.939 442.422 346.564 442.703 347.179L445.034 351.968C445.402 352.906 446.494 353.073 447.247 352.411Z" fill="url(#paint27_linear_1050_32519)"/>
<path d="M441.452 339.348L490.819 274.295L485.849 273.554L439.316 334.853L441.452 339.348Z" fill="url(#paint28_linear_1050_32519)"/>
<path d="M50.0951 144.959C72.6045 146.523 73.9989 147.891 75.5925 169.984C77.1861 147.891 78.5804 146.523 101.09 144.959C78.5804 143.199 77.1861 142.026 75.5925 119.934C73.9989 142.026 72.6045 143.199 50.0951 144.959Z" fill="white"/>
<path d="M295.619 25.0252C318.128 26.7848 319.522 27.9579 321.116 50.0504C322.71 27.9579 324.104 26.7848 346.613 25.0252C324.104 23.4612 322.71 22.0925 321.116 0C319.522 22.0925 318.128 23.4612 295.619 25.0252Z" fill="white"/>
<path d="M558.151 203.509C587.746 205.604 589.58 207.437 591.675 237.033C594.032 207.437 595.604 205.604 625.199 203.509C595.604 201.413 594.032 199.58 591.675 169.984C589.58 199.58 587.746 201.413 558.151 203.509Z" fill="white"/>
<defs>
<linearGradient id="paint0_linear_1050_32519" x1="89.5586" y1="252.821" x2="89.5586" y2="301.541" gradientUnits="userSpaceOnUse">
<stop stop-color="white"/>
<stop offset="1" stop-color="#EBCFFF" stop-opacity="0.57"/>
</linearGradient>
<linearGradient id="paint1_linear_1050_32519" x1="143.785" y1="28.0675" x2="143.785" y2="76.7868" gradientUnits="userSpaceOnUse">
<stop stop-color="white"/>
<stop offset="1" stop-color="#EBCFFF" stop-opacity="0.57"/>
</linearGradient>
<linearGradient id="paint2_linear_1050_32519" x1="518.144" y1="16.0868" x2="518.144" y2="102.06" gradientUnits="userSpaceOnUse">
<stop stop-color="white"/>
<stop offset="1" stop-color="#EBCFFF" stop-opacity="0.57"/>
</linearGradient>
<linearGradient id="paint3_linear_1050_32519" x1="1035.6" y1="215.02" x2="707.844" y2="-9.05097" gradientUnits="userSpaceOnUse">
<stop stop-color="#C8D0FD"/>
<stop offset="1" stop-color="white"/>
</linearGradient>
<linearGradient id="paint4_linear_1050_32519" x1="838.444" y1="533.591" x2="697.556" y2="347.646" gradientUnits="userSpaceOnUse">
<stop stop-color="#C8D0FD"/>
<stop offset="1" stop-color="white"/>
</linearGradient>
<linearGradient id="paint5_linear_1050_32519" x1="569.389" y1="716.123" x2="354.935" y2="333.81" gradientUnits="userSpaceOnUse">
<stop stop-color="#C8D0FD"/>
<stop offset="1" stop-color="white"/>
</linearGradient>
<linearGradient id="paint6_linear_1050_32519" x1="1048.99" y1="537.049" x2="795.267" y2="306.816" gradientUnits="userSpaceOnUse">
<stop stop-color="#C8D0FD"/>
<stop offset="1" stop-color="white"/>
</linearGradient>
<linearGradient id="paint7_linear_1050_32519" x1="326.604" y1="83.3655" x2="277.118" y2="40.1849" gradientUnits="userSpaceOnUse">
<stop stop-color="#5F00B1"/>
<stop offset="1" stop-color="#6680DB"/>
</linearGradient>
<linearGradient id="paint8_linear_1050_32519" x1="254.496" y1="178.363" x2="205.009" y2="135.183" gradientUnits="userSpaceOnUse">
<stop stop-color="#5F00B1"/>
<stop offset="1" stop-color="#6680DB"/>
</linearGradient>
<linearGradient id="paint9_linear_1050_32519" x1="649.873" y1="262.512" x2="297.093" y2="-52.39" gradientUnits="userSpaceOnUse">
<stop stop-color="#5F00B1"/>
<stop offset="1" stop-color="#410071"/>
</linearGradient>
<linearGradient id="paint10_linear_1050_32519" x1="328.983" y1="201.006" x2="373.218" y2="234.584" gradientUnits="userSpaceOnUse">
<stop stop-color="#5F00B1"/>
<stop offset="1" stop-color="#6680DB"/>
</linearGradient>
<linearGradient id="paint11_linear_1050_32519" x1="384.64" y1="259.582" x2="416.411" y2="284.841" gradientUnits="userSpaceOnUse">
<stop stop-color="#FFD431"/>
<stop offset="1" stop-color="#FFAA00"/>
</linearGradient>
<linearGradient id="paint12_linear_1050_32519" x1="412.326" y1="271.969" x2="470.968" y2="314.768" gradientUnits="userSpaceOnUse">
<stop stop-color="#FFD431"/>
<stop offset="1" stop-color="#FFAA00"/>
</linearGradient>
<linearGradient id="paint13_linear_1050_32519" x1="242.454" y1="169.57" x2="368.472" y2="260.798" gradientUnits="userSpaceOnUse">
<stop stop-color="#FFD431"/>
<stop offset="1" stop-color="#FFAA00"/>
</linearGradient>
<linearGradient id="paint14_linear_1050_32519" x1="276.784" y1="163.379" x2="294.585" y2="176.891" gradientUnits="userSpaceOnUse">
<stop stop-color="#FFD431"/>
<stop offset="1" stop-color="#FFAA00"/>
</linearGradient>
<linearGradient id="paint15_linear_1050_32519" x1="249.161" y1="141.562" x2="296.194" y2="180.784" gradientUnits="userSpaceOnUse">
<stop stop-color="#FFD431"/>
<stop offset="1" stop-color="#FFAA00"/>
</linearGradient>
<linearGradient id="paint16_linear_1050_32519" x1="599.775" y1="126.391" x2="465.36" y2="55.51" gradientUnits="userSpaceOnUse">
<stop stop-color="#5F00B1"/>
<stop offset="1" stop-color="#6680DB"/>
</linearGradient>
<linearGradient id="paint17_linear_1050_32519" x1="468.835" y1="155.843" x2="513.07" y2="189.421" gradientUnits="userSpaceOnUse">
<stop stop-color="#5F00B1"/>
<stop offset="1" stop-color="#6680DB"/>
</linearGradient>
<linearGradient id="paint18_linear_1050_32519" x1="447.211" y1="150.94" x2="475.377" y2="171.496" gradientUnits="userSpaceOnUse">
<stop stop-color="#FFD431"/>
<stop offset="1" stop-color="#FFAA00"/>
</linearGradient>
<linearGradient id="paint19_linear_1050_32519" x1="332.574" y1="478.366" x2="228.444" y2="368.374" gradientUnits="userSpaceOnUse">
<stop stop-color="#5F00B1"/>
<stop offset="1" stop-color="#6680DB"/>
</linearGradient>
<linearGradient id="paint20_linear_1050_32519" x1="324.677" y1="345.731" x2="368.912" y2="379.308" gradientUnits="userSpaceOnUse">
<stop stop-color="#5F00B1"/>
<stop offset="1" stop-color="#6680DB"/>
</linearGradient>
<linearGradient id="paint21_linear_1050_32519" x1="313.893" y1="326.558" x2="341.256" y2="348.151" gradientUnits="userSpaceOnUse">
<stop stop-color="#FFD431"/>
<stop offset="1" stop-color="#FFAA00"/>
</linearGradient>
<linearGradient id="paint22_linear_1050_32519" x1="409.2" y1="261.737" x2="426.613" y2="274.188" gradientUnits="userSpaceOnUse">
<stop stop-color="#FFD431"/>
<stop offset="1" stop-color="#FFAA00"/>
</linearGradient>
<linearGradient id="paint23_linear_1050_32519" x1="486.997" y1="41.5136" x2="339.093" y2="-67.3067" gradientUnits="userSpaceOnUse">
<stop stop-color="#5F00B1"/>
<stop offset="1" stop-color="#6680DB"/>
</linearGradient>
<linearGradient id="paint24_linear_1050_32519" x1="333.334" y1="207.853" x2="343.847" y2="247.089" gradientUnits="userSpaceOnUse">
<stop stop-color="#FFD431"/>
<stop offset="1" stop-color="#FFAA00"/>
</linearGradient>
<linearGradient id="paint25_linear_1050_32519" x1="253.27" y1="136.347" x2="216.966" y2="104.669" gradientUnits="userSpaceOnUse">
<stop stop-color="#5F00B1"/>
<stop offset="1" stop-color="#6680DB"/>
</linearGradient>
<linearGradient id="paint26_linear_1050_32519" x1="484.668" y1="316.597" x2="456.457" y2="297.051" gradientUnits="userSpaceOnUse">
<stop stop-color="#FFD431"/>
<stop offset="1" stop-color="#FFAA00"/>
</linearGradient>
<linearGradient id="paint27_linear_1050_32519" x1="575.899" y1="349.573" x2="364.245" y2="152.204" gradientUnits="userSpaceOnUse">
<stop stop-color="#5F00B1"/>
<stop offset="1" stop-color="#6680DB"/>
</linearGradient>
<linearGradient id="paint28_linear_1050_32519" x1="472.605" y1="311.739" x2="466.656" y2="307.034" gradientUnits="userSpaceOnUse">
<stop stop-color="#FFD431"/>
<stop offset="1" stop-color="#FFAA00"/>
</linearGradient>
</defs>
</svg>
