<svg width="1440" height="800" viewBox="0 0 1440 800" fill="none" xmlns="http://www.w3.org/2000/svg">
<g clip-path="url(#clip0_417_1210)">
<rect width="1440" height="800" fill="url(#paint0_linear_417_1210)" fill-opacity="0.55"/>
<rect width="1440" height="800" fill="url(#paint1_linear_417_1210)" fill-opacity="0.7"/>
<g clip-path="url(#clip1_417_1210)">
<path d="M1411.81 21.5066C1412.04 21.5066 1412.22 21.3204 1412.22 21.0907C1412.22 20.861 1412.04 20.6748 1411.81 20.6748C1411.58 20.6748 1411.39 20.861 1411.39 21.0907C1411.39 21.3204 1411.58 21.5066 1411.81 21.5066Z" fill="#410071"/>
<path d="M1411.81 50.2656C1411.35 50.2656 1410.98 50.6383 1410.98 51.098C1410.98 51.5572 1411.35 51.9298 1411.81 51.9298C1412.27 51.9298 1412.64 51.5572 1412.64 51.098C1412.64 50.6383 1412.27 50.2656 1411.81 50.2656Z" fill="#410071"/>
<path d="M1413.14 81.105C1413.14 80.3699 1412.54 79.7734 1411.81 79.7734C1411.07 79.7734 1410.48 80.3699 1410.48 81.105C1410.48 81.8401 1411.07 82.4361 1411.81 82.4361C1412.54 82.4361 1413.14 81.8403 1413.14 81.105Z" fill="#410071"/>
<path d="M1381.8 21.5066C1382.03 21.5066 1382.21 21.3204 1382.21 21.0907C1382.21 20.861 1382.03 20.6748 1381.8 20.6748C1381.57 20.6748 1381.38 20.861 1381.38 21.0907C1381.38 21.3204 1381.57 21.5066 1381.8 21.5066Z" fill="#410071"/>
<path d="M1381.8 50.2656C1381.34 50.2656 1380.96 50.6383 1380.96 51.098C1380.96 51.5572 1381.34 51.9298 1381.8 51.9298C1382.26 51.9298 1382.63 51.5572 1382.63 51.098C1382.63 50.6383 1382.26 50.2656 1381.8 50.2656Z" fill="#410071"/>
<path d="M1383.13 81.105C1383.13 80.3699 1382.53 79.7734 1381.8 79.7734C1381.06 79.7734 1380.46 80.3699 1380.46 81.105C1380.46 81.8401 1381.06 82.4361 1381.8 82.4361C1382.53 82.4361 1383.13 81.8403 1383.13 81.105Z" fill="#410071"/>
<path d="M1351.78 21.5066C1352.01 21.5066 1352.2 21.3204 1352.2 21.0907C1352.2 20.861 1352.01 20.6748 1351.78 20.6748C1351.55 20.6748 1351.37 20.861 1351.37 21.0907C1351.37 21.3204 1351.55 21.5066 1351.78 21.5066Z" fill="#410071"/>
<path d="M1351.78 50.2656C1351.32 50.2656 1350.95 50.6383 1350.95 51.098C1350.95 51.5572 1351.32 51.9298 1351.78 51.9298C1352.24 51.9298 1352.61 51.5572 1352.61 51.098C1352.61 50.6383 1352.24 50.2656 1351.78 50.2656Z" fill="#410071"/>
<path d="M1353.11 81.106C1353.11 80.3709 1352.52 79.7744 1351.78 79.7744C1351.05 79.7744 1350.45 80.3709 1350.45 81.106C1350.45 81.8411 1351.05 82.4371 1351.78 82.4371C1352.52 82.4371 1353.11 81.8412 1353.11 81.106Z" fill="#410071"/>
<path d="M1321.77 20.6748C1321.54 20.6748 1321.35 20.8611 1321.35 21.0907C1321.35 21.3202 1321.54 21.5066 1321.77 21.5066C1322 21.5066 1322.18 21.3202 1322.18 21.0907C1322.18 20.8611 1322 20.6748 1321.77 20.6748Z" fill="#410071"/>
<path d="M1321.77 50.2656C1321.31 50.2656 1320.94 50.6383 1320.94 51.098C1320.94 51.5572 1321.31 51.9298 1321.77 51.9298C1322.23 51.9298 1322.6 51.5572 1322.6 51.098C1322.6 50.6383 1322.23 50.2656 1321.77 50.2656Z" fill="#410071"/>
<path d="M1323.1 81.105C1323.1 80.3699 1322.5 79.7734 1321.77 79.7734C1321.03 79.7734 1320.44 80.3699 1320.44 81.105C1320.44 81.8401 1321.03 82.4361 1321.77 82.4361C1322.5 82.4361 1323.1 81.8403 1323.1 81.105Z" fill="#410071"/>
<path d="M1291.76 21.5066C1291.99 21.5066 1292.17 21.3204 1292.17 21.0907C1292.17 20.861 1291.99 20.6748 1291.76 20.6748C1291.53 20.6748 1291.34 20.861 1291.34 21.0907C1291.34 21.3204 1291.53 21.5066 1291.76 21.5066Z" fill="#410071"/>
<path d="M1291.76 50.2656C1291.3 50.2656 1290.93 50.6383 1290.93 51.098C1290.93 51.5572 1291.3 51.9298 1291.76 51.9298C1292.22 51.9298 1292.59 51.5572 1292.59 51.098C1292.59 50.6383 1292.22 50.2656 1291.76 50.2656Z" fill="#410071"/>
<path d="M1293.09 81.105C1293.09 80.3699 1292.49 79.7734 1291.76 79.7734C1291.02 79.7734 1290.43 80.3699 1290.43 81.105C1290.43 81.8401 1291.02 82.4361 1291.76 82.4361C1292.49 82.4361 1293.09 81.8403 1293.09 81.105Z" fill="#410071"/>
<path d="M1261.74 20.6748C1261.52 20.6748 1261.33 20.8611 1261.33 21.0907C1261.33 21.3202 1261.52 21.5066 1261.74 21.5066C1261.97 21.5066 1262.16 21.3202 1262.16 21.0907C1262.16 20.8611 1261.97 20.6748 1261.74 20.6748Z" fill="#410071"/>
<path d="M1261.75 50.2656C1261.29 50.2656 1260.91 50.6383 1260.91 51.098C1260.91 51.5572 1261.29 51.9298 1261.75 51.9298C1262.21 51.9298 1262.58 51.5572 1262.58 51.098C1262.58 50.6383 1262.21 50.2656 1261.75 50.2656Z" fill="#410071"/>
<path d="M1263.08 81.105C1263.08 80.3699 1262.48 79.7734 1261.74 79.7734C1261.01 79.7734 1260.41 80.3699 1260.41 81.105C1260.41 81.8401 1261.01 82.4361 1261.74 82.4361C1262.48 82.4361 1263.08 81.8403 1263.08 81.105Z" fill="#410071"/>
<path d="M1231.73 20.6748C1231.5 20.6748 1231.31 20.8611 1231.31 21.0907C1231.31 21.3202 1231.5 21.5066 1231.73 21.5066C1231.96 21.5066 1232.14 21.3202 1232.14 21.0907C1232.14 20.8611 1231.96 20.6748 1231.73 20.6748Z" fill="#410071"/>
<path d="M1231.73 50.2656C1231.27 50.2656 1230.9 50.6383 1230.9 51.098C1230.9 51.5572 1231.27 51.9298 1231.73 51.9298C1232.19 51.9298 1232.56 51.5572 1232.56 51.098C1232.56 50.6383 1232.19 50.2656 1231.73 50.2656Z" fill="#410071"/>
<path d="M1233.06 81.105C1233.06 80.3699 1232.47 79.7734 1231.73 79.7734C1231 79.7734 1230.4 80.3699 1230.4 81.105C1230.4 81.8401 1231 82.4361 1231.73 82.4361C1232.47 82.4361 1233.06 81.8403 1233.06 81.105Z" fill="#410071"/>
<path d="M1201.72 20.6748C1201.49 20.6748 1201.3 20.8611 1201.3 21.0907C1201.3 21.3202 1201.49 21.5066 1201.72 21.5066C1201.95 21.5066 1202.13 21.3202 1202.13 21.0907C1202.13 20.8611 1201.95 20.6748 1201.72 20.6748Z" fill="#410071"/>
<path d="M1201.71 50.2656C1201.26 50.2656 1200.88 50.6383 1200.88 51.098C1200.88 51.5572 1201.26 51.9298 1201.71 51.9298C1202.18 51.9298 1202.55 51.5572 1202.55 51.098C1202.55 50.6383 1202.18 50.2656 1201.71 50.2656Z" fill="#410071"/>
<path d="M1203.05 81.105C1203.05 80.3699 1202.45 79.7734 1201.72 79.7734C1200.98 79.7734 1200.39 80.3699 1200.39 81.105C1200.39 81.8401 1200.98 82.4361 1201.72 82.4361C1202.45 82.4361 1203.05 81.8403 1203.05 81.105Z" fill="#410071"/>
<path d="M1171.71 20.6748C1171.47 20.6748 1171.29 20.8611 1171.29 21.0907C1171.29 21.3202 1171.47 21.5066 1171.71 21.5066C1171.94 21.5066 1172.12 21.3202 1172.12 21.0907C1172.12 20.8611 1171.94 20.6748 1171.71 20.6748Z" fill="#410071"/>
<path d="M1171.71 50.2656C1171.25 50.2656 1170.88 50.6383 1170.88 51.098C1170.88 51.5572 1171.25 51.9298 1171.71 51.9298C1172.17 51.9298 1172.54 51.5572 1172.54 51.098C1172.54 50.6383 1172.17 50.2656 1171.71 50.2656Z" fill="#410071"/>
<path d="M1173.04 81.105C1173.04 80.3699 1172.44 79.7734 1171.71 79.7734C1170.97 79.7734 1170.38 80.3699 1170.38 81.105C1170.38 81.8401 1170.97 82.4361 1171.71 82.4361C1172.44 82.4361 1173.04 81.8403 1173.04 81.105Z" fill="#410071"/>
<path d="M1141.69 20.6748C1141.46 20.6748 1141.28 20.8611 1141.28 21.0907C1141.28 21.3202 1141.46 21.5066 1141.69 21.5066C1141.92 21.5066 1142.11 21.3202 1142.11 21.0907C1142.11 20.8611 1141.92 20.6748 1141.69 20.6748Z" fill="#410071"/>
<path d="M1141.69 50.2656C1141.23 50.2656 1140.86 50.6383 1140.86 51.098C1140.86 51.5572 1141.23 51.9298 1141.69 51.9298C1142.15 51.9298 1142.52 51.5572 1142.52 51.098C1142.52 50.6383 1142.15 50.2656 1141.69 50.2656Z" fill="#410071"/>
<path d="M1143.02 81.105C1143.02 80.3699 1142.43 79.7734 1141.69 79.7734C1140.95 79.7734 1140.36 80.3699 1140.36 81.105C1140.36 81.8401 1140.95 82.4361 1141.69 82.4361C1142.43 82.4361 1143.02 81.8403 1143.02 81.105Z" fill="#410071"/>
<path d="M1111.68 20.6748C1111.45 20.6748 1111.26 20.8611 1111.26 21.0907C1111.26 21.3202 1111.45 21.5066 1111.68 21.5066C1111.91 21.5066 1112.09 21.3202 1112.09 21.0907C1112.09 20.8611 1111.91 20.6748 1111.68 20.6748Z" fill="#410071"/>
<path d="M1111.68 50.2656C1111.22 50.2656 1110.84 50.6383 1110.84 51.098C1110.84 51.5572 1111.22 51.9298 1111.68 51.9298C1112.14 51.9298 1112.51 51.5572 1112.51 51.098C1112.51 50.6383 1112.14 50.2656 1111.68 50.2656Z" fill="#410071"/>
<path d="M1112.93 81.1057C1112.93 80.4164 1112.37 79.8574 1111.68 79.8574C1110.99 79.8574 1110.43 80.4164 1110.43 81.1057C1110.43 81.7951 1110.99 82.3535 1111.68 82.3535C1112.37 82.3535 1112.93 81.7952 1112.93 81.1057Z" fill="#410071"/>
<path d="M1081.66 51.0156C1081.62 51.0156 1081.58 51.053 1081.58 51.0986C1081.58 51.1442 1081.62 51.1816 1081.66 51.1816C1081.71 51.1816 1081.75 51.1442 1081.75 51.0986C1081.75 51.053 1081.71 51.0156 1081.66 51.0156Z" fill="#410071"/>
<path d="M1081.66 81.0225C1081.62 81.0225 1081.58 81.0592 1081.58 81.1055C1081.58 81.151 1081.62 81.1884 1081.66 81.1884C1081.71 81.1884 1081.75 81.151 1081.75 81.1055C1081.75 81.0592 1081.71 81.0225 1081.66 81.0225Z" fill="#410071"/>
</g>
<g clip-path="url(#clip2_417_1210)">
<path d="M357.938 20.6748C357.709 20.6748 357.523 20.8611 357.523 21.0907C357.523 21.3202 357.709 21.5066 357.938 21.5066C358.17 21.5066 358.355 21.3202 358.355 21.0907C358.355 20.8611 358.17 20.6748 357.938 20.6748Z" fill="#410071"/>
<path d="M357.941 50.2656C357.483 50.2656 357.109 50.6383 357.109 51.098C357.109 51.5572 357.483 51.9298 357.941 51.9298C358.402 51.9298 358.774 51.5572 358.774 51.098C358.774 50.6383 358.402 50.2656 357.941 50.2656Z" fill="#410071"/>
<path d="M357.939 82.2714C358.582 82.2714 359.104 81.7498 359.104 81.1064C359.104 80.463 358.582 79.9414 357.939 79.9414C357.295 79.9414 356.773 80.463 356.773 81.1064C356.773 81.7498 357.295 82.2714 357.939 82.2714Z" fill="#410071"/>
<path d="M327.925 20.6748C327.695 20.6748 327.508 20.8611 327.508 21.0907C327.508 21.3202 327.695 21.5066 327.925 21.5066C328.154 21.5066 328.341 21.3202 328.341 21.0907C328.341 20.8611 328.154 20.6748 327.925 20.6748Z" fill="#410071"/>
<path d="M327.926 50.2656C327.465 50.2656 327.094 50.6383 327.094 51.098C327.094 51.5572 327.465 51.9298 327.926 51.9298C328.385 51.9298 328.758 51.5572 328.758 51.098C328.758 50.6383 328.385 50.2656 327.926 50.2656Z" fill="#410071"/>
<path d="M329.256 81.105C329.256 80.3699 328.661 79.7734 327.926 79.7734C327.19 79.7734 326.594 80.3699 326.594 81.105C326.594 81.8401 327.19 82.4361 327.926 82.4361C328.661 82.4361 329.256 81.8403 329.256 81.105Z" fill="#410071"/>
<path d="M297.915 20.6748C297.686 20.6748 297.5 20.8611 297.5 21.0907C297.5 21.3202 297.686 21.5066 297.915 21.5066C298.146 21.5066 298.332 21.3202 298.332 21.0907C298.332 20.8611 298.146 20.6748 297.915 20.6748Z" fill="#410071"/>
<path d="M297.91 50.2656C297.452 50.2656 297.078 50.6383 297.078 51.098C297.078 51.5572 297.452 51.9298 297.91 51.9298C298.371 51.9298 298.743 51.5572 298.743 51.098C298.743 50.6383 298.371 50.2656 297.91 50.2656Z" fill="#410071"/>
<path d="M299.246 81.105C299.246 80.3699 298.649 79.7734 297.913 79.7734C297.177 79.7734 296.582 80.3699 296.582 81.105C296.582 81.8401 297.177 82.4361 297.913 82.4361C298.649 82.4361 299.246 81.8403 299.246 81.105Z" fill="#410071"/>
<path d="M267.902 20.6748C267.671 20.6748 267.484 20.8611 267.484 21.0907C267.484 21.3202 267.671 21.5066 267.902 21.5066C268.131 21.5066 268.318 21.3202 268.318 21.0907C268.318 20.8611 268.131 20.6748 267.902 20.6748Z" fill="#410071"/>
<path d="M267.902 50.2656C267.442 50.2656 267.07 50.6383 267.07 51.098C267.07 51.5572 267.442 51.9298 267.902 51.9298C268.361 51.9298 268.734 51.5572 268.734 51.098C268.734 50.6383 268.361 50.2656 267.902 50.2656Z" fill="#410071"/>
<path d="M269.233 81.105C269.233 80.3699 268.638 79.7734 267.902 79.7734C267.167 79.7734 266.57 80.3699 266.57 81.105C266.57 81.8401 267.167 82.4361 267.902 82.4361C268.637 82.4361 269.233 81.8403 269.233 81.105Z" fill="#410071"/>
<path d="M237.885 21.5066C238.114 21.5066 238.301 21.3204 238.301 21.0907C238.301 20.861 238.114 20.6748 237.885 20.6748C237.655 20.6748 237.469 20.861 237.469 21.0907C237.469 21.3204 237.655 21.5066 237.885 21.5066Z" fill="#410071"/>
<path d="M237.888 50.2656C237.429 50.2656 237.055 50.6383 237.055 51.098C237.055 51.5572 237.429 51.9298 237.888 51.9298C238.347 51.9298 238.72 51.5572 238.72 51.098C238.72 50.6383 238.347 50.2656 237.888 50.2656Z" fill="#410071"/>
<path d="M239.218 81.105C239.218 80.3699 238.622 79.7734 237.887 79.7734C237.15 79.7734 236.555 80.3699 236.555 81.105C236.555 81.8401 237.15 82.4361 237.887 82.4361C238.622 82.4361 239.218 81.8403 239.218 81.105Z" fill="#410071"/>
<path d="M207.874 20.6748C207.644 20.6748 207.457 20.8611 207.457 21.0907C207.457 21.3202 207.644 21.5066 207.874 21.5066C208.103 21.5066 208.29 21.3202 208.29 21.0907C208.29 20.8611 208.103 20.6748 207.874 20.6748Z" fill="#410071"/>
<path d="M207.875 50.2656C207.414 50.2656 207.043 50.6383 207.043 51.098C207.043 51.5572 207.414 51.9298 207.875 51.9298C208.334 51.9298 208.707 51.5572 208.707 51.098C208.707 50.6383 208.334 50.2656 207.875 50.2656Z" fill="#410071"/>
<path d="M209.205 81.105C209.205 80.3699 208.61 79.7734 207.875 79.7734C207.139 79.7734 206.543 80.3699 206.543 81.105C206.543 81.8401 207.14 82.4361 207.875 82.4361C208.61 82.4361 209.205 81.8403 209.205 81.105Z" fill="#410071"/>
<path d="M177.861 21.5066C178.091 21.5066 178.277 21.3204 178.277 21.0907C178.277 20.861 178.091 20.6748 177.861 20.6748C177.632 20.6748 177.445 20.861 177.445 21.0907C177.445 21.3204 177.632 21.5066 177.861 21.5066Z" fill="#410071"/>
<path d="M177.861 50.2656C177.401 50.2656 177.027 50.6383 177.027 51.098C177.027 51.5572 177.401 51.9298 177.861 51.9298C178.32 51.9298 178.692 51.5572 178.692 51.098C178.692 50.6383 178.32 50.2656 177.861 50.2656Z" fill="#410071"/>
<path d="M179.195 81.106C179.195 80.3709 178.598 79.7744 177.863 79.7744C177.128 79.7744 176.531 80.3709 176.531 81.106C176.531 81.8411 177.128 82.4371 177.863 82.4371C178.598 82.4371 179.195 81.8412 179.195 81.106Z" fill="#410071"/>
<path d="M147.846 21.5066C148.075 21.5066 148.262 21.3204 148.262 21.0907C148.262 20.861 148.075 20.6748 147.846 20.6748C147.616 20.6748 147.43 20.861 147.43 21.0907C147.43 21.3204 147.616 21.5066 147.846 21.5066Z" fill="#410071"/>
<path d="M147.848 50.2656C147.387 50.2656 147.016 50.6383 147.016 51.098C147.016 51.5572 147.387 51.9298 147.848 51.9298C148.307 51.9298 148.679 51.5572 148.679 51.098C148.679 50.6383 148.307 50.2656 147.848 50.2656Z" fill="#410071"/>
<path d="M149.178 81.105C149.178 80.3699 148.583 79.7734 147.847 79.7734C147.112 79.7734 146.516 80.3699 146.516 81.105C146.516 81.8401 147.112 82.4361 147.847 82.4361C148.583 82.4361 149.178 81.8403 149.178 81.105Z" fill="#410071"/>
<path d="M117.838 21.5066C118.068 21.5066 118.254 21.3204 118.254 21.0907C118.254 20.861 118.068 20.6748 117.838 20.6748C117.608 20.6748 117.422 20.861 117.422 21.0907C117.422 21.3204 117.608 21.5066 117.838 21.5066Z" fill="#410071"/>
<path d="M117.837 50.2656C117.378 50.2656 117.004 50.6383 117.004 51.098C117.004 51.5572 117.378 51.9298 117.837 51.9298C118.296 51.9298 118.669 51.5572 118.669 51.098C118.669 50.6383 118.296 50.2656 117.837 50.2656Z" fill="#410071"/>
<path d="M119.168 81.105C119.168 80.3699 118.571 79.7734 117.836 79.7734C117.101 79.7734 116.504 80.3699 116.504 81.105C116.504 81.8401 117.101 82.4361 117.836 82.4361C118.571 82.4361 119.168 81.8403 119.168 81.105Z" fill="#410071"/>
<path d="M87.8222 21.5066C88.0519 21.5066 88.2382 21.3204 88.2382 21.0907C88.2382 20.861 88.0519 20.6748 87.8222 20.6748C87.5925 20.6748 87.4062 20.861 87.4062 21.0907C87.4062 21.3204 87.5925 21.5066 87.8222 21.5066Z" fill="#410071"/>
<path d="M87.8202 50.2656C87.3596 50.2656 86.9883 50.6383 86.9883 51.098C86.9883 51.5572 87.3598 51.9298 87.8202 51.9298C88.2806 51.9298 88.6521 51.5572 88.6521 51.098C88.6521 50.6383 88.2806 50.2656 87.8202 50.2656Z" fill="#410071"/>
<path d="M89.1547 81.105C89.1547 80.3699 88.5581 79.7734 87.8228 79.7734C87.0876 79.7734 86.4922 80.3699 86.4922 81.105C86.4922 81.8401 87.0875 82.4361 87.8228 82.4361C88.5582 82.4361 89.1547 81.8403 89.1547 81.105Z" fill="#410071"/>
<path d="M57.8066 21.5066C58.0363 21.5066 58.2226 21.3204 58.2226 21.0907C58.2226 20.861 58.0363 20.6748 57.8066 20.6748C57.5769 20.6748 57.3906 20.861 57.3906 21.0907C57.3906 21.3204 57.5769 21.5066 57.8066 21.5066Z" fill="#410071"/>
<path d="M57.8085 50.2656C57.3493 50.2656 56.9766 50.6383 56.9766 51.098C56.9766 51.5572 57.3493 51.9298 57.8085 51.9298C58.2677 51.9298 58.6417 51.5572 58.6417 51.098C58.6417 50.6383 58.2677 50.2656 57.8085 50.2656Z" fill="#410071"/>
<path d="M59.1403 81.105C59.1403 80.3699 58.5436 79.7734 57.8084 79.7734C57.0732 79.7734 56.4766 80.3699 56.4766 81.105C56.4766 81.8401 57.0732 82.4361 57.8084 82.4361C58.5436 82.4361 59.1403 81.8403 59.1403 81.105Z" fill="#410071"/>
<path d="M27.7988 21.5066C28.0285 21.5066 28.2147 21.3204 28.2147 21.0907C28.2147 20.861 28.0285 20.6748 27.7988 20.6748C27.569 20.6748 27.3828 20.861 27.3828 21.0907C27.3828 21.3204 27.569 21.5066 27.7988 21.5066Z" fill="#410071"/>
<path d="M27.7968 50.2656C27.3375 50.2656 26.9648 50.6383 26.9648 51.098C26.9648 51.5572 27.3375 51.9298 27.7968 51.9298C28.2573 51.9298 28.6287 51.5572 28.6287 51.098C28.6287 50.6383 28.2572 50.2656 27.7968 50.2656Z" fill="#410071"/>
<path d="M29.1273 81.105C29.1273 80.3699 28.5307 79.7734 27.7955 79.7734C27.0602 79.7734 26.4648 80.3699 26.4648 81.105C26.4648 81.8401 27.0601 82.4361 27.7955 82.4361C28.5308 82.4361 29.1273 81.8403 29.1273 81.105Z" fill="#410071"/>
</g>
</g>
<defs>
<linearGradient id="paint0_linear_417_1210" x1="720" y1="800" x2="720" y2="148.061" gradientUnits="userSpaceOnUse">
<stop stop-color="white"/>
<stop offset="0.58836" stop-color="#EBCFFF"/>
<stop offset="1" stop-color="white"/>
</linearGradient>
<linearGradient id="paint1_linear_417_1210" x1="720" y1="-398.5" x2="720" y2="800" gradientUnits="userSpaceOnUse">
<stop stop-color="#F7EAFF" stop-opacity="0"/>
<stop offset="1" stop-color="#F7EAFF"/>
</linearGradient>
<clipPath id="clip0_417_1210">
<rect width="1440" height="800" fill="white"/>
</clipPath>
<clipPath id="clip1_417_1210">
<rect width="648" height="110" fill="white" transform="translate(1081 -9)"/>
</clipPath>
<clipPath id="clip2_417_1210">
<rect width="648" height="110" fill="white" transform="translate(-273 -9)"/>
</clipPath>
</defs>
</svg>
