<svg width="421" height="301" viewBox="0 0 421 301" fill="none" xmlns="http://www.w3.org/2000/svg">
<path fill-rule="evenodd" clip-rule="evenodd" d="M418.516 79.6807L322.747 81.5157L267.781 298.158L363.552 296.322L418.516 79.6807Z" fill="white"/>
<path fill-rule="evenodd" clip-rule="evenodd" d="M237.916 40.2334L322.746 81.5155L267.78 298.158L182.952 256.875L237.916 40.2334Z" fill="white"/>
<path fill-rule="evenodd" clip-rule="evenodd" d="M57.3184 0.786133L142.148 42.0682L87.1824 258.71L2.35437 217.427L57.3184 0.786133Z" fill="white"/>
<path fill-rule="evenodd" clip-rule="evenodd" d="M237.914 40.2334L142.145 42.0684L87.179 258.711L182.95 256.875L237.914 40.2334Z" fill="white"/>
<path fill-rule="evenodd" clip-rule="evenodd" d="M88.4204 253.84L184.189 252.006L269.019 293.288L359.398 291.556L411.891 84.6525L321.512 86.384L236.682 45.1019L140.913 46.9379L60.8586 7.97949L8.36472 214.882L88.4204 253.84Z" fill="url(#paint0_linear_618_1449)"/>
<path fill-rule="evenodd" clip-rule="evenodd" d="M420.562 80.1222C420.825 79.0725 420.121 78.0248 418.993 77.7804C417.862 77.5371 416.731 78.1887 416.467 79.2374L361.876 294.409L268.274 296.201L183.919 255.15C183.598 254.995 183.25 254.923 182.91 254.93L87.6741 256.753L3.31921 215.702C2.29422 215.207 1.02853 215.576 0.492157 216.527C-0.0431519 217.478 0.353149 218.654 1.37921 219.15L86.147 260.402C86.4624 260.569 86.8297 260.661 87.2198 260.653L182.453 258.829L266.746 299.848C267.061 300.015 267.429 300.108 267.819 300.102L363.44 298.27C364.437 298.316 365.359 297.697 365.594 296.762L420.562 80.1222Z" fill="url(#paint1_linear_618_1449)"/>
<path fill-rule="evenodd" clip-rule="evenodd" d="M321.602 90.2733C321.741 89.7273 321.397 89.1753 320.834 89.0416C320.272 88.9069 319.703 89.2407 319.563 89.7857L269.348 287.716C269.209 288.262 269.553 288.815 270.116 288.948C270.678 289.083 271.246 288.749 271.386 288.204L321.602 90.2733Z" fill="#D2E6F6"/>
<path fill-rule="evenodd" clip-rule="evenodd" d="M140.688 52.0779C140.827 51.533 140.484 50.982 139.92 50.8462C139.358 50.7135 138.789 51.0463 138.649 51.5923L89.1028 246.877C88.9659 247.422 89.3093 247.973 89.8727 248.109C90.4349 248.243 91.0055 247.91 91.1425 247.363L140.688 52.0779ZM184.543 246.341C184.404 246.888 184.747 247.44 185.313 247.573C185.874 247.708 186.444 247.375 186.582 246.829L236.365 50.62C236.501 50.074 236.157 49.522 235.595 49.3883C235.03 49.2535 234.462 49.5874 234.322 50.1323L184.543 246.341Z" fill="#D2E6F6"/>
<path fill-rule="evenodd" clip-rule="evenodd" d="M188.797 86.1999C188.252 87.7986 187.803 86.4663 188.675 86.1446L188.797 86.1999ZM79.0524 79.1233C79.4404 80.4565 79.7111 80.721 79.9529 82.3197C80.4021 85.2718 81.2673 87.7171 82.8567 83.4388C84.167 79.9045 85.0831 81.0136 83.7302 76.9625C82.8671 74.8781 78.9859 71.0754 79.5503 69.3741C79.9684 68.1243 81.8296 69.9311 82.6212 70.3213C85.7688 71.8717 85.7262 70.7788 86.8747 74.5453C87.5065 76.7292 87.5044 76.4125 90.1728 76.0606C92.1615 75.8072 93.5777 76.6558 95.5654 76.7815C97.9391 76.9303 98.4744 77.233 99.1705 79.4852C100.169 82.7239 99.8916 81.7224 102.074 84.1165C103.516 85.6971 103.19 86.8243 101.127 87.7392C99.0201 88.6723 95.8746 86.4522 95.7833 91.0302C95.7407 93.0291 97.4619 101.564 100.211 101.91C103.023 102.263 102.62 102.375 102.481 105.01C102.438 105.831 102.607 106.791 102.616 107.675C102.597 108.961 100.538 111.73 101.606 112.664C102.802 113.707 105.516 109.111 107.092 108.624C108.697 108.129 113.956 109.499 111.879 111.463C110.636 112.64 109.745 112.88 109.482 114.625C109.088 117.253 106.755 117.505 106.395 118.297C105.891 119.417 105.63 124.455 106.241 125.943C106.612 126.84 107.284 127.695 107.88 128.474C109.145 129.955 110.699 130.61 112.153 132.167C114.083 134.011 114.273 131.719 115.972 133.443C118 135.5 116.066 137.058 114.304 138.227C112.67 139.308 111.769 140.452 111.349 142.331C111.163 144.722 111.937 144.524 112.853 146.661C113.577 148.346 114.354 146.968 115.492 145.98C119 142.931 120.83 145.034 117.404 148.937C116.885 149.524 111.704 154.145 113.684 154.438C115.15 154.655 119.206 148.639 119.834 147.25C120.85 144.998 120.842 144.385 122.477 142.248C125.192 139.249 125.006 145.877 126.563 141.609C127.457 139.164 125.852 140.074 128.899 137.92C130.979 136.451 131.037 134.2 132.333 136.878C133.112 138.491 134.366 138.091 134.225 139.246C134.122 140.074 134.679 140.692 135.151 141.345C136.4 142.876 136.449 142.808 137.419 144.574C138.424 146.4 139.103 145.364 138.492 148.322L138.291 149.292C137.8 151.477 137.819 152.125 135.998 153.599C134.078 155.152 135.132 157.39 136.799 154.879C138.013 153.049 137.424 153.999 138.641 154.356C140.095 154.785 142.328 151.19 143.071 150.182C144.475 148.271 146.841 145.987 147.233 143.874C147.639 141.689 147.521 142.142 149.141 142.389C151.933 142.367 151.969 137.862 156.792 139.342C161.832 140.886 159.797 140.466 164.989 139.958C167.758 139.688 167.367 140.148 170.13 138.812C174.03 136.925 172.05 141.151 169.073 142.141C166.109 143.126 163.025 141.048 160.941 144.273C158.966 147.333 163.598 152.511 165.809 154.674C167.325 156.156 169.881 158.44 172.077 156.808L172.407 156.452C173.824 154.672 173.441 154.371 175.559 152.518C177.235 151.053 177.905 150.338 179.28 148.736C179.708 148.24 184.049 143.281 184.716 144.986C185.164 146.123 180.115 151.34 179.102 152.569C178.027 153.876 177.458 153.519 176.504 155.328C176.034 156.221 173.643 157.426 172.535 158.388C170.088 160.514 170.074 160.822 166.707 158.66C163.887 156.846 163.392 157.214 163.582 160.426C163.819 164.414 164.382 165.859 166.748 169.095C167.869 170.627 168.315 171.493 168.478 173.367C168.621 176.824 170.603 176.815 168.751 180.357C167.947 181.897 167.182 183.472 166.368 185.032C164.893 187.867 164.089 190.169 166.909 192.495C169.044 194.067 169.868 194.409 168.113 197.021C166.759 198.853 165.901 199.822 167.871 201.568C169.721 203.205 166.83 203.357 168.129 206.439C168.798 208.03 168.548 207.789 168.879 209.213C169.389 211.397 171.798 212.91 173.938 213.633C174.845 213.94 175.602 214.184 176.496 214.545C179.686 215.935 179.115 214.011 180.595 211.613C182.569 208.417 184.107 209.694 185.538 206.099C186.975 201.991 187.392 201.762 190.068 198.384C192.753 194.993 190.257 195.095 190.18 192.17C190.129 190.352 191.444 188.833 192.614 187.502C195.315 184.627 199.193 183.453 199.162 178.98C199.155 177.656 197.557 176.42 199.531 175.884C202.419 175.1 202.638 178.303 204.741 176.594L205.209 176.215C206.691 174.959 207.096 175.133 208.619 176.466C210.681 178.273 211.975 178.978 214.659 179.919C217.211 180.813 219.524 179.744 221.53 178.216C222.982 177.109 224.27 175.293 225.676 173.953C228.023 171.716 227.775 170.612 228.943 167.888C230.547 164.367 230.486 164 229.561 160.2C228.66 156.494 226.528 156.078 226.868 151.933C227.161 148.369 224.16 147.54 224.895 145.532C225.533 143.796 228.506 145.256 229.883 141.596C232.157 135.376 230.301 137.616 225.64 135.006C222.471 133.231 226.743 131.18 228.246 130.251C225.935 127.948 225.317 128.306 223.267 125.169C220.891 121.527 220.567 121.372 216.79 118.996C213.84 117.138 214.204 115.937 216.8 113.722C220.335 110.704 220.036 114.432 222.501 113.772C224.261 113.302 225.163 110.151 224.342 108.529C223.584 107.032 216.895 98.2284 219.329 97.7106C220.313 97.5005 220.257 97.2471 219.416 96.4125C218.357 95.3598 217.166 94.657 216.04 93.4896C211.814 89.0926 212.592 89.52 205.927 89.8699C204.63 89.9372 191.453 90.6401 198.076 93.378C198.989 93.755 201.457 94.6549 202.103 95.1889C201.83 96.1752 198.478 97.7096 197.411 98.0656C196.034 98.3119 195.584 96.3934 194.932 95.3608C193.813 93.5891 193.063 93.567 192.239 91.4565C191.458 89.4546 190.728 91.2976 187.871 89.6185C185.555 88.2581 185.839 88.065 182.897 87.2033C180.981 86.6433 178.417 86.0591 177.609 84.1416C177.107 82.9501 176.554 83.102 175.032 83.2387C171.194 83.5846 170.489 84.4372 171.868 80.1569C172.448 78.3511 173.039 74.8118 170.382 74.114C168.066 73.5056 165.539 77.0248 163.739 76.1521C162.982 75.5065 161.778 73.2874 161.363 72.3433C160.974 71.3147 159.229 71.003 158.11 70.6139C153.679 69.0765 158.825 69.6265 154.711 66.5909C153.468 65.6729 149.383 62.8787 147.925 63.3754C147.146 63.6408 147.325 63.9898 146.294 62.926C144.364 60.9331 143.229 58.2102 139.98 59.9085C138.661 60.7038 138.634 59.7959 137.141 59.0559C136.07 58.526 134.373 58.9432 133.557 59.7537C131.803 61.5002 136.259 64.1597 132.95 64.0983C131.091 64.0642 130.498 62.9521 127.21 63.296C123.662 63.665 125.483 63.3915 122.363 62.9199C118.668 62.3629 116.176 64.2552 112.92 62.8968C109.969 61.471 107.313 63.0717 106.764 59.6612C106.481 57.9036 105.698 57.8714 103.732 57.991C100.654 58.1781 100.952 58.7452 97.3716 58.1016C95.4036 57.7487 93.4801 57.2108 91.5329 56.7694C87.02 55.785 87.9578 58.6617 83.5445 57.4149C82.6471 57.1615 82.1637 57.1092 81.2362 57.0419C80.2081 57.0177 77.0376 57.7548 77.0563 56.2123C77.0677 55.2793 77.6591 54.6589 76.1942 54.0556L75.3622 53.7972C72.8007 53.2602 68.1934 54.9464 65.5219 55.6442C64.0218 56.0374 62.7457 56.8086 61.2881 56.5391C60.2963 56.3541 56.4951 56.7644 56.9308 57.5285C57.0045 57.6542 58.321 58.8115 58.7215 59.3354C60.3648 61.4851 60.8981 60.0573 63.4502 59.6601C65.2097 59.3856 65.1993 60.6334 66.5552 61.4821C68.3687 62.6183 68.3957 62.2774 66.907 63.4428C65.3757 64.6423 68.6281 64.9983 69.7952 66.1867L70.6687 67.1812C70.8814 67.4536 72.7 69.9844 72.7177 69.9965C73.2665 70.3474 73.6358 68.9699 75.4866 70.2519C76.3394 70.8421 78.0118 71.6606 78.294 72.4911C78.5782 73.3196 78.3562 73.582 79.3926 73.9068C80.5038 74.2577 78.6353 74.8892 78.8397 75.7589C79.0368 76.6045 77.1133 76.3069 78.2794 77.7779C78.7276 78.34 78.793 78.4596 79.0524 79.1233ZM160.738 190.209C160.761 192.119 159.905 191.952 160.603 194.157C161.164 195.931 160.614 196.16 159.363 197.705C156.43 201.324 155.203 199.374 155.673 195.896C156.083 192.878 156.508 192.226 156.059 189.058C155.862 187.649 155.703 185.131 157.234 184.24C158.345 183.594 158.164 187.031 159.667 188.502C160.381 189.202 160.502 189.201 160.738 190.209ZM97.6195 114.678C98.3198 113.197 99.9746 113.133 99.2961 114.491C99.2224 114.639 98.3084 116.427 97.9702 116.123C97.6424 115.828 97.6216 115.056 97.6195 114.678ZM96.3321 113.873C95.748 113.617 96.1547 112.425 94.4003 112.055C93.4127 111.848 93.946 111.157 92.3991 110.562C91.5712 110.241 90.4197 109.09 90.5525 108.237C90.7278 107.117 90.9934 106.662 91.0536 105.359C91.509 101.558 93.4117 101.699 92.8846 104.231C92.6668 105.285 93.2229 106.796 93.9211 107.684C95.248 109.37 94.4958 109.053 95.1764 110.261C95.942 111.617 98.7939 110.974 97.0126 113.345C96.8249 113.593 96.6568 113.829 96.3321 113.873ZM183.401 83.3453C183.268 83.291 182.065 82.8717 182.001 82.6123C181.923 82.2925 185.306 80.8587 183.618 77.1183C182.111 73.7781 178.16 73.9199 175.668 69.5631C176.037 69.4405 176.321 69.3027 176.7 69.4867C177.168 69.713 178.003 70.9386 179.248 71.6274C182.617 73.4946 182.319 72.7244 185.505 75.4905C186.148 76.0485 187.954 77.1314 187.001 78.0424C186.126 78.8769 187.107 78.4043 187.84 80.2021C188.192 81.0618 188.917 82.1397 187.735 82.1176C184.756 82.0653 185.957 83.8249 183.401 83.3453ZM190.067 124.542C189.661 123.339 193.35 124.009 192.029 124.947C191.378 125.412 190.562 125.037 190.067 124.542ZM216.379 111.413C215.745 111.056 216.24 109.701 216.656 110.88C216.742 111.128 216.769 111.451 216.379 111.413ZM201.13 103.959C199.287 105.304 199.316 102.602 201.103 102.752C202.094 102.834 201.509 103.584 201.13 103.959ZM210.61 116.28C206.872 113.728 210.01 113.493 206.708 110.98C205.981 110.426 206.829 108.818 203.762 106.507C200.487 104.037 206.12 105.991 207.404 106.055C213.049 106.333 207.335 97.8635 209.89 98.5864C211.22 98.9635 212.106 101.36 212.937 102.508C214.99 105.343 215.048 105.147 212.778 107.798C211.256 109.577 212.512 109.527 212.805 111.884C213.016 113.572 212.873 112.981 213.385 114.565C213.915 116.197 213.869 117.966 211.482 116.773L210.61 116.28ZM170.277 129.032C170.644 127.86 171.217 126.72 171.881 125.67C172.969 123.952 171.16 124.392 171.7 123.915C171.705 123.908 173.476 123.059 173.756 122.896C174.154 122.665 176.445 121.397 176.292 120.906C176.153 120.459 175.151 119.419 174.344 119.511C173.308 119.629 172.522 119.538 173.702 118.45C174.448 117.762 176.17 117.155 177.139 117.532C177.748 117.769 180.242 120.338 180.099 121.123C179.881 122.326 178.221 123.947 177.235 124.718C175.277 126.249 176.338 126.643 174.894 128.473C173.347 130.435 170.143 130.19 170.277 129.032ZM189.034 120.841C190.357 121.697 190.268 122.879 192.553 123.386C194.786 123.878 195.178 121.655 196.284 126.8C197 130.136 195.608 131.144 192.549 129.136C189.404 127.071 187.984 129.096 185.446 127.87C183.424 126.814 184.599 125.598 186.374 124.851C189.838 123.391 187.739 122.641 187.842 120.891C187.888 120.106 188.656 120.629 189.034 120.841ZM222.162 142.984C225.923 147.313 218.824 143.106 217.669 142.554C216.114 141.812 211.12 139.402 210.18 141.971L210.065 142.422C209.714 144.65 208.182 143.692 205.859 144.461C204.558 144.89 199.674 147.501 199.952 144.561C200.105 142.947 199.947 142.448 197.863 142.193C192.66 141.736 193.064 144.569 187.535 140.865C185.571 139.384 185.231 137.667 186.071 135.46C186.936 133.195 187.885 135.433 190.346 135.188C192.943 134.93 191.98 136.488 193.721 136.137C195.763 135.727 197.433 129.702 199.523 132.756C200.635 134.378 198.345 134.177 198.581 135.598L198.735 136.096C199.621 137.85 201.72 135.324 202.591 134.536C204.247 132.636 201.185 132.848 207.026 131.031C207.973 130.721 210.575 129.274 211.152 129.379C212.277 129.588 209.17 132.607 208.268 133.042C205.948 134.161 204.506 133.394 205.213 136.834C205.544 138.133 206.671 138.662 208.063 138.624C210.665 138.55 203.096 137.051 208.862 134.514C210.902 133.601 210.758 133.39 212.398 132.382C214.292 131.216 215.104 132.938 217.099 133.678C218.917 134.353 219.284 134.988 220.108 136.656C222.113 140.732 219.349 139.549 222.162 142.984Z" fill="white"/>
<path fill-rule="evenodd" clip-rule="evenodd" d="M255.019 97.2869C253.755 94.6817 255.967 94.5098 255.863 93.1021C255.236 91.3536 253.183 91.9076 256.153 89.9278C258.226 88.5463 256.959 87.5327 255.648 85.7711C254.502 84.2307 254.011 83.7672 252.63 82.445C250.113 80.0399 255.897 81.9543 256.812 82.4058C265.058 86.9546 259.726 83.0634 260.036 81.8156C260.303 80.7437 262.524 81.1268 263.545 80.9569C265.784 80.5818 268.865 80.7628 271.088 81.3229C274.198 82.1082 276.565 82.9669 279.102 84.8159C279.775 85.3066 284.184 87.4573 283.604 88.2929C282.344 89.6131 280.745 90.3079 284.287 89.2169C287.591 88.1984 285.473 89.9771 287.655 90.6196C289.942 91.2933 288.999 90.9574 291.196 90.9242C293.675 91.063 297.899 93.6722 299.349 95.5123C301.168 97.8218 296.871 97.0436 301.578 99.8921C303.405 100.996 304.535 101.652 302.507 103.515C299.774 106.03 295.204 101.367 290.955 103.089C289.591 103.642 286.511 105.336 286.368 106.883C286.314 107.478 286.352 109.644 285.18 109.031C283.935 108.381 281.646 107.618 281.145 109.429C279.911 113.908 283.396 114.31 280.765 117.638C279.82 118.835 278.006 119.694 277.614 120.321C276.806 121.61 275.792 121.859 274.513 122.876C273.631 123.574 269.386 125.217 268.992 123.684C268.7 122.552 269.321 119.686 268.873 117.579C267.973 113.349 268.087 115.739 265.128 113.036C262.987 111.082 264.058 110.139 260.697 108.511C258.261 107.329 253.564 104.28 254.601 101.383C255.259 99.5543 255.865 99.4095 255.019 97.2869Z" fill="white"/>
<path fill-rule="evenodd" clip-rule="evenodd" d="M118.538 155.52C116.664 156.686 116.664 157.551 116.01 158.028C114.815 158.898 115.028 158.068 113.66 159.852C112.619 161.204 108.242 164.321 108.68 160.937C108.716 160.664 108.728 157.063 109.743 158.841C110.431 160.046 111.721 156.94 112.13 156.642C113.335 155.768 113.903 156.897 116.675 154.324C117.963 153.128 119.761 152.212 121.655 152.51C123.59 152.813 118.842 155.359 118.538 155.52Z" fill="white"/>
<path fill-rule="evenodd" clip-rule="evenodd" d="M251.988 111.954C250.38 112.998 248.439 113.395 247.08 111.755C246.191 110.683 244.832 110.112 244.438 109.495C243.728 108.379 245.747 107.4 246.974 107.849C247.796 108.147 249.752 108.732 250.215 109.312C251.066 110.381 250.8 109.87 252.024 109.224C252.839 108.794 254.589 110.094 251.988 111.954Z" fill="white"/>
<path fill-rule="evenodd" clip-rule="evenodd" d="M297.296 190.168C299.125 188.855 300.547 189.999 302.775 190.394C306.541 191.061 309.665 190.422 311.479 187.056C313.056 183.763 312.209 185.431 315.323 183.188C316.55 182.301 321.547 177.144 322.731 177.837C322.292 179.775 316.658 184.518 316.875 185.574L317.24 185.461L317.887 185.095C319.314 184.161 319.313 183.425 320.666 182.607C322.184 181.689 323.014 180.366 324.342 179.118C325.851 177.701 326.349 176.207 328.417 175.68C331.46 174.902 333.285 172.52 334.971 170.131C336.431 168.057 336.715 166.015 337.401 163.66L337.569 163.093C338.451 160.248 339.966 159.488 342.323 157.691C344.545 155.983 344.131 155.409 347.24 153.754C349.494 152.623 350.668 152.192 352.862 150.768C356.684 148.289 357.08 148.398 361.712 148.5C365.132 148.576 363.897 146.802 368.756 148.935C371.796 150.268 370.594 152.223 371.674 154.552C373.026 157.465 378.627 163.025 375.097 157.497C372.09 152.786 376.188 154.982 379.649 154.136C381.836 153.403 384.003 152.142 381.959 150.003C381.289 149.369 377.604 146.752 380.391 147.023L381.312 147.173C382.411 147.396 386.296 148.495 386.242 146.535C386.184 144.531 379.436 145.5 381.89 144.058C382.852 143.494 386.402 143.23 386.076 142.005L385.877 141.625L385.404 141.194C383.148 139.462 384.206 138.167 381.021 136.369C379.89 135.729 378.916 135.52 377.626 135.344C376.535 135.267 375.36 135.272 374.253 135.226C373.277 135.177 372.561 135.114 371.606 134.929L370.454 134.605C365.367 132.896 363.37 133.89 358.657 133.117C354.744 132.475 355.645 133.285 353.294 129.971C352.285 128.548 351.667 129.295 349.818 129.58C346.981 130.02 347.169 128.865 344.072 129.175C342.572 129.325 340.287 129.451 338.995 130.135C336.973 131.21 335.852 128.546 333.969 129.944C333.165 130.542 332.487 130.748 332.708 129.532C333.501 125.154 328.865 129.091 325.155 127.137C323.459 126.245 324.263 126.254 322.385 126.342C320.591 126.425 320.099 125.27 320.258 123.764C320.542 121.077 323.096 122.047 322.385 119.975C321.41 118.588 319.483 119.924 318.847 121.126C317.828 123.044 318.265 122.421 316.008 123.459C313.008 124.839 312.737 124.342 311.883 121.427C311.41 119.734 311.509 118.522 309.223 120.505C304.683 124.444 310.692 125.077 311.378 126.032C311.784 126.598 311.6 126.895 312.294 127.759C313.661 129.463 313.559 129.184 313.982 131.111C314.175 131.992 315.212 132.099 315.928 133.549C316.515 134.746 317.494 137.28 316.15 138.127C315.842 138.319 313.259 139.473 312.946 139.533C311.596 139.795 311.04 139.487 309.196 139.996C307.722 140.401 306.775 140.675 305.235 140.947C301.52 141.573 302.996 143.107 300.353 144.701C298.072 145.826 298.69 142.738 299.391 141.519C300.369 139.822 299.135 139.931 298.602 137.808C298.094 135.017 300.04 135.351 301.367 133.785C302.072 132.952 300.613 133.132 301.266 131.173L301.595 130.37C302.558 128.554 301.792 129.657 299.785 128.608L299.081 128.192C298.204 127.583 298.849 127.579 296.982 128.298C294.043 129.119 294.926 127.369 293.85 130.132C293.443 131.174 292.357 131.72 291.197 131.884C288.003 132.334 290.967 125.867 287.945 129.735C286.275 131.607 285.192 131.173 284.883 133.684C284.747 134.798 283.379 134.415 282.008 134.785C279.528 135.457 280.62 134.982 278.459 136.46C277.08 137.403 279.18 137.847 280.214 139.443C282.501 142.507 283.913 140.308 286.177 142.166C287.025 142.863 288.08 144.251 287.758 145.342C285.935 144.968 284.67 143.807 283.669 146.217C283.066 149 285.165 149.971 286.658 152.256C287.787 153.983 290.975 158.349 290.878 160.204C290.739 162.868 289.607 163.058 291.178 166.199C293.084 169.973 293.189 169.925 290.733 173.354C289.298 175.356 289.851 175.912 291.662 174.185C293.472 172.46 295.627 171.192 298.336 172.135C300.004 172.714 299.001 173.35 302.403 173.841C304.237 173.905 305.531 174.981 306.417 176.445C307.335 177.963 306.552 179.772 306.247 181.412C305.802 183.815 303.292 187.397 300.39 187.53C296.763 187.336 298.46 183.78 296.603 182.947C295.077 182.263 294.385 184.343 294.396 185.495C294.41 186.572 294.887 189.632 292.637 188.487C291.117 187.714 290.364 187.282 289.299 189.149C287.681 191.995 288.491 193.192 284.267 193.32L283.55 193.343C277.646 193.478 282.086 191.183 277.831 189.249C275.132 188.3 273.501 189.824 269.464 188.058C267.888 187.368 267.64 188.058 266.17 188.945C260.952 191.844 259.528 189.272 257.281 190.459C254.518 191.917 254.802 195.818 251.036 195.753C248.735 195.714 247.969 195.07 245.876 196.23C244.996 196.716 244.065 196.408 242.825 196.599C240.08 197.022 236.607 197.829 236.361 200.921C236.214 202.794 239.532 205.218 238.413 209.097C237.674 211.656 234.528 211.036 237.728 215.995C240.394 219.901 241.457 218.884 242.405 224.54C243.101 228.694 243.093 235.351 248.646 236.505C248.355 236.726 246.855 237.74 246.837 237.991C247.524 241.41 250.475 240.055 251.465 241.426C252.234 242.491 250.424 243.438 251.196 244.97C252.579 247.715 251.4 247.099 251.608 248.652C251.906 250.887 255.029 249.784 252.779 253.493C250.943 256.513 252.52 257.57 251.423 259.493C250.483 261.137 248.038 261.801 247.852 262.529C248.521 263.166 250.613 264.237 251.601 264.122C253.546 263.89 253.698 262.894 254.408 262.729C257.037 262.119 258.176 260.748 259.018 258.284C260.121 255.048 257.201 255.608 258.261 254.582C258.787 254.072 260.294 254.747 259.906 252.663C259.591 250.98 258.294 251.859 259.711 249.715C260.905 247.908 260.295 246.644 260.858 244.667C261.93 241.097 261.42 243.327 261.192 239.713C261.014 236.874 262.815 231.934 263.33 228.653C263.666 226.514 264.359 220.645 266.671 219.67C268.776 218.786 270.367 219.986 272.59 217.103C274.709 214.356 274.84 213.312 277.999 211.043C280.953 208.921 279.944 208.992 280.702 205.891C281.634 202.076 279.206 199.412 280.557 196.195C282.209 192.264 287.47 196.981 290.732 192.151C292.319 189.806 293.425 192.579 296.822 190.454L297.296 190.168ZM306.323 150.295C306.862 151.002 307.044 151.491 307.729 152.289C309.063 153.854 307.263 153.123 306.321 152.448C305.304 151.786 305.526 152.457 303.788 152.529C300.934 152.647 304.009 153.471 303.885 154.614C303.839 155.048 302.392 159.306 301.758 157.537C301.422 156.598 303.019 155.247 301.72 153.783C300.498 152.409 300.034 156.645 297.58 153.646C295.865 151.553 299.807 152.501 300.784 152.08C302.461 151.354 304.299 148.295 306.323 150.295Z" fill="white"/>
<path fill-rule="evenodd" clip-rule="evenodd" d="M102.82 147.591C103.373 148.506 102.305 147.997 103.701 149.446C104.579 150.353 103.189 150.368 104.713 151.55C106.649 153.055 104.417 153.514 107.002 153.158C107.548 153.084 108.438 154.696 106.99 155.984C106.215 156.672 105.539 158.211 103.981 158.13C102.866 158.072 102.925 157.557 100.898 157.635C98.8379 157.716 99.5994 155.932 99.2861 154.619C99.0392 153.57 99.6575 154.048 98.9074 152.406C98.4499 151.399 101.726 150.961 100.412 149.095C99.8899 148.353 100.728 148.468 99.5631 147.922C98.9406 147.631 100.145 147.398 100.818 146.817C101.989 145.798 101.795 146.406 102.82 147.591Z" fill="white"/>
<path fill-rule="evenodd" clip-rule="evenodd" d="M94.747 150.693C95.5167 150.944 97.2099 151.251 97.3188 152.145C97.4817 153.496 98.1155 152.821 97.3302 154.941C96.8281 156.305 97.9931 156.086 96.7005 156.942C96.2886 157.215 95.772 160.022 94.914 158.469C94.6318 157.958 95.7647 156.733 94.9659 156.473C94.4243 156.295 94.6318 157.744 93.2935 157.824C92.6212 157.864 91.6325 158.621 91.7975 157.618C91.9137 156.903 93.0155 156.909 93.6608 155.847C94.2054 154.948 96.1257 155.146 94.25 154.356C93.0943 153.87 93.4263 153.113 95.0509 153.593C96.383 153.987 96.466 152.561 95.6713 152.331C94.2562 151.921 93.0424 152.367 92.7966 150.305C92.7291 149.726 93.1275 149.48 93.6047 150.003C93.973 150.411 94.2137 150.509 94.747 150.693Z" fill="white"/>
<path fill-rule="evenodd" clip-rule="evenodd" d="M69.6568 154.196C69.607 153.166 68.5312 153.412 71.0428 152.237C74.3751 150.679 74.4685 150.497 78.4689 150.358C82.7919 150.208 80.9588 151.837 81.99 152.431C82.7899 152.892 83.5887 150.797 84.1655 150.53C85.0587 150.115 88.2468 151.678 87.0839 151.94C85.5744 152.282 85.8545 151.956 85.1314 153.192C84.818 153.732 83.7951 152.94 82.7805 153.678C82.156 154.131 81.2451 153.865 80.163 154.15C78.8486 154.497 79.081 153.979 78.1192 155.568C77.0963 157.26 78.7282 156.839 78.3568 157.284C77.753 158.006 76.8141 156.664 75.5567 157.264C74.6479 157.698 74.3741 157.507 73.5732 156.807C72.5596 155.921 73.4341 153.83 70.0479 156.066C68.971 156.774 67.5425 157.557 66.2488 156.738C65.3784 156.187 67.7572 156.053 68.6484 155.36C69.053 155.044 69.413 154.63 69.6568 154.196Z" fill="white"/>
<path fill-rule="evenodd" clip-rule="evenodd" d="M96.8406 162.811C99.3658 163.293 94.4047 164.356 95.0427 162.725C95.4121 161.781 96.3281 162.667 96.8406 162.811Z" fill="white"/>
<path fill-rule="evenodd" clip-rule="evenodd" d="M94.1262 162.245C93.426 162.723 92.2547 162.715 91.7401 161.85C91.1529 160.859 94.424 161.832 94.1999 162.174L94.1262 162.245Z" fill="white"/>
<path fill-rule="evenodd" clip-rule="evenodd" d="M94.2028 163.309C94.1759 163.302 92.6944 163.579 92.7992 163.871C93.1239 164.765 94.8875 163.779 94.2028 163.309Z" fill="white"/>
<path fill-rule="evenodd" clip-rule="evenodd" d="M89.8773 162.96C89.3326 162.672 88.1178 161.529 88.068 160.993C87.9248 159.457 89.4748 159.709 89.0131 160.518C88.8513 160.804 89.5484 161.082 89.9084 161.644C90.1367 162.001 91.0372 163.329 89.8773 162.96Z" fill="white"/>
<path fill-rule="evenodd" clip-rule="evenodd" d="M90.7152 163.394C90.7152 163.394 91.5888 163.999 91.1655 164.162C90.7422 164.325 89.8936 163.65 90.7152 163.394Z" fill="white"/>
<path fill-rule="evenodd" clip-rule="evenodd" d="M78.6745 185.082C81.2495 186.373 81.6168 187.884 83.9873 189.115C85.3817 189.839 86.0394 190.509 87.1982 191.164C90.654 193.113 89.6186 188.535 91.0492 186.724C92.2859 185.161 93.9458 184.325 94.0557 182.339C94.1989 179.716 96.2811 178.906 94.3431 177.398L93.2341 176.532C91.6489 175.296 88.8218 173.772 88.8239 171.647C88.826 169.32 87.7823 170.327 87.1961 167.796C86.6598 165.479 86.7148 166.427 84.7001 166.663C82.5235 166.918 83.8421 164.433 82.8015 163.53C82.123 162.942 77.5448 160.845 77.7326 162.728C77.9255 164.67 77.8602 165.107 75.6255 166.026C73.3784 166.951 71.0223 169.039 72.0909 164.307C72.2341 163.671 73.3514 159.975 73.2663 159.807C72.9644 159.22 71.3605 160.494 70.9964 161.476C70.3967 163.095 70.764 162.276 69.3365 162.772C68.5843 163.034 67.7575 164.61 67.2616 165.357C66.4202 166.629 67.5749 166.854 64.8682 167.29C62.9002 167.608 63.6544 168.432 62.425 169.805C59.6135 172.339 59.6872 171.091 58.0283 174.625C57.7679 175.184 57.5054 175.645 57.1973 176.183C56.0717 178.048 57.8467 180.356 57.5448 183.207C57.328 185.267 57.0531 186.06 58.5346 187.969C59.7058 189.48 60.7578 189.229 62.5516 189.549C66.3258 190.223 67.8955 185.687 69.7826 185.017C70.8854 184.626 70.3106 187.226 72.3254 185.61C74.8059 183.621 75.7417 183.676 78.6745 185.082Z" fill="white"/>
<path fill-rule="evenodd" clip-rule="evenodd" d="M290.401 179.181C290.101 179.123 288.321 179.555 287.946 179.736C286.441 180.463 285.032 181.146 283.371 180.299C281.64 179.417 286.314 178.79 287.002 178.792C288.523 178.796 287.6 177.538 290.339 178.545C293.641 179.758 292.065 181.006 290.954 179.682C290.736 179.421 290.708 179.357 290.401 179.181Z" fill="white"/>
<path fill-rule="evenodd" clip-rule="evenodd" d="M278.331 179.393C281.99 179.683 280.251 181.276 279.289 181.259C278.819 181.251 275.001 180.022 277.182 179.451C277.556 179.353 277.95 179.381 278.331 179.393Z" fill="white"/>
<path fill-rule="evenodd" clip-rule="evenodd" d="M58.6724 191.872C59.9018 192.249 60.3178 190.631 60.7234 191.687C61.2027 192.938 59.8862 192.424 59.7877 193.045C59.6269 194.059 59.2752 193.71 58.2771 194.422C57.552 194.942 57.1256 194.574 56.611 193.999C56.1099 193.438 56.5954 192.965 56.6992 192.116C56.9482 190.12 57.8995 191.536 58.6724 191.872Z" fill="white"/>
<path fill-rule="evenodd" clip-rule="evenodd" d="M278.415 142.507C279.041 144.204 275.24 142.749 275.124 142.77C274.503 142.88 275.157 143.544 274.012 143.007C273.364 142.704 271.473 143.225 271.925 142.237C272.015 142.039 274.215 140.281 274.526 140.25C274.76 140.227 276.322 141.035 276.83 139.856C276.935 139.617 276.736 138.372 277.953 139.1C278.713 139.554 277.47 141.036 277.953 141.867L278.415 142.507Z" fill="white"/>
<path fill-rule="evenodd" clip-rule="evenodd" d="M280.457 147.274C281.396 147.846 281.967 147.425 282.206 148.659C282.325 149.282 284.299 150.938 283.158 151.082C282.721 151.137 280.765 149.201 280.225 148.769C279.139 147.898 280.005 148.036 278.767 147.188C276.594 145.699 278.982 145.27 279.376 145.525C279.45 145.571 279.763 146.398 280.037 146.754C280.176 146.934 280.302 147.102 280.457 147.274Z" fill="white"/>
<defs>
<linearGradient id="paint0_linear_618_1449" x1="210.128" y1="7.97949" x2="210.128" y2="293.288" gradientUnits="userSpaceOnUse">
<stop stop-color="#670AAE"/>
<stop offset="1" stop-color="#410071"/>
</linearGradient>
<linearGradient id="paint1_linear_618_1449" x1="210.435" y1="77.7295" x2="210.435" y2="300.102" gradientUnits="userSpaceOnUse">
<stop stop-color="#670AAE"/>
<stop offset="1" stop-color="#410071"/>
</linearGradient>
</defs>
</svg>
