<svg width="363" height="468" viewBox="0 0 363 468" fill="none" xmlns="http://www.w3.org/2000/svg">
<path fill-rule="evenodd" clip-rule="evenodd" d="M301.47 505H66.3633C72.2351 484.79 81.0494 453.803 81.7322 447.667L286.527 432.23L301.47 505Z" fill="#0F2238"/>
<path fill-rule="evenodd" clip-rule="evenodd" d="M263.043 50.9803C261.533 50.4183 260.764 48.7411 261.323 47.2311C261.883 45.7211 263.562 44.9499 265.074 45.5097C284.43 52.6909 286.167 70.464 288.187 91.1029C289.685 106.425 291.351 123.448 301.077 138.121C305.418 144.671 310.118 150.797 314.604 156.639C334.38 182.403 350.172 202.971 319.099 233.296C317.949 234.417 316.106 234.392 314.986 233.24C313.864 232.088 313.892 230.247 315.042 229.126C342.408 202.418 328.01 183.663 309.977 160.172C305.435 154.256 300.675 148.053 296.221 141.334C285.704 125.469 283.965 107.671 282.399 91.6487C280.57 72.9793 278.999 56.8985 263.043 50.9803Z" fill="#0F2238"/>
<path fill-rule="evenodd" clip-rule="evenodd" d="M148.058 59.9005C148.918 58.5415 150.72 58.1381 152.078 59.001C153.439 59.8628 153.843 61.664 152.978 63.0231C144.677 76.1215 142.944 86.0165 141.431 94.6798C138.856 109.404 136.854 120.848 108.956 137.426C107.271 138.428 104.914 139.782 102.558 141.137C81.1741 153.429 60.3302 165.41 73.4998 203.238C74.0283 204.755 73.2269 206.412 71.7104 206.942C70.1939 207.471 68.5362 206.668 68.0066 205.154C53.2547 162.777 76.1618 149.609 99.6644 136.099C101.559 135.008 103.469 133.911 105.994 132.411C131.572 117.212 133.374 106.919 135.689 93.6767C137.295 84.4817 139.132 73.9783 148.058 59.9005Z" fill="#0F2238"/>
<path fill-rule="evenodd" clip-rule="evenodd" d="M133.646 52.5744C133.646 55.7444 143.147 89.2994 142.215 94.9631C140.107 107.793 133.265 130.898 111.092 145.016C79.1268 165.367 45.8856 186.874 89.3206 238.396C132.753 289.917 302.379 312.911 317.055 217.126C326.151 157.771 281.707 172.187 286.339 103.51C288.087 77.5784 279.551 54.6356 262.693 42.963C251.578 35.2673 241.797 44.8732 228.813 44.8732C193.805 44.8754 143.554 15.5959 133.646 52.5744Z" fill="#0F2238"/>
<path fill-rule="evenodd" clip-rule="evenodd" d="M85.969 198.273C41.8168 230.599 -1.71097 309.917 0.143138 341.083L55.5203 329.691L87.3506 269.04L85.969 198.273Z" fill="#E6B3A0"/>
<path fill-rule="evenodd" clip-rule="evenodd" d="M145.142 172.518C133.273 175.6 106.239 177.158 79.4013 196.647C58.7861 211.618 47.6335 228.114 15.7578 282.129C33.066 304.5 53.6563 309.524 78.4079 320.702C100.125 287.264 135.116 216.626 145.142 172.518Z" fill="#FCC51F"/>
<path fill-rule="evenodd" clip-rule="evenodd" d="M135.829 175.075C118.7 217.312 99.024 248.699 94.7711 291.16C91.2354 326.458 86.2955 361.765 82.6768 403.413C81.0783 421.791 76.1146 444.122 71.6406 463.701C98.2991 502.455 227.743 512.54 300.003 466.277L291.034 441.381L275.874 282.147L263.568 180.321C246.555 169.717 187.968 154.907 135.829 175.075Z" fill="#FCC51F"/>
<path fill-rule="evenodd" clip-rule="evenodd" d="M82.6906 403.245L82.6766 403.414C82.2667 408.121 81.6357 413.087 80.8516 418.199L97.2451 422.133C97.2451 422.133 148.653 414.859 174.356 413.887C200.06 412.918 244.196 421.161 244.196 421.161C265.017 424.387 279.582 426.638 289.778 428.207L287.104 400.114C245.845 400.387 183.571 401.277 183.571 401.277C183.571 401.277 157.868 404.672 137.498 404.186C117.129 403.702 84.1488 401.277 84.1488 401.277L82.6906 403.245Z" fill="#0F2238"/>
<path fill-rule="evenodd" clip-rule="evenodd" d="M295.41 223.068C320.796 236.74 328.535 234.811 349.212 308.054C374.644 398.132 357.585 409.796 344.896 416.587C306.913 413.711 309.629 402.763 278.996 294.257C263.921 240.854 274.018 235.634 295.41 223.068Z" fill="#E6B3A0"/>
<path fill-rule="evenodd" clip-rule="evenodd" d="M351.804 317.517C352.328 319.496 352.833 321.444 353.315 323.343C345.086 329.752 337.068 334.023 326.498 336.805C312.677 340.443 305.037 340.443 305.037 340.443L291.837 340.648C290.298 335.038 288.65 329.017 286.867 322.534L351.804 317.517Z" fill="#0F2238"/>
<path fill-rule="evenodd" clip-rule="evenodd" d="M249.992 174.459C274.608 179.304 301.623 192.099 311.648 206.376C333.524 237.524 343.605 261.059 361.73 312.973C343.28 331.422 302.237 337.557 288.183 336.81C280.244 300.98 217.681 194.939 249.992 174.459Z" fill="#FCC51F"/>
<path fill-rule="evenodd" clip-rule="evenodd" d="M251.684 174.803C264.199 177.438 277.214 182.075 288.214 187.87C282.622 196.421 275.738 206.169 267.855 215.793V215.795C250.902 236.491 229.341 256.602 206.122 262.936C168.254 273.263 146.025 260.124 126.599 226.997V226.999L126.422 226.695L126.049 226.055C125.831 225.678 125.614 225.3 125.397 224.918L125.023 224.259C124.806 223.871 124.587 223.479 124.368 223.085L124.03 222.471C123.786 222.028 123.541 221.581 123.297 221.13L123.041 220.654C122.785 220.18 122.531 219.704 122.277 219.222L122.041 218.779C121.784 218.287 121.526 217.794 121.269 217.296L121.05 216.869C120.789 216.362 120.53 215.852 120.269 215.337L120.052 214.908C119.779 214.364 119.505 213.818 119.232 213.268L119.151 213.106V213.104C114.64 203.983 110.194 193.753 105.641 182.456C119.021 177.307 131.026 175.372 139.38 173.765C181.785 158.707 227.703 165.972 251.684 174.803Z" fill="#B6362E"/>
<path fill-rule="evenodd" clip-rule="evenodd" d="M130.624 169.641C130.354 169.102 130.571 168.448 131.109 168.179C131.648 167.911 132.303 168.129 132.573 168.666C142.016 187.559 150.809 199.369 158.59 206.54C169.11 216.236 177.681 217.345 183.45 216.091C189.629 214.748 208.759 206.761 227.589 195.813C240.14 188.516 252.525 179.917 260.782 171.121C261.192 170.683 261.884 170.661 262.323 171.074C262.761 171.486 262.784 172.178 262.37 172.617C253.952 181.583 241.392 190.312 228.683 197.702C209.658 208.763 190.228 216.854 183.909 218.227C177.599 219.598 168.302 218.46 157.111 208.145C149.16 200.819 140.203 188.802 130.624 169.641Z" fill="#0F2238"/>
<path fill-rule="evenodd" clip-rule="evenodd" d="M172.355 146.124L168.073 165.328C128.962 168.549 167.309 209.058 179.149 208.789C189.8 208.546 202.334 200.96 213.681 193.706C242.187 175.477 249.555 170.452 225.21 164.709L228.267 122.737L172.355 146.124Z" fill="#C87868"/>
<path fill-rule="evenodd" clip-rule="evenodd" d="M284.034 325.392C283.432 325.356 282.974 324.84 283.01 324.239C283.044 323.635 283.561 323.178 284.164 323.214C291.886 323.679 305.655 323.164 321.829 318.129C332.791 314.716 344.85 309.228 356.864 300.567C357.351 300.215 358.035 300.325 358.384 300.814C358.738 301.303 358.626 301.984 358.138 302.336C345.901 311.156 333.63 316.741 322.477 320.215C305.994 325.346 291.93 325.867 284.034 325.392Z" fill="#0F2238"/>
<path fill-rule="evenodd" clip-rule="evenodd" d="M154.848 67.2637C147.604 85.3797 140.47 100.63 154.398 121.611C184.471 166.923 157.396 185.358 141.674 187.199C115.154 190.304 120.654 170.007 93.2568 188.638C88.3288 191.989 146.636 136.218 143.073 99.8728C140.81 76.7747 154.848 67.2637 154.848 67.2637Z" fill="#0F2238"/>
<path fill-rule="evenodd" clip-rule="evenodd" d="M278.06 210.958C278.185 210.369 278.767 209.992 279.354 210.117C279.945 210.241 280.323 210.821 280.199 211.411C275.455 233.45 276.764 256.987 278.195 282.603C279.805 311.484 281.561 343.001 275.005 378.127C274.896 378.72 274.328 379.112 273.735 379.004C273.144 378.895 272.75 378.327 272.858 377.736C279.366 342.865 277.616 311.482 276.013 282.721C274.578 256.951 273.258 233.272 278.06 210.958Z" fill="#0F2238"/>
<path fill-rule="evenodd" clip-rule="evenodd" d="M88.6328 418.19C114.274 376.676 141.284 334.182 166.925 292.668C172.269 284.017 169.844 284.435 179.694 283.904L287.201 279.035L285.842 287.345L295.757 297.968L214.496 403.337L101.044 431.832L88.6328 418.19Z" fill="#7B8EC5"/>
<path fill-rule="evenodd" clip-rule="evenodd" d="M101.141 431.48L180.294 305.617L296.612 297.621L227.005 416.627L101.141 431.48Z" fill="#0F2238"/>
<path fill-rule="evenodd" clip-rule="evenodd" d="M286.779 281.598L175.992 287.439C175.992 287.439 178.267 299.597 186.936 299.165L291.979 293.924L286.779 281.598Z" fill="white"/>
<path fill-rule="evenodd" clip-rule="evenodd" d="M104.27 434.607C129.911 393.093 155.552 351.578 181.192 310.062C186.538 301.41 184.111 301.829 193.963 301.298L302.837 295.453L301.477 303.763L312.07 313.819L230.133 419.752L116.678 448.249L104.27 434.607Z" fill="#B6362E"/>
<path fill-rule="evenodd" clip-rule="evenodd" d="M116.777 447.898L195.932 322.035L312.249 314.039L242.643 433.045L116.777 447.898Z" fill="#B6362E"/>
<path fill-rule="evenodd" clip-rule="evenodd" d="M309.484 311.284C305.643 308.965 303.182 299.396 302.159 299.448L191.484 305.353C191.484 305.353 195.541 316.755 204.138 317.927C212.738 319.1 309.484 311.284 309.484 311.284Z" fill="white"/>
<path fill-rule="evenodd" clip-rule="evenodd" d="M118.188 447.402C117.871 447.915 117.199 448.074 116.686 447.755C116.173 447.44 116.014 446.768 116.331 446.256L194.172 320.038C194.488 319.525 195.161 319.366 195.674 319.682C196.184 319.999 196.345 320.671 196.027 321.183L118.188 447.402Z" fill="#0F2238"/>
<path fill-rule="evenodd" clip-rule="evenodd" d="M0.157681 338.269C3.02458 311.4 40.2339 305.62 55.5381 319.966C66.7943 330.518 82.4275 361.425 113.232 381.852L92.343 413.994C64.5659 404.113 -3.70908 374.556 0.157681 338.269Z" fill="#E6B3A0"/>
<path fill-rule="evenodd" clip-rule="evenodd" d="M114.274 369.281C124.004 365.832 132.388 368.585 147.555 370.959C146.273 384.469 127.543 375.016 121.479 383.073C130.622 384.372 142.98 386.051 159.329 388.136C175.559 390.209 172.519 397.844 167.929 400.218C173.876 400.77 175.04 408.44 167.289 410.535C169.566 415.959 162.595 417.483 157.069 418.278C156.655 423.73 143.736 424.15 139.787 424.471C118.858 426.161 101.472 422.749 88.5928 412.309C69.3841 396.74 98.3875 374.907 114.274 369.281Z" fill="#E6B3A0"/>
<path fill-rule="evenodd" clip-rule="evenodd" d="M136.595 398.368C136.016 398.2 135.684 397.595 135.852 397.018C136.021 396.439 136.625 396.105 137.203 396.275C139.868 397.051 142.297 397.629 144.62 398.061C146.923 398.489 149.142 398.77 151.401 398.956C151.671 398.98 151.946 398.998 152.218 399.019C154.578 399.185 157.029 399.275 159.647 399.289C162.29 399.304 165.143 399.245 168.269 399.115C168.873 399.091 169.379 399.559 169.403 400.163C169.426 400.764 168.958 401.27 168.354 401.294C165.218 401.425 162.336 401.485 159.639 401.469C156.917 401.453 154.414 401.364 152.064 401.197C151.787 401.177 151.506 401.151 151.232 401.135C148.926 400.946 146.639 400.655 144.228 400.207C141.833 399.762 139.337 399.166 136.595 398.368Z" fill="#C87868"/>
<path fill-rule="evenodd" clip-rule="evenodd" d="M131.768 409.015C131.186 408.861 130.837 408.266 130.989 407.683C131.143 407.1 131.74 406.753 132.323 406.905C134.679 407.527 136.857 407.992 138.964 408.337C141.066 408.683 143.114 408.91 145.209 409.059C148.284 409.277 151.37 409.389 154.869 409.354C158.37 409.322 162.342 409.145 167.2 408.786C167.804 408.744 168.326 409.196 168.366 409.798C168.411 410.401 167.955 410.923 167.352 410.965C162.508 411.325 158.489 411.502 154.886 411.535C151.276 411.568 148.14 411.458 145.054 411.239C142.915 411.086 140.804 410.851 138.613 410.493C136.431 410.134 134.185 409.654 131.768 409.015Z" fill="#C87868"/>
<path fill-rule="evenodd" clip-rule="evenodd" d="M128.673 417.582C128.082 417.458 127.704 416.877 127.828 416.288C127.954 415.696 128.536 415.321 129.125 415.446C130.756 415.791 132.311 416.063 133.834 416.272C135.357 416.481 136.877 416.635 138.429 416.746C140.931 416.923 143.626 417.007 146.545 416.968C149.484 416.93 152.676 416.767 156.152 416.451C156.752 416.396 157.283 416.838 157.334 417.438C157.391 418.04 156.949 418.567 156.347 418.622C152.818 418.942 149.571 419.107 146.57 419.147C143.547 419.187 140.795 419.102 138.277 418.923C136.705 418.812 135.143 418.655 133.545 418.436C131.944 418.214 130.333 417.933 128.673 417.582Z" fill="#C87868"/>
<path fill-rule="evenodd" clip-rule="evenodd" d="M62.5848 326.509C63.0713 326.865 63.1759 327.549 62.8178 328.035C62.464 328.521 61.7813 328.626 61.2948 328.27C58.5326 326.236 53.557 324.039 47.9602 323.012C43.6307 322.216 38.9561 322.13 34.6902 323.378C34.1121 323.545 33.5081 323.214 33.3398 322.635C33.1737 322.057 33.5038 321.45 34.084 321.284C38.7069 319.932 43.7278 320.018 48.3549 320.866C54.2872 321.956 59.6079 324.316 62.5848 326.509Z" fill="#C87868"/>
<path fill-rule="evenodd" clip-rule="evenodd" d="M223.069 72.6973C230.318 90.8133 238.92 107.117 223.524 127.045C187.108 174.168 220.071 193.508 234.884 200.785C258.852 212.556 293.497 174.081 298.702 176.862C299.246 177.154 293.178 156.296 278.244 150.529C263.426 144.805 237.913 154.35 242.543 107.117C244.81 84.0214 223.069 72.6973 223.069 72.6973Z" fill="#0F2238"/>
<path fill-rule="evenodd" clip-rule="evenodd" d="M277.288 286.004L280.35 285.843L285.269 285.584L286.135 285.538L288.391 285.42L287.447 283.181L286.779 281.599L284.138 281.738L277.075 282.112L275.878 282.175L275.817 282.179L267.27 282.629L234.907 284.335L231.199 284.53L199.438 286.205L195.826 286.396L193.086 286.542L175.992 287.442C175.992 287.442 176.012 287.538 176.05 287.717C176.177 288.284 176.52 289.668 177.179 291.285L180.549 291.109L197.607 290.208L201.292 290.013L203.07 289.92L230.136 288.494L233.843 288.299L268.894 286.449L276.245 286.062L276.774 286.036L277.288 286.004Z" fill="#0F2238"/>
<path fill-rule="evenodd" clip-rule="evenodd" d="M201.693 363.869L199.289 406.046C208.886 410.862 329.475 428.601 350.611 414.073C364.233 404.711 364.74 371.002 360.677 361.475C354.23 346.36 338.985 359.899 315.885 361.039C278.424 362.89 240.716 375.309 201.693 363.869Z" fill="#E6B3A0"/>
<path fill-rule="evenodd" clip-rule="evenodd" d="M333.747 362.745C334.273 363.041 334.463 363.707 334.167 364.232C333.873 364.759 333.206 364.946 332.68 364.653C329.316 362.762 325.122 361.612 320.373 361.259C315.634 360.907 310.347 361.347 304.783 362.633C304.196 362.768 303.61 362.4 303.477 361.813C303.342 361.224 303.71 360.64 304.298 360.505C310.078 359.168 315.581 358.711 320.526 359.08C325.6 359.456 330.105 360.699 333.747 362.745Z" fill="#C87868"/>
<path fill-rule="evenodd" clip-rule="evenodd" d="M167.781 350.395C162.238 362.64 184.518 361.26 186.178 370.507C176.96 368.289 164.538 365.224 148.169 361.054C131.922 356.914 130.956 364.682 134.075 368.433C128.224 366.734 123.302 372.995 129.52 377.659C124.676 381.556 130.45 385.438 135.232 388.153C132.902 393.055 141.528 398.763 145.067 400.489C157.331 406.46 172.539 409.374 184.155 409.875C190.325 410.142 254.653 417.025 260.648 415.505C279.385 410.758 239.161 391.026 231.224 377.995C229.772 375.613 223.548 371.416 217.156 367.401C190.18 350.445 197.622 357.15 167.781 350.395Z" fill="#E6B3A0"/>
<path fill-rule="evenodd" clip-rule="evenodd" d="M164.715 376.189C165.315 376.252 165.753 376.786 165.69 377.384C165.628 377.986 165.093 378.422 164.494 378.359C161.36 378.033 158.586 377.61 155.992 377.078C153.391 376.544 150.987 375.908 148.603 375.161C146.32 374.447 143.932 373.609 141.367 372.623C138.788 371.631 136.117 370.523 133.278 369.277C132.725 369.034 132.475 368.39 132.718 367.836C132.961 367.285 133.605 367.035 134.159 367.277C137.062 368.554 139.705 369.651 142.146 370.589C144.602 371.534 146.95 372.355 149.249 373.076C151.591 373.808 153.927 374.429 156.428 374.941C158.943 375.457 161.643 375.869 164.715 376.189Z" fill="#C87868"/>
<path fill-rule="evenodd" clip-rule="evenodd" d="M163.98 387.246C164.575 387.323 164.997 387.867 164.923 388.465C164.848 389.061 164.302 389.483 163.704 389.409C161.096 389.077 158.753 388.673 156.563 388.193C154.348 387.707 152.252 387.137 150.156 386.482C147.139 385.538 144.143 384.484 140.792 383.139C137.473 381.809 133.797 380.181 129.389 378.07C128.846 377.812 128.616 377.159 128.877 376.616C129.134 376.074 129.787 375.844 130.329 376.104C134.659 378.176 138.294 379.786 141.605 381.114C144.884 382.429 147.829 383.464 150.806 384.394C152.833 385.029 154.865 385.581 157.024 386.054C159.204 386.535 161.484 386.929 163.98 387.246Z" fill="#C87868"/>
<path fill-rule="evenodd" clip-rule="evenodd" d="M162.712 395.859C163.308 395.961 163.708 396.527 163.607 397.119C163.504 397.714 162.94 398.114 162.345 398.014C160.62 397.714 158.972 397.366 157.364 396.972C155.748 396.576 154.206 396.142 152.683 395.664C150.208 394.889 147.583 393.955 144.796 392.823C142.003 391.689 139.04 390.357 135.891 388.786C135.351 388.516 135.132 387.859 135.399 387.319C135.668 386.779 136.325 386.558 136.866 386.828C139.967 388.377 142.877 389.688 145.614 390.798C148.358 391.911 150.923 392.826 153.331 393.58C154.846 394.053 156.347 394.478 157.874 394.853C159.405 395.228 161.002 395.563 162.712 395.859Z" fill="#C87868"/>
<path fill-rule="evenodd" clip-rule="evenodd" d="M134.36 367.444C134.905 367.603 135.219 368.173 135.059 368.717C134.902 369.264 134.331 369.578 133.787 369.418C132.099 368.928 130.557 369.149 129.464 369.803C128.924 370.127 128.5 370.557 128.235 371.053C127.979 371.531 127.868 372.085 127.943 372.68C128.08 373.787 128.848 375.041 130.477 376.263C130.93 376.605 131.022 377.248 130.682 377.703C130.63 377.772 130.572 377.833 130.503 377.885C128.719 379.325 129.052 380.818 130.278 382.207C131.81 383.942 134.562 385.592 136.883 386.91C137.377 387.19 137.55 387.819 137.268 388.311L137.24 388.357C129.729 401.666 173.889 405.609 179.672 406.143C182.13 406.369 185.099 408.706 179.487 408.188C171.644 407.465 128.751 403.849 135.033 388.219C132.769 386.906 130.287 385.32 128.739 383.569C126.927 381.517 126.302 379.314 128.306 377.129C126.809 375.751 126.064 374.292 125.897 372.927C125.771 371.904 125.969 370.935 126.421 370.085C126.865 369.256 127.549 368.553 128.408 368.038C129.954 367.111 132.086 366.785 134.36 367.444Z" fill="#C87868"/>
<path fill-rule="evenodd" clip-rule="evenodd" d="M164.719 376.188C165.319 376.251 165.757 376.785 165.694 377.383C165.632 377.985 165.097 378.421 164.498 378.358C161.364 378.032 158.589 377.609 155.995 377.077C153.395 376.543 150.991 375.907 148.607 375.16C146.324 374.446 143.936 373.608 141.371 372.622C138.792 371.63 136.121 370.522 133.282 369.276C132.729 369.033 132.479 368.389 132.722 367.835C132.965 367.284 133.609 367.034 134.163 367.276C137.066 368.553 139.709 369.65 142.15 370.588C144.605 371.533 146.954 372.354 149.253 373.075C151.595 373.807 153.931 374.428 156.432 374.94C158.946 375.456 161.647 375.868 164.719 376.188Z" fill="#C87868"/>
<path fill-rule="evenodd" clip-rule="evenodd" d="M163.984 387.246C164.579 387.323 165.001 387.867 164.927 388.465C164.852 389.061 164.305 389.483 163.708 389.409C161.1 389.077 158.757 388.673 156.567 388.193C154.352 387.707 152.255 387.137 150.16 386.482C147.143 385.538 144.147 384.484 140.796 383.139C137.476 381.809 133.801 380.181 129.392 378.07C128.85 377.812 128.62 377.159 128.881 376.616C129.138 376.074 129.79 375.844 130.333 376.104C134.662 378.176 138.298 379.786 141.609 381.114C144.887 382.429 147.833 383.464 150.81 384.394C152.837 385.029 154.869 385.581 157.028 386.054C159.208 386.535 161.488 386.929 163.984 387.246Z" fill="#C87868"/>
<path fill-rule="evenodd" clip-rule="evenodd" d="M162.712 395.858C163.308 395.96 163.708 396.526 163.607 397.118C163.504 397.713 162.94 398.113 162.345 398.013C160.62 397.713 158.972 397.365 157.364 396.971C155.748 396.575 154.206 396.141 152.683 395.663C150.208 394.888 147.583 393.954 144.796 392.822C142.003 391.688 139.04 390.356 135.891 388.785C135.351 388.515 135.132 387.858 135.399 387.318C135.668 386.778 136.325 386.557 136.866 386.827C139.967 388.376 142.877 389.687 145.614 390.797C148.358 391.91 150.923 392.825 153.331 393.579C154.846 394.052 156.347 394.477 157.874 394.852C159.405 395.227 161.002 395.562 162.712 395.858Z" fill="#C87868"/>
<path fill-rule="evenodd" clip-rule="evenodd" d="M194.889 308.299L199.102 308.078L202.121 307.921L208.452 307.588L209.784 307.518L210.016 307.507L214.772 307.255L225.256 306.704L228.962 306.507L258.019 304.979L264.453 304.641L266.292 304.545L276.35 304.014L277.945 303.932L278.17 303.919L281.655 303.735L291.711 303.206L293.391 303.118L301.65 302.684L303.91 302.565C303.142 300.804 302.564 299.488 302.18 299.447C302.17 299.447 302.161 299.445 302.154 299.447L295.329 299.812L294.287 299.866L280.776 300.587L278.039 300.735L277.645 300.756L275.036 300.894L268.87 301.224L262.972 301.538L251.586 302.147L229.822 303.306L226.112 303.506L211.411 304.291L206.925 304.531L203.583 304.709L200.594 304.867L196.396 305.09L191.823 305.336L191.48 305.355C191.48 305.355 191.773 306.176 192.364 307.398C192.518 307.71 192.688 308.05 192.879 308.41L194.889 308.299Z" fill="#0F2238"/>
<path fill-rule="evenodd" clip-rule="evenodd" d="M181.64 417.733L201.334 419.656L222.349 421.708L247.813 424.195L253.071 415.565C233.96 412.898 206.365 411.915 187.425 410.134C185.946 409.996 184.822 409.903 184.157 409.873C179.96 409.692 175.725 409.118 171.448 408.178C170.558 409.174 169.194 410.022 167.293 410.536C168.233 412.775 167.598 414.348 166.143 415.48C164.069 417.097 160.322 417.814 157.074 418.281C156.66 423.732 143.741 424.153 139.792 424.473C136.878 424.708 134.027 424.845 131.254 424.877L129.18 428.172L127.961 430.11C137.827 431.283 146.887 430.947 152.903 429.373C159.218 427.72 165.222 425.444 170.093 423.343C177.009 420.363 181.64 417.733 181.64 417.733Z" fill="#0F2238"/>
<path fill-rule="evenodd" clip-rule="evenodd" d="M128.733 428.224L130.793 424.88C130.1 424.886 129.41 424.884 128.726 424.876C122.588 424.807 116.813 424.198 111.432 423.001C110.774 424.066 110.114 425.134 109.457 426.201C111.675 426.891 113.921 427.502 116.172 428.03C117.879 428.432 119.589 428.79 121.29 429.101C123.413 429.491 125.523 429.81 127.598 430.067L128.733 428.224Z" fill="#0F2238"/>
<path fill-rule="evenodd" clip-rule="evenodd" d="M105.336 424.806L107.165 421.897C101.269 420.158 95.8975 417.624 91.0935 414.207C90.5715 415.052 90.0483 415.893 89.5273 416.739C94.2009 420.042 99.6198 422.715 105.336 424.806Z" fill="#0F2238"/>
<path fill-rule="evenodd" clip-rule="evenodd" d="M92.8909 254.055C91.1156 258.226 89.2442 262.573 87.3071 266.996C86.6556 268.487 85.9944 269.985 85.3289 271.49C83.9041 274.708 82.4501 277.943 80.9876 281.162C77.3732 289.09 73.6758 296.894 70.0895 303.982C68.1598 307.795 66.2615 311.4 64.4258 314.704C68.9332 316.585 73.5916 318.528 78.4075 320.702C83.2634 313.223 88.7868 303.882 94.5444 293.395C94.6199 292.65 94.6965 291.906 94.7709 291.16C95.1754 287.112 95.7223 283.165 96.3931 279.299C96.4255 278.91 96.4578 278.521 96.4924 278.133C97.0813 271.145 97.5839 264.321 97.9571 257.733C98.148 254.376 98.3065 251.083 98.4252 247.861C98.4317 247.689 98.4403 247.516 98.4446 247.345C98.4942 245.968 98.5363 244.605 98.573 243.256C98.5956 242.292 98.6172 241.336 98.6377 240.387C98.3476 241.083 98.0509 241.792 97.7532 242.512C97.3261 243.532 96.8925 244.573 96.4471 245.635C96.4028 245.745 96.3543 245.854 96.3101 245.965C95.2185 248.56 94.0774 251.268 92.8909 254.055Z" fill="#D38928"/>
<path fill-rule="evenodd" clip-rule="evenodd" d="M22.2796 270.238C21.9345 269.743 22.0531 269.063 22.5449 268.716C23.04 268.368 23.7217 268.487 24.069 268.981C41.7828 294.028 84.8672 308.928 84.9913 308.972C85.5597 309.169 85.8606 309.792 85.6632 310.36C85.4637 310.929 84.8424 311.23 84.274 311.032C84.1488 310.987 40.4054 295.859 22.2796 270.238Z" fill="#0F2238"/>
<path fill-rule="evenodd" clip-rule="evenodd" d="M95.5728 205.741C95.4704 205.146 95.8684 204.58 96.4616 204.477C97.057 204.372 97.6211 204.769 97.7258 205.364C102.758 233.971 97.5833 281.774 92.4579 329.106C91.334 339.485 90.2123 349.845 89.2156 359.81C89.1585 360.41 88.6246 360.848 88.0249 360.79C87.4252 360.728 86.9851 360.197 87.0444 359.595C88.0626 349.404 89.1746 339.151 90.2867 328.874C95.3938 281.7 100.556 234.055 95.5728 205.741Z" fill="#0F2238"/>
<path fill-rule="evenodd" clip-rule="evenodd" d="M172.353 146.125L169.516 158.696C195.335 176.226 225.972 154.214 228.266 122.736L172.353 146.125Z" fill="#0F2238"/>
<path fill-rule="evenodd" clip-rule="evenodd" d="M154.215 45.111C149.798 57.6982 143.288 79.3337 140.032 98.8833C135 129.11 142.301 147.173 164.287 152.877C194.508 160.714 216.86 150.381 230.964 123.803C247.595 80.106 250.417 58.5266 236.199 40.6683C221.231 21.876 162.085 22.6882 154.215 45.111Z" fill="#E6B3A0"/>
<path fill-rule="evenodd" clip-rule="evenodd" d="M154.218 45.1112C152.905 48.855 151.408 53.3991 149.863 58.448C149.9 58.4092 159.704 48.1518 183.609 53.7961C207.563 59.4522 231.807 67.7789 240.368 56.0126C241.592 54.331 242.14 52.4316 242.086 50.4168C240.627 46.9912 238.674 43.7727 236.201 40.6674C221.234 21.8761 162.088 22.6883 154.218 45.1112Z" fill="#C87868"/>
<path fill-rule="evenodd" clip-rule="evenodd" d="M141.066 64.6123C153.049 16.8133 221.87 72.3727 255.371 55.6232C261.594 15.4996 213.768 -6.5167 174.255 1.71189C108.959 15.3119 139.216 71.9866 141.066 64.6123Z" fill="#0F2238"/>
<path fill-rule="evenodd" clip-rule="evenodd" d="M233.054 108.402C275.776 112.768 287.352 62.0462 265.535 51.6119C249.214 43.8072 221.21 46.659 222.901 73.7576C223.629 85.3999 233.531 94.1711 233.054 108.402Z" fill="#0F2238"/>
<path fill-rule="evenodd" clip-rule="evenodd" d="M230.859 55.051C231.477 54.5376 232.393 54.6217 232.904 55.2386C233.42 55.8545 233.334 56.7713 232.717 57.2837C232.687 57.3095 222.018 66.5574 196.865 54.0177C185.461 48.3324 175.821 45.5507 168.005 45.0912C159.666 44.6026 153.452 46.7631 149.424 50.8466C148.862 51.4193 147.941 51.4269 147.368 50.865C146.796 50.303 146.788 49.3808 147.35 48.8081C151.963 44.1281 158.937 41.6451 168.174 42.1866C176.375 42.6687 186.397 45.5442 198.164 51.4096C221.609 63.0951 230.833 55.0736 230.859 55.051Z" fill="#0F2238"/>
<path fill-rule="evenodd" clip-rule="evenodd" d="M230.054 123.708C230.054 123.708 249.445 134.172 257.803 114.885C266.16 95.5939 259.304 84.164 247.909 84.5803C232.339 85.1552 224.728 119.861 230.054 123.708Z" fill="#E6B3A0"/>
<path fill-rule="evenodd" clip-rule="evenodd" d="M251.289 98.3937C252.095 98.5663 252.613 99.3601 252.44 100.169C252.268 100.978 251.473 101.493 250.665 101.32L250.528 101.29C248.55 100.889 246.854 101.444 245.509 102.735C244.008 104.176 242.884 106.517 242.223 109.495L242.15 109.8C241.98 110.609 241.817 111.284 241.664 111.848C243.514 110.066 246.199 108.597 249.427 110.094C250.174 110.443 250.5 111.331 250.153 112.081C249.805 112.83 248.917 113.155 248.167 112.807C244.77 111.231 241.976 116.118 241.599 116.814C241.345 117.381 240.747 117.752 240.091 117.691C240.083 117.69 237.482 117.487 239.227 109.186L239.295 108.847C240.083 105.299 241.501 102.438 243.439 100.577C245.503 98.5943 248.102 97.7433 251.123 98.3614L251.289 98.3937Z" fill="#C87868"/>
<path fill-rule="evenodd" clip-rule="evenodd" d="M198.164 29.9947C201.501 31.8466 204.867 33.5001 208.236 34.9562C210.403 35.8924 212.569 36.7467 214.732 37.5211C220.058 39.4248 225.364 40.8356 230.558 41.7524C232.979 42.1795 235.376 42.4999 237.742 42.7124C238.546 42.7857 239.35 42.8461 240.15 42.8936C242.634 43.0413 245.077 43.0683 247.472 42.9734C249.986 42.8752 252.446 42.6423 254.838 42.2766C255.032 42.2475 255.224 42.2162 255.413 42.1849C255.356 41.8247 255.297 41.4666 255.228 41.1096C255.163 40.7569 255.091 40.4052 255.015 40.0558C254.473 37.5373 253.692 35.1212 252.701 32.8141C249.254 32.3945 245.472 31.3537 241.38 29.4413C238.09 27.9011 234.588 26.0751 231.009 24.0484C221.283 18.5411 210.985 11.5496 202.74 4.80087C201.674 3.9272 200.642 3.06001 199.649 2.19822C198.885 1.53596 198.145 0.876941 197.434 0.22547C189.695 -0.331084 181.822 0.134867 174.255 1.71069C171.168 2.35461 168.293 3.09345 165.617 3.91965C174.247 13.5019 183.808 21.3303 193.711 27.3974C194.109 27.6433 194.507 27.8828 194.906 28.1211C195.612 28.5429 196.319 28.9538 197.028 29.3572C197.406 29.5729 197.783 29.7854 198.164 29.9947Z" fill="#30445D"/>
<path fill-rule="evenodd" clip-rule="evenodd" d="M171.48 66.8904C172.425 69.3582 149.406 68.8847 155.788 65.0125C159.921 62.5059 169.145 59.6347 171.48 66.8904Z" fill="#0F2238"/>
<path fill-rule="evenodd" clip-rule="evenodd" d="M192.964 69.1631C190.404 70.6796 200.933 73.9488 206.972 77.0325C213.987 80.6156 211.856 77.0983 207.893 71.5403C204.832 67.2561 198.889 65.6555 192.964 69.1631Z" fill="#0F2238"/>
<path fill-rule="evenodd" clip-rule="evenodd" d="M160.439 110.522C169.007 118.01 183.783 115.819 185.993 113.703C188.206 111.586 184.67 135.402 171.415 134.729C155.449 133.916 158.984 109.248 160.439 110.522Z" fill="#0F2238"/>
<path fill-rule="evenodd" clip-rule="evenodd" d="M184.508 123.667C181.856 125.137 175.258 125.285 170.959 124.616C163.949 123.525 161.935 121.605 159.062 117.27C159.073 113.146 159.896 110.051 160.438 110.522C169.006 118.01 183.782 115.819 185.992 113.703C187.096 112.646 186.766 118.065 184.508 123.667Z" fill="white"/>
<path fill-rule="evenodd" clip-rule="evenodd" d="M164.77 88.6151C164.813 89.4391 164.179 90.1402 163.355 90.1812C162.53 90.2232 161.827 89.5879 161.787 88.765C161.69 86.885 160.625 84.786 159.129 83.3839C158.434 82.7346 157.663 82.2513 156.874 82.0453C156.175 81.8598 155.444 81.8986 154.736 82.2481C153.565 82.8241 152.397 84.2187 151.375 86.7566C151.067 87.5246 150.193 87.8967 149.425 87.5882C148.657 87.2797 148.283 86.4061 148.594 85.6381C149.918 82.3473 151.617 80.449 153.418 79.5613C154.826 78.8678 156.267 78.788 157.64 79.1515C158.926 79.4901 160.133 80.2247 161.169 81.1965C163.195 83.0937 164.636 85.9833 164.77 88.6151Z" fill="#0F2238"/>
<path fill-rule="evenodd" clip-rule="evenodd" d="M207.524 97.6995C207.565 98.5247 206.932 99.2268 206.108 99.2678C205.284 99.3088 204.583 98.6746 204.541 97.8505C204.444 95.9695 203.381 93.8716 201.885 92.4684C201.19 91.819 200.418 91.3391 199.63 91.1298C198.931 90.9454 198.199 90.9842 197.489 91.3326C196.318 91.9096 195.15 93.3021 194.127 95.8411C193.82 96.6091 192.945 96.9823 192.177 96.6727C191.409 96.3632 191.039 95.4906 191.346 94.7226C192.671 91.4307 194.372 89.5324 196.173 88.6458C197.58 87.9523 199.022 87.8735 200.394 88.236C201.679 88.5768 202.886 89.3092 203.924 90.2831C205.948 92.1793 207.391 95.0699 207.524 97.6995Z" fill="#0F2238"/>
<path fill-rule="evenodd" clip-rule="evenodd" d="M209.802 115.282C210.742 111.276 207.715 107.129 203.036 106.027C198.361 104.925 193.8 107.284 192.856 111.292C191.911 115.298 194.943 119.446 199.618 120.547C204.294 121.649 208.857 119.29 209.802 115.282Z" fill="#C87868"/>
<path fill-rule="evenodd" clip-rule="evenodd" d="M160.871 103.996C161.759 100.232 159.981 96.5872 156.903 95.8614C153.827 95.1376 150.612 97.6054 149.724 101.371C148.837 105.137 150.616 108.781 153.692 109.504C156.766 110.231 159.984 107.763 160.871 103.996Z" fill="#C87868"/>
<path fill-rule="evenodd" clip-rule="evenodd" d="M171.214 94.9076C172.011 94.7027 172.825 95.1827 173.034 95.9809C173.24 96.7801 172.757 97.5944 171.96 97.8015C170.672 98.1359 169.679 98.8855 169.056 99.8174C168.602 100.493 168.341 101.263 168.303 102.033C168.264 102.784 168.438 103.539 168.85 104.209C169.378 105.073 170.323 105.817 171.745 106.275C172.531 106.527 172.962 107.372 172.709 108.158C172.455 108.944 171.613 109.376 170.826 109.124C168.666 108.428 167.183 107.212 166.294 105.771C165.557 104.57 165.245 103.225 165.314 101.892C165.381 100.581 165.817 99.2824 166.573 98.1564C167.584 96.6474 169.17 95.4394 171.214 94.9076Z" fill="#C87868"/>
<path fill-rule="evenodd" clip-rule="evenodd" d="M104.283 182.785C104.086 182.254 104.356 181.663 104.886 181.463C105.419 181.266 106.01 181.535 106.21 182.068C106.696 183.378 107.121 184.539 107.579 185.79C109.963 192.317 114.359 201.511 118.652 210.777C129.425 234.032 145.993 260.302 175.724 264.827C216.993 271.105 253.421 230.498 266.551 215.859C267.429 214.882 268.204 214.018 268.899 213.258C279.494 201.702 286.212 190.185 286.231 190.151C286.519 189.663 287.148 189.498 287.637 189.784C288.128 190.072 288.291 190.701 288.002 191.191C287.984 191.224 281.161 202.921 270.415 214.643C269.772 215.345 268.98 216.228 268.084 217.229C254.754 232.089 217.773 273.31 175.419 266.865C145.636 262.333 128.111 235.951 117.049 212.782C112.221 202.67 108.229 193.562 105.647 186.49C105.127 185.077 104.643 183.753 104.283 182.785Z" fill="#0F2238"/>
<path fill-rule="evenodd" clip-rule="evenodd" d="M74.4184 451.379C92.3349 471.989 134.481 483.538 179.984 483.944C221.226 484.313 265.161 475.508 296.292 455.983L297.044 458.079C265.566 477.658 221.401 486.493 179.966 486.123C134.767 485.718 92.7415 474.34 73.8359 453.992C74.0312 453.125 74.2242 452.253 74.4184 451.379Z" fill="#0F2238"/>
</svg>
