<svg width="428" height="472" viewBox="0 0 428 472" fill="none" xmlns="http://www.w3.org/2000/svg">
<path fill-rule="evenodd" clip-rule="evenodd" d="M178.546 199.971C147.348 218.233 106.404 251.644 86.8643 282.669C71.5024 307.066 60.5723 330.695 69.7078 337.938C95.9036 358.704 147.068 299.992 163.535 281.635L178.546 199.971Z" fill="#E6B3A0"/>
<path fill-rule="evenodd" clip-rule="evenodd" d="M103.833 260.572C101.966 262.658 100.165 264.751 98.4349 266.847C105.657 286.397 117.683 305.057 129.066 317.044C139.633 307.649 149.309 297.375 156.466 289.497C149.027 282.989 120.196 261.371 103.833 260.572Z" fill="#0F2238"/>
<path fill-rule="evenodd" clip-rule="evenodd" d="M235.749 184.316C181.595 178.732 139.443 213.674 98.6024 263.001C112.087 286.532 128.476 306.883 149.388 321.215C171.132 293.655 223.465 223.65 235.749 184.316Z" fill="#FCC51F"/>
<path fill-rule="evenodd" clip-rule="evenodd" d="M50.9341 169.596L97.6778 273.054C115.75 313.057 106.335 339.749 89.3091 342.678C69.7195 346.045 50.4892 332.796 41.8436 295.573L18.1033 184.158L50.9341 169.596Z" fill="#E6B3A0"/>
<path fill-rule="evenodd" clip-rule="evenodd" d="M345.848 471.843C343.826 403.446 375.899 205.273 291.068 178.159C272.561 172.243 255.955 175.891 230.293 180.234C194.783 186.243 185.058 217.874 172.621 266.254C156.408 329.329 143.211 427.798 137.459 471.843H345.848Z" fill="#FCC51F"/>
<path fill-rule="evenodd" clip-rule="evenodd" d="M345.84 471.844C345.235 451.158 347.737 418.61 349.188 382.515C332.005 382.522 315.762 383.29 308.778 383.719C312.51 421.009 306.433 450.551 289.096 471.844H345.84Z" fill="#D38928"/>
<path fill-rule="evenodd" clip-rule="evenodd" d="M412.226 302.925C439.666 395.82 424.523 404.161 413.173 408.518C378.15 398.817 379.118 393.379 346.066 281.481C344.36 239.611 386.668 216.402 412.226 302.925Z" fill="#E6B3A0"/>
<path fill-rule="evenodd" clip-rule="evenodd" d="M412.226 302.925C415.337 313.458 417.894 322.892 419.979 331.367C408.951 338.929 386.919 346.756 366.411 349.856C363.161 339.539 359.5 327.164 355.126 312.285C374.163 308.279 395.807 303.685 411.445 300.356C411.706 301.209 411.967 302.05 412.226 302.925Z" fill="#0F2238"/>
<path fill-rule="evenodd" clip-rule="evenodd" d="M303.991 182.151C388.578 191.782 398.738 233.081 428 320.495C409.82 337.619 364.965 340.897 339.466 344.556C324.029 296.193 301.05 241.623 292.707 208.766C290.175 198.79 303.727 182.121 303.991 182.151Z" fill="#FCC51F"/>
<path fill-rule="evenodd" clip-rule="evenodd" d="M251.43 205.29C251.59 204.692 251.253 204.073 250.675 203.91C250.101 203.744 249.505 204.094 249.346 204.692L235.72 255.366C235.562 255.964 235.899 256.583 236.475 256.748L236.564 256.769L247.743 258.947C248.331 259.06 248.897 258.659 249.005 258.048C249.116 257.44 248.73 256.852 248.142 256.738L238.123 254.785L251.43 205.29Z" fill="#0F2238"/>
<path fill-rule="evenodd" clip-rule="evenodd" d="M326.57 261.174C326.635 261.791 327.168 262.236 327.764 262.17C328.359 262.101 328.786 261.545 328.722 260.928C326.721 242.237 339.243 221.43 339.279 221.37C339.591 220.844 339.434 220.15 338.926 219.826C338.419 219.5 337.754 219.665 337.438 220.192C337.405 220.253 324.488 241.713 326.57 261.174Z" fill="#0F2238"/>
<path fill-rule="evenodd" clip-rule="evenodd" d="M424.241 308.112C424.713 307.728 424.799 307.021 424.43 306.53C424.063 306.04 423.382 305.95 422.909 306.332C413.776 313.704 399.547 319.362 384.948 323.06C367.561 327.465 349.7 329.079 339.29 327.498C338.698 327.407 338.148 327.833 338.061 328.447C337.974 329.063 338.386 329.633 338.977 329.722C349.624 331.341 367.813 329.711 385.459 325.241C400.326 321.479 414.854 315.688 424.241 308.112Z" fill="#0F2238"/>
<path fill-rule="evenodd" clip-rule="evenodd" d="M61.4727 174.906C58.6268 187.26 51.9382 196.026 34.5111 195.698C17.084 195.369 10.3858 180.361 4.77108 174.283C5.10368 156.649 20.1084 131.953 40.1761 136.024C60.2449 140.091 61.4727 174.906 61.4727 174.906Z" fill="#E6B3A0"/>
<path fill-rule="evenodd" clip-rule="evenodd" d="M50.0541 122.384C50.8295 119.169 48.9462 115.913 45.8532 115.108C42.756 114.304 39.6203 116.259 38.846 119.473L22.4199 187.715C21.6466 190.93 23.5279 194.187 26.6208 194.991C29.718 195.794 32.8548 193.84 33.628 190.625L50.0541 122.384Z" fill="#0F2238"/>
<path fill-rule="evenodd" clip-rule="evenodd" d="M17.9375 124.089C22.2828 123.968 34.6235 126.394 40.1773 136.023C46.9749 147.801 34.001 145.059 34.001 145.059C40.3954 151.692 37.8683 160.88 27.3414 158.107C33.3283 161.601 33.5197 173.078 23.4752 170.502C31.645 186.357 -11.1277 174.675 2.81825 162.864C-2.03932 158.659 0.452581 149.002 8.23731 150.801C0.394829 146.052 6.13684 134.267 13.0478 136.369C10.1292 131.801 11.6639 124.262 17.9375 124.089Z" fill="#E6B3A0"/>
<path fill-rule="evenodd" clip-rule="evenodd" d="M61.4726 174.906C65.8383 161.923 68.5002 143.043 59.1315 132.169C53.4269 125.548 42.7611 128.046 38.6019 136.183C34.9368 143.354 31.2641 150.524 27.5958 157.695C34.9945 163.135 40.1205 158.634 48.1619 149.911C40.5761 164.734 33.8641 185.595 61.4726 174.906Z" fill="#E6B3A0"/>
<path fill-rule="evenodd" clip-rule="evenodd" d="M63.0538 43.7589C51.9665 40.881 38.9606 55.2523 33.9993 75.8569C29.038 96.4636 34.0046 115.501 45.0908 118.38C56.176 121.258 69.1819 106.886 74.1432 86.2808C79.1034 65.6751 74.1379 46.6367 63.0538 43.7589Z" fill="#D2E6F6"/>
<path fill-rule="evenodd" clip-rule="evenodd" d="M63.0538 43.7589C51.9665 40.881 38.9606 55.2523 33.9993 75.8569C29.038 96.4636 34.0046 115.501 45.0908 118.38C56.176 121.258 69.1819 106.886 74.1432 86.2808C79.1034 65.6751 74.1379 46.6367 63.0538 43.7589Z" fill="#7B8EC5"/>
<path fill-rule="evenodd" clip-rule="evenodd" d="M44.6624 52.8491C43.3769 54.463 42.1491 56.2534 40.9973 58.2005L67.0541 104.088C68.1974 102.169 69.2658 100.098 70.2422 97.8945L44.6624 52.8491Z" fill="white"/>
<path fill-rule="evenodd" clip-rule="evenodd" d="M39.6637 60.5923C39.2594 61.3598 38.868 62.1473 38.4894 62.9514L64.2413 108.301C64.7162 107.669 65.1804 107.012 65.6392 106.333L39.6637 60.5923Z" fill="white"/>
<path fill-rule="evenodd" clip-rule="evenodd" d="M64.1037 39.3946C56.9211 37.5275 49.4112 40.924 43.0777 47.9225C37.3378 54.2624 32.4568 63.7122 29.797 74.7658L29.7948 74.7736C27.1339 85.8328 27.1543 96.5466 29.3424 104.928C31.7616 114.207 36.8512 120.879 44.0381 122.745C51.2207 124.609 58.7306 121.214 65.0651 114.216C70.805 107.876 75.6861 98.4259 78.3459 87.3722C81.0089 76.3097 80.9886 65.5937 78.8004 57.2102C76.3813 47.9314 71.2916 41.2594 64.1037 39.3946ZM49.3823 54.0813C53.564 49.4608 58.1017 47.1106 62.0043 48.1235C65.9004 49.1354 68.8361 53.4227 70.4307 59.5326C72.2563 66.5389 72.2381 75.6444 69.9409 85.1886C67.6415 94.7395 63.539 102.78 58.7616 108.056C54.58 112.675 50.0422 115.026 46.1397 114.013C42.2435 113.002 39.3078 108.715 37.7132 102.604C35.9037 95.6569 35.9069 86.6447 38.1474 77.1883C38.1913 77.035 38.2287 76.8784 38.2597 76.7184C40.5666 67.2697 44.6445 59.316 49.3823 54.0813Z" fill="#0F2238"/>
<path fill-rule="evenodd" clip-rule="evenodd" d="M22.6955 123.45C22.1084 123.336 21.5416 123.739 21.4346 124.348C21.3234 124.958 21.7116 125.546 22.2998 125.66C25.3436 126.255 29.1317 127.497 32.57 129.727C35.1614 131.409 37.5506 133.65 39.2532 136.6C44.7856 146.192 34.2427 143.963 34.2106 143.957C33.6245 143.838 33.0545 144.236 32.939 144.845C32.8641 145.251 33.0074 145.647 33.2844 145.903C35.1475 147.852 36.1646 150.012 36.3678 151.95C36.4811 153.065 36.3196 154.099 35.8918 154.957C35.4726 155.794 34.7871 156.479 33.8449 156.917C32.3818 157.599 30.3038 157.727 27.6077 157.016C27.0269 156.866 26.4398 157.233 26.2954 157.835C26.1724 158.34 26.4034 158.853 26.8216 159.093C28.7884 160.244 30.0343 162.402 30.3434 164.512C30.4781 165.432 30.4364 166.327 30.1979 167.106C29.9734 167.837 29.5702 168.472 28.9777 168.932C27.9178 169.75 26.2077 170.048 23.7362 169.414C23.1544 169.265 22.5683 169.634 22.425 170.236C22.3555 170.537 22.4089 170.839 22.5501 171.085C23.2731 172.503 23.5287 173.619 23.4175 174.473C23.318 175.257 22.856 175.844 22.1426 176.252C21.2774 176.748 20.0732 177.011 18.6743 177.071C14.9151 177.233 9.95273 175.95 6.19458 173.834C5.6684 173.538 5.01068 173.741 4.72513 174.287C4.43958 174.834 4.63528 175.517 5.16146 175.814C9.22869 178.105 14.636 179.494 18.7577 179.315C20.4882 179.24 22.0207 178.891 23.1843 178.223C24.4998 177.467 25.3607 176.332 25.5618 174.763C25.6698 173.938 25.5778 173.005 25.2548 171.958C27.4119 172.155 29.0696 171.66 30.2653 170.735C31.2417 169.98 31.8952 168.953 32.2546 167.783C32.6011 166.661 32.6684 165.42 32.4877 164.179C32.2631 162.64 31.6471 161.077 30.692 159.738C32.2663 159.767 33.6139 159.487 34.7261 158.971C36.1453 158.309 37.1773 157.274 37.8158 155.998C38.4436 154.745 38.681 153.272 38.5217 151.714C38.3463 150.021 37.6928 148.216 36.5528 146.485C40.5612 146.647 46.9267 145.53 41.1088 135.449C39.2115 132.157 36.5699 129.67 33.7165 127.819C30.0194 125.42 25.9574 124.088 22.6955 123.45Z" fill="#C87868"/>
<path fill-rule="evenodd" clip-rule="evenodd" d="M20.4417 136.013C19.8599 135.863 19.2717 136.229 19.1262 136.832C18.9829 137.435 19.3337 138.046 19.9155 138.195C23.5432 139.138 26.2051 140.127 28.3825 141.467C30.5268 142.787 32.2252 144.472 33.947 146.82C34.3096 147.312 34.9919 147.408 35.4657 147.031C35.9395 146.654 36.0314 145.948 35.6689 145.454C33.7748 142.875 31.8883 141.01 29.4841 139.53C27.1131 138.071 24.2682 137.007 20.4417 136.013Z" fill="#C87868"/>
<path fill-rule="evenodd" clip-rule="evenodd" d="M28.4893 160.791C28.9791 161.142 29.6528 161.015 29.9919 160.505C30.3298 159.994 30.2068 159.294 29.717 158.943C27.4091 157.289 24.9953 155.879 22.7494 154.757L22.6895 154.728C20.0425 153.41 17.6191 152.483 15.8651 152.029C15.2833 151.878 14.6951 152.245 14.5497 152.847C14.4064 153.45 14.7593 154.061 15.3389 154.211C16.9817 154.637 19.2596 155.509 21.7569 156.753L21.8082 156.78C23.9696 157.86 26.2851 159.213 28.4893 160.791Z" fill="#C87868"/>
<path fill-rule="evenodd" clip-rule="evenodd" d="M23.507 172.89C23.9455 173.314 24.631 173.288 25.0374 172.834C25.4438 172.38 25.4203 171.668 24.9818 171.244C22.9487 169.286 21.0654 167.949 19.0547 166.966C17.0463 165.986 14.9533 165.374 12.4817 164.861C11.8935 164.741 11.3224 165.137 11.2059 165.748C11.0882 166.357 11.4689 166.951 12.0572 167.07C14.3865 167.555 16.3319 168.117 18.1371 169C19.9403 169.879 21.6418 171.096 23.507 172.89Z" fill="#C87868"/>
<path fill-rule="evenodd" clip-rule="evenodd" d="M52.1059 150.342C52.4684 149.849 52.3765 149.142 51.9027 148.766C51.4289 148.388 50.7466 148.484 50.3841 148.977C44.8976 156.424 38.0273 158.431 38.0081 158.437C37.4359 158.609 37.1054 159.233 37.2712 159.827C37.438 160.423 38.0359 160.767 38.6102 160.592C38.6305 160.586 46.1831 158.38 52.1059 150.342Z" fill="#C87868"/>
<path fill-rule="evenodd" clip-rule="evenodd" d="M354.336 251.96L260.876 241.821C258.205 241.531 255.507 243.53 254.877 246.263L221.551 390.552C220.917 393.283 222.583 395.757 225.254 396.047L318.713 406.185C321.385 406.475 324.083 404.475 324.712 401.742L358.041 257.454C358.673 254.722 357.005 252.249 354.336 251.96Z" fill="#0F2238"/>
<path fill-rule="evenodd" clip-rule="evenodd" d="M358.334 255.407L265.486 245.335C262.819 245.045 260.118 247.044 259.487 249.777L226.16 394.066C225.53 396.799 227.196 399.27 229.863 399.559L323.324 409.699C325.993 409.987 328.663 407.981 329.323 405.258L363.638 263.703C363.896 262.636 361.821 262.377 360.225 260.223C357.083 255.98 360.257 255.616 358.334 255.407Z" fill="white"/>
<path fill-rule="evenodd" clip-rule="evenodd" d="M362.242 261.545L268.778 251.404C266.111 251.115 263.412 253.114 262.779 255.846L229.452 400.136C228.822 402.868 230.488 405.34 233.156 405.63L326.62 415.769C329.286 416.059 331.985 414.059 332.616 411.327L365.945 267.037C366.574 264.305 364.909 261.832 362.242 261.545Z" fill="#0F2238"/>
<path fill-rule="evenodd" clip-rule="evenodd" d="M260.024 241.921C253.439 247.049 264.476 254.759 264.963 252.52L231.875 404.003C231.875 404.003 226.606 404.003 223.645 399.557C220.679 395.111 221.504 390.667 221.504 390.667L252.908 252.381L254.429 245.684C254.429 245.684 257.063 241.579 260.024 241.921Z" fill="#B6362E"/>
<path fill-rule="evenodd" clip-rule="evenodd" d="M370.409 267.062L276.949 256.923C274.28 256.634 271.579 258.632 270.951 261.364L237.623 405.653C236.989 408.385 238.656 410.858 241.326 411.149L334.787 421.286C337.457 421.576 340.155 419.577 340.785 416.844L374.114 272.556C374.745 269.825 373.079 267.35 370.409 267.062Z" fill="#6375A7"/>
<path fill-rule="evenodd" clip-rule="evenodd" d="M374.406 270.509L281.558 260.438C278.892 260.148 276.19 262.147 275.559 264.88L242.232 409.168C241.602 411.901 243.269 414.373 245.935 414.662L339.398 424.801C342.066 425.09 344.736 423.084 345.396 420.36L379.711 278.806C379.97 277.739 377.893 277.478 376.298 275.326C373.157 271.083 376.329 270.718 374.406 270.509Z" fill="white"/>
<path fill-rule="evenodd" clip-rule="evenodd" d="M378.313 276.645L284.849 266.505C282.183 266.216 279.483 268.215 278.85 270.947L245.523 415.236C244.893 417.968 246.559 420.442 249.226 420.731L342.689 430.869C345.357 431.16 348.055 429.159 348.686 426.427L382.016 282.14C382.646 279.407 380.98 276.934 378.313 276.645Z" fill="#7B8EC5"/>
<path fill-rule="evenodd" clip-rule="evenodd" d="M276.097 257.021C269.512 262.15 280.549 269.861 281.038 267.62L247.948 419.105C247.948 419.105 242.679 419.105 239.717 414.659C236.751 410.213 237.577 405.769 237.577 405.769L268.981 267.482L270.502 260.784C270.502 260.784 273.135 256.68 276.097 257.021Z" fill="#6375A7"/>
<path fill-rule="evenodd" clip-rule="evenodd" d="M269.992 373.916C281.372 385.278 319.034 404.441 351.093 416.015L360.134 376.876C329.532 375.762 269.992 373.916 269.992 373.916Z" fill="#0F2238"/>
<path fill-rule="evenodd" clip-rule="evenodd" d="M289.725 346.529L277.309 380.441C316.46 395.669 384.868 422.967 407.094 412.5C421.415 405.755 423.826 391.521 421.611 381.548C418.1 365.724 399.489 348.352 377.482 347.985L289.725 346.529Z" fill="#E6B3A0"/>
<path fill-rule="evenodd" clip-rule="evenodd" d="M284.619 335C278.783 327.325 270.247 325.067 256.397 319.003C249.16 329.954 270.26 332.48 270.271 341.76C266.757 357.721 293.348 368.43 291.674 348.071C289.717 342.977 287.142 338.319 284.619 335Z" fill="#E6B3A0"/>
<path fill-rule="evenodd" clip-rule="evenodd" d="M279.256 280.717L228.229 263.821C223.29 262.185 217.963 265.045 216.388 270.171L189.122 358.989C187.548 364.116 190.299 369.651 195.236 371.284L246.265 388.182C251.202 389.817 256.53 386.958 258.105 381.831L285.373 293.013C286.947 287.887 284.194 282.352 279.256 280.717Z" fill="#0F2238"/>
<path fill-rule="evenodd" clip-rule="evenodd" d="M267.088 340.309C259.216 336.712 250.013 335.888 237.177 329.838C222.648 322.991 219.513 326.509 221.807 330.7C216.611 328.033 210.955 333.269 215.999 338.887C212.411 340.954 215.573 346.613 219.599 350.086C217.869 357.303 226.076 363.134 229.106 365.426C245.166 377.578 272.055 383.805 288.984 382.542C307.542 381.157 297.107 362.214 291.674 348.07C283.691 347.967 274.168 344.022 267.088 340.309Z" fill="#E6B3A0"/>
<path fill-rule="evenodd" clip-rule="evenodd" d="M248.638 345.685C249.214 345.854 249.814 345.507 249.978 344.909C250.142 344.313 249.807 343.69 249.233 343.52C246.394 342.671 243.932 341.802 241.682 340.873C239.438 339.946 237.356 338.937 235.277 337.813C233.264 336.726 231.205 335.521 229.039 334.16C226.832 332.775 224.542 331.254 222.107 329.556C221.611 329.212 220.94 329.348 220.607 329.864C220.274 330.38 220.407 331.078 220.904 331.422C223.425 333.178 225.743 334.722 227.92 336.086C230.136 337.476 232.233 338.704 234.277 339.81C236.377 340.945 238.523 341.98 240.886 342.958C243.24 343.931 245.772 344.827 248.638 345.685Z" fill="#C87868"/>
<path fill-rule="evenodd" clip-rule="evenodd" d="M246.051 356.296C246.621 356.481 247.232 356.149 247.407 355.556C247.586 354.964 247.267 354.332 246.696 354.147C244.382 353.395 242.313 352.618 240.384 351.79C238.469 350.966 236.655 350.077 234.841 349.095C232.207 347.671 229.618 346.154 226.77 344.304C223.89 342.435 220.753 340.24 217.049 337.478C216.565 337.116 215.889 337.229 215.54 337.732C215.192 338.234 215.303 338.936 215.785 339.298C219.568 342.12 222.74 344.345 225.624 346.215C228.54 348.104 231.171 349.648 233.839 351.091C235.669 352.081 237.536 352.995 239.56 353.865C241.567 354.729 243.695 355.531 246.051 356.296Z" fill="#C87868"/>
<path fill-rule="evenodd" clip-rule="evenodd" d="M243.332 364.425C243.894 364.636 244.514 364.334 244.717 363.752C244.921 363.169 244.63 362.523 244.07 362.312C242.55 361.741 241.108 361.136 239.709 360.49C238.329 359.857 236.999 359.186 235.668 358.467C233.515 357.303 231.263 355.97 228.905 354.426C226.523 352.87 224.017 351.089 221.374 349.046C220.894 348.678 220.216 348.781 219.86 349.28C219.504 349.779 219.604 350.483 220.086 350.851C222.775 352.929 225.328 354.74 227.751 356.327C230.199 357.928 232.499 359.292 234.666 360.464C236.024 361.199 237.397 361.89 238.835 362.551C240.249 363.199 241.733 363.822 243.332 364.425Z" fill="#C87868"/>
<path fill-rule="evenodd" clip-rule="evenodd" d="M221.329 331.708C221.864 331.982 222.513 331.754 222.778 331.196C223.044 330.64 222.822 329.968 222.286 329.691C220.237 328.641 218.157 328.588 216.526 329.234C215.621 329.591 214.846 330.17 214.283 330.915C213.704 331.676 213.35 332.606 213.296 333.655C213.227 335.012 213.67 336.551 214.81 338.143C212.597 339.95 212.828 342.226 214.196 344.557C215.5 346.784 217.959 349.015 220.039 350.81C220.498 351.204 221.18 351.141 221.56 350.665C221.941 350.188 221.879 349.482 221.421 349.084C219.474 347.407 217.184 345.333 216.042 343.387C215.165 341.89 215.097 340.444 216.891 339.401C216.986 339.353 217.074 339.289 217.156 339.212C217.593 338.788 217.618 338.078 217.21 337.623C215.906 336.169 215.403 334.843 215.458 333.768C215.488 333.209 215.677 332.712 215.986 332.305C216.305 331.883 216.759 331.55 217.302 331.336C218.407 330.9 219.859 330.953 221.329 331.708Z" fill="#C87868"/>
<path fill-rule="evenodd" clip-rule="evenodd" d="M248.638 345.685C249.214 345.854 249.814 345.507 249.978 344.909C250.142 344.313 249.807 343.69 249.233 343.52C246.394 342.671 243.932 341.802 241.682 340.873C239.438 339.946 237.356 338.937 235.277 337.813C233.264 336.726 231.205 335.521 229.039 334.16C226.832 332.775 224.542 331.254 222.107 329.556C221.611 329.212 220.94 329.348 220.607 329.864C220.274 330.38 220.407 331.078 220.904 331.422C223.425 333.178 225.743 334.722 227.92 336.086C230.136 337.476 232.233 338.704 234.277 339.81C236.377 340.945 238.523 341.98 240.886 342.958C243.24 343.931 245.772 344.827 248.638 345.685Z" fill="#C87868"/>
<path fill-rule="evenodd" clip-rule="evenodd" d="M246.051 356.296C246.621 356.481 247.232 356.149 247.407 355.556C247.586 354.964 247.267 354.332 246.696 354.147C244.382 353.395 242.313 352.618 240.384 351.79C238.469 350.966 236.655 350.077 234.841 349.095C232.207 347.671 229.618 346.154 226.77 344.304C223.89 342.435 220.753 340.24 217.049 337.478C216.565 337.116 215.889 337.229 215.54 337.732C215.192 338.234 215.303 338.936 215.785 339.298C219.568 342.12 222.74 344.345 225.624 346.215C228.54 348.104 231.171 349.648 233.839 351.091C235.669 352.081 237.536 352.995 239.56 353.865C241.567 354.729 243.695 355.531 246.051 356.296Z" fill="#C87868"/>
<path fill-rule="evenodd" clip-rule="evenodd" d="M243.332 364.425C243.894 364.636 244.514 364.334 244.717 363.752C244.921 363.169 244.63 362.523 244.07 362.312C242.55 361.741 241.108 361.136 239.709 360.49C238.329 359.857 236.999 359.186 235.668 358.467C233.515 357.303 231.263 355.97 228.905 354.426C226.523 352.87 224.017 351.089 221.374 349.046C220.894 348.678 220.216 348.781 219.86 349.28C219.504 349.779 219.604 350.483 220.086 350.851C222.775 352.929 225.328 354.74 227.751 356.327C230.199 357.928 232.499 359.292 234.666 360.464C236.024 361.199 237.397 361.89 238.835 362.551C240.249 363.199 241.733 363.822 243.332 364.425Z" fill="#C87868"/>
<path fill-rule="evenodd" clip-rule="evenodd" d="M270.885 340.155C270.306 340.009 269.72 340.376 269.575 340.979C269.432 341.581 269.787 342.19 270.369 342.339L270.537 342.383C272.096 342.78 274.224 343.323 276.87 343.149C277.466 343.109 277.918 342.574 277.883 341.956C277.844 341.337 277.33 340.866 276.734 340.905C274.415 341.056 272.478 340.562 271.054 340.199L270.885 340.155Z" fill="#C87868"/>
<path fill-rule="evenodd" clip-rule="evenodd" d="M248.922 286.467C248.853 286.441 248.783 286.419 248.707 286.407C244.05 285.115 239.328 285.891 235.441 288.192C231.555 290.496 228.506 294.328 227.206 299.144C227.178 299.216 227.159 299.291 227.146 299.369C225.902 304.204 226.65 309.111 228.868 313.145C231.084 317.182 234.775 320.348 239.415 321.697C239.484 321.726 239.554 321.745 239.629 321.761C244.287 323.049 249.011 322.276 252.896 319.975C256.783 317.671 259.832 313.84 261.131 309.019C261.159 308.949 261.179 308.874 261.191 308.798C262.433 303.964 261.685 299.056 259.469 295.022C257.252 290.984 253.561 287.819 248.922 286.467ZM248.228 288.699C252.309 289.86 255.558 292.636 257.503 296.179C259.454 299.728 260.102 304.046 258.987 308.291L258.985 308.296C257.867 312.537 255.195 315.912 251.779 317.934C248.364 319.958 244.202 320.632 240.117 319.47H240.113C236.027 318.31 232.778 315.534 230.832 311.991C228.882 308.441 228.235 304.121 229.35 299.877L229.355 299.868C230.47 295.629 233.143 292.256 236.557 290.235C239.972 288.211 244.132 287.536 248.22 288.696L248.228 288.699Z" fill="white"/>
<path fill-rule="evenodd" clip-rule="evenodd" d="M248.22 288.696C249.796 289.145 250.883 291.172 251.359 294.086C251.885 297.304 251.634 301.49 250.48 305.877C249.324 310.264 247.49 313.999 245.462 316.488C243.622 318.746 241.695 319.92 240.116 319.47C238.538 319.024 237.453 316.997 236.98 314.082C236.451 310.866 236.705 306.678 237.859 302.291C239.013 297.903 240.846 294.169 242.875 291.678C244.713 289.423 246.641 288.25 248.22 288.696ZM253.589 293.699C252.961 289.875 251.319 287.149 248.813 286.436C246.309 285.724 243.562 287.202 241.148 290.165C238.924 292.892 236.927 296.946 235.681 301.675C234.435 306.402 234.17 310.948 234.747 314.471C235.372 318.295 237.015 321.021 239.522 321.734C242.028 322.444 244.774 320.969 247.187 318.006C249.411 315.276 251.41 311.223 252.655 306.494C253.9 301.766 254.166 297.222 253.589 293.699Z" fill="white"/>
<path fill-rule="evenodd" clip-rule="evenodd" d="M258.986 308.292C258.553 309.931 256.603 311.057 253.796 311.552C250.699 312.101 246.666 311.838 242.441 310.64C238.217 309.44 234.619 307.535 232.224 305.429C230.05 303.517 228.92 301.517 229.35 299.878C229.782 298.239 231.733 297.114 234.539 296.619C237.637 296.07 241.668 296.331 245.894 297.532C250.117 298.731 253.716 300.636 256.112 302.741C258.286 304.65 259.416 306.654 258.986 308.292ZM254.166 313.867C257.852 313.217 260.476 311.512 261.162 308.908C261.847 306.306 260.425 303.454 257.57 300.95C254.944 298.639 251.041 296.562 246.485 295.271C241.934 293.977 237.558 293.701 234.168 294.302C230.482 294.952 227.858 296.657 227.173 299.259C226.489 301.861 227.91 304.713 230.762 307.219C233.391 309.53 237.293 311.606 241.847 312.898C246.4 314.19 250.776 314.468 254.166 313.867Z" fill="white"/>
<path fill-rule="evenodd" clip-rule="evenodd" d="M364.981 346.828C364.383 346.828 363.896 347.33 363.896 347.954C363.896 348.577 364.383 349.081 364.981 349.081C367.57 349.081 376.5 349.834 384.7 352.996C389.451 354.827 393.939 357.464 396.732 361.217C397.096 361.709 397.776 361.798 398.248 361.42C398.721 361.042 398.809 360.335 398.444 359.845C395.371 355.714 390.537 352.853 385.453 350.892C376.942 347.608 367.67 346.828 364.981 346.828Z" fill="#0F2238"/>
<path fill-rule="evenodd" clip-rule="evenodd" d="M195.034 212.51C195.144 211.899 194.757 211.312 194.169 211.197C193.581 211.083 193.015 211.485 192.907 212.096C192.376 214.986 190.635 219.291 188.12 225.521C181.284 242.438 168.784 273.375 158.723 330.263C158.615 330.874 159.002 331.457 159.593 331.569C160.179 331.681 160.742 331.277 160.85 330.668C170.863 274.05 183.314 243.239 190.12 226.393C192.684 220.046 194.456 215.66 195.034 212.51Z" fill="#0F2238"/>
<path fill-rule="evenodd" clip-rule="evenodd" d="M305.969 181.836C308.265 205.946 288.622 238.798 278.673 241.183C268.724 243.565 253.417 213.893 253.417 213.893C253.417 213.893 235.56 235.618 226.377 233.498C217.193 231.381 242.193 191.373 242.193 191.373C242.193 191.373 288.367 211.775 305.969 181.836Z" fill="#0F2238"/>
<path fill-rule="evenodd" clip-rule="evenodd" d="M103.416 257.267C108.58 263.446 125.404 282.763 138.706 296.975C146.292 305.078 152.828 311.565 155.651 313.182C156.11 312.59 156.574 311.988 157.045 311.373C156.979 311.354 156.914 311.338 156.842 311.332C155.436 311.168 148.589 304.309 140.257 295.409C126.783 281.015 109.736 261.43 104.861 255.575C104.379 256.136 103.899 256.7 103.416 257.267Z" fill="#0F2238"/>
<path fill-rule="evenodd" clip-rule="evenodd" d="M231.798 173.28L229.919 188.941C227.624 190.383 223.624 210.016 236.443 222.86C257.435 223.052 287.813 204.133 287.813 187.347L286.652 142.654L231.798 173.28Z" fill="#C87868"/>
<path fill-rule="evenodd" clip-rule="evenodd" d="M231.797 173.28L230.178 186.87C254.866 193.487 279.292 180.541 287.135 161.183L286.652 142.654C286.651 99.9508 231.797 125.775 231.797 173.28Z" fill="#0F2238"/>
<path fill-rule="evenodd" clip-rule="evenodd" d="M236.445 222.86C236.445 222.86 214.479 252.13 207.205 248.126C199.934 244.118 211.815 208.326 218.117 198.562C224.418 188.8 230.076 188.778 230.076 188.778C230.076 188.778 223.206 201.067 236.445 222.86Z" fill="white"/>
<path fill-rule="evenodd" clip-rule="evenodd" d="M236.445 222.859C243.429 233.671 252.858 254.912 261.364 253.565C284.309 249.938 305.115 195.105 287.74 184.467C284.421 197.76 262.325 215.557 236.445 222.859Z" fill="white"/>
<path fill-rule="evenodd" clip-rule="evenodd" d="M307.416 137.205C305.256 147.841 313.805 149.662 313.759 151.494C313.68 154.645 305.058 154.582 300.666 151.684C300.282 158.822 306.51 160.899 306.241 162.109C305.88 163.73 299.521 165.484 293.025 163.576C289.449 162.526 285.831 160.364 283.143 156.459C274.615 144.055 282.485 134.44 282.485 134.44L307.416 137.205Z" fill="#0F2238"/>
<path fill-rule="evenodd" clip-rule="evenodd" d="M217.187 36.1733C217.187 36.1733 197.815 39.5018 195.322 57.5926C192.828 75.6822 201.546 103.248 201.546 103.248C201.546 103.248 230.949 62.3257 217.187 36.1733Z" fill="#0F2238"/>
<path fill-rule="evenodd" clip-rule="evenodd" d="M209.079 53.3492C200.014 78.2915 183.511 138.995 194.197 157.657C203.6 174.071 239.787 179.373 258.434 175.688C261.024 175.175 269.43 172.148 273.559 168.054C284.112 157.595 292.19 140.205 292.19 140.205C308.434 90.078 310.561 65.5735 294.206 46.0537C276.996 25.5161 216.686 27.654 209.079 53.3492Z" fill="#E6B3A0"/>
<path fill-rule="evenodd" clip-rule="evenodd" d="M229.929 35.7261C220.847 38.7201 213.534 43.6174 210.217 50.4398C217.674 54.2498 227.133 58.7154 235.731 61.6742C253.431 67.7656 276.187 66.0242 276.187 68.3445C276.187 70.6661 279.558 94.4531 285.739 103.736C306.247 64.2839 282.086 44.5587 269.444 42.529C262.673 41.4418 244.94 38.3565 229.929 35.7261Z" fill="#C87868"/>
<path fill-rule="evenodd" clip-rule="evenodd" d="M293.782 122.713C340.717 125.678 351.12 67.8483 326.784 57.0663C313.233 51.0612 289.225 40.014 280.959 53.4982C278.123 58.1255 279.622 87.5079 280.404 95.3105C281.719 108.426 293.67 106.613 293.782 122.713Z" fill="#0F2238"/>
<path fill-rule="evenodd" clip-rule="evenodd" d="M291.188 140.141C291.188 140.141 312.868 151.066 321.152 128.893C329.433 106.72 321.424 94.1222 308.975 95.1206C291.97 96.4827 285.188 136.039 291.188 140.141Z" fill="#E6B3A0"/>
<path fill-rule="evenodd" clip-rule="evenodd" d="M315.208 109.479C316.152 109.824 316.644 110.896 316.311 111.87C315.977 112.844 314.939 113.353 313.998 113.008L313.835 112.947C311.524 112.127 309.397 112.54 307.575 113.925C305.547 115.468 303.826 118.189 302.562 121.775L302.429 122.143C302.095 123.119 301.795 123.93 301.522 124.605C304.024 122.694 307.483 121.309 311.125 123.694C311.969 124.247 312.22 125.403 311.684 126.274C311.149 127.148 310.03 127.407 309.183 126.853C305.35 124.345 301.222 129.954 300.663 130.755C300.266 131.419 299.491 131.781 298.713 131.596C298.705 131.594 295.61 130.918 299.011 120.904L299.148 120.494C300.658 116.221 302.809 112.902 305.43 110.908C308.224 108.784 311.482 108.151 315.015 109.412L315.208 109.479Z" fill="#C87868"/>
<path fill-rule="evenodd" clip-rule="evenodd" d="M206.076 40.8532C206.076 40.8532 220.027 52.5108 240.221 57.4312C260.416 62.3528 326.784 57.0651 326.784 57.0651C326.784 57.0651 325.564 10.0528 264.6 1.09864C203.638 -7.85434 206.076 40.8532 206.076 40.8532Z" fill="#0F2238"/>
<path fill-rule="evenodd" clip-rule="evenodd" d="M269.652 33.7124C261.136 33.8583 252.893 33.4473 245.07 32.6094C231.461 31.1501 219.126 28.3895 208.85 24.988C210.755 19.8463 213.946 14.2997 219.292 9.7417C240.737 17.2366 274.811 26.4899 301.468 21.3531C303.87 20.891 306.13 20.4374 308.262 19.9935C310.9 22.416 313.163 24.9248 315.104 27.4421C299.653 31.583 284.252 33.4643 269.652 33.7124Z" fill="#30445D"/>
<path fill-rule="evenodd" clip-rule="evenodd" d="M226.756 72.6484C228.21 76.1362 208.633 73.7405 208.633 73.7405C208.633 73.7405 222.491 60.823 226.756 72.6484Z" fill="#0F2238"/>
<path fill-rule="evenodd" clip-rule="evenodd" d="M250.362 74.2259C246.468 76.8357 270.263 87.2006 270.263 87.2006C270.263 87.2006 270.087 82.172 267.091 78.188C263.548 73.489 256.687 69.9902 250.362 74.2259Z" fill="#0F2238"/>
<path fill-rule="evenodd" clip-rule="evenodd" d="M216.626 122.443C226.334 130.507 242.398 127.351 244.725 124.858C247.049 122.366 244.247 149.432 229.712 149.281C212.21 149.096 214.976 121.071 216.626 122.443Z" fill="#0F2238"/>
<path fill-rule="evenodd" clip-rule="evenodd" d="M243.544 136.181C240.707 137.965 233.496 138.436 228.763 137.878C221.044 136.968 218.755 134.892 215.42 130.126C215.247 125.469 216.01 121.933 216.625 122.443C226.332 130.507 242.396 127.351 244.724 124.858C245.886 123.613 245.765 129.751 243.544 136.181Z" fill="white"/>
<path fill-rule="evenodd" clip-rule="evenodd" d="M220.388 97.4946C220.469 98.4237 219.806 99.2458 218.906 99.3309C218.009 99.4161 217.21 98.7314 217.129 97.8023C216.938 95.6814 215.681 93.3611 213.982 91.8446C213.194 91.1453 212.327 90.6358 211.455 90.4375C210.683 90.2612 209.883 90.3378 209.125 90.7659C207.869 91.4712 206.652 93.0996 205.648 96.0122C205.345 96.8951 204.405 97.3548 203.554 97.0422C202.697 96.7285 202.252 95.7592 202.557 94.8776C203.856 91.1003 205.632 88.8773 207.563 87.7925C209.07 86.9461 210.643 86.788 212.161 87.1346C213.584 87.4605 214.935 88.2315 216.116 89.2847C218.415 91.3326 220.12 94.5297 220.388 97.4946Z" fill="#0F2238"/>
<path fill-rule="evenodd" clip-rule="evenodd" d="M267.567 105.79C267.649 106.718 266.986 107.54 266.086 107.624C265.186 107.709 264.39 107.026 264.307 106.096C264.119 103.976 262.861 101.655 261.163 100.139C260.372 99.4395 259.508 98.93 258.635 98.7305C257.862 98.5554 257.063 98.632 256.304 99.0589C255.049 99.7654 253.832 101.394 252.827 104.308C252.525 105.189 251.585 105.648 250.731 105.336C249.877 105.024 249.429 104.053 249.735 103.173C251.036 99.3945 252.811 97.1715 254.745 96.0867C256.25 95.2391 257.824 95.0822 259.343 95.4288C260.763 95.7535 262.115 96.5269 263.296 97.5789C265.597 99.6268 267.302 102.826 267.567 105.79Z" fill="#0F2238"/>
<path fill-rule="evenodd" clip-rule="evenodd" d="M270.839 125.547C271.692 120.978 268.192 116.432 263.027 115.403C257.863 114.373 252.977 117.251 252.123 121.82C251.27 126.388 254.769 130.933 259.935 131.962C265.099 132.991 269.987 130.117 270.839 125.547Z" fill="#C87868"/>
<path fill-rule="evenodd" clip-rule="evenodd" d="M210.84 113.039C211.641 108.745 209.534 104.71 206.136 104.034C202.738 103.355 199.329 106.292 198.526 110.587C197.723 114.882 199.83 118.916 203.228 119.594C206.627 120.269 210.037 117.332 210.84 113.039Z" fill="#C87868"/>
<path fill-rule="evenodd" clip-rule="evenodd" d="M227.715 104.308C228.58 104.039 229.492 104.544 229.756 105.438C230.015 106.33 229.528 107.274 228.663 107.542C227.268 107.979 226.216 108.873 225.573 109.951C225.107 110.735 224.858 111.618 224.848 112.49C224.84 113.339 225.064 114.184 225.544 114.923C226.16 115.872 227.227 116.671 228.805 117.123C229.674 117.374 230.185 118.305 229.941 119.207C229.7 120.105 228.795 120.633 227.926 120.384C225.534 119.698 223.852 118.392 222.82 116.805C221.958 115.482 221.556 113.975 221.573 112.468C221.586 110.983 222.003 109.498 222.78 108.191C223.82 106.441 225.503 105.002 227.715 104.308Z" fill="#C87868"/>
</svg>
