<svg width="62" height="60" viewBox="0 0 62 60" fill="none" xmlns="http://www.w3.org/2000/svg">
<path d="M51.3547 12.4098C51.2541 12.046 51.3238 11.6745 51.5173 11.3727C51.1922 11.2179 50.9523 10.9237 50.8516 10.5677L50.8284 10.498C35.9754 16.8371 33.8392 31.2721 33.3516 33.0368C34.0172 31.0245 36.8887 17.9594 51.378 12.495L51.3547 12.4098Z" fill="#fff"/>
<path d="M57.7264 14.6617C58.361 14.4759 58.6397 14.3985 58.7093 14.0115C58.8022 13.4542 58.8719 12.8892 58.957 12.3242C58.9673 12.2623 58.9777 12.2004 58.988 12.1384C59.0138 11.9372 59.0422 11.736 59.0731 11.5347C59.1041 11.3103 59.1505 11.0781 59.2434 10.8691C59.4446 10.4511 59.8394 10.2731 60.2341 10.1028C60.2496 10.0977 60.2651 10.0899 60.2806 10.0796C60.3373 10.059 60.3941 10.0357 60.4508 10.0099C60.9075 9.80097 61.3564 9.55329 61.6815 9.18177C61.7898 9.05793 61.8982 8.92635 61.9679 8.77155C62.0453 8.60127 61.9833 8.37682 61.8285 8.2762C61.697 8.17558 61.5344 8.11366 61.3796 8.06722C60.9075 7.92016 60.3967 7.93564 59.8936 7.98982C59.8316 7.99498 59.7723 8.00014 59.7155 8.0053C59.6949 8.01046 59.6768 8.01304 59.6614 8.01304C59.2357 8.06722 58.8022 8.1214 58.423 7.85824C58.2295 7.7344 58.0747 7.55638 57.9276 7.37836C57.8038 7.2184 57.6773 7.06102 57.5483 6.90622C57.5071 6.85462 57.4658 6.8056 57.4245 6.75916C57.0685 6.31798 56.7202 5.86906 56.3486 5.43563C56.101 5.13377 55.8223 5.21117 55.1722 5.37371C54.4059 5.56721 54.6149 5.9155 54.6459 5.9929C54.7078 6.12448 54.7697 6.24832 54.8316 6.3799C54.9555 6.64822 55.0793 6.91654 55.2031 7.18486C55.327 7.44286 55.4482 7.70086 55.5669 7.95886C55.6366 8.09818 55.6985 8.22976 55.7604 8.36134C55.7656 8.37682 55.7707 8.39229 55.7759 8.40777C56.0081 9.08115 55.0096 9.56103 54.2511 9.82419C53.8873 9.94803 53.5777 10.0177 53.5003 10.0254C52.6799 10.1261 52.1071 8.77929 51.9446 8.57031C51.8982 8.51613 51.8517 8.44648 51.7743 8.42326C51.6737 8.3923 51.5421 8.45422 51.4415 8.47744C51.3125 8.51356 51.1861 8.54968 51.0622 8.5858C50.9926 8.60902 50.9074 8.63997 50.8842 8.71737C50.8687 8.75607 50.892 8.84895 50.892 8.84895L51.3331 10.4356C51.426 10.7917 51.7666 11.0316 52.1381 11.0084C52.1433 11.0084 52.151 11.0084 52.1613 11.0084C52.3703 10.9929 52.4477 11.2716 52.2619 11.3644C52.2516 11.3696 52.2439 11.3722 52.2387 11.3722C51.9059 11.5425 51.7356 11.9217 51.8362 12.2778L52.2697 13.8645C52.2697 13.8645 52.3006 13.9573 52.3316 13.9883C52.3935 14.0347 52.4787 14.0193 52.5483 14.0038C52.6773 13.9728 52.8037 13.9393 52.9276 13.9032C53.0282 13.8799 53.1753 13.8645 53.2449 13.7793C53.2991 13.7251 53.3068 13.64 53.3223 13.5703C53.3533 13.3072 53.152 11.8598 53.9106 11.527C53.988 11.4883 54.2898 11.3954 54.6613 11.3103C55.4431 11.1477 56.5499 11.0548 56.6969 11.7437C56.6969 11.7643 56.6995 11.7824 56.7047 11.7979C56.7202 11.9449 56.7279 12.092 56.7434 12.2391C56.7743 12.5229 56.8027 12.8092 56.8285 13.0982C56.8595 13.3923 56.8904 13.6864 56.9214 13.9806C56.9291 14.1199 56.9446 14.2592 56.9601 14.4063C56.9678 14.4914 56.9678 14.8861 57.7264 14.6617Z" fill="#fff"/>
<path d="M39.3269 6.94632C39.5436 6.9231 39.7371 6.807 39.8532 6.63672C40.008 6.77604 40.2247 6.8457 40.4414 6.82248L40.4801 6.81474C40.3021 16.2498 32.9569 20.5764 32.1055 21.2188C33.0497 20.4216 39.4971 16.0021 39.2804 6.95406L39.3269 6.94632Z" fill="#fff"/>
<path d="M36.7116 3.99645C36.6729 3.60945 36.6575 3.43917 36.851 3.32307C37.1296 3.14506 37.4237 2.98252 37.7101 2.81224C37.741 2.79676 37.772 2.7787 37.803 2.75806C37.9062 2.7013 38.0094 2.64196 38.1126 2.58004C38.2287 2.51038 38.3448 2.44072 38.4376 2.3401C38.6157 2.13886 38.6234 1.89118 38.6311 1.63576C38.6311 1.62544 38.6311 1.61512 38.6311 1.6048C38.6311 1.56868 38.6337 1.53256 38.6389 1.49644C38.6466 1.20232 38.6853 0.908203 38.8169 0.652784C38.8556 0.567645 38.9098 0.474764 38.9717 0.405104C39.0491 0.327705 39.1807 0.312225 39.2736 0.374145C39.351 0.428325 39.4206 0.497985 39.4825 0.567644C39.6683 0.792103 39.7767 1.07074 39.8541 1.35712C39.8644 1.39324 39.8721 1.42678 39.8773 1.45774C39.8824 1.46806 39.885 1.47838 39.885 1.4887C39.9547 1.73638 40.0243 1.97632 40.2411 2.13112C40.3572 2.20078 40.4887 2.24722 40.6126 2.28592C40.7261 2.32204 40.8396 2.35816 40.9531 2.39428C40.9893 2.4046 41.0254 2.41492 41.0615 2.42524C41.3788 2.51812 41.6962 2.611 42.0135 2.71936C42.2302 2.78902 42.2457 2.95155 42.2999 3.33855C42.3618 3.79521 42.1296 3.76425 42.0832 3.76425C42.0006 3.75909 41.9181 3.75393 41.8355 3.74877C41.6601 3.73845 41.4872 3.72813 41.3169 3.71781C41.1518 3.71265 40.9841 3.70491 40.8138 3.69459C40.7287 3.68685 40.6435 3.67911 40.5584 3.67911C40.5481 3.67911 40.5378 3.67911 40.5274 3.67911C40.1172 3.70233 40.0708 4.34475 40.094 4.81689C40.1095 5.04135 40.1404 5.21937 40.1559 5.26581C40.2798 5.73795 41.1312 5.74569 41.2782 5.79213C41.3169 5.79987 41.3711 5.81535 41.3943 5.84631C41.433 5.90049 41.433 5.98562 41.4408 6.04754C41.4511 6.11978 41.4588 6.1946 41.464 6.272C41.464 6.3107 41.4717 6.36488 41.433 6.39584C41.4175 6.41132 41.3634 6.41906 41.3634 6.41906L40.4036 6.53516C40.1869 6.55838 39.9856 6.4268 39.916 6.21782C39.916 6.21266 39.916 6.21008 39.916 6.21008C39.8773 6.09398 39.707 6.10947 39.6993 6.2333C39.6993 6.23846 39.6993 6.24104 39.6993 6.24104C39.676 6.45776 39.5135 6.63578 39.2968 6.659L38.337 6.7751C38.337 6.7751 38.2829 6.78284 38.2596 6.76736C38.2209 6.74414 38.2132 6.6977 38.2054 6.65126C38.1951 6.57902 38.1848 6.5042 38.1745 6.4268C38.1667 6.36488 38.1435 6.28748 38.1745 6.22556C38.19 6.18686 38.2364 6.16364 38.2751 6.14042C38.4067 6.07076 39.2349 5.85405 39.2503 5.37417C39.2503 5.32773 39.2349 5.14197 39.1962 4.91751C39.1188 4.46085 38.9253 3.84165 38.515 3.91131C38.5099 3.91647 38.5022 3.91905 38.4918 3.91905C38.4067 3.94227 38.3215 3.97323 38.2364 3.99645C38.0765 4.04289 37.9165 4.08933 37.7565 4.13577C37.5914 4.18737 37.4263 4.23639 37.2612 4.28283C37.1786 4.30863 37.0986 4.33185 37.0212 4.35249C36.9748 4.36797 36.7581 4.45311 36.7116 3.99645Z" fill="#fff"/>
<path d="M39.3739 16.6895C39.3327 16.7204 39.294 16.7514 39.2578 16.7823C31.8739 22.5022 27.9188 28.8257 20.4575 30.5982C20.4213 30.6085 20.3826 30.6188 20.3414 30.6291C20.1711 30.6756 20.0627 30.8536 20.1014 31.0239C20.5039 32.5796 22.137 39.7778 19.9776 46.4651C19.9466 46.5425 20.0705 46.589 20.1092 46.5116L22.0596 42.4636L24.8228 36.7437C24.9389 36.5115 24.877 36.2406 24.6757 36.0936C24.4513 35.931 24.2655 35.7375 24.103 35.5208C23.4838 34.6926 23.3445 33.5549 23.8476 32.5332C24.3042 31.6199 25.1788 31.0239 26.1309 30.8768C26.6959 30.7839 27.2841 30.8459 27.8336 31.0935C28.0426 31.1864 28.2284 31.3025 28.4064 31.4418C29.4436 32.2391 29.8073 33.6787 29.2036 34.9326C28.5844 36.2019 27.1757 36.8753 25.8522 36.6121C25.78 36.5967 25.7103 36.5967 25.6432 36.6121C25.473 36.6431 25.3104 36.7592 25.233 36.9217L21.7113 44.1973L20.5116 46.6896C20.4729 46.767 20.589 46.8289 20.6355 46.7515C20.9038 46.3439 21.1876 45.9491 21.4869 45.5673C21.9822 44.9249 22.5085 44.3057 23.0503 43.7252C26.8894 39.6462 31.6262 37.2236 32.8569 36.6431C33.0194 36.5657 33.0891 36.3722 33.0117 36.2174C32.9962 36.1813 32.9807 36.1452 32.9653 36.109C29.6758 28.5161 37.9498 18.3613 39.2811 16.7978C39.3172 16.7565 39.3481 16.7204 39.3739 16.6895Z" fill="#fff"/>
<path d="M15.5341 53.0455C15.5341 53.0455 18.158 33.0299 9.81429 19.276C9.81429 19.276 19.7137 14.4772 31.8732 22.3487C24.9459 16.6831 12.8561 9.72483 0 15.8007C0 15.8007 14.3963 32.5268 11.6874 59.6631C11.6874 59.6631 25.898 48.5098 35.0853 50.1971C35.0853 50.1971 28.6921 46.9928 15.5341 53.0455Z" fill="#fff"/>
<path d="M46.1999 50.5911C46.1999 50.5911 46.316 35.5833 53.8625 26.3108C53.8625 26.3108 47.0668 21.7674 37.3067 26.3263C37.3067 26.3263 37.3067 26.3237 37.3067 26.3185C42.9878 22.8588 52.6008 18.9655 61.4476 24.755C61.4476 24.755 49.1411 35.5988 48.3593 55.862C48.3593 55.862 39.0327 46.1948 32.0977 46.4966C32.0977 46.4966 37.1286 44.7938 46.1999 50.5911Z" fill="#fff"/>
<path d="M22.2852 46.9385C22.7031 45.9245 23.2139 44.9261 23.8254 44.3997C24.4988 43.8192 25.0793 44.1366 25.7294 44.4462C27.409 45.2589 28.957 43.2233 30.3502 41.3192C30.892 40.5839 31.5731 39.8796 32.1923 40.3904C32.7496 40.8394 32.9431 41.9694 33.3378 42.7666C33.779 43.6722 34.553 43.4168 35.1103 42.875C35.6676 42.3409 36.1474 41.5282 36.6583 40.8394C37.2852 39.9957 38.2605 39.0514 38.7713 40.4988C39.0035 41.1567 39.019 42.0391 39.228 42.7202C39.3286 43.053 39.4834 43.2697 39.6846 43.2775C39.8626 43.2775 40.0484 43.1149 40.1258 42.7511C40.0484 43.4864 39.5608 43.6335 39.2976 43.3471C38.9416 42.9601 38.8332 42.1242 38.6552 41.4508C38.5391 41.0019 38.3688 40.5994 38.0979 40.5839C37.6645 40.553 37.2465 41.2341 36.9214 41.7527C36.31 42.7124 35.7295 43.8115 35.0019 44.3765C34.3053 44.9261 33.4849 44.9725 32.9121 44.0592C32.7419 43.7883 32.6025 43.4323 32.471 43.0762C32.2929 42.5731 32.1304 42.0004 31.8285 41.7604C31.8285 41.7656 31.8311 41.7682 31.8363 41.7682C31.5499 41.6366 31.2635 41.892 31.0004 42.2016C30.6753 42.5809 30.3657 43.0375 30.0406 43.4477C29.375 44.2759 28.6784 45.0112 27.9276 45.4292C27.2465 45.8084 26.5267 45.909 25.8533 45.5685C25.2031 45.2279 24.6381 44.5236 23.9183 44.9415C23.2759 45.3208 22.827 46.0638 22.2852 46.9385Z" fill="#fff"/>
</svg>
