<svg width="523" height="571" viewBox="0 0 523 571" fill="none" xmlns="http://www.w3.org/2000/svg">
<g filter="url(#filter0_b_891_3260)">
<rect x="8" width="506" height="571" rx="26" fill="url(#paint0_linear_891_3260)"/>
</g>
<path opacity="0.35" d="M392.069 414.07C464.247 341.892 464.247 224.868 392.069 152.69C319.891 80.5122 202.868 80.5122 130.69 152.69C58.5118 224.868 58.5118 341.892 130.69 414.07C202.868 486.248 319.891 486.248 392.069 414.07Z" fill="#FEFEFE"/>
<path d="M110.327 501.105C150.005 501.105 182.17 499.31 182.17 497.096C182.17 494.882 150.005 493.087 110.327 493.087C70.6496 493.087 38.4844 494.882 38.4844 497.096C38.4844 499.31 70.6496 501.105 110.327 501.105Z" fill="#C69A42"/>
<path d="M140.93 352.688V490.475H106.892L110.588 386.605L97.8853 490.475H63.8633L90.0263 352.688H140.93Z" fill="#410071"/>
<path d="M98.1132 266.105L97.3832 266.367C90.2792 268.917 85.1412 275.153 83.9972 282.613L78.4922 318.511L93.7302 313.017L98.1132 266.105Z" fill="#CFCFD0"/>
<path d="M83.0231 288.989L78.4961 318.511L93.7341 313.017L95.7741 291.173L83.0231 288.989Z" fill="#D18E86"/>
<path d="M121.102 261.735L140.931 270.506V352.687H90.0273L98.1153 266.105L121.102 261.735Z" fill="white"/>
<path d="M109.924 236.568C109.924 236.568 109.712 234.033 111.248 232.406C112.784 230.78 119.109 228.159 124.983 231.683C130.856 235.207 133.838 240.448 131.037 250.568C128.688 257.164 124.858 258.886 124.858 258.886L116.96 247.767L109.924 236.568Z" fill="#410071"/>
<path d="M116.605 279.808L104.902 323.117C103.318 328.98 99.1687 333.813 93.6127 336.267L91.4727 337.212L95.6667 292.309L116.605 279.808Z" fill="#A4A4A4"/>
<path d="M140.932 329.603C140.932 329.603 125.703 330.873 125.703 352.689H140.932V329.603Z" fill="#A4A4A4"/>
<path d="M109.996 236.158C109.996 236.158 108.041 247.273 108.196 254.607C108.217 255.587 108.995 256.381 109.973 256.449L116.579 256.905L115.351 264.173C114.945 266.574 116.796 268.763 119.231 268.763H120.406C122.45 268.763 124.153 267.198 124.327 265.162L125.738 248.579C125.738 248.579 111.427 242.888 109.996 236.158Z" fill="#F7A89C"/>
<path d="M125.344 251.834C127.241 251.834 128.778 250.296 128.778 248.4C128.778 246.503 127.241 244.966 125.344 244.966C123.448 244.966 121.91 246.503 121.91 248.4C121.91 250.296 123.448 251.834 125.344 251.834Z" fill="#F7A89C"/>
<path d="M112.152 246.23C112.063 247.199 111.709 247.959 111.361 247.927C111.013 247.895 110.803 247.083 110.892 246.114C110.981 245.145 111.335 244.385 111.683 244.417C112.031 244.449 112.241 245.261 112.152 246.23Z" fill="#410071"/>
<path d="M110.871 242.617C110.871 242.617 112.515 242.346 113.329 243.43" stroke="#410071" stroke-width="1.2021" stroke-miterlimit="10" stroke-linecap="round"/>
<path d="M116.578 256.904H120.299C120.299 256.904 117.92 264.093 115.246 264.791C116.578 256.904 116.578 256.904 116.578 256.904Z" fill="#4D3529"/>
<path d="M140.93 270.507L145.092 272.552C150.96 275.435 155.627 280.289 158.278 286.266L174.942 323.842C178.123 331.014 174.689 339.391 167.389 342.267L140.93 352.69H137.004C133.962 352.69 131.496 350.224 131.496 347.182V338.264C131.496 335.981 132.904 333.935 135.035 333.119L152.128 326.577L138.495 297.233C138.495 297.233 134.404 272.901 140.93 270.507Z" fill="#F7A89C"/>
<path d="M106.891 490.475C106.891 490.475 103.824 489.999 102.395 495.708C137.598 495.708 140.928 495.708 140.928 495.708V490.475H106.891Z" fill="#4D3529"/>
<path d="M63.7226 490.475C63.7226 490.475 60.6556 489.999 59.2266 495.708C94.4296 495.708 97.7596 495.708 97.7596 495.708V490.475H63.7226Z" fill="#4D3529"/>
<path d="M158.279 286.265C155.629 280.289 150.961 275.434 145.093 272.551L140.931 270.506C134.406 272.9 138.496 297.232 138.496 297.232L143.216 307.391C148.234 304.351 155.944 300.52 164.157 299.519L158.279 286.265Z" fill="#CFCFD0"/>
<path d="M164.156 333.224C164.156 336.753 165.965 339.856 168.704 341.666C175.09 338.352 177.925 330.566 174.942 323.84L174.625 323.125C174.507 323.121 174.392 323.107 174.273 323.107C168.686 323.107 164.156 327.636 164.156 333.224Z" fill="#EF7D6E"/>
<path opacity="0.41" d="M140.932 352.688H129.043V490.475H140.932V352.688Z" fill="white"/>
<path d="M110.542 387.888C110.542 387.888 93.4818 424.228 87.1328 490.465C97.8848 490.465 97.8848 490.465 97.8848 490.465L110.542 387.888Z" fill="#410071"/>
<path d="M90.0273 352.688L140.931 364.467V352.688H90.0273Z" fill="#410071"/>
<path d="M110.541 387.888V352.688H102.395C102.395 352.688 101.398 380.719 110.541 387.888Z" fill="#410071"/>
<path opacity="0.41" d="M74.3876 445.491C82.7596 445.491 89.5466 438.704 89.5466 430.332C89.5466 423.234 84.6616 417.293 78.0746 415.643L72.4336 445.35C73.0746 445.433 73.7236 445.491 74.3876 445.491Z" fill="#410071"/>
<g opacity="0.41">
<path d="M110.544 415.173C110.216 415.173 109.895 415.201 109.571 415.222L108.5 445.337C109.17 445.428 109.849 445.491 110.544 445.491C118.916 445.491 125.703 438.704 125.703 430.332C125.703 421.96 118.916 415.173 110.544 415.173Z" fill="#410071"/>
</g>
<path opacity="0.41" d="M135.035 333.117C132.903 333.933 131.496 335.979 131.496 338.262V347.18C131.496 350.222 133.962 352.689 137.004 352.689H140.93C140.931 334.489 135.035 333.117 135.035 333.117Z" fill="white"/>
<path opacity="0.41" d="M158.28 286.264C156.129 281.414 152.634 277.325 148.264 274.407C147.751 282.516 147.746 298.009 153.815 308.509C161.512 321.825 167.763 334.068 174.044 336.698C176.358 332.96 176.87 328.183 174.944 323.84L158.28 286.264Z" fill="white"/>
<path opacity="0.36" d="M111.251 232.406C109.715 234.032 109.926 236.566 109.927 236.568C109.582 238.624 108.059 248.1 108.196 254.607C108.217 255.587 108.995 256.381 109.973 256.449L113.56 256.696C122.112 249.303 117.408 231.569 116.984 230.049C114.246 230.403 112.068 231.541 111.251 232.406ZM110.336 237.22L111.887 239.69C111.219 238.894 110.685 238.068 110.336 237.22Z" fill="#851619"/>
<path d="M108.078 253.322L79.4231 315.201C77.4521 319.458 78.6881 324.512 82.4011 327.379L82.5691 327.509C87.7741 331.528 95.3731 329.548 97.9541 323.5L116.603 279.808C117.976 276.628 117.2 272.929 114.664 270.57L109.866 266.107L111.12 254.169C111.185 253.546 110.878 252.942 110.335 252.629L110.311 252.615C109.503 252.148 108.47 252.476 108.078 253.322Z" fill="#F7A89C"/>
<path d="M96.4982 325.896C94.0102 320.323 88.4302 316.432 81.9332 316.432C80.8842 316.432 79.8602 316.54 78.8672 316.733C77.7862 320.618 79.1292 324.849 82.4052 327.378L82.5732 327.508C87.0082 330.934 93.1722 329.99 96.4982 325.896Z" fill="#EF7D6E"/>
<path opacity="0.41" d="M124.983 231.684C123.272 230.658 121.526 230.163 119.867 230.003C121.469 235.02 124.959 242.433 132.029 245.23C132.572 238.491 129.721 234.527 124.983 231.684Z" fill="white"/>
<path d="M152.129 326.575L159.341 323.107" stroke="#983533" stroke-width="1.133" stroke-miterlimit="10"/>
<path d="M131.496 339.829L136.213 341.667" stroke="#983533" stroke-width="1.133" stroke-miterlimit="10"/>
<path d="M131.496 345.001L136.213 346.839" stroke="#983533" stroke-width="1.133" stroke-miterlimit="10"/>
<path d="M138.496 297.231C138.496 297.231 135.924 317.269 140.931 323.106C141.694 304.114 141.694 304.114 141.694 304.114L138.496 297.231Z" fill="#A4A4A4"/>
<path opacity="0.41" d="M129.711 288.948C129.711 288.948 116.572 328.147 108.497 333.654C100.422 339.161 121.455 337.517 126.612 318.511C131.769 299.506 129.711 288.948 129.711 288.948Z" fill="#CFCFD0"/>
<path opacity="0.41" d="M114.664 270.568L109.866 266.105C109.866 266.105 91.7378 294.549 101.145 316.023L116.603 279.806C117.977 276.627 117.2 272.927 114.664 270.568Z" fill="white"/>
<path d="M89.9453 152.069C97.4223 143.418 107.034 138.291 117.715 138.291C131.92 138.291 143.135 145.767 143.135 160.186C143.135 174.071 126.152 177.489 126.152 183.897V189.771H106.393L106.286 181.227C106.286 171.401 123.268 165.847 123.268 159.972C123.268 155.913 119.103 154.952 115.364 154.952C110.772 154.952 105.111 159.438 101.479 163.71L89.9453 152.069ZM115.685 192.441C123.268 192.441 128.395 197.675 128.395 203.762C128.395 209.744 123.482 214.764 115.685 214.764C108.743 214.764 103.509 209.316 103.509 203.762C103.509 198.423 107.995 192.441 115.685 192.441Z" fill="#C69A42"/>
<path d="M92.4102 152.069C99.8872 143.418 109.499 138.291 120.18 138.291C134.385 138.291 145.6 145.767 145.6 160.186C145.6 174.071 128.617 177.489 128.617 183.897V189.771H108.858L108.751 181.227C108.751 171.401 125.733 165.847 125.733 159.972C125.733 155.913 121.568 154.952 117.829 154.952C113.237 154.952 107.576 159.438 103.944 163.71L92.4102 152.069ZM118.15 192.441C125.733 192.441 130.86 197.675 130.86 203.762C130.86 209.744 125.947 214.764 118.15 214.764C111.208 214.764 105.975 209.316 105.975 203.762C105.975 198.423 110.461 192.441 118.15 192.441Z" fill="white"/>
<path d="M101.481 163.711H103.946L101.438 161.178L101.481 163.711Z" fill="#C69A42"/>
<g opacity="0.53">
<path d="M168.105 99.9139C173.823 93.2979 181.173 89.3779 189.341 89.3779C200.204 89.3779 208.78 95.0949 208.78 106.121C208.78 116.739 195.793 119.353 195.793 124.253V128.745H180.683L180.601 122.211C180.601 114.697 193.587 110.45 193.587 105.957C193.587 102.853 190.402 102.118 187.543 102.118C184.031 102.118 179.703 105.549 176.925 108.816L168.105 99.9139ZM187.789 130.787C193.588 130.787 197.509 134.79 197.509 139.445C197.509 144.019 193.752 147.858 187.789 147.858C182.48 147.858 178.478 143.692 178.478 139.445C178.478 135.362 181.909 130.787 187.789 130.787Z" fill="white"/>
</g>
<g opacity="0.36">
<path d="M324.836 161.56C329.899 155.702 336.408 152.23 343.641 152.23C353.261 152.23 360.855 157.293 360.855 167.057C360.855 176.46 349.355 178.774 349.355 183.114V187.092H335.975L335.902 181.306C335.902 174.652 347.402 170.891 347.402 166.913C347.402 164.165 344.581 163.514 342.05 163.514C338.94 163.514 335.107 166.552 332.648 169.445L324.836 161.56ZM342.266 188.899C347.401 188.899 350.873 192.444 350.873 196.566C350.873 200.617 347.546 204.016 342.266 204.016C337.565 204.016 334.021 200.327 334.021 196.566C334.021 192.95 337.059 188.899 342.266 188.899Z" fill="white"/>
</g>
<g opacity="0.21">
<path d="M351.625 74.0689C355.21 69.9209 359.819 67.4619 364.941 67.4619C371.753 67.4619 377.13 71.0469 377.13 77.9609C377.13 84.6189 368.987 86.2579 368.987 89.3309V92.1479H359.513L359.462 88.0509C359.462 83.3389 367.605 80.6759 367.605 77.8589C367.605 75.9129 365.608 75.4519 363.815 75.4519C361.613 75.4519 358.899 77.6029 357.157 79.6519L351.625 74.0689ZM363.968 93.4279C367.604 93.4279 370.063 95.9379 370.063 98.8569C370.063 101.725 367.707 104.132 363.968 104.132C360.639 104.132 358.13 101.52 358.13 98.8569C358.129 96.2959 360.28 93.4279 363.968 93.4279Z" fill="white"/>
</g>
<g opacity="0.21">
<path d="M451.664 188.442C454.078 185.649 457.18 183.995 460.628 183.995C465.213 183.995 468.833 186.408 468.833 191.063C468.833 195.545 463.351 196.648 463.351 198.717V200.613H456.973L456.938 197.855C456.938 194.683 462.42 192.89 462.42 190.994C462.42 189.684 461.075 189.374 459.869 189.374C458.387 189.374 456.559 190.822 455.387 192.201L451.664 188.442ZM459.973 201.474C462.421 201.474 464.076 203.163 464.076 205.129C464.076 207.06 462.49 208.68 459.973 208.68C457.732 208.68 456.043 206.921 456.043 205.129C456.042 203.405 457.491 201.474 459.973 201.474Z" fill="white"/>
</g>
<g opacity="0.32">
<path d="M84.7891 83.6559C88.7381 79.0869 93.8141 76.3799 99.4551 76.3799C106.957 76.3799 112.88 80.3279 112.88 87.9429C112.88 95.2759 103.911 97.0809 103.911 100.466V103.568H93.4761L93.4191 99.0549C93.4191 93.8649 102.388 90.9319 102.388 87.8299C102.388 85.6859 100.188 85.1789 98.2141 85.1789C95.7891 85.1789 92.7991 87.5479 90.8811 89.8039L84.7891 83.6559ZM98.3831 104.978C102.388 104.978 105.096 107.742 105.096 110.957C105.096 114.116 102.501 116.767 98.3831 116.767C94.7171 116.767 91.9531 113.89 91.9531 110.957C91.9531 108.137 94.3221 104.978 98.3831 104.978Z" fill="white"/>
</g>
<g opacity="0.16">
<path d="M59.8359 152.505C62.4869 149.437 65.8959 147.619 69.6839 147.619C74.7209 147.619 78.6979 150.27 78.6979 155.383C78.6979 160.307 72.6759 161.519 72.6759 163.791V165.874H65.6689L65.6309 162.844C65.6309 159.359 71.6529 157.39 71.6529 155.307C71.6529 153.868 70.1759 153.527 68.8499 153.527C67.2219 153.527 65.2139 155.118 63.9259 156.633L59.8359 152.505ZM68.9639 166.822C71.6529 166.822 73.4709 168.678 73.4709 170.837C73.4709 172.958 71.7289 174.738 68.9639 174.738C66.5019 174.738 64.6459 172.806 64.6459 170.837C64.6459 168.943 66.2369 166.822 68.9639 166.822Z" fill="white"/>
</g>
<path d="M370.211 134.604C379.77 123.543 392.06 116.988 405.717 116.988C423.88 116.988 438.218 126.547 438.218 144.983C438.218 162.736 416.504 167.106 416.504 175.299V182.81H391.241L391.104 171.885C391.104 159.322 412.817 152.22 412.817 144.71C412.817 139.521 407.491 138.292 402.712 138.292C396.84 138.292 389.603 144.028 384.959 149.49L370.211 134.604ZM403.121 186.223C412.817 186.223 419.372 192.915 419.372 200.698C419.372 208.346 413.091 214.764 403.121 214.764C394.245 214.764 387.554 207.799 387.554 200.698C387.554 193.871 393.29 186.223 403.121 186.223Z" fill="#C69A42"/>
<path d="M373.363 134.604C382.922 123.543 395.213 116.988 408.869 116.988C427.032 116.988 441.37 126.547 441.37 144.983C441.37 162.736 419.657 167.106 419.657 175.299V182.81H394.394L394.257 171.885C394.257 159.322 415.97 152.22 415.97 144.71C415.97 139.521 410.644 138.292 405.865 138.292C399.993 138.292 392.756 144.028 388.112 149.49L373.363 134.604ZM406.274 186.223C415.97 186.223 422.525 192.915 422.525 200.698C422.525 208.346 416.244 214.764 406.274 214.764C397.398 214.764 390.707 207.799 390.707 200.698C390.706 193.871 396.442 186.223 406.274 186.223Z" fill="white"/>
<path d="M384.958 149.489H388.11L384.902 146.251L384.958 149.489Z" fill="#C69A42"/>
<path d="M409.458 501.104C447.607 501.104 478.533 499.379 478.533 497.25C478.533 495.122 447.607 493.396 409.458 493.396C371.309 493.396 340.383 495.122 340.383 497.25C340.383 499.379 371.309 501.104 409.458 501.104Z" fill="#C69A42"/>
<path d="M422.984 345.277L443.287 408.328C445.892 416.419 443.989 425.286 438.291 431.595L392.859 481.903C392.859 481.903 392.728 496.31 381.203 498.231L374.48 455.01L416.22 416.111L422.984 345.277Z" fill="#A4A4A4"/>
<path opacity="0.33" d="M423.938 348.238C423.938 348.238 434.287 424.998 423.938 447.49C415.539 427.853 419.073 352.884 423.938 348.238Z" fill="#4D3529"/>
<path d="M390.811 346.614C390.811 346.614 379.766 369.529 389.37 433.88C398.975 498.231 398.975 498.231 398.975 498.231H440.727C440.727 498.231 437.465 483.824 425.904 481.423C415.752 381.326 423.563 364.276 422.987 345.277C400.416 343.116 390.811 346.614 390.811 346.614Z" fill="#ECEDEE"/>
<path d="M398.973 498.233H440.725C440.725 498.233 437.463 483.826 425.902 481.425H396.465C398.972 498.23 398.973 498.233 398.973 498.233Z" fill="#4D3529"/>
<path d="M374.48 455.011L381.203 498.232C392.728 496.311 392.859 481.904 392.859 481.904L386.257 444.035L374.48 455.011Z" fill="#4D3529"/>
<g opacity="0.41">
<path d="M422.984 345.277C421.147 345.101 419.405 344.966 417.737 344.86L407.9 345.277C407.9 345.277 397.155 449.435 425.901 481.423C415.749 381.326 423.56 364.276 422.984 345.277Z" fill="white"/>
<path d="M425.902 481.424C429.063 484.941 431.815 486.37 434.21 486.129C432.098 483.956 429.377 482.146 425.902 481.424Z" fill="white"/>
</g>
<path d="M419.576 244.114C419.576 244.114 414.313 240.136 407.9 241.521C401.488 242.905 392.835 250.866 391.97 269.209C391.105 287.552 394.22 293.782 397.854 293.782C401.488 293.782 410.66 274.575 410.66 274.575L414.381 256.749C414.381 256.749 419.667 246.88 419.576 244.114Z" fill="#410071"/>
<path d="M407.9 241.521C401.488 242.905 392.835 250.866 391.97 269.209C391.477 279.653 392.276 286.166 393.725 289.842C395.033 289.211 395.827 287.857 395.372 285.252C393.911 276.897 397.051 258.084 404.295 251.395C408.617 247.405 410.156 243.638 410.702 241.24C409.802 241.236 408.867 241.312 407.9 241.521Z" fill="#410071"/>
<path d="M407.898 272.522L389.367 283.831L390.808 346.613C390.808 346.613 404.735 351.039 422.984 345.276C421.783 310.459 421.783 310.459 421.783 310.459C421.783 310.459 426.345 305.436 425.865 293.781C425.385 282.126 421.409 274.833 421.409 274.833L414.379 272.45L407.898 272.522Z" fill="#E7792A"/>
<path d="M389.368 283.832C389.368 283.832 395.371 285.486 395.371 295.452C395.371 305.418 395.371 325.571 395.371 325.571H436.911V328.747C436.911 334.019 432.637 338.292 427.366 338.292H387.602C384.068 338.292 381.203 335.427 381.203 331.893V294.881C381.203 294.881 382.165 286.929 389.368 283.832Z" fill="#F7A89C"/>
<path d="M395.37 325.57H390.348" stroke="#983533" stroke-width="0.8741" stroke-miterlimit="10"/>
<path opacity="0.2" d="M409.589 276.745L409.496 272.505L407.899 272.522L389.368 283.832C382.165 286.93 381.203 294.881 381.203 294.881V331.893C381.203 333.055 381.518 334.142 382.059 335.081C387.423 325.479 385.663 297.426 387.018 293.782C388.667 289.347 409.589 276.745 409.589 276.745Z" fill="#34251E"/>
<path d="M419.574 244.114C419.574 244.114 426.579 251.171 423.952 265.766C416.363 266.934 416.363 266.934 416.363 266.934V283.832C416.363 283.832 407.898 282.509 407.898 274.576C407.898 266.642 407.898 255.599 407.898 255.599C407.898 255.599 417.239 251.651 419.574 244.114Z" fill="#F7A89C"/>
<path d="M419.31 253.981C419.31 253.981 416.541 253.808 414.465 254.846" stroke="#4D3529" stroke-width="1.0318" stroke-miterlimit="10"/>
<path d="M416.365 266.934L411.871 267.652C411.871 267.652 413.948 273.539 416.889 274.576C416.365 266.934 416.365 266.934 416.365 266.934Z" fill="#4D3529"/>
<path d="M406.505 263.153C408.798 263.153 410.658 261.293 410.658 259C410.658 256.706 408.798 254.847 406.505 254.847C404.211 254.847 402.352 256.706 402.352 259C402.352 261.293 404.211 263.153 406.505 263.153Z" fill="#F7A89C"/>
<path d="M419.31 250.519C419.31 250.519 416.242 249.983 414.465 251.394" stroke="#410071" stroke-width="1.0318" stroke-miterlimit="10" stroke-linecap="round"/>
<path d="M395.371 292.615L401.374 325.57H395.371V292.615Z" fill="#34251E"/>
<path opacity="0.41" d="M421.782 310.461C421.782 310.461 406.574 320.344 409.055 320.344C411.536 320.344 422.063 318.625 422.063 318.625L421.782 310.461Z" fill="white"/>
<path opacity="0.26" d="M412.692 241.386C411.994 247.125 411.146 260.526 417.263 266.797C418.192 266.654 420.082 266.363 423.955 265.767C426.582 251.173 419.577 244.115 419.577 244.115C419.577 244.115 416.736 241.978 412.692 241.386Z" fill="white"/>
<path d="M409.055 264.135C409.055 265.316 408.097 266.274 406.916 266.274C405.735 266.274 404.777 265.316 404.777 264.135C404.777 262.953 405.735 261.996 406.916 261.996C408.098 261.996 409.055 262.954 409.055 264.135Z" fill="#4D3529"/>
<path d="M430.055 484.972C430.055 485.625 429.525 486.155 428.872 486.155H410.64C409.987 486.155 409.457 485.625 409.457 484.972C409.457 484.319 409.987 483.789 410.64 483.789H428.872C429.526 483.789 430.055 484.319 430.055 484.972Z" fill="#FEC853"/>
<path opacity="0.49" d="M398.372 347.308C398.372 347.308 391.124 417.857 405.699 483.79" stroke="#4D3529" stroke-width="1.0318" stroke-miterlimit="10"/>
<path d="M424.231 257.159L422.332 257.634C422.332 257.634 424.173 258.839 424.231 257.159Z" fill="#4D3529"/>
<path d="M421.766 266.103C421.766 266.103 421.766 263.135 422.138 262.677C423.111 265.896 423.111 265.896 423.111 265.896L421.766 266.103Z" fill="#EF7D6E"/>
<path d="M421.409 274.835C422.871 272.279 424.542 269.21 424.542 269.21L422.125 263.613C421.999 263.32 422 262.988 422.13 262.696L422.139 262.677C422.453 261.97 423.363 261.773 423.941 262.285L432.099 269.512C433.016 270.324 433.684 271.379 434.027 272.554L447.183 317.67C448.344 321.653 446.204 325.851 442.299 327.25L442.149 327.304C437.887 328.831 433.22 326.443 431.966 322.093L420.513 282.371C419.782 279.841 420.102 277.121 421.409 274.835Z" fill="#F7A89C"/>
<path d="M447.473 320.369C446.043 319.279 444.263 318.625 442.326 318.625C438.19 318.625 434.746 321.575 433.977 325.485C436.049 327.538 439.195 328.362 442.149 327.303L442.299 327.249C445.32 326.167 447.276 323.407 447.473 320.369Z" fill="#EF7D6E"/>
<path opacity="0.41" d="M432.1 298.239C436.523 310.438 443.182 317.196 447.467 320.512C447.544 319.58 447.46 318.619 447.184 317.671L434.028 272.555C433.685 271.379 433.017 270.325 432.101 269.513C432.101 269.513 425.124 279 432.1 298.239Z" fill="white"/>
<path d="M377.134 402.445C377.134 402.445 368.692 419.039 355.09 415.106C358.547 401.375 377.134 402.445 377.134 402.445Z" fill="#870AE6"/>
<path d="M343.058 392.711C343.058 392.711 341.461 411.26 355.088 415.106C359.406 401.621 343.058 392.711 343.058 392.711Z" fill="#410071"/>
<path d="M370.28 427.561C370.28 427.561 358.912 442.306 346.273 435.923C352.212 423.069 370.28 427.561 370.28 427.561Z" fill="#870AE6"/>
<path d="M338.598 411.688C338.598 411.688 333.595 429.621 346.275 435.922C353.014 423.47 338.598 411.688 338.598 411.688Z" fill="#410071"/>
<path d="M359.674 450.035C359.674 450.035 345.987 462.656 334.602 454.237C342.62 442.567 359.674 450.035 359.674 450.035Z" fill="#870AE6"/>
<path d="M331.114 429.058C331.114 429.058 323.165 445.894 334.603 454.239C343.342 443.098 331.114 429.058 331.114 429.058Z" fill="#410071"/>
<path d="M310.723 478.365C310.723 478.365 352.228 447.436 359.709 395.022" stroke="#870AE6" stroke-width="2.0305" stroke-miterlimit="10" stroke-linecap="round"/>
<path d="M362.584 373.65C362.584 373.65 370.266 390.609 358.697 398.772C350.136 387.494 362.584 373.65 362.584 373.65Z" fill="#870AE6"/>
<path d="M273.008 496.383C273.008 496.383 283.278 403.416 323.802 395.022C364.326 386.628 328.581 449.605 317.35 468.689C306.119 487.773 328.125 472.157 341.379 462.01C351.922 453.938 355.355 501.175 273.008 496.383Z" fill="#870AE6"/>
<path d="M302.677 428.715C306.281 411.543 335.649 395.05 335.698 395.023C332.811 394.042 328.917 393.963 323.806 395.022C283.282 403.416 273.012 496.383 273.012 496.383C274.586 496.475 276.117 496.541 277.629 496.595C277.848 496.565 278.063 496.543 278.284 496.509C320.87 490.038 301.522 441.195 302.677 428.715Z" fill="#410071"/>
<path d="M338.22 396.271C338.22 396.271 309.406 416.554 294.719 476.386" stroke="#410071" stroke-width="1.0731" stroke-miterlimit="10"/>
<path d="M341.381 462.009C332.499 468.809 319.699 478.051 315.594 477.673C320.594 486.008 340.008 469.752 346.559 463.89C345.837 461.22 343.798 460.158 341.381 462.009Z" fill="#410071"/>
<path d="M336.86 430.332C336.86 430.332 323.671 428.73 309.926 434.018" stroke="#410071" stroke-width="1.0731" stroke-miterlimit="10"/>
<path d="M161.941 376.848C161.941 376.848 168.957 397.627 185.481 395.358C183.789 378.765 161.941 376.848 161.941 376.848Z" fill="#870AE6"/>
<path d="M203.315 371.302C203.315 371.302 202.019 393.196 185.481 395.358C182.744 378.905 203.315 371.302 203.315 371.302Z" fill="#410071"/>
<path d="M165.652 407.289C165.652 407.289 176.393 426.41 192.212 421.121C187.477 405.128 165.652 407.289 165.652 407.289Z" fill="#870AE6"/>
<path d="M205.286 394.181C205.286 394.181 208.065 415.936 192.213 421.123C186.477 405.46 205.286 394.181 205.286 394.181Z" fill="#410071"/>
<path d="M174.191 435.292C174.191 435.292 187.997 452.333 202.7 444.457C195.341 429.489 174.191 435.292 174.191 435.292Z" fill="#870AE6"/>
<path d="M211.053 415.7C211.053 415.7 217.454 436.677 202.701 444.458C194.411 429.984 211.053 415.7 211.053 415.7Z" fill="#410071"/>
<path d="M226.428 476.645C226.428 476.645 183.313 433.53 183.512 371.162" stroke="#870AE6" stroke-width="2.3918" stroke-miterlimit="10" stroke-linecap="round"/>
<path d="M183.801 345.76C183.801 345.76 171.96 364.221 184.057 375.705C195.955 364.016 183.801 345.76 183.801 345.76Z" fill="#870AE6"/>
<path d="M258.191 501.105C297.868 501.105 330.034 499.31 330.034 497.096C330.034 494.882 297.868 493.087 258.191 493.087C218.513 493.087 186.348 494.882 186.348 497.096C186.348 499.31 218.513 501.105 258.191 501.105Z" fill="#C69A42"/>
<path d="M147.91 253.91C176.669 220.633 213.642 200.914 254.726 200.914C309.366 200.914 352.502 229.672 352.502 285.133C352.502 338.541 287.179 351.687 287.179 376.337V398.932H211.178L210.766 366.066C210.766 328.27 276.086 306.907 276.086 284.312C276.086 268.701 260.064 265.003 245.685 265.003C228.021 265.003 206.248 282.258 192.278 298.691L147.91 253.91ZM246.919 409.2C276.087 409.2 295.808 429.333 295.808 452.748C295.808 475.756 276.911 495.065 246.919 495.065C220.217 495.065 200.087 474.111 200.087 452.748C200.086 432.208 217.341 409.2 246.919 409.2Z" fill="#410071"/>
<path d="M157.395 253.91C186.154 220.633 223.127 200.914 264.211 200.914C318.851 200.914 361.987 229.672 361.987 285.133C361.987 338.541 296.664 351.687 296.664 376.337V398.932H220.663L220.251 366.066C220.251 328.27 285.571 306.907 285.571 284.312C285.571 268.701 269.549 265.003 255.17 265.003C237.506 265.003 215.733 282.258 201.763 298.691L157.395 253.91ZM256.403 409.2C285.571 409.2 305.292 429.333 305.292 452.748C305.292 475.756 286.395 495.065 256.403 495.065C229.701 495.065 209.571 474.111 209.571 452.748C209.571 432.208 226.826 409.2 256.403 409.2Z" fill="white"/>
<path d="M192.279 298.691H201.762L192.109 288.949L192.279 298.691Z" fill="#AD843B"/>
<path opacity="0.66" d="M230.3 273.601L223.695 223.072L235.828 202.33C225.677 203.864 215.839 206.63 206.378 210.513C200.949 219.995 194.227 234.454 196.937 244.194C201.276 259.787 214.616 281.886 214.616 281.886L230.3 273.601Z" fill="#C69A42"/>
<path opacity="0.66" d="M305.292 288.949C305.292 288.949 301.986 301.125 294.555 296.016C287.124 290.907 275.581 279.808 275.581 279.808L287.867 233.819L254.922 213.759L261.384 200.915L311.518 230.818L305.292 288.949Z" fill="#C69A42"/>
<path d="M262.16 194.943V213.758L274.927 215.929L298.966 229.263L280.563 277.146L304.972 292.219C307.883 294.017 311.6 291.856 311.52 288.435C311.448 285.352 311.02 281.603 309.778 277.752L326.185 235.439C329.955 225.718 325.799 214.717 316.543 209.916L284.169 193.124L262.16 194.943Z" fill="#E7792A"/>
<path d="M280.559 277.146L304.968 292.219C307.879 294.017 311.596 291.856 311.516 288.436C311.444 285.352 311.016 281.604 309.774 277.753C309.774 277.753 296.461 274.959 285.56 264.135L280.559 277.146Z" fill="#410071"/>
<path d="M262.158 213.758H254.923L235.224 237.143L242.194 284.419L217.11 295.681C214.68 296.772 211.937 295.067 211.801 292.407C211.62 288.841 211.917 284.058 214.009 279.873L208.208 235.229C207.471 229.556 209.409 223.863 213.454 219.818L240.147 193.124L262.157 194.942V213.758H262.158Z" fill="#E7792A"/>
<path d="M242.195 284.42L239.738 267.757C226.978 281.702 214.011 279.874 214.011 279.874C211.919 284.059 211.621 288.843 211.803 292.408C211.938 295.068 214.682 296.772 217.112 295.681L242.195 284.42Z" fill="#410071"/>
<path opacity="0.22" d="M318.735 211.256C316.218 213.926 314.664 217.514 314.664 221.473C314.664 228.471 319.491 234.326 325.993 235.932L326.184 235.439C329.64 226.528 326.422 216.557 318.735 211.256Z" fill="#ECEDEE"/>
<path opacity="0.22" d="M221.175 228.086C221.175 223.739 218.989 219.905 215.66 217.613L213.454 219.819C209.409 223.864 207.471 229.557 208.208 235.23L208.928 240.773C215.731 240.526 221.175 234.949 221.175 228.086Z" fill="#ECEDEE"/>
<path d="M284.166 193.125L264.61 194.741C262.877 201.194 262.367 209.435 262.219 213.769L274.924 215.93L289.904 224.239C293.184 213.758 297.768 206.411 301.194 201.957L284.166 193.125Z" fill="#34251E"/>
<path d="M310.726 281.401C310.48 280.206 310.174 278.986 309.775 277.753C309.775 277.753 303.496 276.435 296.031 272.103C297.103 275.121 300.442 279.687 310.726 281.401Z" fill="#34251E"/>
<path d="M227.581 277.003C219.869 280.692 214.012 279.874 214.012 279.874C213.275 281.348 212.771 282.895 212.422 284.438C217.007 284.138 224.028 282.693 227.581 277.003Z" fill="#34251E"/>
<path opacity="0.22" d="M240.147 193.125L213.454 219.819C209.409 223.864 207.471 229.557 208.208 235.23L208.309 236.005C230.017 232.663 247.693 205.596 254.201 194.286L240.147 193.125Z" fill="#ECEDEE"/>
<path d="M240.15 124.029C240.15 124.029 232.575 127.211 228.484 136.757C224.393 146.303 218.117 166.578 218.117 166.578L240.15 158.122V124.029Z" fill="#D18E86"/>
<path d="M262.158 115.392L240.148 124.029V193.125C240.148 193.125 247.801 194.943 262.158 194.943C276.515 194.943 284.168 193.125 284.168 193.125V124.029L262.158 115.392Z" fill="#410071"/>
<path d="M240.147 124.029C240.147 124.029 232.572 127.211 228.481 136.757C227.243 139.646 225.805 143.518 224.402 147.513C228.581 148.453 235.137 150.415 240.148 154.142V124.029H240.147Z" fill="#410071"/>
<path d="M264.087 129.055L240.148 178.124V157.954L264.087 129.055Z" fill="#410071"/>
<path d="M276.875 142.905C276.875 142.905 278.219 172.892 276.875 179.713C275.531 186.534 271.484 195.374 271.484 204.44C271.484 213.506 284.168 186.29 284.168 186.29V158.956L276.875 142.905Z" fill="#410071"/>
<path d="M284.169 124.029L284.28 124.079C291.145 127.161 295.954 133.544 297.022 140.993L302.045 176.955C302.679 181.497 301.531 186.108 298.84 189.822L286.896 206.308V222.201C286.896 224.253 284.959 225.742 282.973 225.225C278.407 224.037 271.484 221.557 271.484 217.444V204.439C271.484 200.903 272.454 197.435 274.287 194.412L284.168 178.123L277.122 145.393C277.124 145.394 274.396 127.211 284.169 124.029Z" fill="#F7A89C"/>
<path d="M298.964 154.899L297.022 140.993C295.953 133.544 291.145 127.161 284.28 124.079L284.169 124.029C274.396 127.211 277.123 145.394 277.123 145.394L279.62 156.994C283.588 155.55 290.519 153.804 298.964 154.899Z" fill="#870AE6"/>
<path d="M295.531 182.215C295.531 185.144 296.958 187.734 299.148 189.348C301.605 185.718 302.651 181.309 302.043 176.955L301.603 173.807C298.077 174.977 295.531 178.296 295.531 182.215Z" fill="#EF7D6E"/>
<path d="M284.168 178.124L287.869 172.364" stroke="#983533" stroke-width="0.9092" stroke-miterlimit="10"/>
<path d="M262.209 122.494H262.104C259.227 122.494 256.895 120.162 256.895 117.285V108.623H267.417V117.285C267.417 120.162 265.085 122.494 262.209 122.494Z" fill="#F7A89C"/>
<path d="M269.694 101.374C269.694 101.374 271.02 99.8528 271.02 97.0118C271.02 94.1708 271.606 88.3248 267.416 85.8898C263.226 83.4548 254.864 79.7198 256.163 82.8048C257.462 85.8898 256.488 85.4838 253.646 85.4028C250.804 85.3218 251.374 95.1268 253.646 98.9608C255.919 102.794 269.694 101.374 269.694 101.374Z" fill="#410071"/>
<path d="M256.893 101.761C256.893 103.308 255.766 104.562 254.376 104.562C252.986 104.562 251.859 103.308 251.859 101.761C251.859 100.214 252.986 98.96 254.376 98.96C255.766 98.96 256.893 100.214 256.893 101.761Z" fill="#F7A89C"/>
<path d="M267.414 101.761C267.414 103.308 268.541 104.562 269.931 104.562C271.321 104.562 272.448 103.308 272.448 101.761C272.448 100.214 271.321 98.96 269.931 98.96C268.541 98.96 267.414 100.214 267.414 101.761Z" fill="#F7A89C"/>
<path d="M262.231 113.117H262.08C257.958 113.117 254.617 109.776 254.617 105.654V95.0579C254.617 92.0609 257.047 89.6309 260.044 89.6309H264.268C267.265 89.6309 269.695 92.0609 269.695 95.0579V105.654C269.694 109.775 266.352 113.117 262.231 113.117Z" fill="#F7A89C"/>
<path d="M256.895 108.623V117.285C256.895 117.43 256.905 117.571 256.917 117.713C263.75 117.676 267.418 111.013 267.418 111.013L261.603 108.622L256.895 108.623Z" fill="#983533"/>
<path d="M259.331 98.554C259.331 99.137 259.077 99.609 258.763 99.609C258.449 99.609 258.195 99.136 258.195 98.554C258.195 97.971 258.449 97.499 258.763 97.499C259.076 97.499 259.331 97.971 259.331 98.554Z" fill="#410071"/>
<path d="M260.224 95.0629C260.224 95.0629 258.357 94.1699 256.895 95.0629" stroke="#410071" stroke-width="0.9092" stroke-miterlimit="10" stroke-linecap="round"/>
<path d="M265.548 99.609C265.862 99.609 266.116 99.1367 266.116 98.554C266.116 97.9714 265.862 97.499 265.548 97.499C265.235 97.499 264.98 97.9714 264.98 98.554C264.98 99.1367 265.235 99.609 265.548 99.609Z" fill="#410071"/>
<path d="M264.086 95.0629C264.086 95.0629 265.953 94.1699 267.414 95.0629" stroke="#410071" stroke-width="0.9092" stroke-miterlimit="10" stroke-linecap="round"/>
<path d="M265.55 104.318C262.156 103.79 263.52 103.79 262.156 103.79C260.792 103.79 262.156 103.79 258.762 104.318C255.368 104.846 254.617 98.96 254.617 98.96V105.653C254.617 109.775 257.958 113.116 262.08 113.116H262.155H262.23C266.352 113.116 269.693 109.775 269.693 105.653V98.96C269.695 98.96 268.944 104.846 265.55 104.318Z" fill="#410071"/>
<path d="M218.759 165.52L259.178 109.44C259.687 108.734 260.695 108.626 261.342 109.206L261.362 109.224C261.835 109.649 261.98 110.331 261.72 110.911L259.193 116.555L261.535 118.619C265.055 121.721 265.749 126.942 263.163 130.857L233.514 175.728C230.589 180.154 224.462 181.046 220.397 177.637L220.256 177.519C216.692 174.527 216.039 169.294 218.759 165.52Z" fill="#F7A89C"/>
<path d="M219.959 167.668C219.119 167.668 218.307 167.779 217.525 167.968C216.433 171.327 217.418 175.134 220.259 177.517L220.4 177.635C223.28 180.05 227.19 180.297 230.268 178.668C230.282 178.449 230.301 178.232 230.301 178.01C230.301 172.298 225.671 167.668 219.959 167.668Z" fill="#EF7D6E"/>
<path d="M276.773 223.072V211.256" stroke="#983533" stroke-width="0.9092" stroke-miterlimit="10"/>
<path opacity="0.41" d="M298.841 189.821C301.532 186.107 302.68 181.496 302.046 176.954L297.023 140.992C296.257 135.656 293.565 130.874 289.58 127.454C288.592 131.855 286.979 143.158 290.16 162.457C294.381 188.065 286.898 206.308 286.898 206.308L298.841 189.821Z" fill="white"/>
<path opacity="0.41" d="M272.449 101.761C272.449 100.533 271.734 99.5009 270.746 99.1229C270.903 98.5279 271.019 97.8319 271.019 97.0119C271.019 94.1709 271.605 88.3249 267.415 85.8899C267.363 85.8599 267.307 85.8279 267.254 85.7979C267.092 87.2839 266.769 88.9719 266.116 89.9619C265.288 92.2469 262.177 107.234 266.09 112.032C268.247 110.724 269.692 108.361 269.692 105.654V104.536C269.772 104.545 269.849 104.563 269.931 104.563C271.322 104.562 272.449 103.308 272.449 101.761Z" fill="white"/>
<path opacity="0.41" d="M261.536 118.618C261.536 118.618 234.432 153.345 235.737 172.364L263.164 130.856C265.75 126.942 265.056 121.72 261.536 118.618Z" fill="white"/>
<path d="M265.203 155.167C261.835 162.475 247.532 175.804 240.148 182.39V193.125C265.054 186.102 269.793 145.207 265.203 155.167Z" fill="#870AE6"/>
<path opacity="0.41" d="M232.274 274.288L227.578 235.933L254.922 206.288H264.979" stroke="#34251E" stroke-miterlimit="10"/>
<path opacity="0.41" d="M289.422 214.563L306.762 225.328L290.956 268.762" stroke="#34251E" stroke-miterlimit="10"/>
<defs>
<filter id="filter0_b_891_3260" x="-255.2" y="-263.2" width="1032.4" height="1097.4" filterUnits="userSpaceOnUse" color-interpolation-filters="sRGB">
<feFlood flood-opacity="0" result="BackgroundImageFix"/>
<feGaussianBlur in="BackgroundImageFix" stdDeviation="131.6"/>
<feComposite in2="SourceAlpha" operator="in" result="effect1_backgroundBlur_891_3260"/>
<feBlend mode="normal" in="SourceGraphic" in2="effect1_backgroundBlur_891_3260" result="shape"/>
</filter>
<linearGradient id="paint0_linear_891_3260" x1="261" y1="75.5" x2="261" y2="582.5" gradientUnits="userSpaceOnUse">
<stop stop-color="#FCC51F"/>
<stop offset="1" stop-color="white"/>
</linearGradient>
</defs>
</svg>
