<svg width="62" height="60" viewBox="0 0 62 60" fill="none" xmlns="http://www.w3.org/2000/svg">
<path d="M51.3547 12.4108C51.2541 12.047 51.3238 11.6755 51.5173 11.3736C51.1922 11.2188 50.9523 10.9247 50.8516 10.5687L50.8284 10.499C35.9754 16.8381 33.8392 31.2731 33.3516 33.0378C34.0172 31.0254 36.8887 17.9604 51.378 12.4959L51.3547 12.4108Z" fill="#870AE6"/>
<path d="M57.7264 14.6626C58.361 14.4769 58.6397 14.3995 58.7093 14.0125C58.8022 13.4552 58.8719 12.8902 58.957 12.3252C58.9673 12.2633 58.9777 12.2013 58.988 12.1394C59.0138 11.9382 59.0422 11.7369 59.0731 11.5357C59.1041 11.3112 59.1505 11.079 59.2434 10.8701C59.4446 10.4521 59.8394 10.2741 60.2341 10.1038C60.2496 10.0986 60.2651 10.0909 60.2806 10.0806C60.3373 10.0599 60.3941 10.0367 60.4508 10.0109C60.9075 9.80195 61.3564 9.55427 61.6815 9.18275C61.7898 9.05891 61.8982 8.92733 61.9679 8.77253C62.0453 8.60225 61.9833 8.37779 61.8285 8.27717C61.697 8.17655 61.5344 8.11463 61.3796 8.06819C60.9075 7.92113 60.3967 7.93661 59.8936 7.99079C59.8316 7.99595 59.7723 8.00111 59.7155 8.00627C59.6949 8.01143 59.6768 8.01401 59.6614 8.01401C59.2357 8.06819 58.8022 8.12237 58.423 7.85922C58.2295 7.73538 58.0747 7.55736 57.9276 7.37934C57.8038 7.21938 57.6773 7.062 57.5483 6.9072C57.5071 6.8556 57.4658 6.80658 57.4245 6.76014C57.0685 6.31896 56.7202 5.87004 56.3486 5.4366C56.101 5.13474 55.8223 5.21214 55.1722 5.37468C54.4059 5.56818 54.6149 5.91648 54.6459 5.99388C54.7078 6.12546 54.7697 6.2493 54.8316 6.38088C54.9555 6.6492 55.0793 6.91752 55.2031 7.18584C55.327 7.44384 55.4482 7.70183 55.5669 7.95983C55.6366 8.09915 55.6985 8.23073 55.7604 8.36231C55.7656 8.37779 55.7707 8.39327 55.7759 8.40875C56.0081 9.08213 55.0096 9.56201 54.2511 9.82517C53.8873 9.94901 53.5777 10.0187 53.5003 10.0264C52.6799 10.127 52.1071 8.78027 51.9446 8.57129C51.8982 8.51711 51.8517 8.44745 51.7743 8.42423C51.6737 8.39327 51.5421 8.45519 51.4415 8.47841C51.3125 8.51453 51.1861 8.55065 51.0622 8.58677C50.9926 8.60999 50.9074 8.64095 50.8842 8.71835C50.8687 8.75705 50.892 8.84993 50.892 8.84993L51.3331 10.4366C51.426 10.7927 51.7666 11.0326 52.1381 11.0094C52.1433 11.0094 52.151 11.0094 52.1613 11.0094C52.3703 10.9939 52.4477 11.2725 52.2619 11.3654C52.2516 11.3706 52.2439 11.3732 52.2387 11.3732C51.9059 11.5434 51.7356 11.9227 51.8362 12.2787L52.2697 13.8654C52.2697 13.8654 52.3006 13.9583 52.3316 13.9893C52.3935 14.0357 52.4787 14.0202 52.5483 14.0048C52.6773 13.9738 52.8037 13.9403 52.9276 13.9041C53.0282 13.8809 53.1753 13.8654 53.2449 13.7803C53.2991 13.7261 53.3068 13.641 53.3223 13.5713C53.3533 13.3082 53.152 11.8608 53.9106 11.528C53.988 11.4893 54.2898 11.3964 54.6613 11.3112C55.4431 11.1487 56.5499 11.0558 56.6969 11.7447C56.6969 11.7653 56.6995 11.7834 56.7047 11.7989C56.7202 11.9459 56.7279 12.093 56.7434 12.24C56.7743 12.5238 56.8027 12.8102 56.8285 13.0992C56.8595 13.3933 56.8904 13.6874 56.9214 13.9815C56.9291 14.1209 56.9446 14.2602 56.9601 14.4072C56.9678 14.4924 56.9678 14.8871 57.7264 14.6626Z" fill="#870AE6"/>
<path d="M39.3269 6.94632C39.5436 6.9231 39.7371 6.807 39.8532 6.63672C40.008 6.77604 40.2247 6.8457 40.4414 6.82248L40.4801 6.81474C40.3021 16.2498 32.9569 20.5764 32.1055 21.2188C33.0497 20.4216 39.4971 16.0021 39.2804 6.95406L39.3269 6.94632Z" fill="#F7C607"/>
<path d="M36.7116 3.99743C36.6729 3.61043 36.6575 3.44015 36.851 3.32405C37.1296 3.14603 37.4237 2.98349 37.7101 2.81321C37.741 2.79773 37.772 2.77967 37.803 2.75903C37.9062 2.70227 38.0094 2.64293 38.1126 2.58101C38.2287 2.51135 38.3448 2.44169 38.4376 2.34107C38.6157 2.13983 38.6234 1.89216 38.6311 1.63674C38.6311 1.62642 38.6311 1.6161 38.6311 1.60578C38.6311 1.56966 38.6337 1.53354 38.6389 1.49742C38.6466 1.2033 38.6853 0.90918 38.8169 0.653761C38.8556 0.568621 38.9098 0.475741 38.9717 0.406081C39.0491 0.328681 39.1807 0.313202 39.2736 0.375122C39.351 0.429301 39.4206 0.498961 39.4825 0.568621C39.6683 0.79308 39.7767 1.07172 39.8541 1.3581C39.8644 1.39422 39.8721 1.42776 39.8773 1.45872C39.8824 1.46904 39.885 1.47936 39.885 1.48968C39.9547 1.73736 40.0243 1.9773 40.2411 2.1321C40.3572 2.20176 40.4887 2.2482 40.6126 2.2869C40.7261 2.32302 40.8396 2.35913 40.9531 2.39525C40.9893 2.40557 41.0254 2.41589 41.0615 2.42621C41.3788 2.51909 41.6962 2.61197 42.0135 2.72033C42.2302 2.78999 42.2457 2.95253 42.2999 3.33953C42.3618 3.79619 42.1296 3.76523 42.0832 3.76523C42.0006 3.76007 41.9181 3.75491 41.8355 3.74975C41.6601 3.73943 41.4872 3.72911 41.3169 3.71879C41.1518 3.71363 40.9841 3.70589 40.8138 3.69557C40.7287 3.68783 40.6435 3.68009 40.5584 3.68009C40.5481 3.68009 40.5378 3.68009 40.5274 3.68009C40.1172 3.70331 40.0708 4.34573 40.094 4.81786C40.1095 5.04232 40.1404 5.22035 40.1559 5.26678C40.2798 5.73892 41.1312 5.74666 41.2782 5.7931C41.3169 5.80084 41.3711 5.81632 41.3943 5.84728C41.433 5.90146 41.433 5.9866 41.4408 6.04852C41.4511 6.12076 41.4588 6.19558 41.464 6.27298C41.464 6.31168 41.4717 6.36586 41.433 6.39682C41.4175 6.4123 41.3634 6.42004 41.3634 6.42004L40.4036 6.53614C40.1869 6.55936 39.9856 6.42778 39.916 6.2188C39.916 6.21364 39.916 6.21106 39.916 6.21106C39.8773 6.09496 39.707 6.11044 39.6993 6.23428C39.6993 6.23944 39.6993 6.24202 39.6993 6.24202C39.676 6.45874 39.5135 6.63676 39.2968 6.65998L38.337 6.77608C38.337 6.77608 38.2829 6.78382 38.2596 6.76834C38.2209 6.74512 38.2132 6.69868 38.2054 6.65224C38.1951 6.58 38.1848 6.50518 38.1745 6.42778C38.1667 6.36586 38.1435 6.28846 38.1745 6.22654C38.19 6.18784 38.2364 6.16462 38.2751 6.1414C38.4067 6.07174 39.2349 5.85502 39.2503 5.37514C39.2503 5.3287 39.2349 5.14295 39.1962 4.91849C39.1188 4.46183 38.9253 3.84263 38.515 3.91229C38.5099 3.91745 38.5022 3.92003 38.4918 3.92003C38.4067 3.94325 38.3215 3.97421 38.2364 3.99743C38.0765 4.04387 37.9165 4.09031 37.7565 4.13675C37.5914 4.18835 37.4263 4.23737 37.2612 4.28381C37.1786 4.30961 37.0986 4.33283 37.0212 4.35347C36.9748 4.36895 36.7581 4.45409 36.7116 3.99743Z" fill="#F7C607"/>
<path d="M39.3739 16.6914C39.3327 16.7224 39.294 16.7533 39.2578 16.7843C31.8739 22.5041 27.9188 28.8277 20.4575 30.6001C20.4213 30.6105 20.3826 30.6208 20.3414 30.6311C20.1711 30.6775 20.0627 30.8556 20.1014 31.0258C20.5039 32.5816 22.137 39.7797 19.9776 46.4671C19.9466 46.5445 20.0705 46.5909 20.1092 46.5135L22.0596 42.4655L24.8228 36.7457C24.9389 36.5135 24.877 36.2426 24.6757 36.0955C24.4513 35.933 24.2655 35.7395 24.103 35.5228C23.4838 34.6946 23.3445 33.5568 23.8476 32.5351C24.3042 31.6218 25.1788 31.0258 26.1309 30.8788C26.6959 30.7859 27.2841 30.8478 27.8336 31.0955C28.0426 31.1884 28.2284 31.3045 28.4064 31.4438C29.4436 32.241 29.8073 33.6806 29.2036 34.9345C28.5844 36.2039 27.1757 36.8773 25.8522 36.6141C25.78 36.5986 25.7103 36.5986 25.6432 36.6141C25.473 36.6451 25.3104 36.7612 25.233 36.9237L21.7113 44.1993L20.5116 46.6915C20.4729 46.7689 20.589 46.8309 20.6355 46.7535C20.9038 46.3458 21.1876 45.9511 21.4869 45.5692C21.9822 44.9268 22.5085 44.3076 23.0503 43.7271C26.8894 39.6482 31.6262 37.2256 32.8569 36.6451C33.0194 36.5677 33.0891 36.3742 33.0117 36.2194C32.9962 36.1832 32.9807 36.1471 32.9653 36.111C29.6758 28.5181 37.9498 18.3632 39.2811 16.7998C39.3172 16.7585 39.3481 16.7224 39.3739 16.6914Z" fill="#F7C607"/>
<path d="M15.5341 53.0455C15.5341 53.0455 18.158 33.0299 9.81429 19.276C9.81429 19.276 19.7137 14.4772 31.8732 22.3487C24.9459 16.6831 12.8561 9.72483 0 15.8007C0 15.8007 14.3963 32.5268 11.6874 59.6631C11.6874 59.6631 25.898 48.5098 35.0853 50.1971C35.0853 50.1971 28.6921 46.9928 15.5341 53.0455Z" fill="#870AE6"/>
<path d="M46.1999 50.5921C46.1999 50.5921 46.316 35.5842 53.8625 26.3118C53.8625 26.3118 47.0668 21.7684 37.3067 26.3272C37.3067 26.3272 37.3067 26.3247 37.3067 26.3195C42.9878 22.8597 52.6008 18.9665 61.4476 24.756C61.4476 24.756 49.1411 35.5997 48.3593 55.863C48.3593 55.863 39.0327 46.1958 32.0977 46.4976C32.0977 46.4976 37.1286 44.7948 46.1999 50.5921Z" fill="#F7C607"/>
<path d="M22.2852 46.9385C22.7031 45.9245 23.2139 44.9261 23.8254 44.3997C24.4988 43.8192 25.0793 44.1366 25.7294 44.4462C27.409 45.2589 28.957 43.2233 30.3502 41.3192C30.892 40.5839 31.5731 39.8796 32.1923 40.3904C32.7496 40.8394 32.9431 41.9694 33.3378 42.7666C33.779 43.6722 34.553 43.4168 35.1103 42.875C35.6676 42.3409 36.1474 41.5282 36.6583 40.8394C37.2852 39.9957 38.2605 39.0514 38.7713 40.4988C39.0035 41.1567 39.019 42.0391 39.228 42.7202C39.3286 43.053 39.4834 43.2697 39.6846 43.2775C39.8626 43.2775 40.0484 43.1149 40.1258 42.7511C40.0484 43.4864 39.5608 43.6335 39.2976 43.3471C38.9416 42.9601 38.8332 42.1242 38.6552 41.4508C38.5391 41.0019 38.3688 40.5994 38.0979 40.5839C37.6645 40.553 37.2465 41.2341 36.9214 41.7527C36.31 42.7124 35.7295 43.8115 35.0019 44.3765C34.3053 44.9261 33.4849 44.9725 32.9121 44.0592C32.7419 43.7883 32.6025 43.4323 32.471 43.0762C32.2929 42.5731 32.1304 42.0004 31.8285 41.7604C31.8285 41.7656 31.8311 41.7682 31.8363 41.7682C31.5499 41.6366 31.2635 41.892 31.0004 42.2016C30.6753 42.5809 30.3657 43.0375 30.0406 43.4477C29.375 44.2759 28.6784 45.0112 27.9276 45.4292C27.2465 45.8084 26.5267 45.909 25.8533 45.5685C25.2031 45.2279 24.6381 44.5236 23.9183 44.9415C23.2759 45.3208 22.827 46.0638 22.2852 46.9385Z" fill="#870AE6"/>
</svg>
