<svg width="745" height="678" viewBox="0 0 745 678" fill="none" xmlns="http://www.w3.org/2000/svg">
<path opacity="0.8" d="M459.133 341.612C461.667 327.397 473.906 316.605 488.656 316.605C492.81 316.605 496.766 317.462 500.365 319.009C504.928 308.092 515.593 300.434 528.023 300.434C531.408 300.434 534.65 301.029 537.686 302.076C541.288 289.355 552.824 280.038 566.527 280.038C581.719 280.038 594.243 291.489 596.243 306.337C598.245 305.911 600.318 305.68 602.445 305.68C614.347 305.68 624.601 312.719 629.459 322.9C631.096 322.62 632.768 322.441 634.484 322.441C647.135 322.441 657.938 330.385 662.359 341.613H459.133V341.612Z" fill="url(#paint0_linear_433_1281)"/>
<path opacity="0.8" d="M0 210C2.58076 195.455 15.048 184.414 30.0705 184.414C34.3019 184.414 38.3319 185.291 41.9972 186.873C46.6454 175.705 57.5082 167.868 70.1678 167.868C73.616 167.868 76.9189 168.476 80.0106 169.548C83.68 156.533 95.4292 147 109.387 147C124.861 147 137.618 158.716 139.656 173.908C141.695 173.472 143.806 173.235 145.973 173.235C158.096 173.235 168.54 180.437 173.489 190.854C175.157 190.567 176.858 190.384 178.607 190.384C191.492 190.384 202.495 198.512 207 210H0Z" fill="url(#paint1_linear_433_1281)"/>
<path opacity="0.8" d="M241.52 455.744C243.795 442.979 254.786 433.289 268.03 433.289C271.761 433.289 275.314 434.058 278.545 435.447C282.643 425.645 292.219 418.767 303.38 418.767C306.42 418.767 309.331 419.301 312.058 420.242C315.292 408.819 325.651 400.452 337.956 400.452C351.598 400.452 362.844 410.735 364.641 424.068C366.439 423.685 368.3 423.477 370.21 423.477C380.898 423.477 390.105 429.799 394.468 438.941C395.939 438.689 397.44 438.528 398.98 438.528C410.34 438.528 420.04 445.662 424.012 455.744H241.52Z" fill="url(#paint2_linear_433_1281)"/>
<path d="M72.9823 267.903C73.4465 280.513 73.9115 293.124 74.3757 305.734C74.4106 306.715 75.4293 307.476 76.6524 307.419C85.1522 307.022 93.5997 306.148 101.958 304.807C101.957 304.802 101.956 304.797 101.956 304.792C101.531 302.052 103.858 299.414 107.134 298.794C107.148 298.792 107.162 298.789 107.175 298.787C107.303 298.763 107.429 298.744 107.555 298.727C110.671 298.317 113.564 299.901 114.139 302.492C114.139 302.497 114.141 302.502 114.141 302.507C137.371 297.459 159.737 288.763 180.387 276.672C181.442 276.055 181.882 274.861 181.376 274.02C174.894 263.193 168.413 252.367 161.93 241.54C161.424 240.698 160.321 240.431 159.462 240.935C142.606 250.805 124.348 257.905 105.387 262.029C105.965 264.721 104.173 267.396 101.351 267.929C98.5285 268.463 95.8815 266.626 95.4369 263.91C88.596 265.01 81.6815 265.726 74.7242 266.051C73.7274 266.097 72.9481 266.922 72.9823 267.903Z" fill="white"/>
<path d="M72.9806 267.903C73.0504 269.791 73.1196 271.68 73.1894 273.568C105.54 272.376 137.065 263.032 164.84 246.403C163.869 244.782 162.899 243.161 161.928 241.54C161.422 240.698 160.319 240.431 159.46 240.935C142.604 250.805 124.346 257.905 105.384 262.029C105.962 264.721 104.171 267.396 101.348 267.929C98.5261 268.463 95.879 266.626 95.4344 263.91C88.5935 265.01 81.6791 265.726 74.7218 266.051C73.7257 266.097 72.9464 266.922 72.9806 267.903Z" fill="url(#paint3_linear_433_1281)"/>
<path d="M106.861 297.351C106.952 297.832 107.043 298.314 107.134 298.795C110.41 298.178 113.536 299.786 114.139 302.493C114.139 302.498 114.141 302.503 114.141 302.508C137.371 297.46 159.737 288.764 180.387 276.673C181.442 276.056 181.882 274.862 181.376 274.021C180.567 272.669 179.759 271.319 178.95 269.968C156.649 283.319 132.233 292.561 106.861 297.351Z" fill="url(#paint4_linear_433_1281)"/>
<path d="M146.01 262.145C151.502 259.715 156.892 257.033 162.16 254.1C161.909 253.649 161.658 253.198 161.407 252.747C156.18 255.656 150.833 258.318 145.383 260.728C145.592 261.201 145.801 261.673 146.01 262.145Z" fill="url(#paint5_linear_433_1281)"/>
<path d="M149.451 269.925C155.18 267.391 160.801 264.592 166.297 261.534C166.046 261.083 165.795 260.632 165.544 260.181C160.09 263.216 154.51 265.993 148.824 268.508C149.033 268.981 149.242 269.452 149.451 269.925Z" fill="url(#paint6_linear_433_1281)"/>
<path d="M152.888 277.704C158.854 275.065 164.707 272.151 170.43 268.967C170.179 268.515 169.928 268.064 169.677 267.613C163.996 270.775 158.184 273.668 152.261 276.287C152.47 276.759 152.679 277.231 152.888 277.704Z" fill="url(#paint7_linear_433_1281)"/>
<path d="M127.737 269.166C131.302 267.995 134.833 266.724 138.328 265.351C138.14 264.87 137.951 264.389 137.762 263.909C134.294 265.271 130.79 266.534 127.254 267.695C127.415 268.185 127.576 268.676 127.737 269.166Z" fill="url(#paint8_linear_433_1281)"/>
<path d="M130.39 277.248C134.108 276.027 137.792 274.699 141.438 273.268C141.249 272.787 141.06 272.307 140.871 271.826C137.254 273.247 133.597 274.564 129.907 275.776C130.068 276.267 130.229 276.757 130.39 277.248Z" fill="url(#paint9_linear_433_1281)"/>
<path d="M133.043 285.33C136.915 284.059 140.751 282.677 144.547 281.185C144.358 280.705 144.169 280.225 143.981 279.744C140.213 281.224 136.404 282.596 132.56 283.858C132.721 284.349 132.883 284.84 133.043 285.33Z" fill="url(#paint10_linear_433_1281)"/>
<path d="M111.369 273.77C115.022 272.91 118.65 271.947 122.246 270.881C122.099 270.386 121.953 269.891 121.806 269.396C118.238 270.454 114.639 271.41 111.014 272.263C111.133 272.765 111.251 273.268 111.369 273.77Z" fill="url(#paint11_linear_433_1281)"/>
<path d="M113.319 282.051C117.129 281.154 120.912 280.149 124.664 279.037C124.517 278.542 124.371 278.047 124.224 277.552C120.501 278.656 116.746 279.653 112.963 280.543C113.081 281.046 113.2 281.549 113.319 282.051Z" fill="url(#paint12_linear_433_1281)"/>
<path d="M115.268 290.33C119.236 289.396 123.175 288.35 127.082 287.192C126.935 286.698 126.789 286.203 126.642 285.708C122.764 286.858 118.852 287.897 114.914 288.824C115.031 289.326 115.149 289.828 115.268 290.33Z" fill="url(#paint13_linear_433_1281)"/>
<path d="M93.2382 276.844C95.4916 276.532 97.7385 276.18 99.9766 275.789C99.8878 275.281 99.799 274.772 99.7109 274.264C97.4896 274.651 95.261 275 93.025 275.31C93.0963 275.821 93.1669 276.333 93.2382 276.844Z" fill="url(#paint14_linear_433_1281)"/>
<path d="M90.799 279.949C94.0296 279.547 97.2478 279.067 100.449 278.509C100.36 278.001 100.272 277.492 100.184 276.983C97.0062 277.537 93.8135 278.014 90.6077 278.412C90.6717 278.925 90.7357 279.437 90.799 279.949Z" fill="url(#paint15_linear_433_1281)"/>
<path d="M94.3636 284.972C96.7109 284.646 99.0508 284.28 101.383 283.873C101.294 283.365 101.205 282.856 101.117 282.348C98.8027 282.751 96.481 283.115 94.1512 283.438C94.2218 283.95 94.2923 284.461 94.3636 284.972Z" fill="url(#paint16_linear_433_1281)"/>
<path d="M91.8126 288.093C95.1763 287.675 98.5255 287.175 101.859 286.593C101.771 286.085 101.683 285.576 101.594 285.068C98.2854 285.645 94.9603 286.142 91.622 286.556C91.6853 287.069 91.7493 287.581 91.8126 288.093Z" fill="url(#paint17_linear_433_1281)"/>
<path d="M95.4976 293.101C97.9387 292.762 100.372 292.381 102.797 291.958C102.708 291.45 102.619 290.941 102.531 290.433C100.124 290.852 97.708 291.23 95.2851 291.567C95.3556 292.078 95.4263 292.589 95.4976 293.101Z" fill="url(#paint18_linear_433_1281)"/>
<path d="M92.827 296.236C96.3231 295.801 99.8047 295.281 103.27 294.677C103.181 294.169 103.092 293.66 103.004 293.152C99.5639 293.752 96.107 294.268 92.6363 294.699C92.6989 295.211 92.7629 295.724 92.827 296.236Z" fill="url(#paint19_linear_433_1281)"/>
<path d="M78.3954 304.435C81.7038 304.253 85.0035 303.997 88.293 303.669C87.3202 293.923 86.3473 284.176 85.3745 274.43C82.5179 274.715 79.6526 274.937 76.7793 275.095C77.3178 284.875 77.8569 294.655 78.3954 304.435Z" fill="url(#paint20_linear_433_1281)"/>
<path d="M101.723 269.938C101.833 269.917 101.942 269.896 102.051 269.876C101.94 269.295 101.83 268.714 101.718 268.134C101.611 268.154 101.502 268.175 101.394 268.196C101.504 268.776 101.614 269.357 101.723 269.938Z" fill="url(#paint21_linear_433_1281)"/>
<path d="M102.13 272.099C102.24 272.078 102.35 272.058 102.461 272.037C102.35 271.456 102.239 270.876 102.128 270.295C102.019 270.316 101.91 270.336 101.8 270.357C101.911 270.937 102.021 271.518 102.13 272.099Z" fill="url(#paint22_linear_433_1281)"/>
<path d="M102.54 274.26C102.652 274.239 102.764 274.218 102.875 274.197C102.764 273.616 102.654 273.036 102.543 272.455C102.432 272.476 102.321 272.497 102.211 272.518C102.321 273.098 102.43 273.679 102.54 274.26Z" fill="url(#paint23_linear_433_1281)"/>
<path d="M102.947 276.421C103.06 276.4 103.172 276.378 103.285 276.357C103.175 275.776 103.063 275.196 102.953 274.615C102.841 274.636 102.729 274.657 102.617 274.679C102.727 275.259 102.837 275.84 102.947 276.421Z" fill="url(#paint24_linear_433_1281)"/>
<path d="M103.357 278.583C103.471 278.561 103.585 278.54 103.699 278.518C103.589 277.937 103.478 277.357 103.367 276.775C103.253 276.797 103.14 276.818 103.028 276.84C103.137 277.421 103.247 278.002 103.357 278.583Z" fill="url(#paint25_linear_433_1281)"/>
<path d="M103.767 280.744C103.883 280.722 103.998 280.7 104.113 280.678C104.003 280.097 103.891 279.517 103.781 278.936C103.667 278.957 103.552 278.979 103.438 279C103.548 279.582 103.658 280.163 103.767 280.744Z" fill="url(#paint26_linear_433_1281)"/>
<path d="M104.173 282.905C104.29 282.883 104.406 282.86 104.523 282.838C104.413 282.258 104.301 281.677 104.191 281.096C104.075 281.118 103.96 281.139 103.844 281.162C103.954 281.743 104.064 282.324 104.173 282.905Z" fill="url(#paint27_linear_433_1281)"/>
<path d="M104.584 285.066C104.702 285.043 104.82 285.021 104.938 284.999C104.827 284.418 104.716 283.837 104.605 283.257C104.488 283.279 104.371 283.301 104.254 283.323C104.364 283.904 104.474 284.485 104.584 285.066Z" fill="url(#paint28_linear_433_1281)"/>
<path d="M104.99 287.226C105.11 287.204 105.228 287.181 105.348 287.159C105.237 286.578 105.126 285.997 105.015 285.416C104.897 285.439 104.779 285.461 104.661 285.483C104.771 286.064 104.881 286.646 104.99 287.226Z" fill="url(#paint29_linear_433_1281)"/>
<path d="M105.397 289.387C105.517 289.365 105.638 289.342 105.758 289.319C105.647 288.738 105.536 288.158 105.425 287.577C105.306 287.6 105.187 287.622 105.067 287.646C105.178 288.226 105.287 288.807 105.397 289.387Z" fill="url(#paint30_linear_433_1281)"/>
<path d="M105.807 291.548C105.929 291.526 106.05 291.502 106.172 291.479C106.061 290.899 105.951 290.318 105.839 289.737C105.719 289.761 105.598 289.783 105.478 289.806C105.588 290.386 105.697 290.968 105.807 291.548Z" fill="url(#paint31_linear_433_1281)"/>
<path d="M106.217 293.709C106.34 293.686 106.463 293.662 106.586 293.639C106.475 293.058 106.364 292.478 106.253 291.896C106.132 291.92 106.01 291.943 105.888 291.966C105.997 292.548 106.107 293.128 106.217 293.709Z" fill="url(#paint32_linear_433_1281)"/>
<path d="M106.624 295.871C106.748 295.848 106.872 295.824 106.996 295.8C106.885 295.22 106.774 294.639 106.664 294.058C106.541 294.081 106.417 294.104 106.294 294.127C106.404 294.709 106.514 295.289 106.624 295.871Z" fill="url(#paint33_linear_433_1281)"/>
<path d="M107.034 298.032C107.159 298.008 107.285 297.985 107.41 297.961C107.3 297.38 107.188 296.799 107.078 296.219C106.953 296.243 106.829 296.266 106.704 296.289C106.815 296.87 106.924 297.451 107.034 298.032Z" fill="url(#paint34_linear_433_1281)"/>
<path d="M107.11 298.45C107.131 298.563 107.152 298.675 107.174 298.788C107.302 298.764 107.428 298.744 107.555 298.727C107.533 298.611 107.51 298.494 107.488 298.378C107.362 298.403 107.236 298.427 107.11 298.45Z" fill="url(#paint35_linear_433_1281)"/>
<path d="M349.349 67.501C351.009 66.9109 352.846 67.0477 354.432 67.8779L364.045 72.9144L391.59 60.1988L380.472 52.0322L375.922 53.6482C374.713 54.0775 373.384 53.4459 372.955 52.2366C372.526 51.0273 373.157 49.6987 374.366 49.2695L375.945 48.7085L366.636 41.8712C364.898 40.5942 365.295 37.8926 367.328 37.1701C371.807 35.5796 376.76 35.947 381.037 38.1873L390.949 43.3795L399.181 40.4553C400.391 40.026 401.719 40.6575 402.149 41.8668C402.578 43.0761 401.946 44.4047 400.737 44.834L396.558 46.3183L408.582 52.6172C420.758 47.6753 437.364 42.4445 439.911 50.0152C442.447 57.551 426.507 63.799 413.933 67.5534L409.848 77.0654L411.923 76.3283C413.132 75.899 414.461 76.5306 414.89 77.7399C415.32 78.9491 414.688 80.2777 413.479 80.707L407.349 82.8848L401.637 96.1831C399.732 100.619 396.12 104.03 391.641 105.62C389.608 106.342 387.596 104.497 388.139 102.409L391.783 88.4138L388.663 89.5219C387.454 89.9512 386.125 89.3197 385.696 88.1104C385.267 86.9011 385.898 85.5725 387.108 85.1432L393.198 82.9801L395.998 72.2232L366.31 79.5057L362.068 89.383C361.361 91.0281 360.022 92.2919 358.361 92.882C357.608 93.1498 356.861 92.4651 357.063 91.6916L359.821 81.0977L355.83 82.0771C354.932 82.2976 353.943 81.4928 353.566 80.2646C353.19 79.0372 353.54 77.766 354.385 77.3753L357.93 75.7389L349.09 69.2458C348.448 68.7707 348.595 67.7688 349.349 67.501Z" fill="white"/>
<mask id="mask0_433_1281" style="mask-type:luminance" maskUnits="userSpaceOnUse" x="23" y="0" width="751" height="679">
<path d="M43.1528 641.44C46.407 653.944 50.7151 666.155 55.9154 678.023H774V135.035C761.536 123.469 746.405 111.931 729.864 107.041C716.297 103.031 708.498 101.995 696.638 92.9756C669.654 72.4533 640.824 54.7541 609.971 40.6328C549.195 12.8172 482.136 -1.47363 415.261 0.120247C305.807 2.7292 197.916 47.8473 119.219 123.917C83.9876 157.973 54.1403 198.634 38.4106 245.028C16.3704 310.036 23.6872 379.673 30.0912 446.628C33.3242 480.43 36.5616 514.333 36.129 548.329C35.7234 580.134 35.0394 610.267 43.1528 641.44Z" fill="white"/>
</mask>
<g mask="url(#mask0_433_1281)">
<path d="M705.059 399.866C705.711 401.507 706.349 403.155 706.971 404.809C708.955 406.879 710.915 408.994 712.85 411.154C714.785 413.313 716.695 415.517 718.579 417.767C718.85 414.846 719.075 411.909 719.254 408.956C719.432 406.003 719.564 403.034 719.648 400.051C718.996 398.316 718.328 396.587 717.643 394.866C713.447 396.531 709.252 398.198 705.059 399.866Z" fill="white"/>
<path d="M712.363 410.61C712.525 410.791 712.688 410.971 712.85 411.153C714.785 413.312 716.695 415.517 718.578 417.766C718.85 414.845 719.075 411.908 719.253 408.955C719.268 408.707 719.282 408.46 719.297 408.212C716.985 409.011 714.674 409.811 712.363 410.61Z" fill="#42291B"/>
<path d="M719.648 400.051C705.348 361.999 683.203 327.292 654.582 298.217C651.364 301.38 648.146 304.546 644.929 307.711C672.222 335.436 693.337 368.53 706.972 404.81C711.197 403.222 715.422 401.636 719.648 400.051Z" fill="#8AB3EC"/>
<path d="M712.773 402.63C698.833 365.539 677.247 331.707 649.347 303.363C647.873 304.812 646.4 306.262 644.928 307.711C672.22 335.436 693.335 368.529 706.97 404.809C708.905 404.083 710.839 403.356 712.773 402.63Z" fill="#5490E3"/>
<path d="M645.759 295.815C644.707 296.908 643.655 298.001 642.603 299.094C640.887 300.889 640.973 303.756 642.759 305.53C644.463 307.223 646.144 308.938 647.801 310.672C651.065 307.554 654.329 304.437 657.594 301.322C655.856 299.503 654.093 297.705 652.306 295.929C650.423 294.057 647.474 294.022 645.759 295.815Z" fill="#736056"/>
<path d="M642.605 299.095C643.656 298.001 644.709 296.908 645.761 295.815C645.885 295.686 646.017 295.569 646.153 295.459C644.756 297.264 644.96 299.915 646.669 301.614C648.405 303.338 650.117 305.084 651.805 306.851C650.471 308.124 649.137 309.398 647.804 310.672C646.146 308.938 644.465 307.223 642.761 305.53C640.975 303.756 640.889 300.889 642.605 299.095Z" fill="#594237"/>
<path d="M657.599 301.322C654.334 304.438 651.069 307.555 647.806 310.672C648.605 311.507 649.398 312.348 650.185 313.193C653.487 310.116 656.79 307.041 660.094 303.966C659.267 303.08 658.436 302.198 657.599 301.322Z" fill="white"/>
</g>
<mask id="mask1_433_1281" style="mask-type:luminance" maskUnits="userSpaceOnUse" x="23" y="0" width="751" height="679">
<path d="M43.6367 641.314C46.8564 653.685 51.1106 665.772 56.2424 677.523H773.5V135.253C761.083 123.752 746.08 112.356 729.722 107.521C727.479 106.857 725.389 106.275 723.41 105.723C713.461 102.95 706.304 100.955 696.336 93.3736C669.378 72.8713 640.579 55.1919 609.763 41.0875C549.054 13.3023 482.07 -0.971901 415.273 0.620105C305.944 3.22607 198.173 48.2941 119.567 124.276C84.3737 158.295 54.5811 198.891 38.8841 245.188C17.3676 308.652 23.8763 376.55 30.1661 442.166C30.3073 443.638 30.4483 445.11 30.5889 446.58C33.8215 480.378 37.062 514.308 36.629 548.336C36.6157 549.376 36.6022 550.415 36.5886 551.452C36.1881 582.122 35.808 611.235 43.6367 641.314Z" fill="white" stroke="white"/>
</mask>
<g mask="url(#mask1_433_1281)">
<path d="M218.145 677.343C194.548 668.684 170.328 659.657 151.621 642.867C132.915 626.076 120.772 599.464 128.201 575.451C135.542 551.723 159.008 515.259 181.495 504.711C229.903 482.005 281.896 467.983 331.366 447.696C380.837 427.408 429.224 421.423 460.583 378.114C469.997 365.113 477.83 350.611 480.769 334.83C483.707 319.05 481.311 301.828 471.866 288.848C459.327 271.616 437.284 264.702 416.708 259.153C363.55 244.819 309.815 232.625 255.678 222.61C239.478 219.614 222.761 216.63 208.893 207.736C195.024 198.843 184.605 182.358 188.03 166.244C192.205 146.601 213.446 136.422 232.145 129.101C258.603 118.741 318.591 94.7104 345.048 84.3506" stroke="white" stroke-width="4.3474" stroke-miterlimit="10" stroke-linecap="round" stroke-dasharray="13.04 13.04"/>
</g>
<mask id="mask2_433_1281" style="mask-type:luminance" maskUnits="userSpaceOnUse" x="23" y="0" width="731" height="679">
<path d="M42.6269 641.44C45.794 653.944 49.9868 666.155 55.0479 678.023H753.91V135.035C741.78 123.469 727.054 111.931 710.956 107.041C697.752 103.031 690.162 101.995 678.619 92.9756C652.358 72.4533 624.299 54.7541 594.272 40.6328C535.123 12.8172 469.859 -1.47363 404.774 0.120247C298.25 2.7292 193.247 47.8473 116.657 123.917C82.3686 157.973 53.3203 198.634 38.0117 245.028C16.5615 310.036 23.6824 379.673 29.9149 446.628C33.0615 480.43 36.2122 514.333 35.7911 548.329C35.3964 580.134 34.7308 610.267 42.6269 641.44Z" fill="white"/>
</mask>
<g mask="url(#mask2_433_1281)">
<path d="M651.43 377.643L659.861 369.819V350.618C659.861 348.568 661.651 346.908 663.86 346.908H674.315L692.381 334.056C695.026 331.806 701.651 338.512 699.007 340.761C702.566 337.46 711.599 345.842 708.04 349.144C711.66 347.76 715.874 357.261 712.254 358.643C715.682 358.643 716.739 366.335 712.254 368.702L685.155 387.417L666.486 401.672L651.43 377.643Z" fill="url(#paint36_linear_433_1281)"/>
<path d="M651.429 371.816L656.509 368.469C657.263 367.972 658.276 368.012 658.98 368.569C663.236 371.935 677.388 383.824 679.276 394.454C679.382 395.051 679.144 395.656 678.688 396.09L671.058 403.339L651.429 371.816Z" fill="white"/>
<path d="M671.586 359.434C673.154 360.653 674.807 361.769 676.528 362.467C677.403 362.836 678.194 363.057 679.106 363.144C680.047 363.254 680.984 363.243 681.903 363.186C683.144 363.105 684.441 362.766 685.551 362.311C683.88 360.223 682.227 358.121 680.674 355.948C678.781 353.288 676.945 350.588 675.336 347.725C677.48 349.524 679.451 351.447 681.38 353.401C683.263 350.793 685.599 348.703 688.085 346.787C690.905 344.738 693.872 342.859 697.47 341.703C695.497 344.725 692.895 347.023 690.146 349.153C687.616 350.999 684.938 352.673 681.812 353.834C682.062 354.088 682.322 354.334 682.568 354.589C684.59 356.685 686.518 358.85 688.404 361.044C690.745 358.4 693.531 356.38 696.451 354.552C699.629 352.678 702.937 350.985 706.794 350.071C704.355 352.991 701.366 355.134 698.249 357.094C695.293 358.845 692.204 360.405 688.679 361.35C688.839 361.537 689.018 361.712 689.176 361.9L690.189 363.097L688.914 363.973C688.773 364.071 688.628 364.131 688.485 364.221C690.053 365.526 691.791 366.996 693.118 367.161C693.559 367.196 693.965 367.141 694.119 367.066C694.346 366.952 694.872 366.659 695.32 366.385L698.2 364.736C700.169 363.673 702.152 362.612 704.239 361.699C706.32 360.786 708.437 359.888 710.789 359.391C707.503 362.554 703.827 365.107 699.886 367.344C699.535 367.527 699.172 367.703 698.822 367.886C698.686 368.529 698.614 369.496 699.056 370.702C699.825 372.798 704.641 372.037 704.641 372.037C704.641 372.037 701.259 374.509 699.056 373.749C697.444 373.192 696.906 370.406 696.731 368.946C696.211 369.167 695.74 369.395 694.935 369.623C693.978 369.836 693.206 369.675 692.535 369.474C690.612 368.822 688.808 366.635 687.667 364.692C686.533 365.279 685.372 365.653 684.181 365.868C685.099 367.771 684.947 370.106 684.022 371.976C683.412 373.146 682.618 374.217 681.593 375.063C680.584 375.91 679.406 376.608 677.998 376.887C679.026 374.469 680.136 372.639 681.032 370.73C681.535 369.8 681.868 368.848 682.273 367.861C682.501 367.288 682.68 366.684 682.864 366.047C682.614 366.072 682.369 366.112 682.116 366.129C680.942 366.196 679.764 366.113 678.635 365.889C677.47 365.684 676.248 365.269 675.274 364.706C673.271 363.586 671.694 362.128 670.346 360.553C669.011 358.97 667.852 357.286 667 355.463C668.507 356.86 670.001 358.218 671.586 359.434Z" fill="url(#paint37_linear_433_1281)"/>
<path d="M261.886 126.96L262.698 115.922L278.294 103.302C279.958 101.955 280.13 99.6119 278.68 98.067L271.808 90.7554L270.373 69.6733C270.461 66.3452 260.66 66.1186 260.572 69.4474C260.915 64.7879 248.169 63.9796 247.827 68.6392C246.571 65.1986 236.086 68.4952 237.341 71.9358C235.088 69.5381 228.146 73.8549 229.172 78.5466L231.782 109.799L232.474 132.225L261.886 126.96Z" fill="url(#paint38_linear_433_1281)"/>
<path d="M266.625 123.13L266.005 117.377C265.912 116.523 265.215 115.84 264.299 115.714C258.767 114.95 239.81 112.867 229.935 118.532C229.381 118.851 229.045 119.416 228.993 120.02L228.12 130.12L266.625 123.13Z" fill="white"/>
<path d="M263.43 100.893C261.41 100.597 259.417 100.174 257.718 99.4288C256.844 99.0597 256.145 98.652 255.475 98.071C254.767 97.4841 254.16 96.8228 253.602 96.1424C252.853 95.2209 252.275 94.0918 251.916 93.016C254.71 92.8129 257.503 92.5863 260.289 92.2443C263.693 91.8197 267.094 91.3293 270.477 90.573C267.606 90.2565 264.749 90.1418 261.894 90.0768C262.775 87.0454 262.936 84.0389 262.859 81.0404C262.67 77.7219 262.246 74.4114 260.821 71.1359C259.662 74.502 259.506 77.8322 259.583 81.1537C259.747 84.1361 260.147 87.1097 261.258 90.0592C260.888 90.0512 260.518 90.0315 260.148 90.0271C257.117 89.9898 254.092 90.0651 251.07 90.1879C251.679 86.813 251.488 83.5376 251.053 80.2936C250.487 76.8384 249.688 73.4131 247.896 70.1143C247.126 73.739 247.35 77.2381 247.807 80.7065C248.328 83.9242 249.09 87.1097 250.641 90.1959C250.384 90.2068 250.124 90.1966 249.867 90.209L248.231 90.2872L248.356 91.7554C248.369 91.9177 248.417 92.0594 248.438 92.2173C246.347 91.979 244.011 91.7291 243.004 90.9092C242.687 90.6241 242.464 90.3033 242.424 90.1469C242.367 89.9131 242.26 89.3533 242.188 88.8592L241.634 85.7607C241.203 83.6852 240.761 81.6002 240.131 79.5408C239.505 77.4844 238.842 75.4147 237.701 73.4423C237.291 77.8191 237.634 82.068 238.408 86.2949C238.49 86.6603 238.586 87.0301 238.666 87.3947C238.233 87.9121 237.494 88.5984 236.225 89.0814C234.018 89.9218 231.47 86.0537 231.47 86.0537C231.47 86.0537 231.685 90.0439 233.75 91.0845C235.262 91.846 237.879 90.391 239.179 89.5535C239.342 90.0622 239.466 90.5423 239.81 91.2548C240.267 92.0645 240.905 92.4979 241.508 92.8355C243.302 93.752 246.264 93.5766 248.593 93.0972C248.861 94.2759 249.321 95.3334 249.929 96.3076C247.779 96.9156 245.982 98.5562 245.072 100.433C244.522 101.629 244.174 102.888 244.161 104.16C244.136 105.422 244.344 106.705 245.042 107.873C246.33 105.565 247.088 103.586 248.049 101.704C248.474 100.741 249.028 99.8826 249.564 98.9501C249.88 98.4145 250.252 97.8927 250.649 97.3446C250.793 97.536 250.921 97.7334 251.075 97.9212C251.792 98.7864 252.633 99.556 253.557 100.198C254.49 100.879 255.63 101.46 256.727 101.771C258.953 102.435 261.174 102.58 263.339 102.488C265.503 102.381 267.632 102.085 269.673 101.482C267.545 101.354 265.46 101.202 263.43 100.893Z" fill="url(#paint39_linear_433_1281)"/>
<path d="M473.419 297.482C494.999 294.867 573.984 401.882 573.984 401.882C598.577 385.761 650.496 370.718 650.496 370.718C650.496 370.718 670.22 378.97 670.851 401.882C671.482 424.794 607.444 478.812 563.176 475.77C550.803 474.919 538.377 469.846 526.782 462.221C514.002 421.928 494.633 381.953 467.611 348.268C468.614 321.704 473.419 297.482 473.419 297.482Z" fill="url(#paint40_linear_433_1281)"/>
<path d="M527.715 463.321C497.835 443.669 473.489 407.039 469.838 381.829C468.36 371.627 468.133 360.3 468.544 349.367C495.566 383.053 514.935 423.027 527.715 463.321Z" fill="#C07120"/>
<path opacity="0.6" d="M572.398 405.727C568.485 407.048 564.976 409.271 561.819 411.794C558.65 414.327 555.858 417.263 553.443 420.439C551.147 423.681 549.005 427.046 547.583 430.694C546.022 434.277 545.04 438.056 544.526 441.859C546.356 438.398 547.969 434.964 549.907 431.685C551.742 428.365 553.902 425.237 556.132 422.176C558.38 419.118 560.916 416.258 563.592 413.492C566.306 410.752 569.181 408.133 572.398 405.727Z" fill="url(#paint41_linear_433_1281)"/>
<path opacity="0.6" d="M572.395 410.291C571.547 412.288 571.145 414.367 570.934 416.442C570.698 418.523 570.748 420.612 570.917 422.692C571.344 426.831 572.432 430.997 574.854 434.633C574.949 430.371 574.507 426.439 574.18 422.422C573.745 418.418 573.365 414.443 572.395 410.291Z" fill="url(#paint42_linear_433_1281)"/>
<path opacity="0.6" d="M651.428 389.752C653.716 396.025 655.231 402.276 655.066 408.531C655.077 411.655 654.493 414.742 653.531 417.75C652.669 420.822 651.03 423.625 649.456 426.646C652.09 424.428 654.515 421.759 655.926 418.585C656.825 417.069 657.173 415.361 657.719 413.717C658.033 412.022 658.328 410.317 658.342 408.595C658.383 405.16 657.824 401.736 656.633 398.534C655.451 395.341 653.782 392.291 651.428 389.752Z" fill="url(#paint43_linear_433_1281)"/>
<path d="M341.571 558.518L329.576 849.381L323.179 1045.27C323.179 1045.27 399.144 1060.11 420.733 1046.75L415.935 855.318C415.935 855.318 434.327 604.522 436.726 603.039C439.125 601.554 457.516 568.165 457.516 568.165" fill="url(#paint44_linear_433_1281)"/>
<path d="M509.576 542.396L593.633 1047.1C593.633 1047.1 537.209 1065.53 499.5 1042.03L419.803 650.352L390.35 565.154L509.576 542.396Z" fill="url(#paint45_linear_433_1281)"/>
<path d="M341.559 565.662L340.527 585.162C340.373 588.08 341.797 590.879 344.361 592.574C360.347 603.146 422.449 635.525 513.321 574.832C516.134 572.954 517.623 569.791 517.274 566.59L515.35 548.928L341.559 565.662Z" fill="white"/>
<path d="M370.911 300.356C363.289 300.559 355.999 303.285 350.399 308.089C343.334 314.151 334.289 323.652 329.509 335.627C322.186 353.973 325.226 503.695 326.267 546.892C326.488 556.102 330.508 564.872 337.609 571.309C350.987 583.436 377.397 598.894 421.543 592.32C457.586 586.952 484.733 576.826 502.504 568.331C517.593 561.117 526.091 545.843 523.641 530.258L489.117 310.577C486.965 297.329 468.65 297.227 454.217 297.612L370.911 300.356Z" fill="url(#paint46_linear_433_1281)"/>
<path d="M427.923 271.214C427.923 271.214 433.768 275.062 440.606 272.966C447.445 270.87 447.98 251.259 462.862 231.809C477.744 212.358 453.311 214.5 453.311 214.5L427.057 241.44L427.923 271.214Z" fill="url(#paint47_linear_433_1281)"/>
<path d="M428.352 311.217C427.617 319.733 412.321 336.054 399.49 334.666C387.9 333.412 378.577 315.263 379.241 307.57L387.662 209.913L436.773 213.56L429.427 298.75L428.352 311.217Z" fill="url(#paint48_linear_433_1281)"/>
<path d="M388.763 209.994C388.387 210.019 388.017 210.044 387.645 210.069L380.087 297.716C435.496 286.416 432.802 230.898 430.437 213.088L388.763 209.994Z" fill="url(#paint49_linear_433_1281)"/>
<path d="M442.741 250.533C429.208 277.537 393.819 288.89 371.82 279.397C355.511 272.36 356.798 246.495 366.958 218.247C380.281 181.208 405.412 174.959 427.411 184.452C449.409 193.944 456.272 223.53 442.741 250.533Z" fill="url(#paint50_linear_433_1281)"/>
<path d="M458.275 257.591C454.811 264.503 446.948 267.925 440.712 265.234C434.476 262.543 428.765 261.67 432.229 254.759C435.693 247.847 447.019 237.514 453.255 240.205C459.492 242.896 461.739 250.679 458.275 257.591Z" fill="#EEBE9D"/>
<path d="M443.28 250.868C443.96 249.822 444.823 248.894 445.814 248.05C446.833 247.248 447.967 246.448 449.569 246.177C450.37 246.074 451.336 246.127 452.133 246.603C452.548 246.798 452.828 247.116 453.166 247.39C453.42 247.731 453.687 248.11 453.868 248.485C454.471 250.043 454.186 251.447 453.837 252.724C453.024 255.269 451.394 257.474 449.129 259.042C448.005 259.831 446.618 260.34 445.212 260.505C443.767 260.627 442.381 260.164 441.34 259.451C442.647 259.665 443.855 259.708 444.948 259.312C446.023 258.914 446.973 258.321 447.793 257.556C449.383 256.024 450.679 254.068 451.267 252.051C451.61 251.072 451.735 249.997 451.494 249.277C451.423 249.112 451.341 248.983 451.281 248.812C451.134 248.705 451.035 248.506 450.878 248.43C450.605 248.218 450.234 248.133 449.77 248.095C447.75 248.193 445.407 249.584 443.28 250.868Z" fill="#E9A785"/>
<path d="M370.795 201.21C373.761 202.903 379.067 204.427 387.078 201.492C387.078 201.492 394.71 214.867 408.163 206.823C408.163 206.823 417.04 220.843 436.476 214.045C436.476 214.045 426.636 231.616 437.033 240.156L432.604 248.205L439.447 250.705C439.447 250.705 447.981 242.333 453.257 240.205C458.532 238.077 467.977 225.411 467.529 220.124C467.529 220.124 475.068 213.42 462.912 195.743C450.971 178.378 402.304 150.994 369.62 196.355C368.454 197.973 369.007 200.191 370.795 201.21Z" fill="url(#paint51_linear_433_1281)"/>
<path opacity="0.6" d="M498.043 383.351C496.325 370.885 493.8 358.607 491.227 346.342L487.203 327.985C485.93 321.856 484.378 315.787 483.515 309.563C483.104 315.855 483.825 322.165 484.68 328.378C485.54 334.607 486.743 340.777 488.011 346.931C490.696 359.212 493.809 371.409 498.043 383.351Z" fill="url(#paint52_linear_433_1281)"/>
<path d="M432.745 298.25C432.112 296.397 429.604 295.827 428.139 297.217C422.008 303.033 408.426 316.14 404.548 321.704C399.49 328.961 401.129 338.47 401.129 338.47C401.129 338.47 424.026 326.04 431.432 317.992C436.512 312.472 434.506 303.403 432.745 298.25Z" fill="white"/>
<path d="M401.129 338.47C401.129 338.47 401.018 326.355 393.183 319.956C386.953 314.868 381.796 304.326 379.945 300.221C379.565 299.379 378.356 299.2 377.736 299.908C376.079 301.799 373.668 305.77 374.077 312.607C374.691 322.876 389.652 336.568 401.129 338.47Z" fill="white"/>
<path d="M391.908 210.117C373.962 210.117 359.414 196.617 359.414 179.964C359.414 163.311 373.962 149.812 391.908 149.812C409.854 149.812 424.402 163.311 424.402 179.964C424.402 196.617 409.854 210.117 391.908 210.117Z" fill="url(#paint53_linear_433_1281)"/>
<path d="M227.184 129.021C240.955 122.878 254.107 119.261 265.688 122.031C265.688 122.031 275.322 131.209 278.735 148.712C282.148 166.215 295.264 226.309 295.264 226.309L369.977 299.257L328.874 371.601C328.874 371.601 235.485 299.447 230.534 252.228C225.584 205.011 212.272 144.123 227.184 129.021Z" fill="url(#paint54_linear_433_1281)"/>
<path opacity="0.6" d="M325.686 365.962C326.976 356.563 327.272 347.162 327.324 337.763C327.278 328.363 326.983 318.963 325.686 309.563C324.388 318.963 324.093 328.363 324.047 337.763C324.1 347.162 324.396 356.562 325.686 365.962Z" fill="url(#paint55_linear_433_1281)"/>
<path opacity="0.6" d="M301.928 309.562C302.9 317.019 304.958 324.21 307.382 331.295C308.649 334.822 310.008 338.326 311.617 341.748C313.212 345.162 314.994 348.567 317.391 351.612L314.022 340.936C312.918 337.386 311.702 333.874 310.498 330.352C307.985 323.34 305.383 316.349 301.928 309.562Z" fill="url(#paint56_linear_433_1281)"/>
<path d="M413.019 595.288L415.773 593.888C389.099 583.307 398.705 524.421 402.737 507.053C410.922 471.756 403.105 343.811 402.769 338.382L399.496 338.554C399.58 339.883 407.624 471.517 399.529 506.412C394.193 529.41 384.826 584.106 413.019 595.288Z" fill="white"/>
<path d="M437.942 506.667L499.142 536.735L504.852 526.729L443.651 496.661L437.942 506.667Z" fill="white"/>
<path d="M379.973 508.916L336.807 532.361L331.836 524.481L375.003 501.036L379.973 508.916Z" fill="white"/>
<path opacity="0.6" d="M420.82 551.624C424.272 555.797 428.821 559.114 433.645 561.884C438.487 564.663 443.74 566.823 449.173 568.431C454.649 569.868 460.236 571.07 465.922 571.288C471.575 571.701 477.265 571.334 482.797 570.395C477.204 569.608 471.739 569.073 466.357 568.081C460.958 567.232 455.698 565.911 450.501 564.479C445.301 563.024 440.261 561.141 435.295 559.051C430.348 556.904 425.505 554.513 420.82 551.624Z" fill="url(#paint57_linear_433_1281)"/>
<path opacity="0.6" d="M355.937 555.341C356.378 559.018 357.815 562.552 359.633 565.848C361.458 569.156 363.773 572.23 366.413 575.032C369.145 577.747 372.037 580.357 375.375 582.408C378.617 584.565 382.185 586.266 385.883 587.569C382.824 585.207 379.745 583.04 376.894 580.624C373.977 578.29 371.329 575.718 368.762 573.101C366.202 570.47 363.907 567.634 361.737 564.699C359.602 561.737 357.624 558.662 355.937 555.341Z" fill="url(#paint58_linear_433_1281)"/>
<path d="M415.549 666.473C417.912 670.228 421.381 673.47 425.289 675.827C425.947 679.004 426.544 682.195 427.079 685.394C427.256 686.425 427.413 687.459 427.562 688.495C426.114 684.693 424.815 680.843 423.579 676.98C419.438 674.896 415.92 671.952 413.305 668.333C412.638 667.459 412.145 666.347 411.768 665.393C409.898 660.224 408.835 655.083 407.808 649.89C405.859 639.516 404.474 629.079 403.974 618.554C407.106 630.431 409.849 645.028 412.651 656.994C413.464 660.227 414.119 663.508 415.549 666.473Z" fill="url(#paint59_linear_433_1281)"/>
<path d="M425.569 673.839C426.13 672.801 426.008 671.6 426.021 670.469C425.908 667.016 425.451 663.579 425.078 660.139C423.467 646.307 421.655 632.5 421.445 618.555C425.305 632.083 427.313 646.015 427.632 660C427.659 663.511 427.587 667.064 426.926 670.54C426.649 671.668 426.46 672.967 425.569 673.839Z" fill="url(#paint60_linear_433_1281)"/>
<path d="M467.389 601.143C468.213 600.793 469.185 601.126 469.564 601.889C469.708 602.18 484.287 630.843 512.579 624.286C513.458 624.079 514.349 624.578 514.568 625.393C514.787 626.208 514.254 627.035 513.375 627.238C510.168 627.983 507.127 628.316 504.246 628.316C479.382 628.316 466.725 603.442 466.586 603.161C466.207 602.398 466.567 601.495 467.389 601.143Z" fill="url(#paint61_linear_433_1281)"/>
<path d="M346.273 632.901C364.081 626.142 365.968 608.447 365.985 608.27C366.064 607.433 366.856 606.815 367.758 606.885C368.66 606.958 369.329 607.694 369.252 608.531C369.178 609.333 367.214 628.24 347.515 635.717C347.312 635.794 347.101 635.83 346.895 635.83C346.249 635.83 345.637 635.474 345.377 634.885C345.034 634.108 345.435 633.22 346.273 632.901Z" fill="url(#paint62_linear_433_1281)"/>
</g>
<defs>
<linearGradient id="paint0_linear_433_1281" x1="551.287" y1="271.407" x2="562.331" y2="353.369" gradientUnits="userSpaceOnUse">
<stop stop-color="white"/>
<stop offset="1" stop-color="white" stop-opacity="0"/>
</linearGradient>
<linearGradient id="paint1_linear_433_1281" x1="91.8053" y1="122.822" x2="103.155" y2="206.668" gradientUnits="userSpaceOnUse">
<stop stop-color="white"/>
<stop offset="1" stop-color="white" stop-opacity="0"/>
</linearGradient>
<linearGradient id="paint2_linear_433_1281" x1="322.456" y1="379.232" x2="332.374" y2="452.831" gradientUnits="userSpaceOnUse">
<stop stop-color="white"/>
<stop offset="1" stop-color="white" stop-opacity="0"/>
</linearGradient>
<linearGradient id="paint3_linear_433_1281" x1="164.84" y1="257.124" x2="72.9798" y2="257.124" gradientUnits="userSpaceOnUse">
<stop offset="2.5e-07" stop-color="#E7792A"/>
<stop offset="1" stop-color="#E7B26F"/>
</linearGradient>
<linearGradient id="paint4_linear_433_1281" x1="181.586" y1="286.237" x2="106.861" y2="286.237" gradientUnits="userSpaceOnUse">
<stop offset="2.5e-07" stop-color="#E7792A"/>
<stop offset="1" stop-color="#E7B26F"/>
</linearGradient>
<linearGradient id="paint5_linear_433_1281" x1="174.277" y1="253.242" x2="84.6116" y2="271.571" gradientUnits="userSpaceOnUse">
<stop stop-color="#73B4FB"/>
<stop offset="1" stop-color="#9DCAFB"/>
</linearGradient>
<linearGradient id="paint6_linear_433_1281" x1="175.922" y1="261.286" x2="86.2563" y2="279.616" gradientUnits="userSpaceOnUse">
<stop stop-color="#73B4FB"/>
<stop offset="1" stop-color="#9DCAFB"/>
</linearGradient>
<linearGradient id="paint7_linear_433_1281" x1="177.563" y1="269.33" x2="87.8979" y2="287.66" gradientUnits="userSpaceOnUse">
<stop stop-color="#73B4FB"/>
<stop offset="1" stop-color="#9DCAFB"/>
</linearGradient>
<linearGradient id="paint8_linear_433_1281" x1="175.221" y1="257.856" x2="85.5555" y2="276.185" gradientUnits="userSpaceOnUse">
<stop stop-color="#73B4FB"/>
<stop offset="1" stop-color="#9DCAFB"/>
</linearGradient>
<linearGradient id="paint9_linear_433_1281" x1="176.906" y1="266.1" x2="87.2401" y2="284.429" gradientUnits="userSpaceOnUse">
<stop stop-color="#73B4FB"/>
<stop offset="1" stop-color="#9DCAFB"/>
</linearGradient>
<linearGradient id="paint10_linear_433_1281" x1="178.591" y1="274.344" x2="88.9251" y2="292.674" gradientUnits="userSpaceOnUse">
<stop stop-color="#73B4FB"/>
<stop offset="1" stop-color="#9DCAFB"/>
</linearGradient>
<linearGradient id="paint11_linear_433_1281" x1="175.561" y1="259.528" x2="85.8961" y2="277.857" gradientUnits="userSpaceOnUse">
<stop stop-color="#73B4FB"/>
<stop offset="1" stop-color="#9DCAFB"/>
</linearGradient>
<linearGradient id="paint12_linear_433_1281" x1="177.262" y1="267.845" x2="87.596" y2="286.174" gradientUnits="userSpaceOnUse">
<stop stop-color="#73B4FB"/>
<stop offset="1" stop-color="#9DCAFB"/>
</linearGradient>
<linearGradient id="paint13_linear_433_1281" x1="178.963" y1="276.161" x2="89.297" y2="294.49" gradientUnits="userSpaceOnUse">
<stop stop-color="#73B4FB"/>
<stop offset="1" stop-color="#9DCAFB"/>
</linearGradient>
<linearGradient id="paint14_linear_433_1281" x1="175.535" y1="259.394" x2="85.8688" y2="277.724" gradientUnits="userSpaceOnUse">
<stop stop-color="#73B4FB"/>
<stop offset="1" stop-color="#9DCAFB"/>
</linearGradient>
<linearGradient id="paint15_linear_433_1281" x1="176.066" y1="261.997" x2="86.4002" y2="280.327" gradientUnits="userSpaceOnUse">
<stop stop-color="#73B4FB"/>
<stop offset="1" stop-color="#9DCAFB"/>
</linearGradient>
<linearGradient id="paint16_linear_433_1281" x1="177.172" y1="267.424" x2="87.5071" y2="285.753" gradientUnits="userSpaceOnUse">
<stop stop-color="#73B4FB"/>
<stop offset="1" stop-color="#9DCAFB"/>
</linearGradient>
<linearGradient id="paint17_linear_433_1281" x1="177.707" y1="270.024" x2="88.0416" y2="288.353" gradientUnits="userSpaceOnUse">
<stop stop-color="#73B4FB"/>
<stop offset="1" stop-color="#9DCAFB"/>
</linearGradient>
<linearGradient id="paint18_linear_433_1281" x1="178.82" y1="275.454" x2="89.154" y2="293.783" gradientUnits="userSpaceOnUse">
<stop stop-color="#73B4FB"/>
<stop offset="1" stop-color="#9DCAFB"/>
</linearGradient>
<linearGradient id="paint19_linear_433_1281" x1="179.349" y1="278.049" x2="89.683" y2="296.379" gradientUnits="userSpaceOnUse">
<stop stop-color="#73B4FB"/>
<stop offset="1" stop-color="#9DCAFB"/>
</linearGradient>
<linearGradient id="paint20_linear_433_1281" x1="177.688" y1="269.931" x2="88.0223" y2="288.261" gradientUnits="userSpaceOnUse">
<stop offset="2.5e-07" stop-color="#E7792A"/>
<stop offset="1" stop-color="#E7B26F"/>
</linearGradient>
<linearGradient id="paint21_linear_433_1281" x1="174.465" y1="254.165" x2="84.7998" y2="272.493" gradientUnits="userSpaceOnUse">
<stop stop-color="#73B4FB"/>
<stop offset="1" stop-color="#9DCAFB"/>
</linearGradient>
<linearGradient id="paint22_linear_433_1281" x1="174.906" y1="256.32" x2="85.2384" y2="274.651" gradientUnits="userSpaceOnUse">
<stop stop-color="#73B4FB"/>
<stop offset="1" stop-color="#9DCAFB"/>
</linearGradient>
<linearGradient id="paint23_linear_433_1281" x1="175.338" y1="258.475" x2="85.6821" y2="276.802" gradientUnits="userSpaceOnUse">
<stop stop-color="#73B4FB"/>
<stop offset="1" stop-color="#9DCAFB"/>
</linearGradient>
<linearGradient id="paint24_linear_433_1281" x1="175.785" y1="260.629" x2="86.1195" y2="278.959" gradientUnits="userSpaceOnUse">
<stop stop-color="#73B4FB"/>
<stop offset="1" stop-color="#9DCAFB"/>
</linearGradient>
<linearGradient id="paint25_linear_433_1281" x1="176.225" y1="262.785" x2="86.5619" y2="281.114" gradientUnits="userSpaceOnUse">
<stop stop-color="#73B4FB"/>
<stop offset="1" stop-color="#9DCAFB"/>
</linearGradient>
<linearGradient id="paint26_linear_433_1281" x1="176.671" y1="264.938" x2="87.0034" y2="283.267" gradientUnits="userSpaceOnUse">
<stop stop-color="#73B4FB"/>
<stop offset="1" stop-color="#9DCAFB"/>
</linearGradient>
<linearGradient id="paint27_linear_433_1281" x1="177.105" y1="267.094" x2="87.4426" y2="285.423" gradientUnits="userSpaceOnUse">
<stop stop-color="#73B4FB"/>
<stop offset="1" stop-color="#9DCAFB"/>
</linearGradient>
<linearGradient id="paint28_linear_433_1281" x1="177.556" y1="269.247" x2="87.8834" y2="287.578" gradientUnits="userSpaceOnUse">
<stop stop-color="#73B4FB"/>
<stop offset="1" stop-color="#9DCAFB"/>
</linearGradient>
<linearGradient id="paint29_linear_433_1281" x1="177.985" y1="271.402" x2="88.3242" y2="289.73" gradientUnits="userSpaceOnUse">
<stop stop-color="#73B4FB"/>
<stop offset="1" stop-color="#9DCAFB"/>
</linearGradient>
<linearGradient id="paint30_linear_433_1281" x1="178.427" y1="273.557" x2="88.7627" y2="291.887" gradientUnits="userSpaceOnUse">
<stop stop-color="#73B4FB"/>
<stop offset="1" stop-color="#9DCAFB"/>
</linearGradient>
<linearGradient id="paint31_linear_433_1281" x1="178.869" y1="275.711" x2="89.2043" y2="294.04" gradientUnits="userSpaceOnUse">
<stop stop-color="#73B4FB"/>
<stop offset="1" stop-color="#9DCAFB"/>
</linearGradient>
<linearGradient id="paint32_linear_433_1281" x1="179.312" y1="277.864" x2="89.6457" y2="296.194" gradientUnits="userSpaceOnUse">
<stop stop-color="#73B4FB"/>
<stop offset="1" stop-color="#9DCAFB"/>
</linearGradient>
<linearGradient id="paint33_linear_433_1281" x1="179.749" y1="280.019" x2="90.0848" y2="298.348" gradientUnits="userSpaceOnUse">
<stop stop-color="#73B4FB"/>
<stop offset="1" stop-color="#9DCAFB"/>
</linearGradient>
<linearGradient id="paint34_linear_433_1281" x1="180.192" y1="282.175" x2="90.528" y2="300.505" gradientUnits="userSpaceOnUse">
<stop stop-color="#73B4FB"/>
<stop offset="1" stop-color="#9DCAFB"/>
</linearGradient>
<linearGradient id="paint35_linear_433_1281" x1="180.494" y1="283.634" x2="90.8217" y2="301.966" gradientUnits="userSpaceOnUse">
<stop stop-color="#73B4FB"/>
<stop offset="1" stop-color="#9DCAFB"/>
</linearGradient>
<linearGradient id="paint36_linear_433_1281" x1="680.762" y1="367.16" x2="723.412" y2="306.314" gradientUnits="userSpaceOnUse">
<stop stop-color="#EEBE9D"/>
<stop offset="1" stop-color="#EED6C6"/>
</linearGradient>
<linearGradient id="paint37_linear_433_1281" x1="670.774" y1="375.382" x2="751.216" y2="310.484" gradientUnits="userSpaceOnUse">
<stop stop-color="#EEB188"/>
<stop offset="1" stop-color="#EEBE9D"/>
</linearGradient>
<linearGradient id="paint38_linear_433_1281" x1="254.367" y1="133.033" x2="254.367" y2="50.878" gradientUnits="userSpaceOnUse">
<stop stop-color="#EEBE9D"/>
<stop offset="1" stop-color="#EED6C6"/>
</linearGradient>
<linearGradient id="paint39_linear_433_1281" x1="270.476" y1="88.9955" x2="231.469" y2="88.9955" gradientUnits="userSpaceOnUse">
<stop stop-color="#EEB188"/>
<stop offset="1" stop-color="#EEBE9D"/>
</linearGradient>
<linearGradient id="paint40_linear_433_1281" x1="607.231" y1="568.283" x2="513.607" y2="88.8793" gradientUnits="userSpaceOnUse">
<stop offset="2.5e-07" stop-color="#FCC51F"/>
<stop offset="1" stop-color="#F7C607"/>
</linearGradient>
<linearGradient id="paint41_linear_433_1281" x1="558.462" y1="548.536" x2="558.462" y2="231.239" gradientUnits="userSpaceOnUse">
<stop offset="2.5e-07" stop-color="#E7792A"/>
<stop offset="1" stop-color="#E7B26F"/>
</linearGradient>
<linearGradient id="paint42_linear_433_1281" x1="572.82" y1="548.537" x2="572.82" y2="231.24" gradientUnits="userSpaceOnUse">
<stop offset="2.5e-07" stop-color="#E7792A"/>
<stop offset="1" stop-color="#E7B26F"/>
</linearGradient>
<linearGradient id="paint43_linear_433_1281" x1="653.9" y1="548.536" x2="653.9" y2="231.239" gradientUnits="userSpaceOnUse">
<stop offset="2.5e-07" stop-color="#E7792A"/>
<stop offset="1" stop-color="#E7B26F"/>
</linearGradient>
<linearGradient id="paint44_linear_433_1281" x1="457.516" y1="805.422" x2="323.179" y2="805.422" gradientUnits="userSpaceOnUse">
<stop stop-color="#676797"/>
<stop offset="0.3565" stop-color="#636395"/>
<stop offset="0.7234" stop-color="#57578D"/>
<stop offset="1" stop-color="#484885"/>
</linearGradient>
<linearGradient id="paint45_linear_433_1281" x1="593.633" y1="798.184" x2="390.35" y2="798.184" gradientUnits="userSpaceOnUse">
<stop stop-color="#676797"/>
<stop offset="0.3565" stop-color="#636395"/>
<stop offset="0.7234" stop-color="#57578D"/>
<stop offset="1" stop-color="#484885"/>
</linearGradient>
<linearGradient id="paint46_linear_433_1281" x1="442.971" y1="551.445" x2="334.784" y2="180.678" gradientUnits="userSpaceOnUse">
<stop offset="2.5e-07" stop-color="#FCC51F"/>
<stop offset="1" stop-color="#FCC51F"/>
</linearGradient>
<linearGradient id="paint47_linear_433_1281" x1="445.406" y1="242.742" x2="390.54" y2="187.876" gradientUnits="userSpaceOnUse">
<stop stop-color="#1C1300"/>
<stop offset="1" stop-color="#4A3200"/>
</linearGradient>
<linearGradient id="paint48_linear_433_1281" x1="359.318" y1="251.064" x2="507.052" y2="309.578" gradientUnits="userSpaceOnUse">
<stop stop-color="#EEBE9D"/>
<stop offset="1" stop-color="#EED6C6"/>
</linearGradient>
<linearGradient id="paint49_linear_433_1281" x1="397.073" y1="249.43" x2="462.479" y2="297.129" gradientUnits="userSpaceOnUse">
<stop stop-color="#D4A98B"/>
<stop offset="0.4278" stop-color="#EEBE9D"/>
<stop offset="1" stop-color="#EED6C6"/>
</linearGradient>
<linearGradient id="paint50_linear_433_1281" x1="416.747" y1="232.586" x2="329.904" y2="227.761" gradientUnits="userSpaceOnUse">
<stop stop-color="#EEBE9D"/>
<stop offset="1" stop-color="#EED6C6"/>
</linearGradient>
<linearGradient id="paint51_linear_433_1281" x1="453.608" y1="234.926" x2="395.257" y2="176.575" gradientUnits="userSpaceOnUse">
<stop stop-color="#1C1300"/>
<stop offset="1" stop-color="#4A3200"/>
</linearGradient>
<linearGradient id="paint52_linear_433_1281" x1="490.72" y1="548.537" x2="490.72" y2="231.239" gradientUnits="userSpaceOnUse">
<stop offset="2.5e-07" stop-color="#E7792A"/>
<stop offset="1" stop-color="#E7B26F"/>
</linearGradient>
<linearGradient id="paint53_linear_433_1281" x1="450.221" y1="238.277" x2="392.234" y2="180.29" gradientUnits="userSpaceOnUse">
<stop stop-color="#1C1300"/>
<stop offset="1" stop-color="#4A3200"/>
</linearGradient>
<linearGradient id="paint54_linear_433_1281" x1="384.583" y1="566.021" x2="276.389" y2="195.232" gradientUnits="userSpaceOnUse">
<stop offset="2.5e-07" stop-color="#F7C607"/>
<stop offset="1" stop-color="#F7C607"/>
</linearGradient>
<linearGradient id="paint55_linear_433_1281" x1="325.686" y1="548.536" x2="325.686" y2="231.239" gradientUnits="userSpaceOnUse">
<stop offset="2.5e-07" stop-color="#E7792A"/>
<stop offset="1" stop-color="#E7B26F"/>
</linearGradient>
<linearGradient id="paint56_linear_433_1281" x1="309.659" y1="548.536" x2="309.659" y2="231.238" gradientUnits="userSpaceOnUse">
<stop offset="2.5e-07" stop-color="#E7792A"/>
<stop offset="1" stop-color="#E7B26F"/>
</linearGradient>
<linearGradient id="paint57_linear_433_1281" x1="451.808" y1="548.536" x2="451.808" y2="231.232" gradientUnits="userSpaceOnUse">
<stop offset="2.5e-07" stop-color="#E7792A"/>
<stop offset="1" stop-color="#E7B26F"/>
</linearGradient>
<linearGradient id="paint58_linear_433_1281" x1="370.909" y1="548.536" x2="370.909" y2="231.239" gradientUnits="userSpaceOnUse">
<stop offset="2.5e-07" stop-color="#E7792A"/>
<stop offset="1" stop-color="#E7B26F"/>
</linearGradient>
<linearGradient id="paint59_linear_433_1281" x1="319.365" y1="511.356" x2="389.149" y2="614.614" gradientUnits="userSpaceOnUse">
<stop stop-color="#36366B"/>
<stop offset="1" stop-color="#484885"/>
</linearGradient>
<linearGradient id="paint60_linear_433_1281" x1="329.434" y1="506.999" x2="398.523" y2="609.229" gradientUnits="userSpaceOnUse">
<stop stop-color="#36366B"/>
<stop offset="1" stop-color="#484885"/>
</linearGradient>
<linearGradient id="paint61_linear_433_1281" x1="387.986" y1="462.62" x2="459.685" y2="568.712" gradientUnits="userSpaceOnUse">
<stop stop-color="#36366B"/>
<stop offset="1" stop-color="#484885"/>
</linearGradient>
<linearGradient id="paint62_linear_433_1281" x1="296.552" y1="531.534" x2="363.036" y2="629.908" gradientUnits="userSpaceOnUse">
<stop stop-color="#36366B"/>
<stop offset="1" stop-color="#484885"/>
</linearGradient>
</defs>
</svg>
