<svg width="151" height="41" viewBox="0 0 151 41" fill="none" xmlns="http://www.w3.org/2000/svg">
<path fill-rule="evenodd" clip-rule="evenodd" d="M47.2147 33.2931H47.0378C47.0236 33.4275 46.9635 33.4947 46.8574 33.4947C46.8114 33.4947 46.73 33.4735 46.6098 33.4275C46.3551 33.3391 46.1393 33.2931 45.9624 33.2931C45.1559 33.3073 44.7314 33.6893 44.6854 34.4357C44.6571 34.9132 44.9826 35.3165 45.6688 35.6419L46.0509 35.8436C46.4966 36.0063 46.7159 36.2398 46.6982 36.5369C46.6699 36.9402 46.4294 37.1489 45.9836 37.163C45.3858 37.163 44.9896 36.7598 44.7986 35.9568H44.643V37.3222H44.7986C44.8269 37.2196 44.8871 37.1666 44.979 37.1666C45.0215 37.1666 45.1064 37.1807 45.2231 37.2125C45.492 37.2868 45.736 37.3257 45.9624 37.3257C46.8432 37.2974 47.3137 36.9083 47.3703 36.1619C47.3703 35.6985 47.1616 35.3483 46.7442 35.1113L45.9164 34.7081C45.6617 34.5878 45.499 34.4852 45.4247 34.3968C45.3505 34.3083 45.3151 34.1775 45.3151 34.0147C45.3292 33.6858 45.5379 33.5054 45.9412 33.4771C46.4647 33.4912 46.8362 33.8414 47.059 34.5277H47.2147V33.2931ZM49.8571 33.4912C50.4973 33.523 50.8334 34.1315 50.8652 35.3271C50.8652 36.5369 50.5292 37.1489 49.8571 37.163C49.1708 37.1489 48.8277 36.5369 48.8277 35.3271C48.856 34.135 49.1991 33.523 49.8571 33.4912ZM49.8571 33.2931C48.573 33.3816 47.8938 34.0607 47.8196 35.3307C47.8938 36.597 48.573 37.2621 49.8571 37.3222C51.127 37.2621 51.7956 36.597 51.8699 35.3307C51.7956 34.0607 51.127 33.3816 49.8571 33.2931ZM56.0793 33.3816H54.8271V33.516C55.2304 33.516 55.4179 33.7105 55.386 34.0961V35.84C55.4143 36.6607 55.0783 37.071 54.3779 37.071C53.8119 37.071 53.536 36.6996 53.5501 35.9532V34.0501C53.5501 33.8273 53.589 33.6858 53.6633 33.6256C53.7093 33.5513 53.8579 33.5124 54.1126 33.5124V33.378H52.167V33.5124C52.3757 33.5266 52.503 33.5726 52.5455 33.6469C52.6056 33.707 52.6339 33.8414 52.6339 34.0501V35.9532C52.6198 36.4449 52.7542 36.7951 53.0372 37.0038C53.306 37.2125 53.6916 37.3187 54.201 37.3187C54.6927 37.3045 55.0676 37.1772 55.3188 36.9402C55.5134 36.7315 55.6195 36.3671 55.6336 35.8436V34.0077C55.6018 33.6928 55.7539 33.5301 56.0793 33.516V33.3816ZM59.125 37.117C58.8562 37.1029 58.7076 37.064 58.6793 37.0038C58.605 36.9437 58.5661 36.8022 58.5661 36.5793V33.5584C59.2382 33.5443 59.6026 33.8626 59.6627 34.5206H59.8396L59.8184 33.378H56.3942L56.3729 34.5206H56.5286C56.6029 33.8626 56.9743 33.5443 57.6464 33.5584V36.5793C57.6464 36.8022 57.6075 36.9437 57.5332 37.0038C57.5049 37.064 57.3563 37.0993 57.0875 37.117V37.2514H59.125V37.117ZM64.3391 37.117C64.1304 37.0887 64.0031 37.0498 63.9571 37.0038C63.8828 36.9437 63.8439 36.8411 63.8439 36.689V33.9369C63.8298 33.6539 63.9925 33.5124 64.3356 33.5124V33.378H62.39V33.5124C62.7473 33.5124 62.9206 33.6539 62.9065 33.9369V35.1219H61.5411V33.9369C61.5269 33.6539 61.6967 33.5124 62.054 33.5124V33.378H60.1084V33.5124C60.4515 33.5124 60.6143 33.6539 60.6001 33.9369V36.689C60.6001 36.8376 60.5612 36.9437 60.4905 37.0038C60.4445 37.0498 60.3171 37.0852 60.1084 37.117V37.2514H62.054V37.117C61.8453 37.0887 61.7109 37.0498 61.6507 37.0038C61.5764 36.9437 61.5375 36.8411 61.5375 36.689V35.3908H62.903V36.689C62.903 36.8376 62.8676 36.9437 62.7898 37.0038C62.7296 37.0498 62.5952 37.0852 62.3865 37.117V37.2514H64.3321V37.117H64.3391ZM69.6452 36.3813C69.2278 36.8729 68.7785 37.1135 68.301 37.0958C67.9119 37.0675 67.6218 36.8942 67.4273 36.5793C67.2645 36.3105 67.1796 35.8931 67.1796 35.3271C67.1796 34.1032 67.5298 33.4912 68.2338 33.4912C68.7856 33.523 69.2349 33.9086 69.578 34.655H69.7124V33.3143H69.5568C69.4966 33.4912 69.4153 33.5832 69.3092 33.5832C69.2809 33.5832 69.1889 33.5549 69.0403 33.4947C68.6972 33.3603 68.4142 33.2931 68.1913 33.2931C66.9391 33.3816 66.267 34.0678 66.1786 35.3519C66.267 36.6183 66.9462 37.2762 68.2161 37.3222C68.8281 37.3363 69.3658 37.0675 69.8256 36.5157L69.6452 36.3813ZM74.3428 37.117C74.1341 37.0887 74.0068 37.0498 73.9608 37.0038C73.8865 36.9437 73.8476 36.8411 73.8476 36.689V33.9369C73.8335 33.6539 73.9962 33.5124 74.3393 33.5124V33.378H72.3938V33.5124C72.751 33.5124 72.9244 33.6539 72.9102 33.9369V35.1219H71.5448V33.9369C71.5306 33.6539 71.7004 33.5124 72.0612 33.5124V33.378H70.1157V33.5124C70.4588 33.5124 70.6215 33.6539 70.6074 33.9369V36.689C70.6074 36.8376 70.5685 36.9437 70.4942 37.0038C70.4482 37.0498 70.3208 37.0852 70.1121 37.117V37.2514H72.0577V37.117C71.849 37.0887 71.7146 37.0498 71.6544 37.0038C71.5802 36.9437 71.5412 36.8411 71.5412 36.689V35.3908H72.9067V36.689C72.9067 36.8376 72.8678 36.9437 72.7935 37.0038C72.7333 37.0498 72.5989 37.0852 72.3902 37.117V37.2514H74.3358V37.117H74.3428ZM76.582 37.117C76.1929 37.117 76.0054 36.9755 76.0231 36.6925V33.9405C76.009 33.6575 76.1788 33.516 76.5396 33.516H76.5855V33.3816H74.5692V33.516C74.9442 33.516 75.1211 33.6575 75.1069 33.9405V36.6925C75.1069 36.8411 75.0715 36.9472 74.9937 37.0074C74.9336 37.0534 74.7921 37.0887 74.5692 37.1206V37.255H76.5855V37.117H76.582ZM78.0606 37.2514V37.117C77.6715 37.117 77.4947 36.9225 77.523 36.5369V34.2517L80.0734 37.3187H80.2291V33.9864C80.1972 33.7035 80.3493 33.5443 80.6748 33.516V33.3816H79.4438V33.516C79.8329 33.5301 80.0097 33.7247 79.9814 34.0961V35.8188L77.9899 33.378H76.7801V33.5124C76.8544 33.4983 77.0171 33.6398 77.2718 33.9369V36.6466C77.2718 36.8093 77.2329 36.9225 77.1586 36.9826C77.0985 37.0427 76.9641 37.0852 76.7553 37.117V37.2514H78.0606ZM81.8633 35.9108L82.401 34.4994L82.9811 35.9108H81.8633ZM84.7286 37.117C84.6083 37.117 84.5128 37.064 84.4385 36.9614C84.3784 36.9013 84.2687 36.6855 84.1025 36.314L82.8255 33.2931H82.6698L81.3929 36.4485C81.2584 36.8977 81.071 37.1206 80.834 37.1206V37.255H81.9977V37.1206H81.9765C81.6794 37.0746 81.5273 36.9932 81.5273 36.8765C81.5131 36.8022 81.6016 36.5546 81.7961 36.1372H83.0731C83.2358 36.4945 83.3278 36.7491 83.342 36.8977C83.3703 37.0321 83.2394 37.1064 82.9387 37.1206H82.8715V37.255H84.7286V37.117ZM87.7283 37.2514V37.117C87.3392 37.117 87.1623 36.9225 87.1906 36.5369V34.2517L89.7411 37.3187H89.8967V33.9864C89.8649 33.7035 90.017 33.5443 90.3424 33.516V33.3816H89.1114V33.516C89.5005 33.5301 89.6774 33.7247 89.6491 34.0961V35.8188L87.6576 33.378H86.4478V33.5124C86.5221 33.4983 86.6883 33.6398 86.9395 33.9369V36.6466C86.9395 36.8093 86.9006 36.9225 86.8263 36.9826C86.7661 37.0427 86.6317 37.0852 86.423 37.117V37.2514H87.7283ZM92.6983 33.4912C93.3386 33.523 93.6746 34.1315 93.7029 35.3271C93.7029 36.5369 93.3669 37.1489 92.6983 37.163C92.0121 37.1489 91.669 36.5369 91.669 35.3271C91.7008 34.135 92.0439 33.523 92.6983 33.4912ZM92.6983 33.2931C91.4143 33.3816 90.7351 34.0607 90.6608 35.3307C90.7351 36.597 91.4143 37.2621 92.6983 37.3222C93.9647 37.2621 94.6368 36.597 94.7111 35.3307C94.6404 34.0607 93.9683 33.3816 92.6983 33.2931ZM96.5046 33.806C96.4763 33.6256 96.593 33.5513 96.8618 33.5832C97.3252 33.5832 97.5552 33.8591 97.5552 34.4109C97.5552 34.7541 97.4809 34.984 97.3288 35.1043C97.1943 35.2245 96.9184 35.2811 96.501 35.2811V33.806H96.5046ZM99.0126 37.117C98.9383 37.117 98.864 37.0817 98.7897 37.0038L97.6259 35.3696C98.2379 35.1927 98.535 34.8637 98.5209 34.3862C98.5067 33.7282 97.969 33.3922 96.9114 33.378H95.0755V33.5124C95.2842 33.5266 95.4115 33.5655 95.4575 33.6256C95.5318 33.6999 95.5707 33.8414 95.5707 34.0501V36.5793C95.5707 36.7881 95.5389 36.9295 95.4823 37.0038C95.4363 37.064 95.3018 37.0993 95.079 37.117V37.2514H97.0033V37.117C96.7628 37.0887 96.6284 37.0427 96.6001 36.9826C96.5399 36.9225 96.5116 36.7881 96.5116 36.5793V35.4615H96.6673L97.8523 37.2514H99.0161V37.117H99.0126ZM104.315 37.117C104.078 37.0887 103.937 37.0427 103.891 36.9826C103.83 36.9225 103.802 36.7881 103.802 36.5793V34.0501C103.802 33.8414 103.841 33.6999 103.915 33.6256C103.961 33.5655 104.096 33.5301 104.319 33.5124V33.378H102.865L101.722 36.0877L100.58 33.378H99.1258V33.5124C99.4972 33.5266 99.6705 33.6681 99.6422 33.9369V36.6466C99.6422 36.827 99.6139 36.9437 99.5538 37.0038C99.4936 37.064 99.3521 37.0993 99.1293 37.117V37.2514H100.449V37.117C100.222 37.1029 100.074 37.0498 99.9995 36.9614C99.9252 36.8871 99.8863 36.7456 99.8863 36.5369V33.8732L101.319 37.2514H101.475L102.907 33.7813H102.928V36.6678C102.928 36.8305 102.89 36.9437 102.815 37.0038C102.769 37.0498 102.635 37.0852 102.412 37.117V37.2514H104.315V37.117ZM105.504 35.9108L106.041 34.4994L106.621 35.9108H105.504ZM108.369 37.117C108.249 37.117 108.153 37.064 108.079 36.9614C108.019 36.9013 107.909 36.6855 107.743 36.314L106.466 33.2931H106.31L105.033 36.4485C104.899 36.8977 104.711 37.1206 104.474 37.1206V37.255H105.638V37.1206H105.613C105.316 37.0746 105.164 36.9932 105.164 36.8765C105.15 36.8022 105.238 36.5546 105.433 36.1372H106.71C106.873 36.4945 106.961 36.7491 106.979 36.8977C107.007 37.0321 106.876 37.1064 106.575 37.1206H106.508V37.255H108.365V37.117H108.369ZM112.196 35.9568H112.041C111.772 36.7315 111.287 37.1064 110.587 37.0746C110.212 37.1064 110.042 37.0003 110.074 36.7633V34.0537C110.074 33.8308 110.113 33.6893 110.187 33.6292C110.247 33.5549 110.403 33.516 110.658 33.516V33.3816H108.666V33.516C109.009 33.516 109.172 33.6575 109.158 33.9405V36.6925C109.158 36.8411 109.122 36.9472 109.045 37.0074C108.999 37.0534 108.871 37.0887 108.663 37.1206V37.255H111.977L112.196 35.9568ZM117.789 33.3816H116.537V33.516C116.94 33.516 117.128 33.7105 117.096 34.0961V35.84C117.124 36.6607 116.788 37.071 116.088 37.071C115.522 37.071 115.246 36.6996 115.26 35.9532V34.0501C115.26 33.8273 115.299 33.6858 115.373 33.6256C115.419 33.5513 115.568 33.5124 115.822 33.5124V33.378H113.877V33.5124C114.085 33.5266 114.213 33.5726 114.255 33.6469C114.315 33.707 114.344 33.8414 114.344 34.0501V35.9532C114.329 36.4449 114.464 36.7951 114.747 37.0038C115.016 37.2125 115.401 37.3187 115.911 37.3187C116.402 37.3045 116.777 37.1772 117.028 36.9402C117.223 36.7315 117.326 36.3671 117.343 35.8436V34.0077C117.311 33.6928 117.464 33.5301 117.789 33.516V33.3816ZM119.292 37.2514V37.117C118.903 37.117 118.726 36.9225 118.755 36.5369V34.2517L121.305 37.3187H121.461V33.9864C121.429 33.7035 121.581 33.5443 121.907 33.516V33.3816H120.675V33.516C121.065 33.5301 121.241 33.7247 121.213 34.0961V35.8188L119.222 33.378H118.012V33.5124C118.086 33.4983 118.252 33.6398 118.504 33.9369V36.6466C118.504 36.8093 118.468 36.9225 118.39 36.9826C118.33 37.0427 118.196 37.0852 117.987 37.117V37.2514H119.292ZM124.149 37.117C123.76 37.117 123.573 36.9755 123.59 36.6925V33.9405C123.576 33.6575 123.746 33.516 124.107 33.516H124.153V33.3816H122.136V33.516C122.508 33.516 122.688 33.6575 122.674 33.9405V36.6925C122.674 36.8411 122.639 36.9472 122.561 37.0074C122.501 37.0534 122.359 37.0887 122.136 37.1206V37.255H124.153V37.117H124.149ZM127.036 33.3816V33.516C127.244 33.5301 127.372 33.5549 127.414 33.5832C127.489 33.6115 127.527 33.6787 127.527 33.7848C127.527 33.8449 127.499 33.9475 127.439 34.0996C127.425 34.1456 127.418 34.1739 127.418 34.1881L126.678 36.0664L125.939 34.2517C125.819 34.0147 125.762 33.8485 125.762 33.7601C125.762 33.6539 125.791 33.5973 125.851 33.5796C125.893 33.5513 126.028 33.5266 126.254 33.5124V33.378H124.33V33.5124C124.552 33.5124 124.719 33.6469 124.821 33.9157L126.279 37.3187H126.434L127.733 33.9829C127.839 33.6716 128.008 33.5124 128.249 33.5124V33.3816H127.036ZM128.447 33.516C128.804 33.516 128.978 33.6575 128.964 33.9405V36.6925C128.964 36.8411 128.928 36.9472 128.85 37.0074C128.804 37.0534 128.67 37.0887 128.447 37.1206V37.255H131.804L132.027 36.07H131.871C131.588 36.7562 131.09 37.0923 130.371 37.0781C130.014 37.0923 129.851 36.9897 129.88 36.7668V35.3802C130.191 35.3802 130.417 35.4403 130.552 35.5606C130.686 35.695 130.775 35.9249 130.821 36.2539H130.955V34.3296H130.821C130.775 34.6585 130.686 34.8814 130.552 35.0017C130.417 35.1219 130.195 35.1785 129.88 35.1785V33.8591C129.851 33.6504 129.993 33.562 130.304 33.5903C130.754 33.5903 131.065 33.6575 131.245 33.7919C131.44 33.9263 131.56 34.1739 131.602 34.5312H131.762V33.3886H128.447V33.516ZM133.75 33.806C133.721 33.6256 133.838 33.5513 134.107 33.5832C134.57 33.5832 134.8 33.8591 134.8 34.4109C134.8 34.7541 134.726 34.984 134.577 35.1043C134.443 35.2245 134.167 35.2811 133.75 35.2811V33.806ZM136.258 37.117C136.183 37.117 136.109 37.0817 136.035 37.0038L134.871 35.3696C135.483 35.1927 135.78 34.8637 135.766 34.3862C135.752 33.7282 135.214 33.3922 134.156 33.378H132.321V33.5124C132.529 33.5266 132.657 33.5655 132.703 33.6256C132.777 33.6999 132.816 33.8414 132.816 34.0501V36.5793C132.816 36.7881 132.784 36.9295 132.727 37.0038C132.681 37.064 132.547 37.0993 132.324 37.117V37.2514H134.248V37.117C134.008 37.0887 133.873 37.0427 133.845 36.9826C133.785 36.9225 133.757 36.7881 133.757 36.5793V35.4615H133.912L135.097 37.2514H136.261V37.117H136.258ZM139.056 33.2931H138.879C138.865 33.4275 138.805 33.4947 138.698 33.4947C138.652 33.4947 138.571 33.4735 138.451 33.4275C138.196 33.3391 137.98 33.2931 137.804 33.2931C136.997 33.3073 136.572 33.6893 136.527 34.4357C136.498 34.9132 136.824 35.3165 137.51 35.6419L137.892 35.8436C138.338 36.0063 138.557 36.2398 138.539 36.5369C138.511 36.9402 138.27 37.1489 137.821 37.163C137.223 37.163 136.831 36.7598 136.636 35.9568H136.481V37.3222H136.636C136.664 37.2196 136.725 37.1666 136.817 37.1666C136.859 37.1666 136.944 37.1807 137.061 37.2125C137.329 37.2868 137.577 37.3257 137.8 37.3257C138.681 37.2974 139.151 36.9083 139.208 36.1619C139.208 35.6985 138.999 35.3483 138.582 35.1113L137.754 34.7081C137.499 34.5878 137.337 34.4852 137.262 34.3968C137.188 34.3083 137.153 34.1775 137.153 34.0147C137.167 33.6858 137.375 33.5054 137.779 33.4771C138.302 33.4912 138.674 33.8414 138.897 34.5277H139.056V33.2931ZM141.585 37.117C141.196 37.117 141.012 36.9755 141.026 36.6925V33.9405C141.012 33.6575 141.182 33.516 141.539 33.516H141.585V33.3816H139.569V33.516C139.94 33.516 140.12 33.6575 140.106 33.9405V36.6925C140.106 36.8411 140.071 36.9472 139.997 37.0074C139.937 37.0534 139.795 37.0887 139.572 37.1206V37.255H141.588V37.117H141.585ZM144.606 37.117C144.337 37.1029 144.188 37.064 144.16 37.0038C144.086 36.9437 144.047 36.8022 144.047 36.5793V33.5584C144.719 33.5443 145.083 33.8626 145.144 34.5206H145.32L145.299 33.378H141.875L141.854 34.5206H142.009C142.084 33.8626 142.455 33.5443 143.127 33.5584V36.5793C143.127 36.8022 143.088 36.9437 143.014 37.0038C142.986 37.064 142.834 37.0993 142.568 37.117V37.2514H144.606V37.117ZM148.232 33.3816V33.516C148.561 33.5301 148.716 33.6186 148.702 33.7848C148.688 33.9334 148.614 34.1067 148.479 34.3013L147.853 35.3766L147.16 34.0324C147.16 34.0183 147.146 33.9935 147.117 33.9652C147.057 33.8449 147.025 33.7636 147.025 33.7176C146.983 33.569 147.139 33.5018 147.496 33.516V33.3816H145.572V33.516C145.766 33.5301 145.915 33.6362 146.021 33.8308L147.071 35.7339V36.5864C147.071 36.7951 147.036 36.9295 146.962 36.9897C146.916 37.064 146.774 37.11 146.537 37.1241V37.2585H148.529V37.1241C148.292 37.11 148.147 37.071 148.104 37.0109C148.044 36.9508 148.016 36.8093 148.016 36.5864V35.5323L149.113 33.7424C149.187 33.6221 149.307 33.5478 149.47 33.5195H149.491V33.3816H148.232Z" fill="#004073"/>
<path fill-rule="evenodd" clip-rule="evenodd" d="M49.3406 12.7056C50.2638 12.7056 50.002 15.0862 50.002 15.0862L47.8902 16.2076C47.8902 16.2076 46.8361 17.1874 48.4173 17.1874C50.002 17.1874 51.8486 15.6487 51.8486 15.6487L51.5833 18.7297C51.5833 18.7297 45.5131 22.2317 44.7207 22.2317C43.9284 22.2317 43.136 23.2116 44.4554 23.912C45.7749 24.6124 45.2478 24.4709 46.6981 23.3531C48.1485 22.2317 51.4488 20.1341 51.4488 20.1341L51.5797 22.5147L49.2026 24.195C49.2026 24.195 47.7523 24.9449 49.2026 25.8752C50.6529 26.8056 51.7106 25.7337 51.7106 25.7337C51.7106 25.7337 51.5797 27.414 51.4453 28.2559C51.3144 29.0978 50.522 29.5152 51.8415 30.916C53.1609 32.3168 53.8684 31.7084 53.8684 30.4491C53.8684 29.1898 53.5571 23.912 53.5571 23.912C53.5571 23.912 55.1419 23.491 55.4036 22.7906C55.6689 22.0902 55.4036 21.9487 54.0842 21.9487C52.7647 21.9487 52.7647 21.5278 52.7647 21.5278L53.168 19.0163C53.168 19.0163 56.7691 17.9444 58.4316 17.1521C59.8147 16.4941 59.8607 16.0166 59.5211 15.7796C59.086 15.4753 57.9187 15.539 57.1617 15.7937C55.3753 16.388 53.3166 17.6155 53.3166 17.6155L53.5571 15.6451C53.5571 15.6451 53.8224 13.9649 54.8766 13.9649C55.9307 13.9649 57.9116 12.8435 57.7807 12.1431C57.6499 11.4427 57.2784 11.5984 56.3516 11.7399C55.9873 11.7965 55.6123 10.668 55.439 10.7742C54.7563 11.1986 55.301 13.0947 53.8401 12.8435C53.4828 12.7834 53.8649 12.3766 53.6809 12.32C53.2741 12.1891 52.8072 12.2492 52.5171 12.7622L51.6575 14.2832C51.6575 14.2832 50.9182 12.5641 51.5762 11.8637C52.2377 11.1633 57.5154 7.94425 57.5154 7.94425C57.5154 7.94425 58.1769 6.1225 56.7231 6.68494C55.2727 7.24385 52.7647 9.766 52.7647 9.766C52.7647 9.766 52.2377 10.8874 51.8415 10.0455C51.4453 9.20356 52.1068 8.3652 51.4453 8.2237C50.7838 8.08221 49.5988 7.3818 49.5988 8.50315C49.5988 8.94179 49.284 8.99485 49.0788 9.21063C48.8029 9.49716 48.8453 9.62451 48.8595 9.7094C48.8772 9.80491 48.9019 9.84029 49.1566 9.94641C49.5988 10.1339 49.5988 10.8838 49.5988 10.8838C49.2026 11.0395 48.7427 11.0854 48.5482 11.3932C48.2333 11.9061 48.435 12.7056 49.3406 12.7056Z" fill="#004073"/>
<path fill-rule="evenodd" clip-rule="evenodd" d="M85.2768 10.4416C85.2768 10.4416 86.0586 11.0677 86.0586 11.8141C86.0586 12.5605 84.9231 14.7466 83.9114 15.875C83.1226 16.7558 81.9623 18.0611 81.46 18.712C81.2301 19.0092 81.0956 19.2037 81.5343 19.377C81.8739 19.515 82.3903 19.5539 82.5884 19.2355C82.8997 18.7226 87.187 13.9259 87.7919 13.1583C88.418 12.3553 88.3685 11.6089 87.6504 11.0324C86.1152 9.79073 85.2768 10.4416 85.2768 10.4416ZM82.8396 23.4309C82.6804 25.9071 83.0447 26.2608 83.4445 26.3138C83.8406 26.3634 84.9585 26.2466 84.8771 23.8377C84.7993 21.4287 82.8537 21.2589 82.8537 21.2589L82.8396 23.4309ZM86.4902 20.6081C86.3982 20.6823 85.3546 21.2483 85.3794 21.885C85.4006 22.5253 85.4254 23.8518 86.1187 23.9261C86.8156 24.0004 87.5089 23.4592 87.325 22.2777C87.141 21.0997 86.5821 20.5338 86.4902 20.6081ZM86.7767 16.2783C86.7767 16.2783 85.1742 18.5316 84.5623 19.0092C83.9538 19.4867 84.7215 19.8298 85.3016 19.9996C85.8782 20.1694 86.7767 20.41 87.0667 19.4549C87.3568 18.4998 87.3214 17.9161 87.5797 17.7817C87.8379 17.6473 88.0289 16.7558 87.7105 16.4835C87.3886 16.2111 86.7767 16.2783 86.7767 16.2783ZM88.1456 21.2695C88.1456 21.2695 87.8874 22.4404 88.7116 22.2777C89.5323 22.115 90.6112 21.1068 90.636 21.6233C90.6607 22.1397 90.6147 27.7147 90.6147 28.1604C90.6147 28.6061 91.202 29.1084 91.5097 29.1084C91.8175 29.1084 92.5143 28.7829 92.5143 27.4493V21.7259C92.5143 21.7259 93.3527 22.3484 94.7216 19.9749C95.6626 18.3441 95.0046 17.8772 94.5023 17.7428C94.0743 17.6296 94.092 17.6897 93.7559 17.9232C93.335 18.2203 92.6063 18.6979 92.2596 18.6979C91.7573 18.6979 92.2313 18.284 91.9802 18.284C91.729 18.284 91.0569 18.1071 91.0569 18.4326C91.0569 18.758 91.0286 20.2119 91.0286 20.2119L88.1456 21.2695ZM93.0272 18.9844C92.861 19.1896 92.3516 19.8334 92.5886 19.9925C92.8256 20.1517 93.2006 20.2826 93.4659 19.8334C93.7276 19.3841 94.3679 18.9738 93.9646 18.8252C93.5614 18.6766 93.0272 18.9844 93.0272 18.9844ZM89.3484 17.198C89.5783 17.5765 89.9992 18.001 90.6395 17.9303C91.7821 17.8064 93.5402 16.3066 94.1274 15.776C94.7146 15.2454 95.3584 14.591 94.8596 14.0887C94.3608 13.5899 93.8338 13.6819 92.8964 14.4636C92.2207 15.0225 90.6254 15.9246 89.7481 16.3738C89.1963 16.6533 88.9416 16.5259 89.3484 17.198Z" fill="#004073"/>
<path fill-rule="evenodd" clip-rule="evenodd" d="M111.914 10.5371C111.532 10.1303 110.576 10.3319 109.964 11.1491C109.352 11.9627 109.391 12.939 109.696 13.1052C110.003 13.268 111.51 13.2467 112.366 12.1749C113.056 11.3153 111.914 10.5371 111.914 10.5371ZM106.13 12.985C105.617 12.6878 104.963 12.61 104.683 13.0168C104.407 13.4201 103.937 13.9825 104.757 14.5733C105.575 15.164 106.349 15.5708 106.834 14.8987C107.838 13.2963 106.13 12.985 106.13 12.985ZM110.276 16.6568C110.912 16.6002 110.7 17.3324 110.276 17.672C109.851 18.0116 109.317 18.8004 109.317 19.7025C109.317 20.6045 110.541 20.9441 111.019 20.9441C111.496 20.9441 111.072 19.9289 111.072 19.2532C111.072 18.5776 111.868 17.6189 112.614 16.9398C113.357 16.2641 112.72 15.3621 111.765 15.1357C110.806 14.9093 109.639 16.4905 109.639 16.4905L110.276 16.6568ZM108.684 20.2083L108.1 19.5893C108.1 19.5893 107.888 22.4652 107.57 23.4804C107.251 24.4956 107.729 26.4129 108.9 26.5827C110.071 26.7525 113.364 26.6959 114.11 26.4695C114.853 26.2431 115.6 25.2279 114.959 23.5936C114.323 21.9593 114.001 21.5065 113.735 21.5631C113.47 21.6197 113.364 22.1256 113.523 22.8613C113.682 23.5936 114.16 24.6088 113.311 24.8918C112.462 25.1748 109.165 25.8504 109.006 24.103C108.843 22.352 109.108 21.3367 108.684 20.2083ZM101.885 13.0628C101.252 13.5191 100.152 14.6794 100.258 15.5319C100.399 16.6851 100.82 17.1838 101.715 17.0353C102.497 16.9044 102.989 14.4353 102.883 13.2821C102.812 12.5499 102.334 12.7374 101.885 13.0628ZM104.145 16.5966L104.131 17.3536L103.251 17.9161C103.251 17.9161 103.381 18.429 104.043 18.291C104.704 18.1496 103.954 19.4124 103.512 19.3664C103.07 19.3204 102.631 19.3204 102.543 19.6459C102.455 19.9748 101.001 19.8793 101.001 19.8793C101.001 19.8793 99.8546 21.1422 100.385 21.7046C100.912 22.2671 101.751 21.4252 102.016 21.2837C102.281 21.1422 102.677 20.6293 103.205 21.1917C103.732 21.7541 103.643 21.8461 103.028 22.2671C102.412 22.688 102.631 23.0135 102.939 23.2505C103.247 23.4839 103.335 23.8589 102.324 23.8589C101.308 23.8589 101.708 23.5794 101.62 23.346C101.531 23.1125 99.7237 23.9544 99.3735 24.9838C99.0198 26.0132 99.8157 26.6676 100.566 26.4341C101.316 26.2006 102.593 24.5628 103.254 24.8918C103.916 25.2208 103.385 25.5922 103.035 26.3421C102.681 27.0885 102.858 28.507 103.466 29.073C104.075 29.639 104.683 28.4257 104.683 27.6156C104.683 26.8055 104.457 24.4992 104.796 24.2162C105.139 23.9332 105.557 23.0028 105.935 22.7588C106.314 22.5147 106.618 22.1114 106.618 21.503C106.618 20.8946 106.466 20.7743 105.935 20.654C105.405 20.5337 105.709 19.5221 106.01 19.4407C106.314 19.3593 106.883 18.9561 106.844 18.5104C106.806 18.0647 106.615 17.4987 106.162 17.5376C105.705 17.58 105.971 16.77 105.288 16.487C104.602 16.1934 104.107 16.1934 104.145 16.5966Z" fill="#004073"/>
<path fill-rule="evenodd" clip-rule="evenodd" d="M132.894 26.7135C132.894 26.7135 131.185 26.9965 130.011 26.374C128.836 25.7514 127.021 24.4496 127.021 24.4496C127.021 24.4496 126.643 24.1348 126.625 24.63C126.608 25.1253 127.163 25.9247 127.432 26.2289C127.701 26.5331 128.833 29.1791 129.996 29.0871C131.167 28.9881 132.894 26.7135 132.894 26.7135ZM127.075 14.7041C127.075 14.0815 126.487 12.6065 125.794 11.9839C125.101 11.3613 124.62 11.3613 124.938 12.8328C125.26 14.3044 124.938 19.6317 124.457 20.7071C123.976 21.7824 122.748 22.122 121.256 22.2918C119.763 22.4616 118.641 21.839 119.119 22.9144C119.6 23.9898 119.918 25.2385 120.934 24.6123C121.949 23.9898 124.192 22.2883 124.135 23.5936C124.082 24.8953 122.32 27.842 119.759 27.3892C119.759 27.3892 119.331 28.4645 120.827 28.7475C122.32 29.0305 125.419 26.4836 125.207 22.5182C125.207 22.5182 128.677 21.0467 130.064 20.3675C131.45 19.6883 130.439 19.0657 130.117 18.9525C129.795 18.8393 129.155 18.2733 128.461 18.8959C127.768 19.5185 126.165 20.9335 125.794 20.3109C125.419 19.6883 126.059 18.1566 126.54 17.251C127.021 16.3455 127.075 14.7041 127.075 14.7041Z" fill="#004073"/>
<path fill-rule="evenodd" clip-rule="evenodd" d="M75.1635 16.2358L69.6452 19.7767L69.5921 18.7226C69.5921 18.7226 73.607 15.0154 74.0669 14.5697C74.5268 14.1204 73.4549 13.0628 73.1118 13.5509C72.7687 14.0391 72.1178 14.4459 71.6969 14.2018C71.2759 13.9577 72.2699 13.1017 72.0789 12.4508C71.8879 11.7999 69.1747 9.80484 69.1747 9.80484L69.3233 14.9164C69.2879 16.0731 66.6844 17.1308 65.6691 17.0529C64.6575 16.9751 64.0844 16.7487 64.1304 17.7958C64.1764 18.8429 66.6738 19.1117 67.3246 19.1471C67.9755 19.1824 68.0074 20.2932 67.4025 20.5514C66.7976 20.8096 64.1799 22.1291 63.3239 22.5182C62.4678 22.9073 62.3758 24.439 62.3758 26.4871C62.3758 28.5353 63.6281 29.0234 64.2082 29.0234C64.7883 29.0234 64.8803 27.8844 64.9121 26.8763C64.944 25.8681 64.0879 24.9908 63.8439 24.2727C63.5998 23.5582 65.9521 22.2883 66.4721 22.2564C66.9921 22.2246 66.9603 23.0382 67.3565 23.491C67.7527 23.9473 68.4566 23.4273 68.7325 23.1019C69.0084 22.7764 69.5886 22.7764 69.7088 23.07C69.8291 23.3636 69.4329 23.4945 68.7927 23.7527C68.1524 24.0145 68.2727 24.2091 68.5167 24.6972C68.7608 25.1854 68.4849 25.8363 67.8765 25.8363C67.2645 25.8363 67.1124 26.618 67.1124 26.618C67.1124 26.618 67.1018 26.6322 67.1619 26.8303C67.2221 27.0248 68.6335 28.7192 69.3091 28.8466C69.9848 28.9775 70.289 28.4221 70.9646 26.8303C71.6403 25.2349 72.9597 27.4493 73.4196 28.1957C73.8794 28.9456 75.3828 30.1483 75.4748 28.033C75.5667 25.9176 76.2495 21.1351 76.9534 18.1708C77.6538 15.2029 75.1635 16.2358 75.1635 16.2358ZM69.8043 21.4464C69.3303 21.8779 68.5769 21.9062 68.2585 21.6374C67.9366 21.3721 68.6901 20.9087 69.1782 20.6151C69.6664 20.3179 70.5012 20.1694 70.6569 20.3179C70.6533 20.3215 70.2784 21.0183 69.8043 21.4464ZM74.6576 23.3424C74.6576 23.3176 74.4808 27.0036 73.745 26.7666C73.0092 26.5296 72.2098 26.3633 71.6296 23.9544C71.0495 21.5454 73.2533 20.5302 73.3665 20.4594C73.4762 20.3887 73.6318 19.9147 73.0977 19.7979C72.5635 19.6812 72.3866 19.232 73.0517 18.8995C73.7202 18.5705 75.5243 16.9397 75.4571 18.4502C75.3934 19.9642 74.6576 23.3672 74.6576 23.3424Z" fill="#004073"/>
<path fill-rule="evenodd" clip-rule="evenodd" d="M148.062 15.6875C148.062 15.6875 149.127 13.5899 149.937 12.9461C150.747 12.3023 150.595 11.2269 150.089 10.6892C149.583 10.1515 148.822 10.4204 148.267 10.905C147.708 11.3896 144.772 13.4837 144.468 13.4837C144.164 13.4837 143.403 13.1618 144.164 12.5711C144.924 11.9804 146.81 11.853 146.003 10.2081C145.2 8.56325 144.213 9.34855 144.213 9.34855C144.213 9.34855 144.669 10.3143 144.567 10.7458C144.464 11.1774 143.35 12.465 143.35 12.465L139.551 10.1551C139.551 10.1551 138.893 10.1551 138.893 10.5866C138.893 11.0147 139.148 11.287 139.703 11.662C140.258 12.037 140.969 12.5746 140.969 13.5439C140.969 14.5096 141.072 16.1757 140.768 16.0696C140.464 15.9635 139.905 15.8007 139.905 15.0473C139.905 14.2938 138.486 14.025 138.284 14.2938C138.083 14.5626 138.284 14.9942 138.437 16.013C138.589 17.0317 138.132 17.7852 138.688 18.001C139.247 18.2168 139.65 18.2168 139.65 18.6978C139.65 19.1825 135.9 22.2989 136.204 22.7835C136.509 23.2682 136.661 24.3966 137.623 24.0747C138.585 23.7528 142.943 20.0421 144.21 19.2355C145.476 18.429 148.161 16.3879 148.667 16.869C149.173 17.3536 146.59 19.5574 145.83 19.7166C145.069 19.8793 144.917 19.6636 143.905 20.417C142.894 21.1705 141.627 21.4924 142.133 21.7612C142.639 22.0301 144.21 21.4393 144.111 21.977C144.008 22.5147 144.464 23.3212 143.757 23.4273C143.049 23.5335 141.426 23.7492 140.262 24.34C139.098 24.9307 136.767 26.1688 137.121 26.7595C137.474 27.3503 139.247 28.3726 140.361 29.1791C141.475 29.9856 142.49 30.7922 142.894 31.061C143.3 31.3298 145.225 31.7614 145.225 29.9326C145.225 28.1038 145.175 24.7715 145.175 24.7715H148.267C148.267 24.7715 148.974 24.6088 148.875 23.7492C148.773 22.8896 148.012 22.2989 147.609 22.2989C147.202 22.2989 147.001 22.405 147.001 22.8366H145.632V21.7612C145.632 21.7612 146.746 21.1174 146.746 20.6328C146.746 20.1482 146.544 20.0951 147.457 19.4513C148.37 18.8075 150.039 17.7321 150.039 16.7098C150.036 15.6875 148.921 15.6875 148.062 15.6875ZM141.659 13.887C141.62 13.4448 142.077 13.6854 142.077 13.6854C142.077 13.6854 142.681 13.8481 142.681 14.2903C142.681 14.7324 142.49 14.7749 141.96 14.7749C141.433 14.7714 141.698 14.3292 141.659 13.887ZM141.659 16.303C142.494 16.0625 142.568 15.7406 142.607 16.1439C142.646 16.5471 142.681 16.586 143.025 16.5047C143.364 16.4233 143.52 16.2641 143.481 16.7877C143.442 17.3112 143.442 17.1909 142.724 17.3926C142.002 17.5942 142.119 17.2298 141.549 17.8347C140.98 18.4396 140.524 17.8736 140.524 17.8736C140.524 17.8736 140.824 16.5436 141.659 16.303ZM141.433 20.0067C141.093 20.2083 139.537 21.8992 139.006 21.457C138.475 21.0148 140.333 19.5256 140.828 19.1223C140.828 19.1223 143.789 17.3926 144.167 17.7958C144.542 18.192 141.772 19.805 141.433 20.0067ZM144.772 16.059C144.394 16.1792 144.167 15.9387 144.05 15.5743C143.937 15.2135 144.846 15.2135 144.846 15.2135C144.846 15.2135 145.151 15.4152 145.151 15.776C145.151 16.1403 145.151 15.9387 144.772 16.059ZM147.69 15.0933C147.577 15.2949 147.425 15.2524 147.234 15.5354C147.043 15.8184 147.008 15.9387 146.969 16.3809C146.93 16.823 146.93 16.8655 146.399 16.9044C145.869 16.9433 145.982 16.6214 145.982 16.342C145.982 16.059 146.021 16.0201 146.021 15.5354C146.021 15.0543 146.134 15.4541 146.477 15.2524C146.817 15.0508 146.856 14.8492 147.047 14.407C147.238 13.9648 147.008 13.9224 146.668 13.7243C146.328 13.5227 146.477 13.4837 146.477 13.0805C146.477 12.6772 146.894 12.7197 147.464 12.1961C148.034 11.6726 148.451 11.5912 148.943 11.9556C149.434 12.3164 148.186 13.8481 147.881 14.5733C147.881 14.5697 147.807 14.8916 147.69 15.0933ZM143.233 29.6248C143.071 30.1413 142.692 29.3383 140.584 27.8986C138.475 26.4589 139.558 26.7454 140.584 26.2289C141.61 25.7125 143.286 25.3658 143.286 25.3658C143.286 25.3658 143.396 29.1048 143.233 29.6248Z" fill="#004073"/>
<path fill-rule="evenodd" clip-rule="evenodd" d="M34.9961 18.3828C36.6657 19.253 37.8472 20.5229 38.4415 22.2775C37.4051 22.7727 36.3651 23.2679 35.3251 23.7632C36.3226 22.0086 36.0821 20.2116 34.9961 18.3828Z" fill="#A6AFB5"/>
<path fill-rule="evenodd" clip-rule="evenodd" d="M4.15244 18.3828C2.4828 19.253 1.30131 20.5229 0.707031 22.2739C1.74702 22.7692 2.78348 23.2644 3.82347 23.7596C2.82946 22.0086 3.07 20.2116 4.15244 18.3828Z" fill="#A6AFB5"/>
<path fill-rule="evenodd" clip-rule="evenodd" d="M0.707031 22.2773V26.0482C2.41559 26.646 4.06755 27.3181 5.3127 28.5102C6.26426 27.9938 6.89038 27.0139 7.18398 25.5777C6.46589 24.3609 4.71489 23.2289 0.707031 22.2773Z" fill="#D8E8F7"/>
<path fill-rule="evenodd" clip-rule="evenodd" d="M38.4418 22.2773V26.0482C36.7332 26.646 35.0813 27.3181 33.8361 28.5102C32.8846 27.9938 32.2584 27.0139 31.9648 25.5777C32.6829 24.3609 34.4304 23.2289 38.4418 22.2773Z" fill="#D8E8F7"/>
<path fill-rule="evenodd" clip-rule="evenodd" d="M36.296 31.0995C34.2301 29.6456 32.7515 28.0856 31.9981 26.3594C30.8838 28.1387 31.1491 30.6148 32.8117 32.3942C34.4459 32.2385 34.6617 31.2551 36.296 31.0995Z" fill="#A6AFB5"/>
<path fill-rule="evenodd" clip-rule="evenodd" d="M2.70312 31.3223C4.82202 29.6455 6.47398 28.0042 7.18853 26.2744C8.3028 28.1386 7.85002 30.8129 6.18745 32.6771C4.55318 32.5144 4.34093 31.485 2.70312 31.3223Z" fill="#A6AFB5"/>
<path fill-rule="evenodd" clip-rule="evenodd" d="M6.55432 8.64746H32.3737V24.2473C32.3737 26.6351 30.8278 28.9096 28.6594 30.8021C25.971 33.1509 22.3169 34.9161 19.5259 35.5528H19.3986C15.8753 34.7533 12.49 33.0094 10.0811 30.5403C7.92682 28.3295 6.55078 25.5385 6.55078 22.323V8.64746H6.55432Z" fill="#004073"/>
<path fill-rule="evenodd" clip-rule="evenodd" d="M7.13672 9.22461V22.3235C7.13672 25.3763 8.44555 28.0293 10.5008 30.1376C12.8142 32.5112 16.0686 34.195 19.4645 34.9768C22.1635 34.3471 25.6832 32.6385 28.2797 30.3711C30.3278 28.5812 31.7923 26.4517 31.7923 24.2514V9.22461H7.13672Z" fill="#D8E8F7"/>
<path fill-rule="evenodd" clip-rule="evenodd" d="M10.7655 10.1055H12.9303V15.7087L15.1129 18.5704L15.1801 18.6589L15.1129 18.7438L13.8501 20.4559L13.7333 20.6115L13.6201 20.4559L11.8373 18.054L7.87895 23.5334L7.61719 23.4485V20.1587L7.64549 20.0738L10.7655 15.7122V10.1055Z" fill="#004073"/>
<path fill-rule="evenodd" clip-rule="evenodd" d="M28.024 10.1055V15.7122L31.144 20.0738L31.1688 20.1587V23.4485L30.907 23.5334L26.9487 18.054L25.1694 20.4559L25.0526 20.6115L24.9359 20.4559L23.673 18.7438L23.6094 18.6589L23.673 18.5704L25.8556 15.7087V10.1055H28.024Z" fill="#004073"/>
<path fill-rule="evenodd" clip-rule="evenodd" d="M27.7325 10.3955H26.1442V15.7546L26.1124 15.8431L23.9688 18.6588L25.0512 20.1268L26.834 17.725L26.9508 17.5658L27.0675 17.725L30.8773 23.0027V20.2047L27.7608 15.8431L27.7325 15.7582V10.3955Z" fill="white"/>
<path fill-rule="evenodd" clip-rule="evenodd" d="M24.9253 32.8547L20.7193 26.8412L22.9443 23.6328L23.0045 23.5443L22.9408 23.463L21.7735 21.9525L21.6532 21.7969L21.54 21.9561L19.4211 24.9876L17.3022 21.9561L17.189 21.7969L17.0687 21.9525L15.9014 23.463L15.8342 23.5443L15.8943 23.6328L18.1229 26.8412L13.9134 32.8547L13.832 32.975L13.9523 33.0564L15.5017 34.114L15.6219 34.1954L15.7033 34.0787L19.4211 28.716L23.1389 34.0787L23.2202 34.1954L23.337 34.114L24.8899 33.0564L25.0102 32.975L24.9253 32.8547Z" fill="#004073"/>
<path fill-rule="evenodd" clip-rule="evenodd" d="M24.6024 32.8999L20.3647 26.8439L22.6463 23.5541L21.6629 22.2842L19.4202 25.4891L17.1739 22.2842L16.1941 23.5541L18.4722 26.8439L14.2344 32.8999L15.5467 33.7948L19.4202 28.2093L23.2936 33.7948L24.6024 32.8999Z" fill="white"/>
<path fill-rule="evenodd" clip-rule="evenodd" d="M2.70312 31.8854V35.2778C4.69113 35.819 6.39262 36.2824 8.36294 36.9969C11.9958 38.3199 15.8976 39.8728 19.6578 39.887C23.464 39.8976 27.0509 38.0192 30.6343 36.7033C32.5127 36.0135 34.3344 35.3167 36.2941 35.3839V31.6201C33.6305 32.0269 31.1083 32.8547 28.3315 34.0149C25.6537 35.1327 22.7884 36.4239 19.87 36.339C17.0154 36.2576 12.392 34.9665 9.64701 33.8664C6.82064 32.7273 5.33494 32.1224 2.70312 31.8854Z" fill="#004073"/>
<path fill-rule="evenodd" clip-rule="evenodd" d="M0.707031 22.9775V26.7484C2.41559 27.3462 4.06755 28.0183 5.3127 29.2139C6.26426 28.6975 6.89038 27.7176 7.18398 26.2815C6.46589 25.0646 4.71489 23.9291 0.707031 22.9775Z" fill="#004073"/>
<path fill-rule="evenodd" clip-rule="evenodd" d="M38.4418 22.9775V26.7484C36.7332 27.3462 35.0813 28.0183 33.8361 29.2139C32.8846 28.6975 32.2584 27.7176 31.9648 26.2815C32.6829 25.0646 34.4304 23.9291 38.4418 22.9775Z" fill="#004073"/>
<path fill-rule="evenodd" clip-rule="evenodd" d="M14.3017 0.0273438H24.6026V1.47413H33.867L32.2398 3.10133H6.57251L4.94531 1.47413H14.3017V0.0273438Z" fill="#004073"/>
<path fill-rule="evenodd" clip-rule="evenodd" d="M6.52344 2.97363H32.3711V9.27017H6.52344V2.97363ZM10.0042 4.82368C10.1917 4.82368 10.1386 5.30477 10.1386 5.30477L9.71416 5.53116C9.71416 5.53116 9.50191 5.72925 9.82028 5.72925C10.1386 5.72925 10.5136 5.41796 10.5136 5.41796L10.4605 6.04054C10.4605 6.04054 9.23661 6.74802 9.07743 6.74802C8.91825 6.74802 8.75906 6.94611 9.02437 7.08761C9.28967 7.2291 9.18355 7.20081 9.47715 6.97441C9.77076 6.74802 10.4358 6.32353 10.4358 6.32353L10.4641 6.80462L9.98654 7.14421C9.98654 7.14421 9.69293 7.29632 9.98654 7.4838C10.2801 7.67128 10.4924 7.4555 10.4924 7.4555C10.4924 7.4555 10.4676 7.79509 10.4393 7.96488C10.4146 8.13468 10.2518 8.21957 10.5207 8.50256C10.786 8.78555 10.9275 8.66175 10.9275 8.40705C10.9275 8.15236 10.8638 7.08761 10.8638 7.08761C10.8638 7.08761 11.1822 7.00271 11.2352 6.86122C11.2883 6.71972 11.2352 6.69142 10.9699 6.69142C10.7046 6.69142 10.7046 6.60653 10.7046 6.60653L10.786 6.10068C10.786 6.10068 11.5111 5.8849 11.8472 5.72572C12.1267 5.59483 12.1373 5.49579 12.0665 5.4498C11.9781 5.38967 11.7446 5.40028 11.5925 5.45334C11.2317 5.57361 10.8178 5.82123 10.8178 5.82123L10.8673 5.42504C10.8673 5.42504 10.9204 5.08545 11.1326 5.08545C11.3449 5.08545 11.7446 4.85906 11.7199 4.71756C11.6916 4.57607 11.6173 4.6079 11.4333 4.6362C11.359 4.64682 11.2848 4.42042 11.2494 4.44165C11.1114 4.52654 11.2211 4.90858 10.9275 4.85906C10.8567 4.84491 10.931 4.76355 10.8956 4.75294C10.8143 4.72817 10.7188 4.73879 10.6622 4.84137L10.4888 5.14912C10.4888 5.14912 10.3403 4.80246 10.4712 4.66096C10.6056 4.51947 11.6703 3.86859 11.6703 3.86859C11.6703 3.86859 11.8048 3.5007 11.5111 3.6139C11.2175 3.7271 10.7117 4.23648 10.7117 4.23648C10.7117 4.23648 10.6056 4.46287 10.5242 4.29308C10.4429 4.12328 10.5773 3.95349 10.4429 3.92519C10.3084 3.89689 10.0714 3.75539 10.0714 3.98179C10.0714 4.07022 10.0078 4.08083 9.96531 4.12328C9.90871 4.17988 9.91933 4.20818 9.92286 4.22587C9.9264 4.24355 9.93347 4.25063 9.983 4.27185C10.0714 4.31076 10.0714 4.46287 10.0714 4.46287C9.99007 4.49471 9.8981 4.50178 9.85919 4.56546C9.78137 4.66096 9.82028 4.82368 10.0042 4.82368ZM17.2523 4.36736C17.2523 4.36736 17.4115 4.49471 17.4115 4.64328C17.4115 4.79539 17.1816 5.23402 16.9799 5.46041C16.8208 5.63728 16.5873 5.90259 16.4847 6.03347C16.4387 6.0936 16.4104 6.13252 16.4989 6.16789C16.5696 6.19619 16.6722 6.20326 16.7111 6.13959C16.7748 6.03701 17.6379 5.06776 17.7617 4.91566C17.889 4.75294 17.8784 4.60437 17.7334 4.48763C17.4221 4.23294 17.2523 4.36736 17.2523 4.36736ZM16.7606 6.98503C16.7288 7.4838 16.8031 7.55454 16.8844 7.56516C16.9658 7.57577 17.1886 7.55101 17.1745 7.06639C17.1568 6.58176 16.7677 6.54639 16.7677 6.54639L16.7606 6.98503ZM17.4964 6.41551C17.4787 6.42966 17.2665 6.54285 17.2735 6.67374C17.2771 6.80108 17.2842 7.06992 17.4221 7.08407C17.5636 7.09822 17.7016 6.98856 17.6662 6.75156C17.6273 6.51455 17.5141 6.40136 17.4964 6.41551ZM17.553 5.54177C17.553 5.54177 17.2311 5.9981 17.1073 6.0936C16.9835 6.18911 17.1391 6.25986 17.2559 6.2917C17.3726 6.32707 17.553 6.37306 17.6131 6.18204C17.6697 5.98748 17.6662 5.87075 17.7157 5.84599C17.7688 5.81769 17.8077 5.64082 17.7405 5.58422C17.6768 5.52762 17.553 5.54177 17.553 5.54177ZM17.8289 6.54993C17.8289 6.54993 17.7759 6.78693 17.9421 6.75156C18.1084 6.71972 18.3241 6.51455 18.3312 6.62067C18.3383 6.72326 18.3277 7.84815 18.3277 7.94012C18.3277 8.02855 18.4444 8.13114 18.5081 8.13114C18.5718 8.13114 18.7097 8.06393 18.7097 7.79509V6.6419C18.7097 6.6419 18.8795 6.76571 19.1554 6.28816C19.3465 5.95918 19.212 5.86368 19.113 5.83891C19.0245 5.81415 19.0316 5.8283 18.9644 5.87429C18.8795 5.93442 18.7309 6.02993 18.6637 6.02993C18.5612 6.02993 18.6567 5.94503 18.6071 5.94503C18.5576 5.94503 18.4197 5.90966 18.4197 5.97333C18.4197 6.04054 18.4126 6.33061 18.4126 6.33061L17.8289 6.54993ZM18.8158 6.09007C18.7805 6.13252 18.6779 6.25986 18.7274 6.2917C18.7734 6.32353 18.8512 6.3483 18.9043 6.25986C18.9573 6.17143 19.0847 6.08653 19.0033 6.05823C18.922 6.02639 18.8158 6.09007 18.8158 6.09007ZM18.073 5.72925C18.119 5.80354 18.2039 5.89197 18.3348 5.87783C18.5647 5.85306 18.9184 5.54885 19.0387 5.44273C19.1554 5.33661 19.2863 5.20218 19.1873 5.10314C19.0882 5.00055 18.9821 5.02178 18.7911 5.17742C18.6567 5.29062 18.3312 5.47103 18.1544 5.563C18.0412 5.6196 17.9916 5.5913 18.073 5.72925ZM22.6221 4.38505C22.5442 4.30369 22.3532 4.3426 22.2294 4.50886C22.1056 4.67158 22.1127 4.86967 22.1764 4.90151C22.2365 4.93334 22.5442 4.92981 22.714 4.71403C22.852 4.54069 22.6221 4.38505 22.6221 4.38505ZM21.4583 4.87675C21.3557 4.81661 21.2213 4.80246 21.1682 4.88382C21.1116 4.96518 21.0161 5.07838 21.1824 5.19865C21.3486 5.31892 21.5043 5.40028 21.5998 5.26586C21.8014 4.94042 21.4583 4.87675 21.4583 4.87675ZM22.2931 5.6196C22.4204 5.60898 22.378 5.75755 22.2931 5.82476C22.2082 5.89197 22.1021 6.05116 22.1021 6.2351C22.1021 6.41551 22.3497 6.48625 22.4452 6.48625C22.5407 6.48625 22.4558 6.28109 22.4558 6.14667C22.4558 6.00871 22.615 5.81769 22.7671 5.67973C22.9157 5.54177 22.7883 5.36137 22.5973 5.31538C22.4028 5.26939 22.1693 5.58776 22.1693 5.58776L22.2931 5.6196ZM21.9712 6.33415L21.8545 6.21034C21.8545 6.21034 21.812 6.79047 21.7483 6.99564C21.6847 7.20081 21.7802 7.58638 22.0172 7.62175C22.2542 7.65713 22.9192 7.64652 23.0678 7.60053C23.2163 7.55454 23.3685 7.34938 23.2376 7.0204C23.1102 6.69142 23.0466 6.59945 22.99 6.61006C22.9369 6.62068 22.9157 6.72326 22.9475 6.87183C22.9793 7.0204 23.0749 7.22557 22.9051 7.28217C22.7353 7.33876 22.0702 7.47672 22.0349 7.12298C22.003 6.76924 22.0561 6.56408 21.9712 6.33415ZM20.6022 4.89443C20.4749 4.9864 20.252 5.21987 20.2732 5.3932C20.3015 5.62667 20.3864 5.72572 20.5668 5.69742C20.7225 5.67266 20.8251 5.17389 20.8003 4.94042C20.7897 4.79185 20.6907 4.83076 20.6022 4.89443ZM21.055 5.60545L21.0515 5.75755L20.8746 5.87075C20.8746 5.87075 20.8994 5.97333 21.0338 5.94503C21.1682 5.91674 21.0161 6.17143 20.9277 6.16082C20.8392 6.1502 20.7508 6.1502 20.7331 6.21741C20.7154 6.28462 20.4218 6.2634 20.4218 6.2634C20.4218 6.2634 20.1919 6.51809 20.298 6.63129C20.4041 6.74448 20.5739 6.57469 20.627 6.54639C20.68 6.51809 20.7614 6.41551 20.8675 6.5287C20.9736 6.6419 20.956 6.65959 20.8322 6.74448C20.7083 6.82938 20.7508 6.89659 20.8145 6.94258C20.8781 6.98856 20.8958 7.06639 20.6907 7.06639C20.4855 7.06639 20.5668 7.00979 20.5492 6.9638C20.5315 6.91782 20.1671 7.08761 20.0964 7.29278C20.0256 7.50148 20.1848 7.63237 20.3369 7.58638C20.489 7.5404 20.7473 7.20788 20.8781 7.27509C21.0126 7.3423 20.9029 7.41659 20.8322 7.56869C20.7614 7.7208 20.7968 8.00379 20.9206 8.12053C21.0444 8.23372 21.1647 7.98964 21.1647 7.82692C21.1647 7.6642 21.1187 7.19727 21.1859 7.14067C21.2531 7.08407 21.338 6.89659 21.4158 6.84707C21.4936 6.79754 21.5538 6.71618 21.5538 6.59238C21.5538 6.46857 21.5219 6.44734 21.4158 6.42258C21.3097 6.39782 21.3698 6.19265 21.43 6.1785C21.4901 6.16082 21.6068 6.07946 21.5998 5.99102C21.5927 5.90259 21.5538 5.78585 21.4618 5.79646C21.3698 5.80354 21.4229 5.64082 21.2849 5.58422C21.1505 5.52409 21.0479 5.52409 21.055 5.60545ZM26.8563 7.64652C26.8563 7.64652 26.5132 7.70311 26.2762 7.57931C26.0392 7.4555 25.6748 7.19019 25.6748 7.19019C25.6748 7.19019 25.6005 7.12652 25.5935 7.22557C25.5899 7.32461 25.7031 7.48733 25.7562 7.54747C25.8092 7.6076 26.0392 8.14175 26.2726 8.12406C26.5061 8.10638 26.8563 7.64652 26.8563 7.64652ZM25.6819 5.22695C25.6819 5.0996 25.5652 4.806 25.4237 4.67865C25.2822 4.55131 25.1867 4.55131 25.2503 4.84845C25.314 5.14559 25.2503 6.22095 25.1548 6.43673C25.0593 6.65251 24.8117 6.72326 24.5075 6.7551C24.2068 6.79047 23.9804 6.66312 24.0759 6.8789C24.1714 7.09468 24.2387 7.34584 24.4438 7.22203C24.649 7.09822 25.1018 6.7551 25.0876 7.01686C25.077 7.27863 24.7233 7.87291 24.2033 7.78094C24.2033 7.78094 24.1184 7.99672 24.4191 8.05332C24.7197 8.10991 25.3459 7.59699 25.2999 6.79754C25.2999 6.79754 26.0003 6.5004 26.2797 6.36245C26.5592 6.22449 26.354 6.10068 26.2903 6.07592C26.2267 6.05469 26.0958 5.93796 25.9578 6.06531C25.8163 6.19265 25.4944 6.47564 25.4201 6.35183C25.3459 6.22449 25.4732 5.91674 25.5722 5.73633C25.6713 5.55592 25.6819 5.22695 25.6819 5.22695ZM14.0333 5.26939C14.0262 5.50286 13.5027 5.71511 13.2975 5.70096C13.0924 5.68681 12.9792 5.64082 12.9862 5.84953C12.9968 6.06177 13.4992 6.11483 13.63 6.1219C13.7609 6.12898 13.768 6.35183 13.6442 6.4049C13.5204 6.45796 12.9933 6.72326 12.82 6.80108C12.6466 6.8789 12.629 7.19019 12.629 7.60053C12.629 8.01087 12.8801 8.11345 12.9968 8.11345C13.1136 8.11345 13.1313 7.88352 13.1383 7.68189C13.1454 7.47672 12.9721 7.29985 12.9226 7.15836C12.873 7.01332 13.347 6.75863 13.4532 6.75156C13.5593 6.74448 13.5522 6.91074 13.63 6.99917C13.7114 7.09115 13.8529 6.98503 13.906 6.92135C13.9626 6.85414 14.0793 6.85414 14.104 6.91428C14.1288 6.97441 14.0475 6.99918 13.9201 7.05224C13.7892 7.1053 13.814 7.14421 13.8635 7.24325C13.913 7.3423 13.8564 7.47318 13.7326 7.47318C13.6088 7.47318 13.5805 7.62883 13.5805 7.62883C13.5805 7.62883 13.577 7.63237 13.5911 7.67128C13.6053 7.71019 13.8883 8.05332 14.0227 8.07808C14.1571 8.10284 14.2208 7.99318 14.3552 7.67128C14.4896 7.34938 14.7585 7.79509 14.8504 7.94719C14.9424 8.0993 15.2466 8.33984 15.2643 7.91536C15.282 7.48733 15.42 6.52517 15.5615 5.92735C15.7029 5.32953 15.2006 5.53824 15.2006 5.53824L14.0864 6.25279L14.0758 6.04054C14.0758 6.04054 14.8858 5.29416 14.9778 5.20218C15.0698 5.11021 14.854 4.89797 14.7832 4.99702C14.7125 5.09606 14.5816 5.17742 14.4967 5.1279C14.4118 5.07838 14.6134 4.90504 14.5745 4.77416C14.5356 4.64328 13.9873 4.24002 13.9873 4.24002L14.0333 5.26939ZM15.1087 6.96734C15.1087 6.97088 15.2572 6.28462 15.2714 5.98041C15.2855 5.67619 14.9212 6.00517 14.7868 6.07238C14.6523 6.13959 14.6877 6.23156 14.7974 6.25279C14.9035 6.27755 14.8752 6.37306 14.8504 6.38721C14.8292 6.40136 14.3835 6.60653 14.5002 7.09115C14.617 7.57577 14.7797 7.61114 14.9283 7.65713C15.0733 7.70665 15.1087 6.9638 15.1087 6.96734ZM14.3021 6.35891C14.2703 6.33061 14.1041 6.35891 14.005 6.41904C13.906 6.47918 13.7538 6.57115 13.8211 6.62421C13.8847 6.67727 14.0368 6.67374 14.1323 6.5853C14.2279 6.49687 14.3021 6.35891 14.3021 6.35891ZM29.1379 4.14451C29.1379 4.14451 29.2299 4.33906 29.2087 4.4275C29.1875 4.51593 28.9646 4.77416 28.9646 4.77416L28.197 4.30723C28.197 4.30723 28.0626 4.30723 28.0626 4.39566C28.0626 4.48056 28.1121 4.53716 28.2253 4.61144C28.3385 4.68573 28.48 4.79539 28.48 4.98994C28.48 5.1845 28.5012 5.52055 28.4375 5.49932C28.3774 5.4781 28.2642 5.44626 28.2642 5.29416C28.2642 5.14205 27.9777 5.08899 27.9388 5.14205C27.8998 5.19511 27.9388 5.28354 27.9706 5.48871C28.0024 5.69388 27.9105 5.84599 28.0201 5.88844C28.1333 5.93089 28.2147 5.93089 28.2147 6.02993C28.2147 6.12898 27.4577 6.7551 27.5213 6.85414C27.5815 6.95319 27.6133 7.17958 27.8079 7.11591C28.0024 7.05224 28.8797 6.30231 29.1344 6.13959C29.3891 5.97687 29.9303 5.56653 30.0329 5.66204C30.1355 5.76109 29.6155 6.20326 29.4598 6.2351C29.3077 6.26694 29.2759 6.22449 29.0707 6.3766C28.8656 6.5287 28.6109 6.59238 28.7134 6.64897C28.816 6.70203 29.1309 6.5853 29.1132 6.69142C29.0919 6.80108 29.1839 6.9638 29.0424 6.98503C28.9009 7.00625 28.5719 7.0487 28.3385 7.16897C28.105 7.28924 27.6345 7.53686 27.7053 7.65713C27.776 7.7774 28.1333 7.98257 28.3597 8.14529C28.5861 8.30801 28.7877 8.47073 28.8691 8.52379C28.9504 8.57685 29.3396 8.66528 29.3396 8.29739C29.3396 7.92951 29.3289 7.2574 29.3289 7.2574H29.9515C29.9515 7.2574 30.0966 7.22557 30.0753 7.05224C30.0541 6.8789 29.902 6.75863 29.8206 6.75863C29.7393 6.75863 29.6968 6.77986 29.6968 6.86829H29.4209V6.65251C29.4209 6.65251 29.6473 6.52163 29.6473 6.42612C29.6473 6.32707 29.6049 6.31646 29.7888 6.18911C29.9728 6.05823 30.3088 5.84245 30.3088 5.63728C30.3088 5.43211 30.0824 5.43211 29.9091 5.43211C29.9091 5.43211 30.1249 5.01117 30.2876 4.88028C30.4503 4.7494 30.422 4.53362 30.3194 4.42396C30.2168 4.3143 30.0647 4.3709 29.9515 4.46641C29.8419 4.55484 29.2511 4.97933 29.1875 4.97933C29.1273 4.97933 28.9717 4.91566 29.1273 4.79539C29.2794 4.67511 29.6615 4.65035 29.4987 4.31784C29.336 3.98532 29.1379 4.14451 29.1379 4.14451ZM28.9504 7.37414C28.9504 7.37414 28.6109 7.44489 28.4057 7.54747C28.2005 7.65359 27.9812 7.59346 28.4057 7.88352C28.8302 8.17359 28.908 8.33631 28.9398 8.23372C28.9717 8.13114 28.9504 7.37414 28.9504 7.37414ZM28.3915 5.86368C28.3915 5.86368 28.4835 5.97687 28.5967 5.8566C28.7099 5.73633 28.6887 5.80708 28.8337 5.76817C28.9787 5.72925 28.9787 5.75402 28.9858 5.64789C28.9929 5.54177 28.9611 5.57361 28.8938 5.5913C28.8266 5.60545 28.8196 5.59837 28.809 5.51701C28.8019 5.43565 28.7842 5.49932 28.6179 5.54885C28.4552 5.59483 28.3915 5.86368 28.3915 5.86368ZM28.4552 6.11483C28.3562 6.19619 27.9812 6.49687 28.0873 6.5853C28.1934 6.67374 28.5083 6.33415 28.5755 6.2917C28.6462 6.25279 29.2016 5.92735 29.1273 5.84599C29.0495 5.76817 28.4552 6.11483 28.4552 6.11483ZM28.7064 5.01824C28.7064 5.01824 28.6144 4.96872 28.6215 5.05715C28.6285 5.14559 28.5755 5.23402 28.6816 5.23402C28.7877 5.23402 28.8266 5.22695 28.8266 5.13497C28.8302 5.05361 28.7064 5.01824 28.7064 5.01824ZM29.2653 5.32953C29.2653 5.32953 29.0813 5.32953 29.1026 5.40382C29.1273 5.4781 29.1698 5.52409 29.2476 5.50286C29.3254 5.4781 29.3254 5.52055 29.3254 5.44626C29.3254 5.36844 29.2653 5.32953 29.2653 5.32953ZM29.8772 5.19865C29.9374 5.05361 30.1921 4.74232 30.0895 4.67158C29.9904 4.59729 29.9055 4.61498 29.7923 4.7211C29.6791 4.82722 29.5943 4.81661 29.5943 4.89797C29.5943 4.97933 29.5624 4.9864 29.6332 5.02885C29.7004 5.06776 29.7464 5.07838 29.711 5.16681C29.6721 5.25524 29.665 5.29769 29.5978 5.33661C29.527 5.37905 29.5058 5.29769 29.5058 5.3932C29.5058 5.48871 29.4987 5.49932 29.4987 5.55592C29.4987 5.61252 29.4775 5.67619 29.5836 5.66912C29.6898 5.66204 29.6898 5.65143 29.7004 5.563C29.7074 5.47456 29.7145 5.4498 29.7534 5.3932C29.7923 5.33661 29.8242 5.34368 29.8454 5.30477C29.8631 5.26232 29.8772 5.19865 29.8772 5.19865Z" fill="#004073"/>
<path fill-rule="evenodd" clip-rule="evenodd" d="M10.0046 4.82419C10.192 4.82419 10.139 5.30528 10.139 5.30528L9.7145 5.53167C9.7145 5.53167 9.50226 5.72976 9.82062 5.72976C10.139 5.72976 10.5139 5.41847 10.5139 5.41847L10.4609 6.04105C10.4609 6.04105 9.23695 6.74853 9.07777 6.74853C8.91859 6.74853 8.75941 6.94662 9.02471 7.08812C9.29001 7.22961 9.18389 7.20131 9.47749 6.97492C9.7711 6.74853 10.4361 6.32404 10.4361 6.32404L10.4609 6.80513L9.98334 7.14472C9.98334 7.14472 9.68974 7.29682 9.98334 7.4843C10.2769 7.67178 10.4892 7.456 10.4892 7.456C10.4892 7.456 10.4609 7.79559 10.4361 7.96539C10.4078 8.13518 10.2486 8.22008 10.5175 8.50307C10.7828 8.78606 10.9243 8.66225 10.9243 8.40756C10.9243 8.15287 10.8606 7.08812 10.8606 7.08812C10.8606 7.08812 11.179 7.00322 11.232 6.86172C11.2851 6.72023 11.232 6.69193 10.9667 6.69193C10.7014 6.69193 10.7014 6.60703 10.7014 6.60703L10.7828 6.10119C10.7828 6.10119 11.508 5.88541 11.844 5.72622C12.1235 5.59534 12.1305 5.49629 12.0633 5.45031C11.9749 5.39017 11.7414 5.40079 11.5858 5.45385C11.225 5.57412 10.8111 5.82173 10.8111 5.82173L10.8606 5.42555C10.8606 5.42555 10.9137 5.08596 11.1259 5.08596C11.3382 5.08596 11.7379 4.85957 11.7096 4.71807C11.6848 4.57657 11.607 4.60841 11.4231 4.63671C11.3488 4.64732 11.2745 4.42093 11.2391 4.44215C11.1012 4.52705 11.2108 4.90909 10.9172 4.85957C10.8465 4.84542 10.9243 4.76406 10.8854 4.75344C10.804 4.72868 10.7085 4.73929 10.6519 4.84188L10.4786 5.14963C10.4786 5.14963 10.33 4.80297 10.4609 4.66147C10.5953 4.51998 11.6601 3.8691 11.6601 3.8691C11.6601 3.8691 11.7945 3.50121 11.5009 3.61441C11.2073 3.7276 10.7014 4.23699 10.7014 4.23699C10.7014 4.23699 10.5953 4.46338 10.5139 4.29358C10.4326 4.12379 10.567 3.954 10.4326 3.9257C10.2982 3.8974 10.0612 3.7559 10.0612 3.98229C10.0612 4.07073 9.99749 4.08134 9.95504 4.12379C9.89844 4.18039 9.90906 4.20869 9.91259 4.22637C9.91613 4.24406 9.91967 4.25114 9.97273 4.27236C10.0612 4.31127 10.0612 4.46338 10.0612 4.46338C9.9798 4.49521 9.88783 4.50229 9.84892 4.56596C9.78171 4.66147 9.82062 4.82419 10.0046 4.82419Z" fill="white"/>
<path fill-rule="evenodd" clip-rule="evenodd" d="M17.2525 4.36748C17.2525 4.36748 17.4117 4.49482 17.4117 4.64339C17.4117 4.79196 17.1817 5.23414 16.9801 5.46053C16.8209 5.6374 16.5875 5.9027 16.4849 6.03358C16.4389 6.09372 16.4106 6.13263 16.499 6.16801C16.5698 6.1963 16.6724 6.20338 16.7113 6.13971C16.7749 6.03712 17.6381 5.06788 17.7619 4.91577C17.8892 4.75305 17.8786 4.60448 17.7336 4.48775C17.4223 4.23306 17.2525 4.36748 17.2525 4.36748ZM16.7608 6.98514C16.729 7.48391 16.8032 7.55466 16.8811 7.56527C16.9624 7.57588 17.1853 7.55112 17.1711 7.0665C17.1534 6.58188 16.7643 6.54651 16.7643 6.54651L16.7608 6.98514ZM17.4966 6.41562C17.4789 6.42977 17.2666 6.54651 17.2737 6.67385C17.2773 6.80473 17.2843 7.07004 17.4223 7.08419C17.5638 7.09834 17.7017 6.98868 17.6664 6.75167C17.6275 6.51467 17.5143 6.40147 17.4966 6.41562ZM17.5532 5.54189C17.5532 5.54189 17.2313 5.99467 17.1075 6.09372C16.9836 6.18923 17.1393 6.25998 17.256 6.29181C17.3728 6.32719 17.5532 6.37317 17.6133 6.18215C17.6699 5.9876 17.6664 5.87087 17.7159 5.84257C17.7689 5.81427 17.8079 5.6374 17.7406 5.5808C17.677 5.52774 17.5532 5.54189 17.5532 5.54189ZM17.8291 6.55004C17.8291 6.55004 17.776 6.78705 17.9423 6.75167C18.1085 6.71984 18.3243 6.51467 18.3314 6.62079C18.3385 6.72337 18.3279 7.84826 18.3279 7.94023C18.3279 8.02867 18.4446 8.13125 18.5083 8.13125C18.5719 8.13125 18.7099 8.06404 18.7099 7.7952V6.64201C18.7099 6.64201 18.8797 6.76582 19.1556 6.28828C19.3466 5.9593 19.2122 5.86379 19.1132 5.83903C19.0247 5.8178 19.0318 5.82842 18.9646 5.8744C18.8797 5.93454 18.7311 6.03005 18.6639 6.03005C18.5613 6.03005 18.6568 5.94515 18.6073 5.94515C18.5578 5.94515 18.4234 5.90978 18.4234 5.97345C18.4234 6.04066 18.4163 6.33072 18.4163 6.33072L17.8291 6.55004ZM18.816 6.09018C18.7806 6.13263 18.6781 6.25998 18.7276 6.29181C18.7736 6.32365 18.8514 6.35195 18.9044 6.25998C18.9575 6.17154 19.0849 6.08665 19.0035 6.05835C18.9221 6.02651 18.816 6.09018 18.816 6.09018ZM18.0732 5.72937C18.1191 5.80719 18.204 5.89209 18.3349 5.87794C18.5649 5.85318 18.9186 5.54896 19.0389 5.44284C19.1556 5.33672 19.2865 5.2023 19.1874 5.10325C19.0884 5.00067 18.9823 5.02189 18.7913 5.17754C18.6568 5.29073 18.3314 5.47114 18.1545 5.56311C18.0413 5.61971 17.9918 5.59141 18.0732 5.72937Z" fill="white"/>
<path fill-rule="evenodd" clip-rule="evenodd" d="M22.6211 4.38573C22.5433 4.30438 22.3523 4.34329 22.2285 4.50954C22.1047 4.67226 22.1117 4.87036 22.1754 4.90219C22.2356 4.93403 22.5433 4.93049 22.7131 4.71471C22.8511 4.54138 22.6211 4.38573 22.6211 4.38573ZM21.4573 4.87743C21.3547 4.8173 21.2203 4.80315 21.1673 4.88451C21.1107 4.96587 21.0152 5.07906 21.1814 5.19933C21.3477 5.3196 21.5033 5.40096 21.5988 5.26654C21.8005 4.9411 21.4573 4.87743 21.4573 4.87743ZM22.2922 5.62028C22.4195 5.60967 22.377 5.75824 22.2922 5.82545C22.2073 5.89266 22.1011 6.05184 22.1011 6.23579C22.1011 6.41619 22.3487 6.48694 22.4443 6.48694C22.5398 6.48694 22.4549 6.28177 22.4549 6.14735C22.4549 6.00939 22.6141 5.81838 22.7662 5.68042C22.9147 5.54246 22.7874 5.36205 22.5964 5.31607C22.4018 5.27008 22.1683 5.58845 22.1683 5.58845L22.2922 5.62028ZM21.9702 6.33483L21.8535 6.21102C21.8535 6.21102 21.8111 6.79116 21.7474 6.99632C21.6837 7.20149 21.7792 7.58707 22.0162 7.62244C22.2532 7.65781 22.9183 7.64367 23.0668 7.59768C23.2154 7.55169 23.3675 7.34652 23.2366 7.01755C23.1093 6.68857 23.0456 6.5966 22.989 6.60721C22.936 6.61782 22.9147 6.72041 22.9466 6.86898C22.9784 7.01755 23.0739 7.22272 22.9041 7.27931C22.7343 7.33591 22.0693 7.47387 22.0339 7.12013C22.0021 6.76993 22.0551 6.56476 21.9702 6.33483ZM20.6013 4.89512C20.4739 4.98709 20.2511 5.22056 20.2723 5.39389C20.3006 5.62736 20.3855 5.7264 20.5659 5.6981C20.7251 5.66981 20.8241 5.17457 20.7994 4.9411C20.7888 4.79253 20.6897 4.82791 20.6013 4.89512ZM21.0541 5.60613L21.0505 5.75824L20.8737 5.87144C20.8737 5.87144 20.8984 5.97402 21.0328 5.94572C21.1673 5.91742 21.0152 6.17211 20.9267 6.1615C20.8383 6.15089 20.7499 6.15089 20.7322 6.2181C20.7145 6.28531 20.4209 6.26409 20.4209 6.26409C20.4209 6.26409 20.1909 6.51878 20.2971 6.63197C20.4032 6.74517 20.573 6.57538 20.626 6.54708C20.6791 6.51878 20.7605 6.41619 20.8666 6.52939C20.9727 6.64259 20.955 6.66027 20.8312 6.74517C20.7074 6.83007 20.7499 6.89728 20.8135 6.94326C20.8772 6.98925 20.8949 7.06707 20.6897 7.06707C20.4845 7.06707 20.5659 7.01047 20.5482 6.96449C20.5305 6.9185 20.1662 7.0883 20.0954 7.29346C20.0247 7.50217 20.1839 7.63305 20.336 7.58707C20.4881 7.54108 20.7428 7.20857 20.8772 7.27578C21.0116 7.34299 20.902 7.41727 20.8312 7.56938C20.7605 7.72149 20.7958 8.00448 20.9196 8.12121C21.0435 8.23441 21.1637 7.99033 21.1637 7.82761C21.1637 7.66489 21.1177 7.19796 21.185 7.14136C21.2522 7.08476 21.3371 6.89728 21.4149 6.84775C21.4927 6.79823 21.5528 6.71687 21.5528 6.5966C21.5528 6.47279 21.521 6.44803 21.4149 6.42681C21.3088 6.40204 21.3689 6.19688 21.429 6.18273C21.4892 6.16504 21.6059 6.08368 21.5988 5.99524C21.5918 5.90681 21.5528 5.79008 21.4609 5.80069C21.3689 5.80776 21.422 5.64504 21.284 5.58845C21.1496 5.52477 21.047 5.52477 21.0541 5.60613Z" fill="white"/>
<path fill-rule="evenodd" clip-rule="evenodd" d="M26.8537 7.64653C26.8537 7.64653 26.5105 7.70313 26.2735 7.57932C26.0365 7.45198 25.6722 7.19021 25.6722 7.19021C25.6722 7.19021 25.5979 7.12654 25.5944 7.22559C25.5908 7.32463 25.704 7.48735 25.7571 7.54749C25.8101 7.60762 26.0401 8.14177 26.2735 8.12408C26.507 8.10639 26.8537 7.64653 26.8537 7.64653ZM25.6828 5.22696C25.6828 5.09962 25.5661 4.80248 25.4246 4.67867C25.2831 4.55486 25.1876 4.55486 25.2512 4.852C25.3149 5.14914 25.2512 6.22451 25.1557 6.44029C25.0602 6.65607 24.8126 6.72681 24.5084 6.75865C24.2077 6.79402 23.9813 6.66668 24.0768 6.886C24.1723 7.10178 24.2395 7.35293 24.4412 7.22912C24.6463 7.10531 25.0991 6.76219 25.0885 7.02395C25.0779 7.28572 24.7242 7.88 24.2042 7.78803C24.2042 7.78803 24.1193 8.00381 24.42 8.06041C24.7206 8.11701 25.3467 7.60408 25.3043 6.80464C25.3043 6.80464 26.0047 6.5075 26.2842 6.36954C26.5636 6.23158 26.3584 6.10777 26.2948 6.08301C26.2311 6.06179 26.1002 5.94505 25.9623 6.0724C25.8208 6.19621 25.4989 6.48273 25.4246 6.35893C25.3503 6.23512 25.4776 5.92383 25.5767 5.74342C25.6722 5.55594 25.6828 5.22696 25.6828 5.22696Z" fill="white"/>
<path fill-rule="evenodd" clip-rule="evenodd" d="M15.2108 5.53552L14.0966 6.25008L14.0859 6.03783C14.0859 6.03783 14.896 5.29145 14.988 5.19947C15.0799 5.1075 14.8642 4.89526 14.7934 4.9943C14.7227 5.09335 14.5918 5.17471 14.5069 5.12519C14.422 5.07566 14.6236 4.90233 14.5847 4.77145C14.5458 4.64057 13.9975 4.2373 13.9975 4.2373L14.0258 5.26668C14.0187 5.50015 13.4952 5.71239 13.29 5.69824C13.0849 5.68409 12.9717 5.63811 12.9787 5.84681C12.9894 6.05906 13.4917 6.11212 13.6225 6.11919C13.7534 6.12627 13.7605 6.34912 13.6367 6.40218C13.5164 6.45524 12.9858 6.72055 12.816 6.79837C12.6427 6.87619 12.625 7.18748 12.625 7.59782C12.625 8.00816 12.8762 8.11074 12.9929 8.11074C13.1096 8.11074 13.1273 7.88081 13.1344 7.67918C13.1415 7.47755 12.9681 7.29714 12.9186 7.15565C12.8691 7.01061 13.3431 6.75592 13.4492 6.74885C13.5553 6.74177 13.5483 6.90449 13.6261 6.99646C13.7074 7.08844 13.8489 6.98231 13.902 6.91864C13.9586 6.85143 14.0753 6.85143 14.1001 6.91157C14.1249 6.9717 14.0435 6.99646 13.9161 7.04952C13.7888 7.10259 13.81 7.1415 13.8595 7.24054C13.9091 7.33959 13.8525 7.47047 13.7287 7.47047C13.6049 7.47047 13.573 7.62612 13.573 7.62612C13.573 7.62612 13.5695 7.62966 13.5836 7.66857C13.5942 7.70748 13.8808 8.0506 14.0152 8.07537C14.1531 8.10013 14.2133 7.99047 14.3512 7.66857C14.4857 7.34666 14.7545 7.79237 14.8465 7.94448C14.9384 8.09659 15.2427 8.33713 15.2604 7.91265C15.278 7.48462 15.416 6.52245 15.5575 5.92464C15.7131 5.32682 15.2108 5.53552 15.2108 5.53552ZM14.1319 6.58613C14.0364 6.67456 13.8843 6.6781 13.8206 6.62504C13.757 6.57198 13.9091 6.47647 14.0046 6.41987C14.1036 6.35973 14.2699 6.33144 14.3017 6.35973C14.3017 6.35973 14.2274 6.49769 14.1319 6.58613ZM15.1082 6.96817C15.1082 6.96463 15.0729 7.70748 14.9243 7.65795C14.7757 7.60843 14.613 7.57659 14.4963 7.09197C14.3795 6.60735 14.8253 6.40218 14.8465 6.38803C14.8677 6.37388 14.8995 6.27838 14.7934 6.25361C14.6873 6.22885 14.6519 6.14042 14.7863 6.07321C14.9208 6.006 15.2851 5.67702 15.271 5.98123C15.2568 6.28545 15.1082 6.9717 15.1082 6.96817Z" fill="white"/>
<path fill-rule="evenodd" clip-rule="evenodd" d="M29.9103 5.42506C29.9103 5.42506 30.1261 5.00058 30.2888 4.87323C30.4515 4.74235 30.4233 4.52657 30.3207 4.41691C30.2181 4.30725 30.066 4.36385 29.9528 4.45936C29.8396 4.5584 29.2453 4.97935 29.1852 4.97935C29.125 4.97935 28.9694 4.91568 29.125 4.79541C29.2771 4.67514 29.6592 4.65038 29.4965 4.31786C29.3337 3.98535 29.1356 4.14453 29.1356 4.14453C29.1356 4.14453 29.2276 4.33909 29.2064 4.42752C29.1852 4.51595 28.9623 4.77418 28.9623 4.77418L28.1947 4.30725C28.1947 4.30725 28.0603 4.30725 28.0603 4.39568C28.0603 4.48412 28.1098 4.53718 28.223 4.61146C28.3362 4.68929 28.4777 4.79541 28.4777 4.98996C28.4777 5.18452 28.4989 5.52057 28.4352 5.49935C28.3751 5.47812 28.2619 5.44629 28.2619 5.29418C28.2619 5.14207 27.9754 5.08901 27.9329 5.14207C27.894 5.19513 27.9329 5.28357 27.9648 5.48873C27.9966 5.6939 27.9046 5.84601 28.0143 5.88846C28.1275 5.93091 28.2088 5.93091 28.2088 6.02995C28.2088 6.129 27.4518 6.75512 27.5155 6.85416C27.5757 6.94967 27.6075 7.1796 27.802 7.11239C27.9966 7.04872 28.8739 6.2988 29.1286 6.13608C29.3833 5.97336 29.9245 5.56302 30.0271 5.65853C30.1296 5.75758 29.6097 6.19975 29.454 6.23159C29.3019 6.26342 29.2701 6.22097 29.0649 6.37308C28.8597 6.52519 28.605 6.58886 28.7076 6.64546C28.8102 6.69852 29.125 6.58179 29.1073 6.68791C29.0861 6.79757 29.1781 6.96029 29.0366 6.98151C28.8951 7.00274 28.5661 7.04518 28.3327 7.16545C28.0957 7.28573 27.6287 7.53334 27.6995 7.65361C27.7702 7.77388 28.1275 7.97905 28.3539 8.14177C28.5803 8.30449 28.7819 8.46721 28.8633 8.52027C28.9446 8.57333 29.3337 8.66177 29.3337 8.29388C29.3337 7.92599 29.3231 7.25389 29.3231 7.25389H29.9457C29.9457 7.25389 30.0872 7.22205 30.0695 7.04872C30.0483 6.87539 29.8962 6.75512 29.8148 6.75512C29.7335 6.75512 29.691 6.77634 29.691 6.86478H29.4151V6.649C29.4151 6.649 29.6415 6.51811 29.6415 6.4226C29.6415 6.32356 29.599 6.31295 29.783 6.1856C29.9669 6.05472 30.303 5.83894 30.303 5.63377C30.3101 5.42506 30.0837 5.42506 29.9103 5.42506ZM28.6192 5.06071C28.6121 4.97228 28.7041 5.0218 28.7041 5.0218C28.7041 5.0218 28.8279 5.05364 28.8279 5.14207C28.8279 5.23051 28.789 5.23758 28.6829 5.23758C28.5732 5.23758 28.6263 5.14915 28.6192 5.06071ZM28.6192 5.54887C28.789 5.49935 28.8031 5.43567 28.8102 5.51703C28.8173 5.59839 28.8244 5.60547 28.8951 5.59132C28.9658 5.57363 28.9941 5.5418 28.9871 5.64792C28.98 5.75404 28.98 5.72928 28.835 5.76819C28.6899 5.81064 28.7112 5.73635 28.598 5.85662C28.4812 5.98043 28.3928 5.8637 28.3928 5.8637C28.3928 5.8637 28.4529 5.59486 28.6192 5.54887ZM28.5732 6.29526C28.5025 6.33417 28.1912 6.6773 28.0815 6.58886C27.9754 6.50043 28.3503 6.19975 28.4494 6.11839C28.4494 6.11839 29.0472 5.76819 29.1215 5.84955C29.2029 5.92737 28.6439 6.25281 28.5732 6.29526ZM29.2488 5.49935C29.171 5.52411 29.125 5.47459 29.1038 5.4003C29.0826 5.32602 29.263 5.32602 29.263 5.32602C29.263 5.32602 29.3231 5.36493 29.3231 5.43921C29.3231 5.5135 29.3231 5.47459 29.2488 5.49935ZM29.836 5.30479C29.8148 5.34724 29.783 5.33663 29.7441 5.39323C29.7052 5.44982 29.6981 5.47459 29.691 5.56302C29.6839 5.65145 29.6839 5.66207 29.5778 5.66914C29.4717 5.67622 29.4929 5.61254 29.4929 5.55595C29.4929 5.49935 29.5 5.49227 29.5 5.39323C29.5 5.29772 29.5212 5.37554 29.592 5.33663C29.6592 5.29418 29.6698 5.25527 29.7052 5.16683C29.7441 5.0784 29.6981 5.06779 29.6273 5.02888C29.5601 4.98643 29.5884 4.97935 29.5884 4.89799C29.5884 4.81663 29.6733 4.82371 29.7865 4.72112C29.8997 4.615 29.9846 4.60085 30.0837 4.6716C30.1827 4.74588 29.9316 5.05364 29.8679 5.19867C29.875 5.19867 29.8608 5.26234 29.836 5.30479ZM28.9375 8.23375C28.9057 8.33633 28.8279 8.17715 28.4034 7.88708C27.9789 7.59702 28.1947 7.65361 28.4034 7.55103C28.6121 7.44845 28.9482 7.3777 28.9482 7.3777C28.9482 7.3777 28.9694 8.13116 28.9375 8.23375Z" fill="white"/>
<path fill-rule="evenodd" clip-rule="evenodd" d="M8.62891 28.2203L17.6315 15.3903V10.1797H17.7943H20.9991H21.1583V15.3903L30.4369 28.5741L30.1716 28.758L20.8683 15.5317L20.84 15.4398V10.5016H20.6136L19.4285 11.1065L18.2683 10.5016H17.9534V15.4398L17.9251 15.5317L8.89067 28.4043L8.62891 28.2203Z" fill="#004073"/>
<path fill-rule="evenodd" clip-rule="evenodd" d="M14.302 2.77243V1.91992H6.48438L7.28382 2.77243H14.302Z" fill="#C30D23"/>
<path fill-rule="evenodd" clip-rule="evenodd" d="M24.6016 1.91992V2.77243H31.595L32.3307 1.91992H24.6016Z" fill="#C30D23"/>
<path fill-rule="evenodd" clip-rule="evenodd" d="M16.6125 0.498047V2.73721H15.7919V1.45314L15.1445 1.65123V1.00036C15.6292 1.00036 15.9121 0.834098 15.9935 0.498047H16.6125ZM17.2988 2.19953L17.9426 2.16062C17.985 2.27381 18.0841 2.33395 18.2327 2.33395C18.4767 2.33395 18.6006 2.16769 18.6006 1.83164C18.4343 1.94484 18.2468 1.9979 18.0346 1.99082C17.5464 1.96606 17.2776 1.72906 17.2351 1.28335C17.2528 0.7775 17.5712 0.515734 18.1938 0.501584C18.9295 0.501584 19.2974 0.883622 19.2974 1.65123C19.2727 2.3764 18.926 2.74782 18.261 2.76551C17.6985 2.76197 17.3766 2.57449 17.2988 2.19953ZM18.2327 1.5628C18.452 1.54511 18.5616 1.43899 18.5616 1.24443C18.544 1.07464 18.4378 0.979131 18.2468 0.964981C18.0558 0.972056 17.9532 1.07464 17.9461 1.2692C17.9532 1.45668 18.0487 1.55572 18.2327 1.5628ZM19.4177 1.96606H20.0969C20.0969 2.06511 20.1287 2.14647 20.1924 2.21014C20.2561 2.25966 20.3409 2.28796 20.4506 2.29504C20.6487 2.28796 20.7584 2.20307 20.776 2.03681C20.7831 1.8564 20.631 1.77504 20.3162 1.79273V1.40362C20.6063 1.4213 20.7513 1.34702 20.7513 1.1843C20.7513 1.05342 20.6558 0.989743 20.4683 0.989743C20.2808 0.989743 20.1747 1.06757 20.157 1.22321H19.5061C19.5415 0.766888 19.8705 0.526346 20.4931 0.501584C21.0873 0.519271 21.3986 0.720902 21.4269 1.11355C21.4269 1.32579 21.3314 1.47083 21.1439 1.55219C21.3703 1.63355 21.4871 1.78919 21.4941 2.01558C21.48 2.50374 21.1192 2.7549 20.4046 2.76197C19.7573 2.74429 19.4248 2.48252 19.4177 1.96606ZM21.6286 1.96606H22.3042C22.3042 2.06511 22.336 2.14647 22.3997 2.21014C22.4634 2.25966 22.5483 2.28796 22.6579 2.29504C22.856 2.28796 22.9657 2.20307 22.9834 2.03681C22.9904 1.85994 22.8383 1.77858 22.52 1.79627V1.40362C22.81 1.4213 22.9551 1.34702 22.9551 1.1843C22.9551 1.05342 22.8596 0.989743 22.6721 0.989743C22.4811 0.989743 22.3785 1.06757 22.3608 1.22321H21.7099C21.7453 0.766888 22.0743 0.526346 22.6968 0.501584C23.2911 0.519271 23.6024 0.720902 23.6307 1.11355C23.6307 1.32579 23.5352 1.47083 23.3477 1.55219C23.5741 1.63355 23.6908 1.78919 23.7015 2.01558C23.6908 2.50374 23.33 2.7549 22.6155 2.76197C21.9646 2.74429 21.6356 2.48252 21.6286 1.96606Z" fill="white"/>
<path fill-rule="evenodd" clip-rule="evenodd" d="M9.76577 29.3208L19.3238 15.7514L29.1648 29.4411L28.3406 30.3113C28.9702 29.7559 29.5397 29.1723 30.0314 28.5603L20.8661 15.5321L20.8378 15.4401V10.502H20.6149L19.4299 11.1068L18.2696 10.502H17.9548V15.4401L17.9265 15.5321L8.98047 28.2738C9.22455 28.6346 9.48632 28.9848 9.76577 29.3208Z" fill="#E1E4E6"/>
<path fill-rule="evenodd" clip-rule="evenodd" d="M11.0549 10.3955V15.7582L11.0301 15.8431L7.91016 20.2047V23.0027L11.7235 17.725L11.8367 17.5658L11.9569 17.725L13.7362 20.1268L14.8222 18.6588L12.675 15.8431L12.6432 15.7546V10.3955H11.0549Z" fill="white"/>
<path fill-rule="evenodd" clip-rule="evenodd" d="M11.8716 10.9365V16.515L14.3407 19.3095L14.2487 19.4298L11.8044 16.6565L8.54642 20.9721L8.42969 20.8836L11.723 16.5185V10.9365H11.8716Z" fill="#004073"/>
<path fill-rule="evenodd" clip-rule="evenodd" d="M8.47522 21.0784C8.56365 21.0784 8.63794 21.0041 8.63794 20.9156C8.63794 20.8272 8.56365 20.7529 8.47522 20.7529C8.38678 20.7529 8.3125 20.8272 8.3125 20.9156C8.3125 21.0041 8.38678 21.0784 8.47522 21.0784Z" fill="#004073"/>
<path fill-rule="evenodd" clip-rule="evenodd" d="M11.819 11.0852C11.9074 11.0852 11.9817 11.0109 11.9817 10.9225C11.9817 10.8341 11.9074 10.7598 11.819 10.7598C11.7305 10.7598 11.6562 10.8341 11.6562 10.9225C11.6562 11.0109 11.727 11.0852 11.819 11.0852Z" fill="#004073"/>
<path fill-rule="evenodd" clip-rule="evenodd" d="M26.9144 10.9365V16.2072L24.4453 19.3095L24.5373 19.4298L26.9816 16.3487L30.2395 20.9721L30.3563 20.8836L27.063 16.2108V10.9365H26.9144Z" fill="#004073"/>
<path fill-rule="evenodd" clip-rule="evenodd" d="M30.3073 21.0784C30.3957 21.0784 30.47 21.0041 30.47 20.9156C30.47 20.8272 30.3957 20.7529 30.3073 20.7529C30.2188 20.7529 30.1445 20.8272 30.1445 20.9156C30.1445 21.0041 30.2153 21.0784 30.3073 21.0784Z" fill="#004073"/>
<path fill-rule="evenodd" clip-rule="evenodd" d="M26.9674 11.0852C27.0558 11.0852 27.1301 11.0109 27.1301 10.9225C27.1301 10.8341 27.0558 10.7598 26.9674 10.7598C26.879 10.7598 26.8047 10.8341 26.8047 10.9225C26.8047 11.0109 26.879 11.0852 26.9674 11.0852Z" fill="#004073"/>
<path fill-rule="evenodd" clip-rule="evenodd" d="M19.5016 15.9985V12.0508H19.1797V15.9561L19.3247 15.7544L19.5016 15.9985Z" fill="#004073"/>
<path fill-rule="evenodd" clip-rule="evenodd" d="M9.75391 29.3349L19.3225 15.7549L29.252 29.5542L28.1731 30.4881L19.3756 17.8985L10.5251 30.4881L9.75391 29.3349Z" fill="#004073"/>
<path fill-rule="evenodd" clip-rule="evenodd" d="M16.7696 22.7725L19.4156 26.6211L22.0545 22.8326L22.1747 22.9175L19.504 26.7485L23.9682 33.2431L23.8479 33.3245L19.4156 26.8794L14.9054 33.3528L14.7852 33.2679L19.3272 26.7485L16.6494 22.8538L16.7696 22.7725Z" fill="#00538F"/>
<path fill-rule="evenodd" clip-rule="evenodd" d="M19.4159 26.9255C19.5079 26.9255 19.5857 26.8512 19.5857 26.7557C19.5857 26.6602 19.5114 26.5859 19.4159 26.5859C19.3239 26.5859 19.2461 26.6602 19.2461 26.7557C19.2461 26.8512 19.3204 26.9255 19.4159 26.9255Z" fill="#004073"/>
<path fill-rule="evenodd" clip-rule="evenodd" d="M0.707031 26.749V27.3115C2.24579 27.8491 3.68551 28.4576 4.80686 29.5294C4.97312 29.4374 5.14998 29.3278 5.32685 29.204L5.3127 29.211C4.06755 28.0189 2.41559 27.3468 0.707031 26.749Z" fill="#C30D23"/>
<path fill-rule="evenodd" clip-rule="evenodd" d="M38.444 26.749V27.3115C36.9053 27.8491 35.4656 28.4576 34.3442 29.5294C34.178 29.4374 34.0011 29.3278 33.8242 29.204C33.8278 29.2075 33.8348 29.211 33.8384 29.211C35.0835 28.0189 36.7319 27.3468 38.444 26.749Z" fill="#C30D23"/>
<path fill-rule="evenodd" clip-rule="evenodd" d="M2.70312 31.3226V31.885C5.33494 32.122 6.82064 32.7234 9.64701 33.8624C12.3885 34.9661 17.0154 36.2537 19.87 36.335C22.7884 36.4199 25.6537 35.1288 28.3315 34.011C31.1048 32.8542 33.6305 32.023 36.2941 31.6162V31.0537C33.6305 31.4605 31.1083 32.2883 28.3315 33.4485C25.6537 34.5663 22.7884 35.8575 19.87 35.7726C17.0154 35.6912 12.392 34.4001 9.64701 33.2999C6.82064 32.1644 5.33494 31.5596 2.70312 31.3226Z" fill="#D8E8F7"/>
<path fill-rule="evenodd" clip-rule="evenodd" d="M2.70312 35.2773V35.8716C4.69113 36.4128 6.39262 36.8762 8.36294 37.5908C11.9958 38.9138 15.8976 40.4667 19.6578 40.4808C23.464 40.4914 27.0509 38.6131 30.6343 37.2972C32.5127 36.6074 34.3344 35.9105 36.2941 35.9777V35.3835C34.3344 35.3163 32.5127 36.0131 30.6343 36.7029C27.0509 38.0188 23.464 39.9007 19.6578 39.8866C15.8976 39.8759 11.9958 38.323 8.36294 36.9965C6.39262 36.282 4.69113 35.8186 2.70312 35.2773Z" fill="#C30D23"/>
<path fill-rule="evenodd" clip-rule="evenodd" d="M4.61719 34.3649L4.6561 34.0218L4.71623 34.043C4.72331 34.2411 4.79406 34.3614 4.9214 34.4038C5.03106 34.4321 5.10535 34.3932 5.13718 34.28C5.15487 34.1987 5.10181 34.089 4.97093 33.9511C4.81528 33.7777 4.75161 33.6256 4.77991 33.4947C4.83297 33.3108 4.96385 33.2436 5.16548 33.2931C5.21854 33.3108 5.27868 33.3462 5.34943 33.3992C5.37065 33.4098 5.38126 33.4169 5.39187 33.4204C5.39541 33.4204 5.40602 33.4204 5.42017 33.4134C5.4131 33.4169 5.42017 33.4134 5.43432 33.4098L5.46616 33.4204L5.43079 33.7247L5.37065 33.707C5.3565 33.5372 5.29283 33.4275 5.16902 33.3815C5.07351 33.3603 5.01337 33.3886 4.98861 33.4629C4.97446 33.5301 5.02045 33.6221 5.13011 33.7388C5.22208 33.8449 5.28929 33.9334 5.33174 34.0041C5.37419 34.1067 5.38834 34.1987 5.36711 34.28C5.2999 34.4852 5.16548 34.563 4.95678 34.5064C4.87188 34.471 4.80467 34.4357 4.74807 34.4074C4.71977 34.3826 4.70208 34.3685 4.69855 34.3685C4.68086 34.3685 4.66671 34.3755 4.65964 34.3897L4.61719 34.3649Z" fill="white"/>
<path fill-rule="evenodd" clip-rule="evenodd" d="M13.1855 36.3842L13.2032 36.3135L13.6984 36.4691L13.6807 36.5399L13.656 36.5328C13.5711 36.5045 13.518 36.5399 13.5038 36.6318L13.3376 37.3605C13.3093 37.4561 13.3411 37.5126 13.4296 37.5374L13.4543 37.5445L13.4366 37.6188L12.9414 37.4631L12.9591 37.3924L12.9768 37.3995C13.0511 37.4278 13.1006 37.3959 13.1218 37.3075L13.2881 36.5717C13.3128 36.4833 13.2845 36.4231 13.2032 36.3984L13.1855 36.3842Z" fill="white"/>
<path fill-rule="evenodd" clip-rule="evenodd" d="M5.61953 34.1167C5.74334 33.7382 5.99449 33.6038 6.37299 33.7099C6.71258 33.8585 6.85054 34.1202 6.77979 34.4916C6.65245 34.8701 6.40483 35.0046 6.03694 34.8878C5.68674 34.7428 5.54878 34.4881 5.61953 34.1167ZM5.87069 34.1131C5.78579 34.4881 5.86007 34.7286 6.09 34.8348C6.29163 34.8984 6.4402 34.7782 6.53218 34.4775C6.60646 34.1096 6.53218 33.8726 6.3164 33.7736C6.10062 33.7205 5.95205 33.8302 5.87069 34.1131Z" fill="white"/>
<path fill-rule="evenodd" clip-rule="evenodd" d="M7.79725 34.3541L7.81494 34.2834L8.21466 34.4284L8.19697 34.4991L8.18283 34.4956C8.08378 34.4602 8.02364 34.4921 8.00596 34.5946L7.88922 35.051C7.80433 35.3552 7.62038 35.4613 7.33385 35.3658C7.03671 35.2526 6.91998 35.0616 6.98719 34.7857L7.12869 34.2444C7.15698 34.1596 7.12869 34.1065 7.05086 34.0853L7.02256 34.0747L7.04025 34.0039L7.52133 34.1772L7.50365 34.248L7.47889 34.2409C7.4046 34.2197 7.35861 34.248 7.33739 34.3223L7.1959 34.867C7.14637 35.0616 7.21358 35.196 7.39753 35.2668C7.59208 35.3375 7.71943 35.2597 7.78664 35.0404L7.89983 34.5982C7.93875 34.4708 7.91045 34.393 7.82201 34.3647L7.79725 34.3541Z" fill="white"/>
<path fill-rule="evenodd" clip-rule="evenodd" d="M11.517 36.5718L11.5842 36.5965C11.5347 36.7062 11.4745 36.8088 11.4073 36.8937C11.3826 36.8795 11.3543 36.8654 11.3189 36.8547C11.2835 36.8477 11.2517 36.8371 11.2163 36.8264C11.1668 36.8158 11.1102 36.7981 11.05 36.7805C10.7105 36.6319 10.5725 36.3701 10.6362 35.9987C10.76 35.645 11.0076 35.5141 11.3861 35.6131C11.4604 35.6379 11.5347 35.6909 11.6196 35.7617C11.6408 35.7794 11.6549 35.79 11.6656 35.7935C11.6762 35.8041 11.6903 35.8006 11.7009 35.79L11.7434 35.8041L11.6726 36.1296L11.6125 36.1084C11.609 35.9067 11.5276 35.7723 11.3755 35.7122C11.1314 35.652 10.9652 35.7688 10.8732 36.0624C10.806 36.3914 10.8909 36.6142 11.1314 36.7239C11.2729 36.7734 11.4038 36.7239 11.517 36.5718Z" fill="white"/>
<path fill-rule="evenodd" clip-rule="evenodd" d="M8.89682 34.8143L8.66689 35.6456C8.63152 35.7411 8.66335 35.8012 8.7624 35.8295L8.79777 35.8437L8.77655 35.9144L8.22472 35.7022L8.24594 35.6314L8.299 35.6527C8.37683 35.688 8.42989 35.6597 8.45465 35.5642L8.68458 34.7329L8.4971 34.6622C8.40513 34.6021 8.3273 34.6516 8.27424 34.8108L8.20703 34.786L8.33084 34.457L8.37683 34.4747C8.38036 34.4924 8.38744 34.5066 8.39805 34.5172C8.40159 34.5278 8.41574 34.5384 8.43696 34.5419L9.17274 34.8249C9.1975 34.8391 9.2258 34.8355 9.2541 34.8143L9.3107 34.8355L9.23995 35.1857L9.17981 35.1645C9.21165 34.9947 9.17627 34.9027 9.07015 34.8886L8.89682 34.8143Z" fill="white"/>
<path fill-rule="evenodd" clip-rule="evenodd" d="M9.87176 36.2535L9.89652 36.2641C9.9708 36.2995 10.0203 36.2677 10.0486 36.1651L10.1371 35.8467L9.62768 35.6522L9.53571 35.9776C9.50387 36.0696 9.53217 36.1297 9.6206 36.158L9.64536 36.1686L9.62414 36.2394L9.12891 36.0483L9.15013 35.9776L9.17489 35.9882C9.24918 36.0236 9.2987 35.9917 9.327 35.8962L9.52509 35.1711C9.54986 35.0862 9.52156 35.0296 9.44727 35.0013L9.42251 34.9907L9.44373 34.9199L9.93897 35.1109L9.91774 35.1817L9.89298 35.1711C9.80808 35.1392 9.75502 35.164 9.73734 35.2524L9.65598 35.5425L10.1654 35.7406L10.2432 35.4576C10.2679 35.3692 10.2396 35.3055 10.1547 35.2737L10.1406 35.2701L10.1618 35.1994L10.6571 35.3904L10.6358 35.4611L10.604 35.4505C10.5226 35.4187 10.4731 35.447 10.4554 35.5354L10.2573 36.2606C10.2255 36.3526 10.2538 36.4127 10.3422 36.441L10.367 36.4516L10.3458 36.5224L9.85053 36.3313L9.87176 36.2535Z" fill="white"/>
<path fill-rule="evenodd" clip-rule="evenodd" d="M12.3554 37.1772L12.3802 37.1843C12.4544 37.2161 12.504 37.1808 12.5287 37.0817L12.6065 36.7598L12.0901 36.583L12.0087 36.9119C11.9804 37.0074 12.0087 37.064 12.0972 37.0888L12.1219 37.0959L12.1042 37.1666L11.6055 36.9968L11.6232 36.9261L11.6479 36.9367C11.7222 36.9685 11.7717 36.9332 11.7965 36.8376L11.9734 36.1054C11.9946 36.0205 11.9663 35.9639 11.8885 35.9391L11.8637 35.9321L11.8814 35.8613L12.3802 36.0311L12.3625 36.1019L12.3377 36.0948C12.2528 36.0665 12.2033 36.0948 12.1856 36.1832L12.1149 36.4768L12.6313 36.6502L12.7021 36.3636C12.7233 36.2752 12.695 36.2151 12.6065 36.1832L12.5959 36.1797L12.6136 36.1089L13.1124 36.2787L13.0947 36.3495L13.0629 36.3389C12.9815 36.3106 12.932 36.3424 12.9178 36.4273L12.741 37.1595C12.7127 37.2551 12.741 37.3117 12.8294 37.3364L12.8542 37.3435L12.8365 37.4142L12.3377 37.2444L12.3554 37.1772Z" fill="white"/>
<path fill-rule="evenodd" clip-rule="evenodd" d="M13.9518 36.7985L13.8033 37.4953C13.7679 37.6015 13.8103 37.6687 13.9235 37.6934L13.9094 37.7677L13.5273 37.6545L13.5415 37.5838L13.5556 37.5873C13.6299 37.6156 13.6795 37.5873 13.6971 37.506L13.8775 36.6499C13.8492 36.6216 13.8103 36.5969 13.7643 36.5792L13.7785 36.5049L14.0969 36.6004L14.5744 37.5802L14.6911 37.0213C14.7265 36.9046 14.6911 36.8374 14.5779 36.8197L14.5603 36.8162L14.5744 36.7454L14.9812 36.8657L14.9671 36.9364L14.9494 36.9329C14.8539 36.9046 14.8079 36.9223 14.8008 36.9895L14.5921 37.9729L14.5072 37.9481L13.9518 36.7985Z" fill="white"/>
<path fill-rule="evenodd" clip-rule="evenodd" d="M15.5876 37.7851L15.2409 37.7002L15.1383 37.9019C15.1065 37.9549 15.0959 37.9939 15.11 38.0151C15.1206 38.0398 15.1631 38.0575 15.2338 38.0717L15.2515 38.0752L15.2374 38.1495L14.8164 38.0434L14.8306 37.9691L14.8553 37.9762C14.9261 38.0045 14.9862 37.9585 15.0428 37.8382L15.4744 37.0175L15.4637 36.9609L15.7008 37.0211L15.8458 38.0504C15.8564 38.1778 15.8988 38.245 15.9767 38.2592L15.9625 38.3334L15.4496 38.2026L15.4637 38.1283L15.5203 38.1424C15.5628 38.153 15.5911 38.1495 15.6052 38.1318C15.6229 38.1106 15.6265 38.0752 15.6194 38.0222L15.5876 37.7851ZM15.5734 37.6755L15.5027 37.1979L15.2869 37.6047L15.5734 37.6755Z" fill="white"/>
<path fill-rule="evenodd" clip-rule="evenodd" d="M16.8158 37.5663L16.7309 38.2773C16.7061 38.3905 16.7521 38.4507 16.8688 38.4577L16.8618 38.532L16.4727 38.4684L16.4797 38.3941L16.4939 38.3976C16.5717 38.4153 16.6177 38.3835 16.6283 38.2986L16.7309 37.4248C16.699 37.4001 16.6601 37.3824 16.6106 37.3682L16.6177 37.2939L16.9431 37.347L17.5056 38.2632L17.5728 37.6937C17.5975 37.5734 17.5551 37.5097 17.4419 37.5062L17.4242 37.5027L17.4348 37.4284L17.8487 37.4956L17.8381 37.5699L17.8204 37.5663C17.7249 37.5522 17.6754 37.5769 17.6789 37.6406L17.5586 38.6452L17.4737 38.6311L16.8158 37.5663Z" fill="white"/>
<path fill-rule="evenodd" clip-rule="evenodd" d="M17.8946 38.1251C17.9476 37.7254 18.1705 37.5308 18.5596 37.5414C18.9204 37.6051 19.0973 37.8244 19.0938 38.2065C19.0336 38.6097 18.8143 38.8007 18.4358 38.776C18.0715 38.7229 17.891 38.5071 17.8946 38.1251ZM18.1387 38.0614C18.1245 38.4505 18.2377 38.6663 18.4782 38.7123C18.6905 38.7264 18.8108 38.5708 18.8497 38.256C18.8567 37.8775 18.7436 37.6652 18.5136 37.6192C18.2978 37.6192 18.1705 37.7643 18.1387 38.0614Z" fill="white"/>
<path fill-rule="evenodd" clip-rule="evenodd" d="M19.5532 38.3338V38.6274C19.5496 38.7265 19.5921 38.776 19.6805 38.7689H19.73V38.8432H19.1676V38.7689H19.1924C19.2879 38.7795 19.3374 38.7335 19.3303 38.6274V37.874C19.3339 37.782 19.2914 37.7325 19.1959 37.7325H19.1641V37.6582H19.2065C19.2773 37.6476 19.3339 37.644 19.3728 37.644C19.486 37.637 19.5744 37.6334 19.6381 37.6299C19.868 37.6299 20.0166 37.6759 20.0873 37.7643C20.1368 37.828 20.1616 37.8987 20.1616 37.9801C20.1545 38.1357 20.0732 38.2348 19.9211 38.2843C19.96 38.3232 20.0095 38.3904 20.0661 38.4859C20.1156 38.5708 20.1616 38.6345 20.2005 38.6734C20.25 38.7477 20.3243 38.7866 20.4163 38.7937V38.8538H20.3172C20.1404 38.8609 20.0236 38.822 19.9635 38.7406C19.9246 38.7017 19.8857 38.6486 19.8503 38.585C19.7973 38.493 19.7371 38.4081 19.6805 38.3374H19.5532V38.3338ZM19.5532 37.7077V38.2595H19.6168C19.822 38.2666 19.9246 38.1746 19.9246 37.9836C19.9211 37.8103 19.8256 37.7148 19.6416 37.7077H19.5532Z" fill="white"/>
<path fill-rule="evenodd" clip-rule="evenodd" d="M21.0941 38.7648L20.6873 37.8486L20.6803 38.5278C20.6626 38.6693 20.7086 38.7294 20.8218 38.7082L20.8253 38.7825L20.4645 38.8037L20.4609 38.7294C20.5635 38.7436 20.6024 38.6728 20.5883 38.5172L20.5954 37.8203C20.6024 37.7248 20.5635 37.6824 20.4751 37.6859L20.4715 37.6116L20.8111 37.5904L21.1613 38.3686L21.4266 37.5515L21.7733 37.5303L21.7768 37.6046C21.6707 37.601 21.6353 37.6505 21.6707 37.7531L21.7379 38.4606C21.7273 38.5986 21.7768 38.6552 21.8865 38.6375L21.89 38.7118L21.3842 38.7436L21.3807 38.6693H21.4054C21.4939 38.6799 21.5363 38.6339 21.5292 38.5349C21.5292 38.5031 21.5257 38.4748 21.5186 38.4465L21.4514 37.7708L21.1366 38.7613L21.0941 38.7648Z" fill="white"/>
<path fill-rule="evenodd" clip-rule="evenodd" d="M22.6051 38.1248L22.2584 38.1885L22.2266 38.4219C22.2125 38.4856 22.216 38.5245 22.2372 38.5387C22.2549 38.5564 22.3009 38.5564 22.3716 38.5387L22.3893 38.5351L22.3999 38.6094L21.9755 38.6872L21.9648 38.613L21.9896 38.6094C22.0639 38.6059 22.1063 38.5387 22.124 38.4042L22.2797 37.4562L22.2514 37.4067L22.4884 37.3643L22.9341 38.2628C22.9836 38.3759 23.0437 38.4219 23.118 38.4042L23.1286 38.4785L22.6086 38.574L22.598 38.4998L22.6546 38.4891C22.6971 38.4821 22.7218 38.4679 22.7325 38.4432C22.7431 38.4149 22.736 38.3795 22.7112 38.3335L22.6051 38.1248ZM22.5627 38.0257L22.354 37.6119L22.2761 38.0823L22.5627 38.0257Z" fill="white"/>
<path fill-rule="evenodd" clip-rule="evenodd" d="M24.0955 37.8668L24.0424 38.224L23.1899 38.4398L23.1758 38.3655L23.2076 38.3585C23.296 38.3408 23.3314 38.2877 23.3137 38.1957L23.1793 37.4423C23.1616 37.3538 23.1156 37.322 23.0307 37.3432L23.0024 37.3503L22.9883 37.276L23.526 37.1416L23.5401 37.2159L23.4906 37.23C23.4092 37.2513 23.3774 37.3043 23.3986 37.3892L23.5366 38.1568C23.5401 38.2276 23.5719 38.2488 23.6321 38.224L23.8373 38.1745C23.8974 38.1604 23.9575 38.0825 24.0177 37.9481C24.0247 37.9234 24.0318 37.9057 24.0389 37.888L24.0955 37.8668Z" fill="white"/>
<path fill-rule="evenodd" clip-rule="evenodd" d="M25.0889 36.7314L25.0712 36.6607L25.4709 36.5156L25.4886 36.5864L25.478 36.5899C25.3789 36.6253 25.3436 36.6925 25.3789 36.7915L25.4957 37.2479C25.57 37.5556 25.4674 37.7643 25.1844 37.8775C24.8837 37.9801 24.6998 37.8952 24.6219 37.6264L24.4804 37.0851C24.4628 36.9967 24.4168 36.9719 24.339 37.0038L24.3107 37.0144L24.293 36.9436L24.7741 36.7703L24.7917 36.8411L24.767 36.8481C24.6962 36.88 24.6679 36.933 24.6892 37.0073L24.8306 37.5485C24.8802 37.7431 25.0004 37.8103 25.1879 37.7466C25.3825 37.6759 25.4532 37.5273 25.4037 37.3045L25.2905 36.8623C25.2622 36.7314 25.2021 36.6854 25.1136 36.7208L25.0889 36.7314Z" fill="white"/>
<path fill-rule="evenodd" clip-rule="evenodd" d="M25.7912 36.6178L25.9893 37.297C26.007 37.4102 26.0742 37.4385 26.1838 37.3854L26.205 37.4562L25.8336 37.6083L25.8124 37.5375L25.8265 37.534C25.9044 37.5092 25.9291 37.4562 25.9079 37.3748L25.6638 36.54C25.6249 36.5365 25.5825 36.54 25.5329 36.5542L25.5117 36.4834L25.823 36.3561L26.6755 36.869L26.5163 36.3242C26.4916 36.204 26.4314 36.1686 26.3253 36.2287L26.3076 36.2358L26.2864 36.165L26.6826 36.0059L26.7038 36.0766L26.6861 36.0837C26.5942 36.1226 26.5623 36.1686 26.5871 36.2287L26.8665 37.1873L26.7852 37.2192L25.7912 36.6178Z" fill="white"/>
<path fill-rule="evenodd" clip-rule="evenodd" d="M31.1195 35.2097L30.9886 34.8984L31.0488 34.8736C31.1478 35.0328 31.2646 35.0859 31.3919 35.0363C31.498 34.9868 31.5405 34.9055 31.5122 34.7887C31.4909 34.7074 31.3919 34.6543 31.215 34.626C31.0028 34.5836 30.879 34.5022 30.8436 34.3749C30.8012 34.1874 30.8754 34.0459 31.0665 33.9539C31.116 33.9327 31.1867 33.9221 31.2716 33.9185C31.2929 33.915 31.307 33.9115 31.3141 33.9079C31.3176 33.9079 31.3247 33.8973 31.3353 33.8832C31.3318 33.8902 31.3353 33.8832 31.3424 33.8725L31.3742 33.8584L31.4874 34.1343L31.4273 34.1591C31.3353 34.0282 31.2292 33.9787 31.1054 34.0211C31.0169 34.0671 30.978 34.1308 30.9957 34.2086C31.0134 34.2723 31.0983 34.3183 31.2433 34.3466C31.3707 34.3749 31.4662 34.3996 31.5334 34.4315C31.6183 34.4881 31.6714 34.5553 31.6926 34.6366C31.735 34.8524 31.6607 35.0045 31.4591 35.0965C31.3707 35.1212 31.2999 35.1389 31.2398 35.1531C31.2044 35.1531 31.1832 35.1495 31.1797 35.1531C31.1655 35.1672 31.1584 35.1778 31.1584 35.1955L31.1195 35.2097Z" fill="white"/>
<path fill-rule="evenodd" clip-rule="evenodd" d="M26.7908 36.0236L26.7695 35.9528L27.2506 35.7441L27.2718 35.8149L27.2471 35.8255C27.1622 35.8609 27.1374 35.9245 27.1693 36.0094L27.3886 36.7205C27.4133 36.816 27.4664 36.8443 27.5478 36.8018L27.5725 36.7912L27.5937 36.862L27.1127 37.0707L27.0914 36.9999L27.1091 36.9928C27.1869 36.9681 27.2117 36.9079 27.1834 36.8195L26.9641 36.1014C26.9429 36.013 26.8898 35.9847 26.812 36.0165L26.7908 36.0236Z" fill="white"/>
<path fill-rule="evenodd" clip-rule="evenodd" d="M30.0433 35.1643L30.1282 35.4403C30.1529 35.5358 30.206 35.5641 30.2874 35.5216L30.3333 35.5004L30.3546 35.5711L29.8275 35.7975L29.8063 35.7268L29.831 35.7162C29.923 35.6879 29.9548 35.6242 29.9195 35.5252L29.7002 34.8177C29.6789 34.7292 29.6223 34.7009 29.5339 34.7399L29.5056 34.7505L29.4844 34.6797C29.4914 34.6762 29.5056 34.6691 29.5268 34.662C29.5905 34.6231 29.64 34.5948 29.6789 34.5807C29.7851 34.5312 29.8664 34.4887 29.923 34.4604C30.1388 34.3684 30.2909 34.3507 30.3829 34.4073C30.4465 34.4463 30.4925 34.5029 30.5173 34.5807C30.5527 34.7292 30.5067 34.8566 30.3793 34.9662C30.4289 34.9875 30.4925 35.0335 30.5739 35.0971C30.6446 35.1573 30.7048 35.1962 30.7543 35.2209C30.8215 35.2705 30.9029 35.2775 30.9913 35.2457L31.009 35.3023C30.9878 35.3129 30.9559 35.3271 30.9135 35.3447C30.7508 35.4226 30.627 35.4332 30.5491 35.3801C30.5031 35.3589 30.4501 35.3235 30.397 35.2775C30.3192 35.2103 30.2414 35.1573 30.1636 35.1148L30.0433 35.1643ZM29.8629 34.5736L30.0221 35.0936L30.0822 35.0688C30.2767 34.991 30.3475 34.8637 30.2944 34.6868C30.2414 34.5241 30.1246 34.4746 29.9478 34.5418L29.8629 34.5736Z" fill="white"/>
<path fill-rule="evenodd" clip-rule="evenodd" d="M28.1848 36.6109L27.5339 35.8645C27.4596 35.769 27.3888 35.7442 27.3287 35.7902L27.3181 35.7973L27.2969 35.7265L27.8239 35.4895L27.8452 35.5603L27.8204 35.5709C27.7567 35.5992 27.7214 35.631 27.7143 35.6664C27.7037 35.6947 27.7214 35.7301 27.7638 35.7725L28.1954 36.2642L28.2131 35.5037C28.2131 35.4329 28.1706 35.4153 28.0857 35.4471L28.0503 35.4648L28.0291 35.394L28.4147 35.2207L28.4359 35.2915L28.4288 35.295C28.351 35.3197 28.3121 35.4082 28.3121 35.5638L28.2803 36.572L28.1848 36.6109Z" fill="white"/>
<path fill-rule="evenodd" clip-rule="evenodd" d="M29.1879 34.9485L28.8554 35.0971L28.9863 35.4932L29.2339 35.38C29.3153 35.3517 29.3401 35.2951 29.3047 35.2032L29.3648 35.1749L29.4815 35.5286L29.4214 35.5569C29.4002 35.4649 29.3401 35.4437 29.2445 35.4932L29.0217 35.5958L29.1243 35.9177C29.1384 35.992 29.1667 36.0097 29.2127 35.9814L29.4674 35.8682C29.5594 35.8364 29.5983 35.7515 29.5806 35.61L29.6407 35.5817L29.715 35.8682L28.8059 36.2821L28.7847 36.2113L28.8448 36.183C28.9262 36.1512 28.9509 36.0911 28.9226 36.0062L28.6892 35.2881C28.6644 35.1996 28.6078 35.1749 28.5194 35.2209L28.5017 35.2279L28.4805 35.1572L29.3118 34.7822L29.4143 35.0298L29.3542 35.0546C29.2976 34.9485 29.2445 34.9131 29.1879 34.9485Z" fill="white"/>
<path fill-rule="evenodd" clip-rule="evenodd" d="M31.6661 33.8054L31.6484 33.7346L32.1437 33.5684L32.1614 33.6391L32.1366 33.6462C32.0517 33.6745 32.0234 33.7346 32.0482 33.8231L32.225 34.5482C32.2427 34.6437 32.2958 34.6791 32.3807 34.6437L32.4054 34.6366L32.4231 34.7074L31.9279 34.8737L31.9102 34.8029L31.9279 34.7958C32.0057 34.7746 32.034 34.718 32.0128 34.6296L31.8359 33.8973C31.8182 33.8054 31.7687 33.7735 31.6873 33.8018L31.6661 33.8054Z" fill="white"/>
<path fill-rule="evenodd" clip-rule="evenodd" d="M32.9183 33.4096L33.1094 34.2515C33.1235 34.3541 33.1766 34.3859 33.2756 34.347L33.311 34.3364L33.3287 34.4071L32.7662 34.584L32.7486 34.5133L32.8052 34.4956C32.8865 34.4743 32.9183 34.4178 32.8971 34.3187L32.7061 33.4733L32.5151 33.5334C32.409 33.5405 32.3665 33.6325 32.3984 33.8022L32.3311 33.8235L32.2852 33.4662L32.3347 33.452C32.3453 33.4662 32.3594 33.4697 32.3736 33.4733C32.3842 33.4803 32.3984 33.4803 32.416 33.4662L33.1624 33.2292C33.1907 33.2257 33.212 33.2044 33.2261 33.1691L33.2827 33.1514L33.3853 33.491L33.3251 33.5086C33.2756 33.3459 33.2013 33.2893 33.1058 33.3459L32.9183 33.4096Z" fill="white"/>
<path fill-rule="evenodd" clip-rule="evenodd" d="M34.3199 33.6713L34.3588 33.9295C34.3659 34.0286 34.419 34.0675 34.518 34.0392L34.5428 34.0356L34.5534 34.1099L34.0051 34.2231L33.9945 34.1488L34.0369 34.1382C34.1148 34.1276 34.1501 34.0745 34.136 33.9826L34.0971 33.7173L33.6726 33.2539C33.6301 33.1973 33.5771 33.176 33.5169 33.1937L33.5028 33.1973L33.4922 33.123L34.0157 33.0133L34.0263 33.0876L34.0016 33.0911C33.9591 33.1053 33.9344 33.1194 33.9273 33.1371C33.9167 33.1584 33.9237 33.1796 33.9485 33.2008L34.2633 33.5439L34.3978 33.1584C34.4154 33.1053 34.4154 33.0664 34.3978 33.0452C34.3871 33.0275 34.3588 33.0204 34.3129 33.0275L34.2952 33.031L34.2846 32.9567L34.6631 32.8789L34.6737 32.9532C34.5923 32.9709 34.5357 33.0275 34.5145 33.123L34.3199 33.6713Z" fill="white"/>
</svg>
