<svg width="159" height="41" viewBox="0 0 159 41" fill="none" xmlns="http://www.w3.org/2000/svg">
<path fill-rule="evenodd" clip-rule="evenodd" d="M20.6997 0.0634766C31.8199 0.0634766 40.8916 9.13232 40.8916 20.2525C40.8916 31.3728 31.8228 40.4445 20.6997 40.4445C9.57665 40.4445 0.507812 31.3756 0.507812 20.2554C0.507812 9.13232 9.57665 0.0634766 20.6997 0.0634766ZM20.6997 0.644703C9.90145 0.644703 1.09189 9.45427 1.09189 20.2525C1.09189 31.0537 9.90145 39.8604 20.6997 39.8604C31.5008 39.8604 40.3076 31.0508 40.3076 20.2525C40.3076 9.45427 31.498 0.644703 20.6997 0.644703Z" fill="#A4130E"/>
<path fill-rule="evenodd" clip-rule="evenodd" d="M20.6998 1.3826C31.0935 1.3826 39.5697 9.85882 39.5697 20.2525C39.5697 30.6462 31.0935 39.1224 20.6998 39.1224C10.3061 39.1224 1.82986 30.6462 1.82986 20.2525C1.82701 9.86167 10.3061 1.3826 20.6998 1.3826ZM10.685 7.08944C10.6508 7.13218 10.6138 7.17492 10.5767 7.21766C10.5995 7.25185 10.6223 7.28604 10.6423 7.32307C10.6736 7.30313 10.7021 7.28319 10.7334 7.26039C10.7876 7.21766 10.8389 7.17207 10.8901 7.12648C10.9101 7.10939 10.93 7.09229 10.95 7.0752C10.9927 7.11224 10.9899 7.18062 10.9842 7.22905L10.9756 7.27749C10.9699 7.30313 10.9614 7.33162 10.9557 7.35726C10.9272 7.44844 10.893 7.53391 10.8588 7.62224C10.8531 7.63933 10.8446 7.65642 10.8389 7.67352L10.7904 7.63363C10.7619 7.61369 10.7363 7.59659 10.7078 7.5795L10.648 7.54816C10.6166 7.53391 10.5881 7.51967 10.5568 7.50827C10.5255 7.49687 10.4941 7.48548 10.4628 7.47693C10.42 7.46553 10.3773 7.45413 10.3346 7.44559C10.2918 7.43704 10.2491 7.42849 10.2035 7.42279C10.138 7.41425 10.0753 7.40855 10.0098 7.4057C9.94423 7.40285 9.8787 7.40285 9.81317 7.40285L10.5767 8.18637C10.6081 8.18067 10.6394 8.17497 10.6708 8.16642L10.7306 8.14648C10.7477 8.14078 10.7648 8.13223 10.7819 8.12369L10.8246 8.09519L10.8474 8.0724C10.8588 8.061 10.8674 8.04676 10.8759 8.03251L10.8901 8.00402C10.8958 7.98978 10.9015 7.97268 10.9044 7.95843C10.9129 7.91 10.9158 7.85872 10.9158 7.81028C10.9414 7.81028 10.9671 7.81028 10.9927 7.81028C11.0469 7.72481 11.1038 7.64218 11.158 7.5567C11.1665 7.56525 11.1722 7.57665 11.1808 7.5852C11.2292 7.65927 11.2605 7.7419 11.2919 7.82168C11.3118 7.87296 11.3289 7.92709 11.3517 7.97838C11.1266 8.41145 10.9015 8.84167 10.685 9.27759C10.571 9.50552 10.4599 9.7363 10.3517 9.96708C10.3289 10.0013 10.3032 10.0326 10.2719 10.0611C10.2548 10.0782 10.2348 10.0953 10.2177 10.1124C10.1722 10.1523 10.1237 10.1893 10.081 10.2321C10.0639 10.2491 10.0468 10.2691 10.0297 10.289L10.081 10.3631L10.1152 10.4002L10.1494 10.4315L10.1864 10.4543L10.2263 10.4685L10.2662 10.4742L10.3032 10.4714L10.3403 10.46L10.3745 10.4429L10.4058 10.4201L10.4343 10.3916L10.4628 10.3603L10.4884 10.3261L10.5141 10.289L10.5397 10.2491L10.5625 10.2064L10.6052 10.1181C10.6252 10.0725 10.6451 10.0269 10.6651 9.98133L10.6993 9.89301C10.7277 9.80753 10.7562 9.72491 10.7819 9.63658C10.8503 9.47703 10.9101 9.31748 10.9728 9.15508C11.0212 9.02971 11.0696 8.9072 11.1238 8.78469C11.1551 8.71631 11.1865 8.64793 11.2178 8.57955C11.2434 8.53111 11.2662 8.48268 11.2919 8.43709C11.3432 8.34592 11.3973 8.2576 11.4657 8.17782C11.4685 8.18637 11.4714 8.19491 11.4742 8.20061C11.4571 8.21486 11.4457 8.2291 11.4315 8.2462C11.4372 8.26329 11.4429 8.28039 11.4514 8.29463C11.4685 8.32882 11.497 8.34877 11.5255 8.37156C11.5369 8.38296 11.5511 8.39151 11.5625 8.40005L11.6053 8.38296L11.6252 8.37156L11.6423 8.35732C11.6053 8.4143 11.5711 8.47128 11.5341 8.52826L11.6737 8.48553L11.7022 8.47413L11.7534 8.45134C11.7791 8.43709 11.8019 8.42285 11.8247 8.4086L11.8703 8.37441C11.893 8.35732 11.913 8.33737 11.9329 8.31743C11.9529 8.29748 11.97 8.27754 11.9899 8.2576C12.0184 8.22341 12.0469 8.18637 12.0725 8.14648C12.1181 8.0781 12.1609 8.00687 12.2036 7.93564C12.2292 7.97838 12.252 8.01827 12.2777 8.061C12.329 8.15218 12.3774 8.24335 12.4201 8.33737C12.4344 8.36871 12.4486 8.4029 12.4543 8.43709L12.4515 8.45988C12.4743 8.50262 12.4971 8.54251 12.5199 8.5824C12.6281 8.77044 12.7421 8.95279 12.8589 9.13513C12.9444 9.26904 13.0327 9.40295 13.1153 9.53971C13.0356 9.55396 12.9558 9.57105 12.8789 9.59385C12.876 9.47988 12.876 9.36876 12.8789 9.2548L12.8475 9.22915C12.8247 9.21206 12.8019 9.19496 12.7791 9.18072C12.7506 9.16362 12.7221 9.14938 12.6937 9.13513C12.6766 9.12943 12.6595 9.12089 12.6424 9.11519C12.6139 9.10664 12.5825 9.10094 12.554 9.09809C12.537 9.09524 12.517 9.09525 12.4999 9.09525C12.4486 9.09809 12.4002 9.10664 12.3518 9.12374C12.366 9.10379 12.3746 9.0867 12.3802 9.0639C12.3859 9.03541 12.3859 9.00407 12.3859 8.97558C12.4486 8.93284 12.5113 8.8958 12.574 8.85592C12.5256 8.77899 12.4771 8.70491 12.4287 8.62799C12.3888 8.63368 12.3489 8.63938 12.3119 8.64793C12.252 8.66217 12.1951 8.67642 12.1381 8.69921C12.0754 8.72201 12.0156 8.7505 11.9557 8.77614L11.9928 8.83027L12.0127 8.85307C12.027 8.86731 12.0384 8.87586 12.0554 8.88726C12.0697 8.8958 12.0839 8.9015 12.0953 8.91005C12.121 8.92145 12.1495 8.93284 12.1694 8.95564C12.1951 8.98983 12.1922 9.03256 12.1922 9.07245C12.2178 9.11234 12.2435 9.15223 12.2691 9.19496C12.2606 9.22915 12.252 9.26619 12.2549 9.30038C12.2207 9.25765 12.1837 9.21776 12.1466 9.17787C12.0868 9.11519 12.027 9.05536 11.9643 8.99837C11.8902 8.92999 11.8161 8.86162 11.742 8.79039L11.6765 8.72201C11.6423 8.7391 11.6053 8.7562 11.5682 8.77329C11.5939 8.81603 11.6224 8.85876 11.648 8.9015C11.7677 9.10949 11.8617 9.33172 11.9928 9.53686C11.9899 9.55681 11.9928 9.5739 11.9928 9.591L12.0013 9.61949C12.007 9.63943 12.0156 9.65653 12.027 9.67647C12.0355 9.69072 12.0441 9.70211 12.0526 9.71636C12.0697 9.73915 12.0896 9.7591 12.1096 9.77619C12.1238 9.78759 12.1352 9.79614 12.1495 9.80753C12.1751 9.82463 12.1979 9.83602 12.2235 9.85027C12.2406 9.85597 12.2549 9.86167 12.272 9.86736L12.329 9.87876L12.3746 9.83032L12.3973 9.79613L12.4144 9.7591L12.4258 9.72206C12.4315 9.81893 12.4344 9.91295 12.4372 10.0098C12.4344 10.0611 12.4287 10.1152 12.423 10.1694C12.4173 10.2264 12.4087 10.2833 12.4002 10.3403C12.3803 10.4543 12.3546 10.5654 12.3318 10.6794C12.3119 10.7193 12.2891 10.7591 12.2691 10.799C12.2606 10.819 12.252 10.8389 12.2463 10.8589C12.2406 10.8788 12.2378 10.8959 12.2378 10.9159C12.2378 10.9415 12.2406 10.9643 12.2463 10.9899C12.2549 11.0241 12.2663 11.0555 12.2748 11.0868L12.3575 11.0298L12.3916 11.0013L12.423 10.97L12.4543 10.9358L12.4828 10.8988L12.5113 10.8589L12.537 10.819L12.5626 10.7762L12.5854 10.7307L12.6281 10.6366L12.6652 10.5369C12.6823 10.4856 12.6994 10.4343 12.7165 10.3831L12.7449 10.2776C12.782 10.1295 12.8162 9.98133 12.8475 9.83317C12.8561 9.78759 12.8675 9.742 12.876 9.69641C12.933 9.7534 13.0128 9.77904 13.0897 9.80183C13.1267 9.81038 13.1638 9.81893 13.2008 9.82748C13.2549 9.83602 13.3091 9.84457 13.3632 9.85312C13.4601 9.86452 13.5541 9.87306 13.651 9.87876C13.7564 9.88446 13.859 9.89301 13.9615 9.90155C14.0043 9.88161 14.0442 9.86166 14.0783 9.83032C14.1011 9.80753 14.1154 9.78474 14.1325 9.7591C14.1467 9.7306 14.1638 9.69926 14.1781 9.66792C14.1467 9.61094 14.1154 9.55681 14.084 9.49982L14.0385 9.48843L14.01 9.48273C13.9758 9.47703 13.9444 9.47703 13.9102 9.47418C13.8447 9.47133 13.782 9.47133 13.7165 9.47418C13.6738 9.47703 13.631 9.47988 13.5911 9.48273C13.48 9.49128 13.3718 9.50552 13.2635 9.52262C13.2948 9.49697 13.3262 9.47133 13.3547 9.43999C13.3661 9.42575 13.3775 9.4115 13.3888 9.39725C13.3974 9.38301 13.4059 9.36876 13.4145 9.35167L13.4259 9.32033L13.4344 9.28899L13.4373 9.2548C13.4373 9.2377 13.4344 9.22061 13.4316 9.20351L13.4202 9.16932C13.4145 9.14938 13.4059 9.13228 13.3974 9.11519C13.386 9.0924 13.3718 9.0696 13.3547 9.04681L13.329 9.03541L13.3176 9.02971L13.292 9.00977C13.2663 8.98413 13.2435 8.95849 13.2236 8.92715L13.1951 8.88441C13.1666 8.83597 13.141 8.79039 13.1182 8.74195C13.0868 8.67357 13.0583 8.60519 13.0384 8.53681C13.0356 8.52826 13.0327 8.51687 13.0327 8.50832L13.0356 8.49123L12.9871 8.4143C12.9387 8.34022 12.8902 8.26614 12.8447 8.19207C12.8219 8.15503 12.8048 8.11799 12.7877 8.0781C12.782 8.05816 12.7763 8.04106 12.7706 8.02112C12.7649 7.99547 12.7592 7.96698 12.7563 7.94134C12.7535 7.90145 12.7506 7.86156 12.7535 7.81883C12.7563 7.78464 12.7592 7.75045 12.762 7.71626L12.7392 7.67922C12.7221 7.65642 12.7079 7.63363 12.6908 7.61369C12.6737 7.59374 12.6566 7.5738 12.6395 7.5567C12.6224 7.53961 12.6025 7.52252 12.5854 7.50827L12.5455 7.47978L12.4743 7.47693L12.4315 7.45983L12.3859 7.44844L12.3404 7.44274H12.2919L12.2435 7.44844L12.1922 7.45698L12.1409 7.47123L12.0868 7.49117L12.0156 7.52536L12.0013 7.57665C11.9871 7.62793 11.9728 7.67637 11.9557 7.72765C11.9358 7.78464 11.9158 7.84162 11.893 7.89575C11.8703 7.94989 11.8446 8.00402 11.819 8.05816C11.7762 8.13793 11.7335 8.21771 11.6851 8.29463L11.6908 8.27469C11.6965 8.2519 11.6993 8.2291 11.7022 8.20346L11.705 8.15218C11.705 8.12653 11.705 8.10089 11.7022 8.07525C11.6936 7.98693 11.6794 7.9043 11.6594 7.81883C11.6566 7.80173 11.6509 7.78464 11.648 7.76469C11.6708 7.7248 11.6908 7.68207 11.7136 7.63933C11.7477 7.5681 11.7848 7.49972 11.8275 7.43134C11.8161 7.46553 11.8104 7.49687 11.8076 7.53391C11.8047 7.56525 11.8076 7.59944 11.8076 7.63363C11.8418 7.62223 11.876 7.61084 11.9101 7.59659C11.9244 7.58805 11.9386 7.58235 11.9529 7.5738C11.97 7.5624 11.9842 7.54816 12.0013 7.53391C12.0156 7.51967 12.027 7.50542 12.0384 7.48833C12.0554 7.46553 12.0697 7.43989 12.0811 7.41425C12.101 7.37151 12.1153 7.32877 12.1295 7.28604C12.1324 7.27749 12.1324 7.27179 12.1381 7.26609C12.1865 7.21196 12.2349 7.16352 12.2777 7.10654C12.2948 7.0809 12.309 7.0581 12.3233 7.02961C12.3432 6.98688 12.3603 6.94129 12.3632 6.89285C12.3746 6.88146 12.3831 6.87291 12.3945 6.86151C12.4344 6.81878 12.4771 6.77889 12.5085 6.7276C12.5142 6.71621 12.5227 6.70196 12.5256 6.69056C12.5313 6.67632 12.5341 6.66207 12.537 6.64783C12.537 6.63358 12.537 6.61934 12.537 6.60224C12.5341 6.58515 12.5313 6.5709 12.5256 6.55665C12.5199 6.53956 12.5113 6.52531 12.5056 6.50822C12.4914 6.48258 12.4771 6.45693 12.46 6.43129L12.4116 6.44269C12.3632 6.45408 12.3119 6.45978 12.2606 6.46833C12.215 6.47403 12.1694 6.47403 12.1238 6.48258C12.1096 6.48543 12.0982 6.48827 12.0839 6.49397C12.0156 6.63358 11.9557 6.77889 11.8902 6.92134C11.8389 7.03816 11.7848 7.15497 11.7249 7.26894C11.6765 7.36011 11.6252 7.44844 11.5597 7.52821C11.5284 7.44559 11.4999 7.36011 11.4714 7.27464C11.5141 7.21196 11.5625 7.15498 11.611 7.09799C11.6281 7.0752 11.6452 7.05525 11.6623 7.03246L11.6936 6.97833L11.7079 6.93844L11.7164 6.8957L11.7192 6.87291V6.82447L11.7136 6.77319L11.6993 6.71621C11.6879 6.67917 11.6737 6.63928 11.6566 6.60224L11.7306 6.44839L11.8475 6.18911C11.8788 6.12643 11.9101 6.06375 11.9472 6.00392L12.0013 5.92414L11.9814 5.88425L11.9586 5.85007L11.9472 5.83582L11.9044 5.80163L11.8873 5.79308C11.8703 5.78738 11.8532 5.78169 11.8361 5.77884L11.8019 5.77599C11.7848 5.77599 11.7677 5.77599 11.7506 5.77884C11.7278 5.78169 11.705 5.78738 11.6822 5.79308C11.6309 5.80733 11.5853 5.82727 11.5398 5.85007L11.4942 5.87286L11.497 5.91844V5.93554C11.4942 5.95263 11.4913 5.96973 11.4885 5.98682L11.4771 6.02101C11.4685 6.04096 11.46 6.05805 11.4514 6.07515C11.4372 6.10079 11.4201 6.12358 11.403 6.14638C11.3346 6.2347 11.2577 6.30878 11.1779 6.38571L11.158 6.40565C11.0639 6.21761 10.9699 6.02956 10.8759 5.84152L10.8702 5.81303L10.8531 5.74465L10.8303 5.67912L10.8018 5.61644L10.7676 5.55945L10.7477 5.53096L10.7277 5.50532L10.705 5.47968L10.6822 5.45688L10.6309 5.4113L10.6024 5.39135L10.5454 5.35716L10.5141 5.34292L10.4799 5.33152L10.4485 5.32012L10.4143 5.31158L10.3801 5.30588L10.3431 5.30018L10.3061 5.29733H10.269L10.232 5.30018L10.1921 5.30588L10.1522 5.31443L10.0724 5.33722L9.98412 5.37141C10.0525 5.47398 10.118 5.57655 10.1836 5.67912C10.2776 5.82727 10.3688 5.97828 10.4542 6.12928C10.5055 6.22045 10.5568 6.31448 10.6052 6.4085C10.6822 6.5595 10.7591 6.71051 10.8275 6.86721C10.7933 6.92704 10.7591 6.98973 10.7192 7.04671C10.705 7.0638 10.6936 7.07805 10.685 7.08944ZM12.3973 9.58245C12.3945 9.5625 12.3945 9.53971 12.3945 9.51977C12.3803 9.50267 12.3632 9.48843 12.3489 9.47418L12.366 9.50837L12.3831 9.54826L12.3973 9.58245ZM11.9985 8.66217C12.0241 8.68212 12.0497 8.70206 12.0754 8.72201L12.1067 8.67642C12.1324 8.63938 12.158 8.60234 12.178 8.56245C12.1922 8.52826 12.2008 8.49692 12.2065 8.45988C12.2093 8.43994 12.2093 8.42285 12.2122 8.4029L12.1723 8.37726L12.1523 8.36586L12.1324 8.35732L12.1124 8.35162L12.0725 8.34592H12.0526L12.0184 8.35447C12.0013 8.36016 11.9842 8.36301 11.9671 8.37156L11.9358 8.38581C11.9016 8.40575 11.8731 8.42854 11.8418 8.45419C11.8133 8.47698 11.7876 8.50262 11.7591 8.52542C11.7363 8.53966 11.7107 8.55106 11.6879 8.5653C11.7192 8.59949 11.7477 8.63653 11.7791 8.67072C11.8418 8.65932 11.9016 8.64793 11.9643 8.63653C11.9757 8.64508 11.9871 8.65363 11.9985 8.66217ZM22.4377 5.25744L22.4036 5.31443L22.3665 5.36856L22.2867 5.47683L22.2411 5.52811L22.1927 5.5794L22.0901 5.67627L22.036 5.72185L21.979 5.76744L21.9192 5.81018L21.8594 5.85007L21.734 5.92414L21.6029 5.99252L21.5346 6.02386L21.469 6.04666L21.4007 6.0723L21.2582 6.11788L21.187 6.13783L21.1157 6.15492L21.0445 6.16917L20.9733 6.18057L20.9021 6.18911L20.8308 6.19481L20.7482 6.19766C20.7368 6.20906 20.7226 6.21761 20.714 6.23185C20.6998 6.25749 20.6998 6.28314 20.7026 6.31163C20.7026 6.33157 20.7026 6.35152 20.7055 6.37431C20.8109 6.37716 20.9191 6.38001 21.0246 6.38286C21.0702 6.38286 21.1157 6.38286 21.1642 6.38286C21.2468 6.38001 21.3323 6.37431 21.4149 6.36861L21.4605 6.35721L21.5061 6.34297L21.6029 6.30878L21.7055 6.26604L21.8138 6.21761L21.9249 6.16347L22.036 6.10364L22.1471 6.03811L22.2582 5.96688L22.3637 5.8928L22.4149 5.85291L22.5118 5.77314L22.5574 5.73325L22.6001 5.69336L22.64 5.65062L22.6771 5.60789L22.7113 5.56515L22.7426 5.52241L22.7711 5.47968L22.7967 5.43694L22.8195 5.3942L22.8309 5.36286C22.848 5.40845 22.8651 5.45118 22.8822 5.49677C22.9591 5.69336 23.0332 5.88995 23.1215 6.078L23.2811 6.4028L23.3039 6.41704L23.3381 6.43414C23.358 6.43984 23.378 6.44554 23.4008 6.45124C23.5119 6.47118 23.6258 6.47688 23.737 6.47973C23.8367 6.48258 23.9364 6.48258 24.0361 6.48827C24.0646 6.49112 24.0959 6.49397 24.1244 6.49682C24.1358 6.44554 24.1472 6.3914 24.1586 6.34012L24.0732 6.30023L24.019 6.27459L23.9677 6.2461L23.8709 6.18911L23.7797 6.12643L23.737 6.09509L23.6572 6.02956L23.5802 5.96118C23.5432 5.92699 23.509 5.88995 23.4748 5.85291L23.4093 5.77599C23.3666 5.7247 23.3238 5.67342 23.2839 5.61928C23.1785 5.47968 23.076 5.33722 22.9705 5.19761L22.9449 5.16342C22.9506 5.11214 22.9819 5.0694 23.0076 5.02951C23.019 5.00957 23.0332 4.98677 23.0418 4.96398C23.1643 4.91554 23.2896 4.86996 23.4121 4.82437C23.6087 4.75314 23.8082 4.68761 24.0048 4.61923C24.0703 4.59644 24.1358 4.5765 24.1985 4.5537C24.2213 4.54516 24.2441 4.53661 24.2669 4.52521L24.2612 4.49102C24.2555 4.46538 24.2555 4.43689 24.2526 4.41125L24.1786 4.4027L24.1358 4.39985H24.0988L24.0561 4.4027L24.0133 4.4084L23.9335 4.42549L23.8937 4.43689L23.8566 4.45113L23.7825 4.48247L23.7113 4.51666C23.6287 4.5594 23.5489 4.60499 23.4663 4.64772L23.3979 4.68191L23.3295 4.71325L23.2611 4.7389L23.227 4.75029L23.1928 4.75884L23.1586 4.76454L23.1215 4.76739L23.093 4.77024C23.1073 4.7161 23.1244 4.66197 23.1443 4.60784C23.1557 4.57365 23.17 4.53946 23.1842 4.50812C23.2156 4.43119 23.2526 4.35426 23.2896 4.28018C23.3381 4.18046 23.3837 4.08359 23.4264 3.98387C23.4463 3.93829 23.4634 3.8927 23.4805 3.84711C23.4948 3.80723 23.5062 3.76449 23.5204 3.7246C23.4891 3.67617 23.4549 3.63058 23.4207 3.58499C23.3979 3.5565 23.3751 3.52801 23.3466 3.50237C23.3267 3.48242 23.3124 3.47388 23.301 3.46248C23.2868 3.45108 23.2725 3.44254 23.2583 3.43399C23.2412 3.42544 23.227 3.41689 23.2099 3.40835C23.1928 3.3998 23.1757 3.3941 23.1557 3.3884C23.1272 3.37985 23.1016 3.37416 23.0731 3.36846C23.0389 3.36276 23.0076 3.35706 22.9734 3.35421C22.962 3.3884 22.9477 3.42259 22.9363 3.45678L22.9506 3.49667L22.9591 3.52516L22.9648 3.55365L22.9734 3.61348L22.9762 3.67617V3.7417C22.9734 3.77589 22.9705 3.81007 22.9677 3.84711C22.962 3.88415 22.9563 3.91834 22.9506 3.95538C22.9363 4.02946 22.9192 4.10069 22.9022 4.17477C22.8737 4.28873 22.8395 4.40555 22.811 4.51951L22.8053 4.53946C22.7853 4.5651 22.7682 4.59644 22.754 4.62493C22.7255 4.67907 22.6999 4.7332 22.6771 4.78733C22.6657 4.81297 22.6543 4.83862 22.6457 4.86426C22.6343 4.87281 22.6201 4.87566 22.6058 4.88135C22.5346 4.90415 22.4605 4.92124 22.3893 4.93834C22.0816 5.01526 21.771 5.08649 21.4605 5.16057C21.3665 5.14633 21.2753 5.13493 21.1813 5.12353L21.167 5.16912L21.1613 5.20046C21.1585 5.21755 21.1585 5.2318 21.1585 5.2489L21.1613 5.27739C21.1642 5.29163 21.1699 5.30588 21.1756 5.32012L21.1898 5.34577L21.2155 5.37996C21.2269 5.39135 21.2354 5.3999 21.2468 5.4113C21.2639 5.42554 21.281 5.43409 21.2981 5.44549L21.4092 5.49392L21.4576 5.50817L22.509 5.09219L22.4919 5.13778L22.4662 5.19761L22.4377 5.25744ZM16.5571 5.02381L16.5315 5.00957L16.503 4.99817L16.4716 4.98962L16.3548 4.96683L16.3947 5.07225C16.4118 5.12068 16.426 5.17197 16.4374 5.22325C16.4431 5.25459 16.4488 5.28308 16.4517 5.31443C16.4545 5.35146 16.4574 5.3885 16.4545 5.42839C16.4517 5.45118 16.4517 5.47113 16.446 5.49392C16.4431 5.51671 16.4374 5.53666 16.4317 5.5566C16.4203 5.58794 16.4089 5.61644 16.3919 5.64208C16.3634 5.51102 16.3434 5.37426 16.3206 5.2432C16.3064 5.16057 16.2893 5.07795 16.2665 4.99532C16.2579 4.96683 16.2494 4.93834 16.238 4.907C16.2266 4.87851 16.2152 4.85001 16.2038 4.82437L16.1668 4.75029C16.0699 4.73605 15.9702 4.71895 15.8733 4.70186C15.8534 4.7161 15.8334 4.73035 15.8163 4.7446C15.7907 4.76454 15.765 4.78733 15.7394 4.80728C15.7422 4.83862 15.7451 4.86996 15.7508 4.9013C15.7394 4.907 15.728 4.90985 15.7166 4.91554C15.7052 4.92124 15.6938 4.92979 15.6853 4.93549C15.6796 5.04661 15.6739 5.15772 15.6682 5.26884C15.6454 5.56515 15.6112 5.86146 15.5627 6.15492L15.5029 6.17772C15.4459 6.13498 15.3861 6.09794 15.3206 6.0666L15.2892 6.0552C15.2579 6.04381 15.2294 6.03526 15.1952 6.02956C15.1525 6.02386 15.1097 6.02101 15.067 6.02101C15.0243 6.02386 14.9815 6.02671 14.9388 6.03241C14.9701 6.08654 15.0015 6.14068 15.0328 6.19481C15.0698 6.25179 15.1069 6.30878 15.1468 6.36576C15.1724 6.39995 15.1981 6.43414 15.2265 6.46833C15.255 6.50252 15.2835 6.53386 15.3149 6.5652L15.3776 6.62503L15.4431 6.67917L15.4773 6.70196L15.5143 6.72475L15.5514 6.7447L15.5884 6.76179L15.6283 6.77604L15.6682 6.78744L15.7081 6.79598L15.7508 6.80168L15.7935 6.80453L15.8363 6.80168L15.879 6.79598L15.9217 6.78744L15.9673 6.77319L16.0357 6.7447L16.0471 6.68771L16.0528 6.62503C16.0528 6.59369 16.05 6.5652 16.0471 6.53386L16.0386 6.47403C16.0272 6.41705 16.0101 6.36291 15.9901 6.30593C15.9702 6.24895 15.9502 6.19481 15.9303 6.13783C15.916 6.08939 15.8989 6.03811 15.9075 5.98682L15.9217 5.94978C15.9132 5.9156 15.9075 5.87856 15.9018 5.84437C15.8961 5.80163 15.8933 5.76174 15.8904 5.719L15.8876 5.32582L15.8676 5.058C15.9132 5.14348 15.9445 5.23465 15.9816 5.32297L15.973 5.35146L15.9673 5.37996L15.9645 5.40845V5.43979L15.9702 5.47683C15.9759 5.51102 15.9816 5.54236 15.9901 5.5737L16.0101 5.64208C16.0557 5.78169 16.1126 5.92129 16.1525 6.06375L16.1668 6.12643L16.1753 6.18057V6.22615L16.1725 6.2461L16.1668 6.26319L16.1525 6.29738L16.1696 6.34867L16.1867 6.41989L16.201 6.50252L16.2095 6.59369C16.2124 6.64213 16.2124 6.69056 16.2124 6.74185C16.2095 6.79313 16.2095 6.84442 16.2038 6.89855C16.1981 6.95269 16.1924 7.00397 16.1867 7.0581C16.181 7.10939 16.1725 7.16352 16.1611 7.21481C16.1525 7.26609 16.1411 7.31453 16.1297 7.36296C16.1155 7.4228 16.0984 7.48263 16.0784 7.53961C16.0585 7.59944 16.0357 7.65928 16.0015 7.71341C15.9559 7.7305 15.9103 7.74475 15.8619 7.75615C15.8192 7.76469 15.7764 7.77039 15.7365 7.78464L15.6682 7.81028C15.6938 7.85587 15.7195 7.90145 15.7422 7.94704L15.8135 7.96983L15.8648 7.98123L15.9132 7.98693H15.9616L16.0072 7.98123L16.05 7.97268L16.0898 7.95843L16.1297 7.93849L16.1639 7.9157L16.1981 7.89006L16.2295 7.86156L16.2579 7.83022L16.2836 7.79603L16.3064 7.759L16.3292 7.71911L16.3491 7.67922L16.3862 7.59374L16.4175 7.50257C16.4374 7.43989 16.4517 7.38006 16.4688 7.31738C16.4973 7.20056 16.5201 7.0866 16.5486 6.96978L16.5514 6.89C16.5514 6.85012 16.5486 6.81308 16.5486 6.77604C16.5457 6.72475 16.54 6.67632 16.5343 6.62788C16.5115 6.45124 16.4716 6.27744 16.4545 6.09794L16.4488 6.03241C16.446 5.98967 16.446 5.94694 16.446 5.9042C16.4887 5.92129 16.5315 5.93839 16.577 5.94694C16.6055 5.95263 16.6312 5.95548 16.6568 5.95548C16.7138 5.95263 16.7651 5.93839 16.8192 5.92129L16.9075 5.8928L16.8819 5.81872C16.8477 5.70761 16.8221 5.59364 16.7936 5.47968C16.7793 5.42269 16.7622 5.36856 16.7451 5.31443C16.7337 5.28308 16.7224 5.25174 16.7081 5.22325L16.6796 5.16627L16.6454 5.11498L16.6055 5.0694L16.5827 5.04945L16.5571 5.02381ZM18.5373 6.88431C18.5686 6.92704 18.5971 6.96693 18.6313 7.00682L18.694 7.0695C18.7111 7.05525 18.7282 7.04101 18.7481 7.02676C18.768 7.00967 18.7908 6.99257 18.8108 6.97833C18.4831 6.03811 18.1583 5.09504 17.7993 4.16907L17.8193 4.13203L17.8022 4.08929C17.768 4.00382 17.7309 3.92404 17.6882 3.84142C17.6683 3.80438 17.6483 3.77019 17.6284 3.73315C17.6056 3.69611 17.5828 3.66192 17.56 3.62773L17.5087 3.56505L17.4831 3.53656L17.4546 3.51091L17.4289 3.48242L17.4004 3.46248L17.3691 3.44538L17.3349 3.43114L17.3007 3.42259L17.2637 3.41974L17.2267 3.42259L17.1896 3.43114L17.1554 3.44538L17.1212 3.46818L17.087 3.49667L17.0557 3.53086L17.0101 3.59069L17.0358 3.65337C17.0756 3.736 17.1298 3.81292 17.1811 3.8927C17.2466 3.99527 17.3121 4.09784 17.3577 4.21181C17.3663 4.2346 17.372 4.25454 17.3748 4.27734L17.3777 4.31152L17.372 4.33717L17.3606 4.37136C17.4346 4.54516 17.5059 4.71895 17.5799 4.89275C17.5201 4.85286 17.466 4.81297 17.4147 4.76454C17.3919 4.7389 17.3691 4.7161 17.352 4.68476C17.3435 4.66767 17.3349 4.65342 17.3264 4.63348C17.315 4.60499 17.3093 4.5765 17.3036 4.54516C17.2979 4.51097 17.2979 4.47678 17.295 4.44259L17.1811 4.45113L17.0899 4.46253L17.1269 4.56795L17.1469 4.80728C17.1241 4.81582 17.1041 4.82437 17.0813 4.83292C17.0529 4.78163 17.0187 4.73605 16.9788 4.69616L16.9503 4.67052C16.936 4.65912 16.9218 4.65057 16.9047 4.64203C16.8876 4.63348 16.8734 4.62778 16.8563 4.61923C16.8335 4.61069 16.8107 4.60784 16.7879 4.60214C16.7565 4.59929 16.7281 4.59644 16.6967 4.59644C16.6283 4.59929 16.5599 4.61069 16.4916 4.62208L16.5799 4.70186C16.6255 4.74744 16.6597 4.80158 16.6939 4.85571L16.7167 4.89845C16.7651 4.99247 16.805 5.08934 16.8135 5.19476C16.8135 5.21186 16.8135 5.2261 16.8107 5.2432L16.7964 5.28878C16.8477 5.39705 16.899 5.50532 16.9474 5.61644C16.9645 5.65917 16.9816 5.70191 16.9987 5.74465C17.0187 5.79878 17.0358 5.85291 17.0529 5.90705C17.0671 5.96118 17.0813 6.01532 17.0899 6.06945C17.0956 6.10364 17.0984 6.13498 17.1041 6.16917C17.107 6.20336 17.107 6.2347 17.107 6.26889L17.1041 6.36291C17.1298 6.38286 17.1583 6.4028 17.1868 6.42274C17.2523 6.46548 17.3264 6.49112 17.3976 6.51677C17.4261 6.52816 17.4546 6.53671 17.4831 6.54811L17.5287 6.50822C17.5515 6.48827 17.5685 6.46833 17.5885 6.44554L17.6198 6.40565L17.6426 6.36291L17.6597 6.32017L17.6683 6.27744L17.6711 6.2347L17.6683 6.19196C17.6626 6.16347 17.6569 6.13783 17.6455 6.11219C17.6227 6.04666 17.5913 5.98397 17.5629 5.91844C17.5486 5.8871 17.5372 5.85576 17.523 5.82442L17.4945 5.81018C17.4802 5.80163 17.4717 5.79023 17.4603 5.77884C17.4318 5.74465 17.409 5.71046 17.3891 5.67342L17.3606 5.61644C17.2865 5.46258 17.2323 5.30303 17.1782 5.14063L17.164 5.09504C17.2409 5.10359 17.315 5.10644 17.3891 5.09789L17.4289 5.09219C17.4489 5.08649 17.4688 5.0808 17.4859 5.0751L17.523 5.058L17.5572 5.03521L17.5714 5.02096L17.5856 5.00387L17.597 4.98677L17.6056 4.96683L17.6027 4.94973C17.8136 5.44834 18.0244 5.94979 18.2381 6.44839L18.2523 6.45693L18.2609 6.46833C18.2837 6.49682 18.3036 6.52531 18.3207 6.55665C18.3948 6.66492 18.4632 6.77604 18.5373 6.88431ZM28.1075 6.38571C28.0876 6.4085 28.0677 6.43129 28.0477 6.45124L28.0904 6.49682L28.1104 6.51392L28.1303 6.52816L28.1702 6.55096L28.193 6.5595L28.2386 6.5709L28.2842 6.5766H28.3298C28.3526 6.57375 28.3754 6.5709 28.3953 6.5652L28.4409 6.5538C28.4922 6.53671 28.5406 6.51677 28.5919 6.49397C28.6375 6.47403 28.6831 6.45124 28.7287 6.43129C28.7628 6.46833 28.7799 6.51962 28.7885 6.56805C28.7913 6.58799 28.7913 6.60509 28.7913 6.62503C28.6546 6.61934 28.5178 6.62218 28.3839 6.61649C28.2899 6.61364 28.1959 6.61079 28.099 6.60224C28.0135 6.59369 27.9252 6.5823 27.8397 6.55665C27.8853 6.51107 27.9167 6.45693 27.9451 6.4028L27.9765 6.33157L28.005 6.25749L28.0278 6.18057L28.0477 6.10079L28.062 6.02386L28.0705 5.94694L28.0734 5.87286V5.83867L28.0705 5.80448L28.0648 5.77314L28.0563 5.7418L28.0477 5.71331L28.0363 5.68766L28.0221 5.66487L28.005 5.64493L27.9822 5.62783L27.8939 5.5794L27.9024 5.67912V5.70191L27.8967 5.7475L27.891 5.77029C27.8825 5.79593 27.8739 5.81873 27.8654 5.84437L27.8397 5.89565C27.8112 5.94979 27.7799 5.99822 27.7457 6.04951C27.6688 6.17487 27.5833 6.31448 27.6004 6.46833C27.589 6.46833 27.5776 6.47118 27.5662 6.47118C27.5577 6.49397 27.5491 6.51677 27.5406 6.53956C27.5377 6.55096 27.5349 6.56235 27.5292 6.57375L27.5691 6.61649L27.5975 6.64498L27.6289 6.67062L27.6602 6.69341L27.6944 6.71621L27.7286 6.73615L27.7656 6.75609L27.8027 6.77319L27.8825 6.80168L27.9651 6.82732C28.0078 6.83872 28.0506 6.84727 28.0933 6.85581L28.1816 6.87006C28.2272 6.87576 28.2699 6.87861 28.3155 6.88431C28.3754 6.88716 28.4352 6.89 28.495 6.89285C28.6061 6.8957 28.7173 6.89285 28.8284 6.89C28.8398 6.8957 28.854 6.89855 28.8683 6.9014C28.854 6.92989 28.8398 6.95553 28.8255 6.98403C28.7942 6.98688 28.76 6.98687 28.7287 6.98687C28.6403 6.98687 28.552 6.98972 28.4608 6.99827C28.4352 7.00112 28.4067 7.00397 28.3811 7.00967C28.3554 7.01537 28.3298 7.02107 28.3041 7.02676L28.2557 7.04386L28.213 7.0638L28.193 7.0752L28.1588 7.10369L28.1446 7.12078L28.1303 7.14073L28.1104 7.18062L28.1417 7.22335L28.1617 7.24615L28.1816 7.26609L28.2016 7.28319L28.2472 7.31168L28.2699 7.32307L28.3184 7.34302C28.344 7.35157 28.3668 7.35726 28.3925 7.36011L28.4437 7.36581C28.5435 7.37436 28.646 7.37151 28.7458 7.38291L28.7685 7.38576C28.6802 7.4114 28.5919 7.42564 28.5007 7.43989C28.4209 7.45413 28.3412 7.46553 28.2614 7.48548C28.213 7.49972 28.156 7.51682 28.1189 7.5567C28.1075 7.5624 28.099 7.5681 28.0876 7.5738L28.0677 7.59089C28.0563 7.60229 28.0449 7.61654 28.0363 7.63078C28.0306 7.64218 28.0249 7.65073 28.0221 7.66212C28.0078 7.70486 28.0021 7.75045 27.9936 7.79603C27.9907 7.80743 27.9879 7.82168 27.9822 7.83307C27.7115 7.76754 27.4437 7.70771 27.1702 7.65358C27.0875 7.63648 27.0049 7.62223 26.9195 7.60799C26.7514 7.5795 26.5804 7.55101 26.4095 7.52821C26.2585 7.50827 26.1046 7.48833 25.9536 7.47123C25.9365 7.45129 25.9223 7.43134 25.8995 7.4171C25.8738 7.4 25.8396 7.3943 25.8111 7.3886L25.7769 7.4114L25.7598 7.42564L25.7456 7.44274L25.7342 7.45983L25.7171 7.49972L25.7114 7.51967L25.7086 7.53961V7.55955L25.7143 7.59944L25.7257 7.63933C25.7342 7.65927 25.7428 7.67922 25.7513 7.69916L25.7741 7.7362C25.7883 7.75614 25.7997 7.77324 25.814 7.79034C25.8339 7.81313 25.8539 7.83592 25.8767 7.85871C25.9052 7.88436 25.9336 7.90715 25.9621 7.92994L26.0077 7.95843H26.0846C26.3439 7.95559 26.6032 7.94704 26.8653 7.94989C26.9223 7.94989 26.9793 7.95274 27.0363 7.95559C27.0933 7.95843 27.1502 7.96413 27.2044 7.96698C27.2613 7.97268 27.3183 7.97838 27.3753 7.98693C27.4323 7.99547 27.4893 8.00687 27.5463 8.01827C27.6488 8.04106 27.7543 8.06385 27.854 8.09519C27.797 8.19776 27.7514 8.30603 27.7087 8.41145C27.6802 8.47983 27.6517 8.54536 27.6232 8.61089C27.5719 8.72201 27.5149 8.83027 27.4437 8.93C27.3924 8.9129 27.344 8.88726 27.2984 8.86161L27.2357 8.81888C27.2044 8.79608 27.173 8.77044 27.1445 8.74765L27.0847 8.69351C26.9907 8.60234 26.9024 8.50832 26.8083 8.41715L26.7514 8.36586L26.6887 8.32597L26.6288 8.28609L26.5662 8.2519L26.5348 8.23765L26.4493 8.20631L26.4465 8.28039L26.4493 8.30318L26.4607 8.32597L26.4835 8.37441C26.5405 8.47983 26.6117 8.5767 26.6801 8.67357C26.7172 8.72771 26.757 8.77899 26.7969 8.83312C26.8967 8.96703 26.9964 9.09809 27.0875 9.2377C27.1075 9.26904 27.1246 9.29753 27.1445 9.33172C27.2329 9.36306 27.3212 9.3944 27.4067 9.42859L27.4608 9.4001L27.5292 9.35737L27.589 9.31463L27.6431 9.26904L27.6916 9.22346C27.7144 9.20066 27.7343 9.17787 27.7542 9.15223L27.7913 9.10379C27.8084 9.07815 27.8255 9.05536 27.8397 9.02687C27.8967 8.92714 27.9451 8.82458 27.9993 8.72201C28.0249 8.67642 28.0506 8.63083 28.0762 8.58525V8.57385C28.0819 8.54821 28.0876 8.52257 28.0933 8.49692C28.1132 8.4143 28.136 8.33167 28.1617 8.24905C28.1902 8.25475 28.2158 8.26044 28.2443 8.26614C28.3782 8.30033 28.5064 8.34877 28.6403 8.38011C28.6631 8.38581 28.6888 8.39151 28.7116 8.39435C28.7458 8.40005 28.7771 8.40575 28.8113 8.4086C28.8398 8.41145 28.8683 8.41145 28.8968 8.41145L28.931 8.39151L28.9537 8.37441L28.9936 8.34022L29.0107 8.32313L29.0335 8.28324L29.0392 8.26329L29.0449 8.2405V8.20061L29.0421 8.18067L29.0364 8.16072L29.0278 8.14078L29.0079 8.10374C28.9965 8.08665 28.9851 8.0724 28.9708 8.05531L28.9423 8.02681C28.9224 8.00687 28.8996 7.99262 28.8768 7.97268C28.8512 7.95559 28.8227 7.93849 28.7942 7.92424L28.7572 7.90715H28.703C28.609 7.91 28.5121 7.91855 28.4153 7.91C28.3982 7.90715 28.3839 7.90715 28.3668 7.9043C28.3383 7.8986 28.3127 7.8929 28.2842 7.88436C28.2528 7.87296 28.2244 7.86156 28.1959 7.84732C28.1959 7.77894 28.1987 7.71341 28.1987 7.64503C28.2443 7.65073 28.287 7.65358 28.3326 7.65643C28.421 7.66212 28.5093 7.66782 28.5976 7.66782C28.6375 7.66782 28.6774 7.66497 28.7173 7.66497C28.7572 7.66212 28.7942 7.65927 28.8341 7.65358C28.8626 7.64788 28.8882 7.64218 28.9167 7.63648C28.9423 7.63078 28.968 7.62224 28.9936 7.61369L29.0506 7.58805L29.0763 7.54246L29.0905 7.50827L29.1019 7.47693L29.1076 7.44559L29.1104 7.4171L29.1076 7.3886L29.1019 7.36011L29.0905 7.33447L29.0763 7.31168L29.0592 7.29173L29.0392 7.27464L29.0164 7.25754L28.9936 7.2433L28.968 7.22905C28.9395 7.21766 28.9139 7.20626 28.8854 7.19771C28.8512 7.18632 28.817 7.17777 28.7828 7.17207C28.9082 7.16922 29.0307 7.16922 29.156 7.16922L29.1931 7.17492C29.233 7.17777 29.2757 7.18062 29.3156 7.18347C29.3555 7.18347 29.3954 7.18347 29.4381 7.18347C29.478 7.18062 29.5179 7.18062 29.5606 7.17777C29.6261 7.17207 29.6945 7.16352 29.7629 7.15497C29.9623 7.12648 30.1618 7.08375 30.3612 7.04956L30.4666 7.03246L30.4837 6.96978L30.4894 6.93274L30.4866 6.89855L30.4809 6.86721L30.4695 6.83872L30.4524 6.81023L30.4324 6.78744L30.4097 6.76749L30.384 6.7504L30.3555 6.7333L30.3242 6.72191L30.2558 6.69911C30.2188 6.69056 30.1817 6.68487 30.1447 6.67917L30.0649 6.67062C29.9623 6.66207 29.8569 6.65922 29.7515 6.65922C29.7259 6.65922 29.7002 6.65922 29.6774 6.65637C29.7059 6.63643 29.7316 6.61649 29.76 6.59939C29.968 6.45408 30.176 6.31448 30.384 6.16917C30.4296 6.13783 30.4752 6.10364 30.5208 6.06945C30.5493 6.0552 30.5749 6.03811 30.6005 6.02101L30.6718 5.96403C30.6832 5.95263 30.6946 5.93839 30.706 5.92699C30.7231 5.9042 30.7402 5.88425 30.7516 5.85861C30.7601 5.84437 30.7658 5.83012 30.7715 5.81588C30.78 5.79023 30.7886 5.76744 30.7914 5.73895C30.7943 5.72185 30.7971 5.70761 30.7971 5.69051C30.7971 5.66487 30.7971 5.64208 30.7971 5.61644L30.7544 5.59934C30.7003 5.57655 30.6433 5.55375 30.5863 5.53666C30.5635 5.53096 30.5407 5.52241 30.5179 5.51671C30.4638 5.50247 30.4097 5.49107 30.3555 5.48253L30.2644 5.47398H30.176L30.1133 5.47968L30.0478 5.49392L30.0421 5.52526L30.0393 5.60219L30.0735 5.61928C30.1105 5.63638 30.1475 5.65347 30.1874 5.66487C30.2159 5.67342 30.2473 5.68197 30.2786 5.69051C30.2501 5.72755 30.2188 5.76459 30.1874 5.80163C30.1532 5.83867 30.1219 5.87286 30.0849 5.9099C30.0393 5.95263 29.9965 5.99252 29.9481 6.03241C29.8398 6.12358 29.7287 6.20621 29.609 6.28029C29.5578 6.25749 29.5464 6.19766 29.535 6.14638L29.5378 6.14353C29.5521 6.15207 29.5663 6.16062 29.5806 6.17202C29.629 6.15777 29.6774 6.14068 29.7202 6.11504C29.7401 6.10364 29.7544 6.08654 29.7686 6.06945C29.7885 6.04666 29.8028 6.02101 29.817 5.99822C29.7914 5.94409 29.7686 5.88995 29.7373 5.83582C29.723 5.81303 29.7088 5.79308 29.6917 5.77314C29.6831 5.76459 29.6746 5.75604 29.666 5.7475C29.629 5.719 29.5863 5.69621 29.5435 5.67627C29.5891 5.67057 29.6347 5.66772 29.6803 5.65917C29.7173 5.65347 29.7515 5.64778 29.7885 5.63638C29.8028 5.63068 29.817 5.62498 29.8313 5.61928C29.8455 5.61074 29.8569 5.60504 29.8712 5.59364C29.8854 5.58225 29.8968 5.5737 29.9082 5.55945C29.9196 5.54521 29.9282 5.53096 29.9395 5.51671L29.968 5.46258L29.9452 5.42554C29.8968 5.35146 29.8569 5.27169 29.8085 5.19761C29.7857 5.16627 29.7657 5.13778 29.7373 5.10929C29.723 5.09504 29.7088 5.08364 29.6945 5.0694C29.6803 5.058 29.6632 5.04661 29.6461 5.03521C29.629 5.02381 29.6119 5.01526 29.5919 5.00672L29.5179 4.97538L29.5008 5.01526C29.4979 5.02381 29.4951 5.02951 29.4951 5.03806C29.4951 5.06655 29.5036 5.09219 29.515 5.12068C29.5264 5.15487 29.5378 5.19191 29.5464 5.2261C29.5207 5.26029 29.4922 5.29163 29.4609 5.32297C29.4495 5.33437 29.4352 5.34577 29.4239 5.35716C29.3612 5.41415 29.2928 5.46258 29.2273 5.51671C29.2216 5.51671 29.2159 5.51387 29.2102 5.51387C29.1589 5.50247 29.1047 5.49107 29.0535 5.48253C29.0278 5.51387 29.0022 5.54806 28.9765 5.58225C28.9965 5.59934 29.0164 5.61643 29.0364 5.63353C29.0079 5.66202 28.9708 5.67912 28.9366 5.69336C28.9082 5.70476 28.8825 5.71331 28.854 5.72185L28.8569 5.69906L28.8626 5.65062C28.8626 5.62498 28.8626 5.59934 28.8597 5.5737L28.854 5.51956C28.8483 5.49107 28.8426 5.46543 28.8369 5.43694C28.8312 5.40845 28.8227 5.3828 28.8141 5.35431C28.8056 5.32867 28.7942 5.30303 28.7828 5.27454C28.7714 5.2489 28.76 5.2261 28.7486 5.20046C28.7372 5.17767 28.723 5.15772 28.7087 5.13493L28.6774 5.09789L28.646 5.06655L28.5862 5.01811C28.5748 5.04945 28.5606 5.07795 28.552 5.10929L28.5463 5.13778C28.5435 5.16627 28.5435 5.19476 28.5435 5.22325C28.5463 5.28593 28.5549 5.34862 28.552 5.41415C28.5492 5.44264 28.5463 5.47113 28.5406 5.49962L28.5292 5.53951L28.5349 5.56515C28.5349 5.59649 28.5207 5.63068 28.5064 5.65917C28.458 5.75034 28.3953 5.83012 28.3383 5.9156C28.3212 5.93839 28.307 5.96403 28.2927 5.98967C28.3212 6.00392 28.3497 6.01532 28.3782 6.02956C28.4323 6.05235 28.4865 6.07515 28.5378 6.10364C28.5606 6.11789 28.5862 6.13213 28.609 6.15208C28.6318 6.17202 28.6546 6.19481 28.6745 6.21761L28.6517 6.23755C28.6289 6.25464 28.609 6.26604 28.5834 6.28029L28.5378 6.29738L28.4722 6.31448L28.3839 6.32587H28.2215L28.1645 6.32017L28.1075 6.38571ZM26.5633 7.20341L26.5719 7.2547C26.6203 7.26894 26.6716 7.28604 26.72 7.30313C26.7314 7.30598 26.7428 7.31168 26.7514 7.31453L26.7941 7.30883L26.8254 7.29743L26.8539 7.28319L26.8796 7.26609L26.9024 7.24615L26.9223 7.22335L26.9422 7.19771L26.9593 7.16922L26.9736 7.13788L26.985 7.10654L27.0021 7.03816L27.0135 6.96693C27.0192 6.92989 27.0192 6.8957 27.022 6.85866V6.78459C27.022 6.7504 27.0192 6.71621 27.0163 6.67917C27.0078 6.59939 26.9964 6.51962 26.9679 6.44554L26.9422 6.3914L26.8796 6.42844L26.8311 6.46263L26.7855 6.50252L26.7457 6.54526L26.7086 6.59084L26.6744 6.63928C26.6602 6.66492 26.6459 6.69056 26.6317 6.71906L26.6089 6.77319C26.6003 6.80168 26.589 6.82732 26.5804 6.85866C26.5747 6.88716 26.5662 6.91565 26.5605 6.94414C26.5548 6.97263 26.5519 7.00112 26.5491 7.02961C26.5491 7.0581 26.5462 7.0866 26.5491 7.11509C26.5576 7.14928 26.5605 7.17492 26.5633 7.20341ZM29.2244 6.97263L29.2045 6.98403C29.2985 6.97548 29.3868 6.95838 29.4808 6.94129L29.7116 6.8957L29.6204 6.87861L29.5492 6.87576L29.478 6.88146L29.4068 6.8957C29.384 6.9014 29.3583 6.90995 29.3355 6.9185C29.3127 6.92704 29.2899 6.93844 29.2671 6.94699L29.2244 6.97263ZM29.3441 6.48258C29.3327 6.47118 29.3241 6.45978 29.3156 6.44554C29.3099 6.43414 29.3042 6.41989 29.2985 6.4085C29.2415 6.3971 29.1845 6.38855 29.1304 6.38001C29.1617 6.34012 29.1874 6.29738 29.2273 6.26319C29.1959 6.26034 29.1646 6.26034 29.1332 6.26604C29.0962 6.27459 29.0592 6.29168 29.025 6.30878C29.0535 6.36006 29.0763 6.4142 29.099 6.46833C29.1047 6.48542 29.1133 6.50252 29.119 6.51961C29.1304 6.54811 29.1418 6.57945 29.156 6.60509C29.1988 6.60509 29.2387 6.60509 29.2814 6.59654C29.3013 6.59084 29.3184 6.58514 29.3355 6.5709C29.3555 6.5538 29.3726 6.53386 29.3868 6.51392C29.3697 6.50252 29.3555 6.49397 29.3441 6.48258ZM29.2102 5.8928C29.2244 5.8985 29.2358 5.9042 29.2501 5.91275C29.2216 5.8871 29.1874 5.86716 29.156 5.84437C29.0449 5.86716 28.9366 5.8928 28.8284 5.91844C28.8141 5.94124 28.8027 5.96403 28.7885 5.98682C28.7942 5.99537 28.7999 6.00392 28.8056 6.01247C28.8369 6.0609 28.8711 6.10934 28.9253 6.13783C28.9623 6.11788 28.9993 6.09509 29.0307 6.06375C29.0364 6.05805 29.0449 6.04951 29.0506 6.04381C29.0962 5.99252 29.1304 5.93269 29.1646 5.87286L29.2102 5.8928ZM9.47982 30.102L9.3858 30.1903L9.44563 30.253C9.49406 30.3043 9.51686 30.347 9.51116 30.3841C9.50831 30.4211 9.47412 30.4696 9.40859 30.5294L8.33161 31.538C8.26608 31.6007 8.2148 31.6263 8.18346 31.6206C8.14927 31.6149 8.10368 31.5807 8.0467 31.518L8.00966 31.481L7.91564 31.5665L8.47122 32.1591L8.56524 32.0708C8.48262 31.9825 8.43703 31.9255 8.42848 31.8941C8.41993 31.8628 8.45412 31.8115 8.53675 31.7317L9.03535 31.2645L9.78183 32.0594L9.29747 32.5124C9.24049 32.5665 9.2006 32.5979 9.17496 32.6121C9.14932 32.6264 9.12367 32.6264 9.09803 32.615C9.07239 32.6036 9.0382 32.5694 8.98977 32.5209L8.94988 32.4782L8.85585 32.5665L9.40574 33.1535L9.49976 33.0651C9.44278 33.0024 9.40574 32.9569 9.38865 32.9255C9.37155 32.8942 9.3687 32.8685 9.38295 32.8429C9.39719 32.8173 9.42853 32.7802 9.47982 32.7346L10.5426 31.7374C10.6138 31.6719 10.6651 31.6406 10.7021 31.6434C10.7363 31.6463 10.779 31.6747 10.8275 31.726L10.8759 31.7773L10.9699 31.689L10.42 31.1021L10.326 31.1904L10.383 31.2502C10.4371 31.3101 10.4599 31.3556 10.4514 31.3898C10.4428 31.424 10.4001 31.4782 10.3289 31.5465L9.90434 31.9454L9.15786 31.1505L9.59378 30.7402C9.66501 30.6718 9.71915 30.6405 9.75618 30.6405C9.79322 30.6405 9.84166 30.6747 9.90149 30.7402L9.93853 30.7801L10.0326 30.6918L9.47982 30.102ZM7.99826 28.0307L7.38 28.0991L7.39139 28.2415C7.58513 28.233 7.73899 28.2558 7.85011 28.3099C7.96122 28.364 8.07234 28.4837 8.18346 28.6717L8.40854 29.0507L6.11782 28.8057L6.00671 28.8712L6.83581 30.273L7.531 30.1419L7.50251 29.9966C7.29452 30.0222 7.12357 30.008 6.98966 29.951C6.85575 29.8969 6.72754 29.7601 6.59933 29.5464L6.34291 29.1134L8.63362 29.3555L8.74474 29.29L7.99826 28.0307ZM7.07514 26.0648L6.96117 26.1275L6.99251 26.1844C7.03525 26.2614 7.04665 26.3155 7.0267 26.3525C7.00961 26.3867 6.95832 26.4295 6.8757 26.4722L5.63632 27.1474C5.54799 27.1959 5.48531 27.213 5.44827 27.2016C5.41124 27.1902 5.3742 27.1503 5.33716 27.0848L5.30582 27.0278L5.19185 27.0905L5.57649 27.7971L5.69045 27.7344L5.66196 27.6802C5.61922 27.6033 5.60783 27.5463 5.62777 27.5093C5.64487 27.4723 5.6933 27.4352 5.77023 27.3925L6.98112 26.7315C7.08084 26.6773 7.15491 26.6545 7.19765 26.6631C7.24039 26.6716 7.28028 26.7115 7.31447 26.7771L7.34296 26.8312L7.45692 26.7685L7.07514 26.0648ZM6.04944 23.0076L5.92693 23.0447L5.94972 23.1188C5.97252 23.1928 5.97252 23.247 5.95257 23.2783C5.93263 23.3096 5.8785 23.3381 5.79587 23.3666L4.79297 23.6743C4.54224 23.7513 4.37984 23.888 4.30577 24.0875C4.23169 24.2869 4.22599 24.4863 4.28582 24.6858C4.35705 24.9166 4.48526 25.0875 4.67046 25.1929C4.85565 25.2983 5.07789 25.3126 5.33431 25.2328L6.27738 24.9422C6.36 24.9166 6.41983 24.9137 6.45687 24.9337C6.49391 24.9536 6.52525 24.9992 6.54805 25.0761L6.56229 25.1246L6.6848 25.0875L6.47682 24.4151L6.3543 24.4522L6.3714 24.5091C6.39704 24.5889 6.39419 24.6459 6.3657 24.6829C6.34006 24.72 6.28592 24.7485 6.20615 24.7741L5.32291 25.0448C5.13772 25.1018 4.99811 25.1189 4.90409 25.0961C4.81007 25.0733 4.72459 25.022 4.64197 24.9422C4.56219 24.8624 4.50521 24.7741 4.47387 24.6715C4.44537 24.5775 4.43968 24.4778 4.45962 24.3752C4.47671 24.2727 4.51945 24.1843 4.58783 24.1103C4.65336 24.039 4.77588 23.9763 4.95252 23.9222L5.87565 23.6401C5.95827 23.6145 6.0181 23.6088 6.05229 23.6259C6.08933 23.643 6.12067 23.6914 6.14632 23.7769L6.16056 23.8282L6.28307 23.7912L6.04944 23.0076ZM5.84146 21.6286L5.699 21.5745C5.81866 21.4207 5.8785 21.2383 5.88134 21.0246C5.88419 20.7369 5.77593 20.4918 5.56224 20.2867C5.34855 20.0816 5.08643 19.979 4.77588 19.9761C4.45107 19.9733 4.18325 20.073 3.97811 20.2725C3.77013 20.4719 3.66471 20.7198 3.66471 21.0189C3.66471 21.2526 3.73879 21.4805 3.88694 21.697L3.6989 21.7768V21.925L4.43968 21.9278C4.528 21.9278 4.58498 21.9392 4.61347 21.962C4.64197 21.9848 4.65621 22.0332 4.65621 22.1159V22.1842H4.78442L4.79012 21.3323H4.66191C4.66191 21.4719 4.64481 21.5574 4.61632 21.5945C4.58498 21.6315 4.51375 21.6486 4.39979 21.6486H4.29722C4.21459 21.6486 4.15476 21.64 4.10917 21.6229C4.06644 21.6059 4.0237 21.5717 3.97811 21.5175C3.93538 21.4634 3.90119 21.4007 3.87554 21.3295C3.8499 21.2583 3.83851 21.1813 3.83851 21.1044C3.83851 20.9648 3.87839 20.8337 3.95817 20.7084C4.0351 20.5859 4.15191 20.4861 4.30577 20.4121C4.45962 20.338 4.62487 20.3038 4.80437 20.3038C5.06079 20.3038 5.27733 20.3807 5.45682 20.5289C5.63632 20.677 5.72464 20.8565 5.72179 21.0645C5.72179 21.2241 5.67336 21.3637 5.57649 21.4776C5.47962 21.5916 5.33431 21.6913 5.13487 21.774L5.18045 21.9107L5.84146 21.7398V21.6286ZM14.4088 33.8971L14.369 34.0196L14.443 34.0452C14.5171 34.0709 14.5627 34.0994 14.5769 34.1364C14.5912 34.1734 14.5826 34.2304 14.557 34.3159L14.2236 35.3103C14.141 35.5581 14.1581 35.7718 14.2778 35.9485C14.3974 36.1251 14.5542 36.2448 14.7536 36.3132C14.9844 36.3901 15.1981 36.3844 15.3918 36.2961C15.5855 36.2077 15.7252 36.0339 15.8106 35.7804L16.124 34.843C16.1525 34.7604 16.1839 34.7119 16.2209 34.692C16.2579 34.6721 16.3149 34.6749 16.3919 34.7005L16.4403 34.7176L16.4802 34.5951L15.8106 34.37L15.7707 34.4925L15.8277 34.5125C15.9046 34.5381 15.9531 34.5723 15.9645 34.6179C15.9787 34.6607 15.9702 34.7233 15.9445 34.8031L15.6511 35.6778C15.5884 35.863 15.52 35.9855 15.4488 36.0482C15.3747 36.1109 15.2835 36.1508 15.1724 36.1707C15.0613 36.1906 14.9559 36.1849 14.8533 36.1508C14.7593 36.1194 14.6767 36.0653 14.6026 35.9912C14.5285 35.9143 14.4829 35.8288 14.463 35.7319C14.443 35.6351 14.463 35.5012 14.52 35.3245L14.8277 34.4099C14.8562 34.3273 14.8847 34.276 14.9188 34.2561C14.953 34.2361 15.0129 34.239 15.0955 34.2675L15.1439 34.2846L15.1838 34.162L14.4088 33.8971ZM11.1608 33.2703C10.9984 33.5438 10.9528 33.8202 11.0184 34.1051C11.0867 34.39 11.252 34.6122 11.5198 34.7689C11.7876 34.9285 12.064 34.9712 12.3432 34.8914C12.6224 34.8145 12.8475 34.635 13.0128 34.3529C13.1723 34.0851 13.2179 33.8116 13.1552 33.5295C13.0925 33.2475 12.933 33.0309 12.6766 32.8771C12.403 32.7147 12.1238 32.6719 11.8332 32.746C11.5483 32.8258 11.3232 32.9996 11.1608 33.2703ZM12.7364 34.1905C12.8845 33.9427 12.9472 33.7147 12.9244 33.5067C12.9016 33.3016 12.7934 33.1392 12.5968 33.0224C12.3888 32.897 12.1808 32.8742 11.9757 32.9455C11.7705 33.0195 11.591 33.1876 11.4372 33.4469C11.289 33.6948 11.232 33.9284 11.2662 34.1421C11.3004 34.3558 11.4115 34.521 11.6053 34.635C11.7962 34.749 11.9956 34.7632 12.2065 34.6806C12.4116 34.6037 12.5882 34.4384 12.7364 34.1905ZM29.7088 32.1249L29.7914 32.2246C29.8569 32.1705 29.9054 32.1363 29.9424 32.1221C29.9766 32.1078 30.0079 32.1078 30.0307 32.1192C30.0535 32.1306 30.0849 32.1619 30.1219 32.2075L31.0593 33.3472C31.1105 33.407 31.1362 33.4583 31.1362 33.4982C31.1362 33.5381 31.102 33.5865 31.0336 33.6407L30.988 33.6777L31.0707 33.7774L32.4439 32.6492L32.1989 31.9825L32.0593 32.0309C32.1248 32.2389 32.1334 32.4155 32.0878 32.5637C32.0422 32.7118 31.934 32.8543 31.763 32.9967L31.518 33.1962C31.4581 33.2446 31.4183 33.2674 31.3926 33.2646C31.367 33.2617 31.3299 33.2304 31.2758 33.1648L30.8313 32.6264L31.0279 32.464C31.1276 32.3813 31.2131 32.3443 31.2815 32.3528C31.3499 32.3614 31.4183 32.4098 31.4895 32.4953L31.5408 32.558L31.6519 32.4668L31.0536 31.7403L30.9424 31.8314L30.9652 31.8571C31.045 31.9568 31.0849 32.0423 31.0792 32.1192C31.0735 32.1961 31.0251 32.2702 30.9339 32.3443L30.7373 32.5067L30.2387 31.8998L30.6319 31.575C30.8085 31.4297 30.9567 31.3528 31.0735 31.3414C31.1903 31.33 31.3242 31.3699 31.4695 31.4582L31.5408 31.3357L31.0308 31.028L29.7088 32.1249ZM35.5324 20.6856H35.6606C35.6606 20.6172 35.6663 20.5688 35.6777 20.5346C35.6891 20.5032 35.7376 20.4605 35.8316 20.4035L36.8316 19.8365L37.316 19.8308C37.4072 19.8308 37.4641 19.8422 37.4926 19.865C37.5211 19.8878 37.5354 19.9448 37.5382 20.0303V20.0958H37.6664L37.6579 19.2724L37.5297 19.2752C37.5297 19.3807 37.5211 19.4519 37.504 19.4889C37.4869 19.526 37.4214 19.5459 37.3131 19.5459L36.7718 19.5516L35.8002 18.9903C35.7233 18.9447 35.6777 18.9077 35.6635 18.8764C35.6492 18.845 35.6407 18.7937 35.6407 18.7225H35.5125L35.5182 19.3721H35.6464V19.2952C35.6464 19.2468 35.6492 19.2126 35.6578 19.1926C35.6635 19.1727 35.6777 19.1641 35.7005 19.1641C35.7205 19.1641 35.7547 19.1755 35.8059 19.204L36.6123 19.6513L35.843 20.0673C35.786 20.0987 35.7461 20.1157 35.7176 20.1157C35.6777 20.1157 35.6578 20.073 35.6549 19.9904V19.9049H35.5267L35.5324 20.6856ZM35.1449 23.3381L35.7547 23.606L35.8173 23.4749C35.6635 23.398 35.5552 23.321 35.4868 23.247C35.4213 23.17 35.3928 23.0504 35.4071 22.8851C35.4099 22.8367 35.4213 22.8053 35.4356 22.7968C35.4498 22.7854 35.484 22.7826 35.5324 22.7883L37.0453 22.9165C37.1137 22.9222 37.1621 22.9307 37.1906 22.945C37.2191 22.9564 37.2362 22.982 37.2476 23.019C37.2562 23.0561 37.2562 23.1159 37.2505 23.1985L37.3787 23.2099L37.447 22.4008L37.3188 22.3894C37.3103 22.4891 37.2932 22.5575 37.2647 22.5945C37.2362 22.6315 37.1678 22.6458 37.0596 22.6372L35.5809 22.5147C35.5153 22.509 35.4783 22.4976 35.4669 22.4834C35.4555 22.4663 35.4498 22.4293 35.4555 22.3666C35.4669 22.2241 35.5125 22.1159 35.5866 22.0475C35.6635 21.9791 35.786 21.9193 35.9541 21.8708L35.9142 21.7312L35.2703 21.8965L35.2618 22.0076L35.333 22.0247L35.2333 23.2299L35.1592 23.2384L35.1449 23.3381ZM34.6862 25.3468L34.8116 25.3696L34.823 25.3069C34.8401 25.2214 34.8657 25.1701 34.8999 25.1559C34.937 25.1388 34.9996 25.1388 35.0937 25.1559L36.4812 25.4152C36.5809 25.4323 36.6407 25.4579 36.6607 25.4921C36.6835 25.5234 36.6863 25.5776 36.6721 25.6516L36.6607 25.7143L36.786 25.7371L36.9342 24.9479L36.8088 24.9251L36.7974 24.9849C36.7803 25.0733 36.7547 25.1246 36.7177 25.1388C36.6806 25.1559 36.618 25.1559 36.5325 25.1388L35.1763 24.8852C35.0623 24.8653 34.9939 24.8368 34.9654 24.8026C34.9398 24.7684 34.9341 24.7143 34.9455 24.6374L34.9569 24.5775L34.8315 24.5547L34.6862 25.3468ZM34.4042 26.3126L34.4925 26.4466C34.3101 26.5007 34.162 26.6204 34.0452 26.8027C33.9312 26.9793 33.8856 27.156 33.9027 27.3326C33.9227 27.5093 33.9967 27.6404 34.1249 27.723C34.2418 27.7971 34.3643 27.8198 34.4953 27.7914C34.6264 27.7629 34.7689 27.6802 34.9227 27.5463L35.219 27.2899C35.3444 27.1816 35.4498 27.1133 35.5381 27.0848C35.6264 27.0563 35.7119 27.0677 35.7974 27.1218C35.8886 27.1788 35.937 27.2728 35.9484 27.4039C35.9569 27.5349 35.9256 27.6574 35.8544 27.7714C35.7661 27.911 35.6321 28.0107 35.4555 28.0706C35.2789 28.1304 35.0823 28.1361 34.8657 28.0848L34.8116 28.2187L35.5353 28.515L35.5923 28.4267L35.4555 28.2586C35.578 28.2187 35.6806 28.1703 35.7661 28.1133C35.8515 28.0563 35.9285 27.9709 35.9997 27.8626C36.1222 27.6745 36.1706 27.4808 36.145 27.2871C36.1194 27.0933 36.0339 26.948 35.8886 26.854C35.7689 26.7771 35.6407 26.7543 35.5068 26.7828C35.3729 26.8112 35.2276 26.8939 35.068 27.0306L34.7575 27.2985C34.6349 27.401 34.5324 27.4666 34.4469 27.495C34.3614 27.5207 34.2817 27.5121 34.2133 27.4666C34.1363 27.4153 34.0936 27.3383 34.0851 27.2329C34.0765 27.1275 34.1078 27.0192 34.1791 26.911C34.2617 26.7828 34.3814 26.6887 34.5352 26.6318C34.6891 26.5748 34.8657 26.5577 35.0652 26.5833L35.1051 26.4437L34.464 26.2215L34.4042 26.3126ZM31.8542 30.1675L31.9567 30.2445L32.008 30.1732C32.0508 30.1163 32.0907 30.0849 32.1305 30.0849C32.1704 30.0849 32.2217 30.1049 32.2815 30.1504L33.4155 30.9824C33.5181 31.0565 33.5722 31.1135 33.5779 31.1476C33.5836 31.1847 33.5637 31.236 33.5181 31.2987L33.4753 31.3585L33.5808 31.4354L34.0594 30.783L33.9568 30.706L33.9227 30.7516C33.8685 30.8257 33.8229 30.8656 33.7859 30.8656C33.7517 30.8656 33.6919 30.8371 33.6121 30.7801L33.0793 30.3898L33.2389 30.1732L34.521 30.1533L34.803 29.7658L34.6976 29.6889L34.6748 29.7174C34.6349 29.7715 34.5894 29.8086 34.5381 29.8285C34.4868 29.8484 34.4127 29.8598 34.3187 29.8655L33.4326 29.9054C33.5722 29.706 33.6406 29.5265 33.632 29.3669C33.6235 29.2074 33.5494 29.0735 33.4041 28.9681C33.1135 28.7544 32.8115 28.8626 32.4952 29.2929L31.8542 30.1675ZM32.3157 29.8228L32.9653 30.2986L33.2218 29.9482C33.3414 29.7858 33.4013 29.649 33.407 29.535C33.4098 29.4239 33.3528 29.3242 33.2332 29.2359C33.1249 29.1561 33.0223 29.1305 32.9255 29.1532C32.8286 29.1789 32.7317 29.253 32.6377 29.3812L32.3157 29.8228ZM27.0676 33.7461L27.1246 33.8629C27.193 33.8287 27.2471 33.8173 27.287 33.8259C27.3269 33.8372 27.381 33.8714 27.4465 33.9284L28.9053 35.2618L29.0962 35.1678L28.911 33.1962C28.9025 33.1107 28.9053 33.0452 28.9224 33.0081C28.9395 32.9683 28.9822 32.9312 29.0506 32.897L28.9936 32.7831L28.4096 33.0737L28.4665 33.1876L28.5264 33.1563C28.5748 33.1307 28.6147 33.1193 28.6432 33.1221C28.6688 33.125 28.6916 33.1392 28.7059 33.1677C28.7173 33.1933 28.7258 33.2332 28.7287 33.2845L28.9053 34.8943L27.7258 33.786C27.6859 33.7489 27.6602 33.7147 27.646 33.6891C27.6317 33.6634 27.6346 33.6378 27.6488 33.6179C27.6631 33.5951 27.6973 33.5723 27.7542 33.5438L27.8084 33.5153L27.7514 33.3985L27.0676 33.7461ZM25.5091 34.5011L25.5519 34.6236L25.6117 34.6008C25.6943 34.5723 25.7513 34.5695 25.7826 34.5923C25.814 34.6151 25.8453 34.6721 25.8767 34.7604L26.3411 36.0938C26.3753 36.1878 26.381 36.2533 26.3639 36.2875C26.3468 36.3217 26.3012 36.353 26.23 36.3787L26.1673 36.3986L26.21 36.5211L26.9679 36.2562L26.9251 36.1337L26.8653 36.1536C26.7827 36.1821 26.7229 36.1849 26.6915 36.1622C26.6602 36.1394 26.6288 36.0852 26.6003 36.0026L26.1445 34.7005C26.1074 34.5923 26.096 34.5182 26.1131 34.4755C26.1302 34.4356 26.173 34.4014 26.2471 34.3786L26.304 34.3586L26.2613 34.2361L25.5091 34.5011ZM22.5574 35.0082L22.566 35.1365L22.6201 35.1336C22.6885 35.1279 22.7369 35.1308 22.7654 35.1422C22.7967 35.1536 22.8138 35.1735 22.8252 35.2048C22.8338 35.2362 22.8423 35.2932 22.848 35.3729L22.9506 36.7263C22.9591 36.8345 22.9506 36.9086 22.9278 36.9457C22.905 36.9827 22.8423 37.0055 22.7426 37.014L22.7056 37.0169L22.7141 37.1451L23.4264 37.091L23.4179 36.9628C23.2953 36.9713 23.2184 36.9599 23.1871 36.9229C23.1586 36.8887 23.1386 36.8175 23.1301 36.712L23.0161 35.1849L24.3153 37.0226L24.4977 37.0084L24.3666 35.2561C24.3609 35.1593 24.3695 35.0937 24.398 35.0538C24.4264 35.0139 24.4834 34.9912 24.5661 34.9855L24.6059 34.9826L24.5974 34.8544L23.8937 34.9085L23.9022 35.0367L23.9535 35.0339C24.0276 35.0282 24.0817 35.0424 24.1187 35.0738C24.1529 35.108 24.1757 35.1735 24.1843 35.2704L24.2754 36.4898L23.1985 34.9598L22.5574 35.0082ZM19.2296 35.2048V35.333H19.3065C19.3835 35.333 19.4376 35.3473 19.4604 35.3758C19.486 35.4043 19.4974 35.4641 19.4974 35.5524V36.6038C19.4974 36.8659 19.5829 37.0625 19.751 37.1907C19.9191 37.3189 20.1071 37.3844 20.318 37.3844C20.5602 37.3844 20.7596 37.3104 20.9163 37.1651C21.073 37.0197 21.1499 36.8118 21.1499 36.5439V35.5553C21.1499 35.4698 21.1642 35.41 21.1927 35.3815C21.2212 35.3501 21.2753 35.3359 21.3579 35.3359H21.4063V35.2077H20.7026V35.3359H20.7624C20.8451 35.3359 20.8992 35.353 20.9277 35.39C20.9533 35.4271 20.9676 35.4869 20.9676 35.5695V36.4955C20.9676 36.6921 20.9419 36.8289 20.8935 36.9115C20.8451 36.9941 20.771 37.0625 20.6713 37.1166C20.5715 37.1707 20.469 37.1992 20.3636 37.1992C20.2638 37.1992 20.1698 37.1764 20.0758 37.128C19.9818 37.0796 19.9105 37.014 19.8621 36.9286C19.8137 36.8431 19.788 36.7092 19.788 36.524V35.5581C19.788 35.4727 19.7994 35.4128 19.8279 35.3843C19.8536 35.353 19.9105 35.3387 19.9989 35.3387H20.0502V35.2105H19.2296V35.2048ZM20.6998 8.43424C14.1895 8.43424 8.8815 13.7422 8.8815 20.2525C8.8815 26.7628 14.1895 32.0708 20.6998 32.0708C27.2101 32.0708 32.518 26.7628 32.518 20.2525C32.518 13.7451 27.2072 8.43424 20.6998 8.43424Z" fill="#A4130E"/>
<path fill-rule="evenodd" clip-rule="evenodd" d="M18.4147 28.9652V30.9938C18.4033 31.1078 18.4461 31.1619 18.543 31.1505H18.7851V31.2787H17.6198V31.1505H17.8478C17.9304 31.1505 17.976 31.1021 17.976 31.0081V29.4182C17.8278 29.5123 17.6854 29.5749 17.5514 29.6034L17.4945 29.5066C17.7822 29.3726 18.0216 29.1931 18.221 28.9652H18.4147Z" fill="#A4130E"/>
<path fill-rule="evenodd" clip-rule="evenodd" d="M19.5943 31.3072L19.5116 31.2046C19.9276 31.0736 20.1954 30.7687 20.3065 30.2844C20.184 30.3784 20.0587 30.4211 19.9362 30.4126C19.5401 30.3955 19.3293 30.1647 19.3122 29.7288C19.3407 29.2558 19.5886 29.0023 20.0501 28.9624C20.5402 29.0023 20.8023 29.3214 20.8308 29.9282C20.7824 30.6747 20.3721 31.1363 19.5943 31.3072ZM19.7794 29.6604C19.7624 30.0678 19.845 30.2587 20.033 30.2416C20.1156 30.253 20.2182 30.2131 20.3293 30.1277C20.3464 29.9852 20.3578 29.8541 20.3578 29.743C20.3464 29.3185 20.2467 29.0991 20.0444 29.0906C19.8621 29.0906 19.7709 29.2815 19.7794 29.6604Z" fill="#A4130E"/>
<path fill-rule="evenodd" clip-rule="evenodd" d="M21.2582 30.1419C21.2753 29.4154 21.526 29.025 22.0104 28.9652C22.4833 29.0222 22.734 29.4154 22.7625 30.1419C22.7454 30.8798 22.4947 31.2673 22.0104 31.3072C21.5288 31.2787 21.2781 30.8884 21.2582 30.1419ZM21.7283 29.6462V30.5949C21.7112 31.0109 21.8052 31.2132 22.0104 31.1933C22.2098 31.2189 22.3038 30.9995 22.2924 30.5379V29.7288C22.2924 29.3043 22.1984 29.0906 22.0104 29.0906C21.8109 29.0849 21.7169 29.2701 21.7283 29.6462Z" fill="#A4130E"/>
<path fill-rule="evenodd" clip-rule="evenodd" d="M23.1471 31.2787V31.1505C23.2041 31.0935 23.2554 31.0308 23.3038 30.9653C23.9107 30.3584 24.1785 29.9482 24.113 29.7316C24.0959 29.4382 23.9705 29.2815 23.7426 29.2644C23.5261 29.2815 23.3865 29.4211 23.3323 29.6775H23.1899C23.2668 29.2302 23.5061 28.9937 23.9136 28.9652C24.3096 28.9937 24.5233 29.2074 24.5518 29.6034C24.5518 29.8399 24.3808 30.1163 24.0389 30.4268C23.8309 30.6149 23.6742 30.7716 23.5688 30.8941H24.2526C24.4121 30.9112 24.5033 30.8229 24.5204 30.6206H24.6315L24.5632 31.273H23.1471V31.2787Z" fill="#A4130E"/>
<path fill-rule="evenodd" clip-rule="evenodd" d="M14.574 11.2293C14.782 11.272 15.027 11.4515 15.235 11.9587C15.235 11.9587 15.2892 12.0897 15.7365 12.0897L18.4859 12.0128C18.4859 12.0128 19.8079 12.1695 19.0415 13.0955L18.5657 13.1753L16.0983 13.3291C15.2265 13.3833 15.0584 13.9958 15.5769 13.9958L18.7765 13.916C19.503 13.899 19.5287 15.107 18.4375 15.1469L16.557 15.2124C16.557 15.2124 16.8419 15.4005 17.0585 15.5856C17.3633 15.8478 17.3405 15.9475 17.0328 16.1697C16.8448 16.3065 16.52 16.4318 16.0299 16.2979C16.0299 16.2979 14.2321 15.9275 13.9928 14.446C13.9928 14.446 13.8674 13.8163 13.8332 13.067C13.8019 12.3661 13.799 11.0754 14.574 11.2293Z" fill="#A4130E"/>
<path fill-rule="evenodd" clip-rule="evenodd" d="M26.3781 10.6024C26.1729 10.6623 25.9478 10.8617 25.7826 11.386C25.7826 11.386 25.7427 11.5227 25.2925 11.5598L22.546 11.7193C22.546 11.7193 21.2411 11.9871 22.0844 12.8447L22.5688 12.8846L25.039 12.8248C25.9108 12.8048 26.133 13.4003 25.6145 13.4459L22.4206 13.6396C21.6969 13.6824 21.7738 14.8904 22.8651 14.8363L24.7455 14.7394C24.7455 14.7394 24.5318 14.9075 24.3409 15.0899C23.9762 15.4403 24.0161 15.6226 24.5062 15.805C24.7085 15.8791 24.9934 15.9076 25.3638 15.7708C25.3638 15.7708 27.1245 15.2494 27.2328 13.7536C27.2328 13.7536 27.304 13.1154 27.2727 12.3661C27.2471 11.668 27.1388 10.3831 26.3781 10.6024Z" fill="#A4130E"/>
<path fill-rule="evenodd" clip-rule="evenodd" d="M20.9676 9.51408C21.2154 9.7819 21.3265 10.2064 21.2525 10.8674L21.4719 16.3007L28.8113 16.1412C30.0449 16.1156 29.8711 17.6085 28.891 17.6085H27.1844C27.1844 17.6085 27.6602 17.9248 27.6602 18.204C27.6602 18.204 27.663 20.9904 27.5719 22.8823C27.5035 24.2983 27.5063 25.1588 25.831 25.646C25.1416 25.8454 24.6657 26.0477 24.4492 25.287C24.3808 25.0476 24.3637 24.8112 24.5689 24.8112C24.5689 24.8112 26.3724 24.6402 25.7256 23.4863L23.2982 23.6259C22.4206 23.6772 22.0417 22.7398 22.6998 22.3637L25.8168 22.2013C26.1587 22.1842 26.1672 21.66 25.8282 21.5831L22.6713 21.6144C21.8622 21.623 21.7596 20.6571 22.6001 20.432C22.8337 20.3693 23.207 20.3095 23.7882 20.2896L26.0134 20.1955C26.2584 20.1841 26.1957 19.5431 25.965 19.5431L22.5602 19.6058C22.3693 19.6086 22.224 19.6086 22.1272 19.5374C21.9448 19.4035 21.9049 18.8821 22.0331 18.7197C22.0958 18.6399 22.1984 18.563 22.3608 18.4889C22.3608 18.4889 23.9592 18.2154 25.5233 18.184C25.5233 18.184 26.7485 18.0473 26.1017 17.5373L21.6115 17.8421V22.737C21.6115 22.737 22.6656 25.116 24.1956 26.2728C24.1956 26.2728 25.17 27.042 25.7912 27.4409C26.153 27.6745 26.606 28.0107 25.8225 28.3954C25.5803 28.515 25.1843 28.515 24.5347 28.2102C24.5347 28.2102 22.2582 27.1902 21.1015 24.8453C21.1015 24.8453 19.2866 28.3185 16.9987 29.0279C16.5029 29.1817 16.0328 29.29 16.0214 28.5834C16.0157 28.1874 16.4716 27.9851 16.8306 27.723C17.8534 26.9737 19.7082 25.2642 19.9647 22.5689L19.9048 18.3436C19.9048 18.3436 19.9048 17.9874 19.1925 17.9874L15.0556 18.1669C15.0556 18.1669 14.6681 18.5829 15.6197 18.5829L19.1014 18.4946C19.1014 18.4946 20.5003 19.0302 19.1299 19.8935L15.5 20.073V20.6372L19.07 20.6656C19.07 20.6656 20.2895 21.0816 19.0985 21.9763L15.6482 22.1557C15.6482 22.1557 15.3804 22.6031 15.7963 22.6031L19.278 22.5432C19.278 22.5432 20.0045 23.4749 18.7737 23.9707L16.3035 24.1786C16.3035 24.1786 15.7935 24.1786 15.9844 24.5291C16.1952 24.9166 16.5428 24.9251 16.9531 24.985C17.3035 25.0391 17.2466 24.985 17.3947 25.3639C17.5372 25.7343 17.634 26.2585 17.0158 26.2585C17.0158 26.2585 14.1609 26.4979 14.1296 23.5205L13.745 19.2667C13.745 19.2667 13.6253 18.6427 14.0726 18.4034C14.0726 18.4034 14.1011 18.2838 13.7763 18.2838C13.6025 18.2838 12.933 18.241 12.3375 18.2211C10.9471 18.1783 11.289 16.7196 12.2292 16.7196L19.6399 16.4461L19.9647 16.3378C19.8849 14.5257 19.8051 12.7165 19.7282 10.9045C19.7025 10.3346 19.7139 10.0811 19.8279 9.77335C20.0843 9.08671 20.3094 8.80179 20.9676 9.51408Z" fill="#A4130E"/>
<path fill-rule="evenodd" clip-rule="evenodd" d="M150.614 9.27469C150.292 9.29749 149.982 9.31743 149.674 9.35162C149.682 10.0297 149.663 10.5255 149.221 11.2036C148.66 11.289 148.19 10.9728 147.85 10.8389C147.848 10.6252 147.845 10.4144 147.842 10.2007C148.315 9.74195 148.788 9.28609 149.258 8.84162C149.737 8.90145 150.255 8.79603 150.614 9.27469ZM151.104 10.3431C150.238 10.7933 150.181 10.7876 149.7 11.5825C150.648 12.1181 150.922 12.5028 151.403 12.7364C152.144 12.2919 152.409 12.1039 152.398 11.2406C151.876 11.2406 151.834 11.1665 151.551 10.9699C151.341 11.0412 151.133 11.1266 150.922 11.2121C150.956 10.7392 151.136 10.554 151.104 10.3431ZM152.173 14.6054C152.745 13.1752 153.742 12.0498 155.415 11.9159C154.762 12.4543 152.873 14.3376 152.173 14.6054ZM144.36 16.1725C143.178 14.9929 144.286 12.7079 143.343 11.5198C144.48 11.3489 145.694 14.9473 145.035 16.1383C144.81 16.1468 144.585 16.1525 144.36 16.1725ZM149.54 19.6798C149.583 19.6741 149.623 19.6684 149.68 19.657C150.811 19.1128 152.742 18.2068 153.429 17.1042C153.401 14.9246 150.947 16.5742 149.657 16.8107C150.717 16.144 151.777 15.4773 152.851 14.822C154.922 13.9103 156.475 12.1951 158.213 10.7477C157.737 8.79603 154.66 11.2178 153.486 11.7164C153.483 11.4628 155.523 7.18627 155.848 6.2432C156.426 5.28873 156.429 4.46248 155.956 3.76159C154.859 3.88695 153.321 4.35991 152.611 5.09214C152.64 5.16907 152.683 5.2403 152.725 5.31438C153.472 5.25454 153.734 5.08075 154.156 5.00382C154.064 6.57655 153.469 8.35727 152.688 9.94139C152.17 10.1009 151.839 9.64508 151.626 9.43709C151.637 9.32883 151.651 9.22056 151.663 9.12369C151.774 9.12084 151.902 9.11514 152.027 9.12084C152.415 8.66213 152.497 8.51682 152.492 8.02392C151.44 7.31733 151.455 7.32872 150.221 7.47688C150.221 7.3971 150.232 7.31448 150.247 7.23185C151.081 6.53381 151.822 6.22041 151.725 5.24885C150.705 4.76449 149.939 4.10919 148.816 4.33142C148.819 4.49097 149.301 4.77874 149.614 5.12918C149.529 6.10074 149.281 6.55091 148.927 7.55096C148.634 7.64783 148.355 7.7447 148.073 7.85297C148.061 7.96123 148.047 8.0695 148.036 8.17777C148.164 8.19771 148.303 8.21766 148.446 8.249C148.454 8.79319 147.91 9.30318 147.509 9.80178C147.494 8.79034 145.802 7.24895 144.773 7.14068C144.867 7.80738 145.691 8.38861 145.885 9.27754C146.323 9.62514 146.05 11.1437 146.058 11.8076C147.013 11.7022 147.503 11.5341 148.437 11.8874C148.284 12.896 147.321 13.5741 146.383 14.0242C146.343 14.2294 146.303 14.4345 146.263 14.6539C147.534 15.0328 148.218 13.5712 148.896 12.631C149.275 12.6281 149.902 13.1039 150.09 13.6481C148.608 14.4573 146.546 15.9018 145.03 16.1326C144.805 16.1411 144.58 16.1468 144.355 16.1668C144.272 16.2209 144.186 16.2722 144.118 16.3235C144.132 16.4147 144.149 16.5058 144.178 16.6084C146.198 17.2495 148.765 15.6482 150.62 14.4487C150.774 14.4117 150.942 14.3747 151.11 14.3348C151.127 14.6111 151.144 14.9018 151.178 15.1895C150.426 15.7309 148.315 16.7964 148.469 17.7709C149.87 18.3977 150.933 16.8905 152.338 16.6796C151.737 17.7481 149.657 18.9162 149.54 19.6798ZM141.668 22.2155C140.699 21.1756 140.238 19.2496 140.993 17.8706C141.56 18.184 143.805 21.016 142.468 22.0303C142.201 22.0816 141.933 22.1471 141.668 22.2155ZM149.54 19.6798C149.583 19.6741 149.623 19.6684 149.68 19.657C149.91 20.0616 150.155 20.4775 150.4 20.8935C151.708 20.8166 152.178 20.2923 153.252 19.6228C154.053 19.5031 155.899 19.7282 155.045 21.1357C153.888 21.8565 152.452 21.9021 151.192 22.4378C151.192 22.5175 151.708 24.3438 151.765 24.3894C151.794 26.5291 152.358 27.683 151.147 29.743C150.711 29.8227 150.292 29.8997 149.87 29.9908C148.537 29.233 144.215 27.8226 143.981 27.2186C145.719 26.797 148.047 28.401 150.278 27.8226C150.449 25.7998 149.865 24.2356 149.842 22.509C146.281 23.3552 144.024 25.0533 140.913 26.9907C139.844 26.9935 138.175 26.3525 138.682 25.3296C139.004 25.2271 139.004 25.2271 139.4 25.3667C142.964 23.6828 145.947 22.5774 149.7 21.3693C149.694 20.6798 149.11 20.2639 149.54 19.6798ZM63.3903 12.3033C63.3903 12.3432 63.3932 12.3803 63.3932 12.4202C62.7891 13.4715 62.5014 13.7536 61.2136 13.272C60.8517 11.6936 60.4899 10.1152 60.128 8.53676C61.507 9.37726 62.9829 10.6309 63.3903 12.3033ZM66.1853 19.3122C66.1112 19.1242 66.0486 18.9504 65.9887 18.7738C65.6924 18.6541 65.4075 18.5458 65.1254 18.4404C65.1083 18.335 65.0912 18.2296 65.077 18.1384C65.6383 18.1954 66.7608 17.5971 67.2196 18.5772C66.9204 19.0102 66.6583 19.0872 66.1853 19.3122ZM65.775 21.9363C65.7722 21.7796 65.7665 21.6371 65.7636 21.4947C66.3449 20.5944 65.5443 20.526 65.5243 19.7994C66.1996 19.8821 66.7067 19.9732 67.4988 20.298C67.5073 20.6228 67.5159 20.959 67.5244 21.2981C67.174 21.3009 66.8378 21.3066 66.5016 21.3237C66.2879 21.6799 66.2081 21.8907 65.775 21.9363ZM63.3932 12.4202C63.5214 12.4971 63.6638 12.5769 63.8063 12.6709C64.2906 12.4344 64.7892 12.2008 65.2907 11.9671C65.5984 12.4771 65.1739 14.0527 65.077 14.7052C61.8432 16.6654 58.6237 18.5914 55.5352 20.6713C54.7175 21.0531 54.1534 20.9448 53.4297 21.1813C53.5066 24.2441 57.6436 20.3436 57.9855 20.0274C59.9856 18.6114 62.7948 16.0642 65.1511 15.4118C65.0856 15.6112 65.0343 15.8277 64.983 16.0414C64.8861 16.0585 64.7864 16.0728 64.6895 16.1013C64.6525 16.3178 64.6525 16.3178 64.8177 16.748C65.7494 16.9873 66.4076 14.7223 66.5785 14.2465C67.3107 13.8419 68.7723 12.762 69.6442 12.8504C69.0915 13.2094 68.4134 13.5285 68.1028 14.0926C68.9205 14.292 69.4704 13.7906 70.006 13.3404C70.7155 13.1153 71.4847 12.9985 71.9434 12.3347C73.029 12.0327 73.4934 12.0526 73.4649 10.95C72.5019 10.6195 72.2882 10.403 71.9634 10.3175C70.6642 11.1437 68.1484 13.1524 66.7124 13.4458C66.8235 12.8475 66.9489 12.2663 67.0743 11.6822C68.5159 10.987 69.3678 11.3859 69.61 9.31173C70.7155 8.67352 71.6357 7.82163 72.8409 7.28599C72.9862 6.34292 71.6756 6.14348 71.1143 6.11214C70.6214 7.11219 68.9832 7.30593 67.9119 7.59654C68.0088 6.42839 68.1056 5.27164 68.2054 4.11488C68.8949 2.47662 68.268 0.405294 66.0429 0.0605469C66.1397 2.85556 66.1112 5.70186 65.7352 8.53961C64.7807 9.0781 64.7807 9.0781 63.7806 9.4143C63.7835 9.49123 63.7835 9.571 63.7863 9.66218C64.6696 9.63653 65.3363 9.38011 65.6725 9.4143C66.2993 10.4115 63.906 11.7193 63.3875 12.3033C63.3903 12.3432 63.3932 12.3803 63.3932 12.4202ZM64.0969 25.0048C66.1625 24.5803 64.3733 20.318 64.0827 18.7851C64.0114 18.7794 63.943 18.7709 63.8861 18.7652C63.9202 20.1413 63.6724 21.489 63.7094 22.9705C63.2849 23.3808 63.4957 24.4777 64.0969 25.0048ZM68.5102 25.9622C69.8949 25.8311 70.3821 25.6231 70.3508 24.4008C69.7895 23.774 70.271 21.167 70.4078 21.0531C70.3565 18.9504 70.2026 18.429 71.2483 17.0215C71.2112 15.5143 70.6129 14.6368 69.0259 14.5399C67.7524 15.7964 66.5215 16.5229 64.8177 17.3463C66.2452 17.7509 67.6099 16.8933 68.8008 16.2779C68.8151 16.8221 68.778 19.3578 68.476 19.6114C68.3678 21.8537 68.5159 23.9677 68.5102 25.9622ZM67.0173 25.6801C68.2453 25.9992 71.3195 27.2984 72.2853 28.2643C72.2768 28.5093 72.2711 28.7686 72.2626 29.025C71.7383 29.3583 71.6557 29.441 71.0232 29.3783C69.9633 28.5577 67.0458 26.7941 67.0173 25.6801ZM66.872 25.5348C65.5984 26.8027 63.0427 29.988 60.9258 30.0307C61.091 29.2957 61.4814 29.2444 62.1025 28.8426C63.5499 27.307 63.5499 27.307 64.3362 26.21C65.3705 24.398 65.4331 24.0675 65.5984 23.8908C65.3904 22.8452 65.1226 22.8708 65.7807 22.2526C66.8064 22.358 67.4247 22.9506 67.7865 24.0133C67.4788 24.5091 67.1683 25.0219 66.872 25.5348ZM91.9644 16.0927C91.9644 15.9787 91.9644 15.8648 91.9644 15.7508C93.0186 15.3291 93.332 13.9957 93.3292 12.9814C94.4118 13.5741 93.7166 15.6682 93.6881 16.8962C92.6938 16.8591 92.577 16.6597 91.9644 16.0927ZM90.8675 11.6224C90.8675 12.896 89.8589 14.3319 89.6452 15.7651C89.0896 16.2694 89.6595 17.8962 88.95 18.9874C86.8986 19.1157 86.3146 16.4887 86.0838 14.9616C86.7961 15.1582 87.2377 15.5257 87.722 16.3377C87.893 16.3377 88.0639 16.3349 88.2349 16.3349C89.1609 14.7707 89.9273 13.2777 90.6396 11.6423C90.7108 11.6252 90.782 11.6252 90.8675 11.6224ZM95.1868 20.3864C96.5544 19.9191 96.2125 19.2211 96.2096 17.9048C95.6398 17.3948 95.8934 14.6026 95.9076 14.0185C96.2495 14.1866 97.5317 14.9359 97.9448 14.3319C97.3892 13.5484 97.1185 12.9786 97.4034 12.1039C97.2752 12.0612 97.147 12.0184 97.033 11.9928C97.033 12.3803 96.8479 12.9814 96.6484 13.3974C96.4347 13.4003 96.221 13.4003 96.0216 13.4031C95.8934 12.2891 95.4945 11.9472 94.5685 11.7392C94.8677 12.2948 95.0956 14.0385 94.5714 14.6282C94.6854 16.144 94.8449 17.8449 94.1611 19.2923C94.4318 19.7197 94.4318 19.7197 95.1868 20.3864ZM91.0099 11.4942C91.3091 11.7933 91.2664 12.9786 91.2835 13.5513C90.5427 14.1154 91.2151 16.9987 90.4601 17.6768C90.4601 19.278 88.611 22.452 87.5283 23.2042C86.702 23.2099 86.5596 23.0674 86.2177 23.0703C86.2319 23.17 86.2462 23.284 86.2604 23.3979C88.1551 25.0305 89.5939 22.187 90.6025 20.7653C91.3148 19.2154 91.255 17.4574 91.9673 16.0927C91.9673 15.9787 91.9673 15.8648 91.9673 15.7508C92.1097 14.349 92.6909 12.8276 92.5058 11.5854C92.1923 11.4002 91.8789 11.2178 91.5798 11.0355C91.4088 11.0811 91.2521 11.1238 91.0954 11.1808C91.0641 11.2776 91.0356 11.3802 91.0099 11.4942ZM99.2896 24.3495C98.9334 23.6088 98.6884 21.452 98.5345 21.338C98.432 18.1783 98.3465 15.0186 98.2582 11.8589C98.8707 11.2406 98.0274 8.97268 98.0701 8.2433C99.9221 7.00107 100.036 10.5027 100.039 11.4315C99.9819 11.4742 99.9392 11.517 99.8964 11.5626C99.8993 15.7964 99.7312 20.0302 99.5773 24.2641C99.4748 24.2897 99.375 24.3182 99.2896 24.3495ZM111.119 25.8339C111.031 25.3809 111.031 25.3809 111.156 25.2299C115.427 24.4179 119.809 20.7653 120.288 16.7651C118.319 17.9276 116.353 19.0929 114.401 20.2553C113.273 20.1072 112.572 19.7254 112.715 18.7652C113.193 18.7453 113.689 18.7282 114.185 18.7225C120.598 16.0642 120.598 16.0642 120.775 15.8505C120.795 15.5257 121.239 13.9672 121.376 13.859C121.496 11.9443 122.086 9.10089 121.128 7.50822C121.154 7.37431 121.177 7.25749 121.202 7.13783C122.707 7.078 123.157 7.50252 124.18 8.5795C123.909 10.7933 122.863 12.7734 122.721 15.0699C125.146 14.7849 126.428 11.9443 129.095 11.97C129.12 12.0726 129.149 12.1723 129.191 12.2891C128.659 12.6481 126.043 13.8818 122.724 15.8334C122.644 16.3206 122.271 16.7765 122.353 17.2865C124.832 19.5829 126.499 21.8993 130.263 22.8822C130.251 23.0589 130.24 23.2498 130.228 23.4407C129.203 23.4805 126.382 24.076 125.713 23.7199C124.211 21.6343 124.211 21.6343 122.154 18.1156C122.074 18.09 121.992 18.0786 121.909 18.0672C121.752 20.5858 117.242 24.1843 114.889 25.1872C113.447 25.5234 113.447 25.5234 111.119 25.8339Z" fill="#A4130E"/>
<path fill-rule="evenodd" clip-rule="evenodd" d="M64.2677 38.3759C63.9116 38.3759 63.7378 38.5383 63.7577 38.8603V39.9942C63.0967 40.2791 62.4556 40.4244 61.8516 40.4472C60.0909 40.4102 59.182 39.5668 59.1221 37.9314C59.2304 36.4356 60.1108 35.6236 61.7633 35.5011C62.2363 35.5382 62.6294 35.6151 62.9286 35.7148C63.1166 35.7518 63.2648 35.7689 63.3588 35.7689C63.4528 35.7689 63.5184 35.7376 63.5554 35.6835H63.7606V37.0567H63.4699C63.2449 36.2818 62.7434 35.8687 61.9627 35.8288C60.8487 35.9142 60.259 36.6123 60.202 37.9286C60.2817 39.2848 60.863 40.0142 61.9627 40.1139C62.2904 40.1139 62.5525 40.0541 62.7634 39.9287V38.8546C62.8232 38.5326 62.5155 38.3702 61.8545 38.3702V38.071H64.2677V38.3759ZM68.6981 35.9199C69.1141 35.8971 69.3164 36.1564 69.2936 36.7006V38.5554C69.2566 39.4928 68.7836 39.96 67.8747 39.96C67.0029 39.9372 66.5641 39.5241 66.5641 38.7036V36.4271C66.5641 36.1137 66.7379 35.9427 67.0798 35.9199H67.1881V35.6208H64.9173V35.9199H65.0569C65.4216 35.8971 65.5954 36.0652 65.5726 36.4271V38.7036C65.5954 39.8461 66.2991 40.4216 67.7038 40.4444C69.0514 40.4073 69.7267 39.7463 69.7495 38.4671V36.5496C69.7124 36.1279 69.9318 35.9199 70.4048 35.9199H70.4646V35.6208H68.587V35.9199H68.6981ZM71.2282 35.9199C71.6071 35.9199 71.7895 36.1108 71.7667 36.4869V39.5469C71.7667 39.923 71.5843 40.1053 71.2282 40.0825H71.1398V40.3817H73.4477V40.0825H73.3308C72.9291 40.1053 72.7411 39.9144 72.7639 39.5156V36.4869C72.7411 36.1108 72.932 35.9199 73.3308 35.9199H73.4477V35.6208H71.1398V35.9199H71.2282ZM78.9323 38.8574C78.7784 39.678 78.4964 40.0455 78.0804 39.9629H75.8324L79.0776 36.0453V35.6236H74.8637L74.8124 36.9114H75.0973C75.1344 36.3131 75.3737 36.0225 75.8039 36.0453H77.7698L74.5303 39.9629V40.3846H79.1289L79.2172 38.8574H78.9323ZM85.9583 40.3846V40.0854H85.8415C85.4426 40.1082 85.2517 39.9173 85.2745 39.5184V36.4584C85.2517 36.0966 85.434 35.9228 85.813 35.9228H85.9583V35.6236H83.622V35.9228H83.679C84.0778 35.9228 84.2744 36.1137 84.2744 36.4898V37.6864H81.8583V36.4584C81.8355 36.0966 82.0264 35.9228 82.4253 35.9228H82.5421V35.6236H80.2058V35.9228H80.3227C80.6788 35.9228 80.8611 36.0994 80.8611 36.4584V39.5184C80.8611 39.9173 80.6788 40.1082 80.3227 40.0854H80.2058V40.3846H82.5421V40.0854H82.4253C82.0264 40.1082 81.8355 39.9173 81.8583 39.5184V38.1394H84.2744V39.4899C84.2744 39.9116 84.0921 40.111 83.7359 40.0882H83.6191V40.3846H85.9583ZM86.9498 38.0767C87.058 39.5953 87.9384 40.3846 89.5909 40.4472C91.3004 40.3874 92.2178 39.5355 92.3489 37.9001C92.2406 36.3815 91.366 35.5695 89.7362 35.4698C87.9897 35.5894 87.058 36.4584 86.9498 38.0767ZM89.5624 35.7974C90.6024 35.8829 91.1779 36.6807 91.2719 38.1964C91.2149 39.4785 90.7135 40.1367 89.7647 40.1737C88.665 40.0882 88.0837 39.2677 88.0268 37.7121C88.0609 36.5183 88.5795 35.8829 89.5624 35.7974ZM97.0044 35.9199C97.4204 35.8971 97.6227 36.1564 97.5999 36.7006V38.5554C97.5628 39.4928 97.0899 39.96 96.181 39.96C95.3092 39.9372 94.8704 39.5241 94.8704 38.7036V36.4271C94.8704 36.1137 95.0442 35.9427 95.3861 35.9199H95.4944V35.6208H93.2236V35.9199H93.3604C93.7251 35.8971 93.8988 36.0652 93.8761 36.4271V38.7036C93.8988 39.8461 94.6026 40.4216 96.0072 40.4444C97.352 40.4073 98.0301 39.7463 98.0529 38.4671V36.5496C98.0159 36.1279 98.2352 35.9199 98.7082 35.9199H98.7652V35.6208H96.8876V35.9199H97.0044ZM105.019 35.9199C105.435 35.8971 105.637 36.1564 105.615 36.7006V38.5554C105.578 39.4928 105.105 39.96 104.196 39.96C103.324 39.9372 102.885 39.5241 102.885 38.7036V36.4271C102.885 36.1137 103.059 35.9427 103.401 35.9199H103.509V35.6208H101.238V35.9199H101.375C101.74 35.8971 101.913 36.0652 101.891 36.4271V38.7036C101.913 39.8461 102.617 40.4216 104.022 40.4444C105.367 40.4073 106.045 39.7463 106.068 38.4671V36.5496C106.031 36.1279 106.25 35.9199 106.723 35.9199H106.783V35.6208H104.905V35.9199H105.019ZM111.991 40.3846H112.384V36.3131C112.347 36.0538 112.544 35.9228 112.98 35.9228H113.068V35.6236H111.19V35.9228H111.279C111.789 35.8601 112.014 36.0823 111.962 36.5809V38.8888L108.971 35.6208H107.492V35.9199C107.717 35.9427 107.908 35.9883 108.059 36.0652V39.601C108.059 39.9458 107.877 40.1082 107.521 40.0825H107.461V40.3817H109.23V40.0825C108.7 40.1224 108.458 39.9144 108.518 39.4529V36.5781L111.991 40.3846ZM113.945 35.9199C114.324 35.9199 114.504 36.1108 114.484 36.4869V39.5469C114.484 39.923 114.302 40.1053 113.945 40.0825H113.857V40.3817H116.165V40.0825H116.048C115.649 40.1053 115.458 39.9144 115.481 39.5156V36.4869C115.458 36.1108 115.649 35.9199 116.048 35.9199H116.165V35.6208H113.857V35.9199H113.945ZM119.829 40.4444L121.336 36.7262C121.547 36.1507 121.832 35.8829 122.188 35.9199H122.217V35.6208H120.367V35.9199H120.541C120.94 35.9427 121.088 36.0795 120.991 36.3416L119.886 39.1566L118.752 36.5809C118.635 36.3416 118.615 36.1821 118.695 36.0966C118.769 35.9826 118.957 35.9199 119.262 35.9199H119.379V35.6208H116.846V35.9199H116.903C117.222 35.8573 117.478 36.0652 117.666 36.5496L119.376 40.4444H119.829ZM126.71 36.7262H126.992L126.903 35.6208H122.903V35.9199H122.983C123.419 35.8971 123.63 36.0795 123.61 36.4556V39.5469C123.61 39.923 123.422 40.1053 123.043 40.0825H122.758V40.3817H127.14L127.22 39.1851H126.935C126.826 39.7435 126.55 39.9971 126.111 39.96H124.889C124.664 39.9971 124.57 39.8745 124.604 39.5754V38.1964H125.681C126.154 38.1736 126.373 38.3588 126.336 38.732H126.621V37.2049H126.336C126.359 37.6038 126.177 37.7804 125.798 37.7405H124.604V36.0368H126.197C126.485 36.0054 126.65 36.2276 126.71 36.7262ZM130.317 38.3446C130.584 38.6266 130.841 38.9571 131.089 39.3332C131.257 39.5953 131.431 39.8005 131.599 39.9629C131.869 40.2848 132.399 40.4387 133.191 40.4159H133.642V40.1794C133.228 40.1566 132.901 39.9942 132.673 39.6951C132.505 39.5327 132.303 39.2876 132.077 38.9429C131.815 38.5668 131.596 38.299 131.422 38.1366C132.106 37.9371 132.471 37.5297 132.505 36.9086C132.505 36.5866 132.388 36.296 132.163 36.0424C131.844 35.6835 131.174 35.4983 130.149 35.4983C129.864 35.5211 129.465 35.5353 128.955 35.5609C128.781 35.5609 128.533 35.5837 128.214 35.6208H128.017V35.9199H128.154C128.57 35.9199 128.772 36.1108 128.75 36.4869V39.5156C128.772 39.9372 128.562 40.1224 128.123 40.0825H128.015V40.3817H130.539V40.0825H130.314C129.912 40.1053 129.724 39.9144 129.747 39.5156V38.3446H130.317ZM130.149 35.8288C130.986 35.8658 131.408 36.2419 131.422 36.9399C131.422 37.6978 130.958 38.0682 130.032 38.0454H129.747V35.8288H130.149ZM134.807 40.3532C134.83 40.2934 134.872 40.2535 134.952 40.2307C134.975 40.2307 135.055 40.262 135.206 40.3219C135.476 40.3589 135.801 40.4073 136.203 40.4444C137.172 40.4073 137.687 39.9458 137.767 39.0654C137.767 38.7292 137.622 38.3901 137.337 38.0454C137.089 37.8232 136.71 37.5696 136.203 37.2704C135.613 36.9485 135.323 36.6493 135.323 36.373C135.36 36.051 135.599 35.8658 136.029 35.8288C136.605 35.8658 136.998 36.2134 137.223 36.8488H137.508L137.371 35.6208H137.226C137.175 35.6607 137.152 35.6749 137.175 35.6521C137.115 35.692 137.081 35.7148 137.058 35.7148C137.021 35.7148 136.955 35.7062 136.861 35.6835C136.496 35.5609 136.192 35.4983 135.952 35.4983C135.021 35.5609 134.525 35.9826 134.476 36.7547C134.476 37.2989 134.898 37.8061 135.75 38.2876C136.457 38.6637 136.804 39.0227 136.804 39.3617C136.767 39.8461 136.491 40.0911 135.981 40.1139C135.377 40.1139 134.955 39.7292 134.73 38.9714H134.445L134.613 40.3504H134.807V40.3532ZM138.844 35.9199C139.223 35.9199 139.405 36.1108 139.383 36.4869V39.5469C139.383 39.923 139.2 40.1053 138.844 40.0825H138.756V40.3817H141.064V40.0825H140.947C140.545 40.1053 140.357 39.9144 140.38 39.5156V36.4869C140.357 36.1108 140.548 35.9199 140.947 35.9199H141.064V35.6208H138.756V35.9199H138.844ZM145.725 36.014C146.198 35.9142 146.46 36.2134 146.517 36.9114H146.802L146.694 35.4698H146.431C146.337 35.5923 146.229 35.6464 146.098 35.6236H142.625C142.531 35.6464 142.465 35.6322 142.428 35.5923C142.371 35.5695 142.32 35.5325 142.283 35.4698H142.058L141.913 36.9114H142.226C142.263 36.2134 142.525 35.9142 142.998 36.014H143.879V39.5184C143.879 39.9173 143.691 40.1082 143.312 40.0854H143.058V40.3846H145.671V40.0854H145.503C145.044 40.1253 144.842 39.9401 144.876 39.5184V36.014H145.725ZM152.061 36.4584C152.229 36.0966 152.506 35.9228 152.885 35.9228V35.6236H151.152V35.9228H151.241C151.452 35.9456 151.568 35.9912 151.605 36.0681C151.662 36.1678 151.634 36.3217 151.526 36.5211L150.674 37.9314L149.503 36.3131C149.409 36.2134 149.395 36.1222 149.452 36.0453C149.503 35.9855 149.625 35.9456 149.816 35.9228H149.933V35.6236H147.545V35.9228H147.605C147.89 35.9 148.101 36.0225 148.252 36.2818L149.816 38.4671V39.5469C149.816 39.923 149.634 40.1053 149.278 40.0825H149.081V40.3817H151.586V40.0825H151.469C151.01 40.1053 150.808 39.9144 150.842 39.5156V38.4642L152.061 36.4584Z" fill="#A4130E"/>
</svg>
